<?xml version="1.0" encoding="utf-8" standalone="no"?>
<!DOCTYPE svg PUBLIC "-//W3C//DTD SVG 1.1//EN"
  "http://www.w3.org/Graphics/SVG/1.1/DTD/svg11.dtd">
<!-- Created with matplotlib (https://matplotlib.org/) -->
<svg height="329.445pt" version="1.1" viewBox="0 0 617.4 329.445" width="617.4pt" xmlns="http://www.w3.org/2000/svg" xmlns:xlink="http://www.w3.org/1999/xlink">
 <metadata>
  <rdf:RDF xmlns:cc="http://creativecommons.org/ns#" xmlns:dc="http://purl.org/dc/elements/1.1/" xmlns:rdf="http://www.w3.org/1999/02/22-rdf-syntax-ns#">
   <cc:Work>
    <dc:type rdf:resource="http://purl.org/dc/dcmitype/StillImage"/>
    <dc:date>2020-10-23T18:05:33.772328</dc:date>
    <dc:format>image/svg+xml</dc:format>
    <dc:creator>
     <cc:Agent>
      <dc:title>Matplotlib v3.3.1, https://matplotlib.org/</dc:title>
     </cc:Agent>
    </dc:creator>
   </cc:Work>
  </rdf:RDF>
 </metadata>
 <defs>
  <style type="text/css">*{stroke-linecap:butt;stroke-linejoin:round;}</style>
 </defs>
 <g id="figure_1">
  <g id="patch_1">
   <path d="M 0 329.445 
L 617.4 329.445 
L 617.4 0 
L 0 0 
z
" style="fill:none;"/>
  </g>
  <g id="axes_1">
   <g id="patch_2">
    <path d="M 52.2 294.12 
L 610.2 294.12 
L 610.2 22.32 
L 52.2 22.32 
z
" style="fill:#ffffff;"/>
   </g>
   <g id="matplotlib.axis_1">
    <g id="xtick_1">
     <g id="line2d_1">
      <path clip-path="url(#pbe13b0529d)" d="M 52.2 294.12 
L 52.2 22.32 
" style="fill:none;stroke:#b0b0b0;stroke-linecap:square;stroke-width:0.8;"/>
     </g>
     <g id="line2d_2">
      <defs>
       <path d="M 0 0 
L 0 3.5 
" id="m202fe19804" style="stroke:#000000;stroke-width:0.8;"/>
      </defs>
      <g>
       <use style="stroke:#000000;stroke-width:0.8;" x="52.2" xlink:href="#m202fe19804" y="294.12"/>
      </g>
     </g>
     <g id="text_1">
      <!-- 1.5 -->
      <g transform="translate(44.7 307.995)scale(0.1 -0.1)">
       <defs>
        <path d="M 21.875 56.25 
Q 16.796875 51.171875 8.984375 46.484375 
L 8.984375 53.90625 
Q 18.75 60.546875 25 69.53125 
L 29.6875 69.53125 
L 29.6875 2.34375 
L 21.875 2.34375 
z
" id="SimHei-49"/>
        <path d="M 16.796875 1.953125 
L 7.8125 1.953125 
L 7.8125 10.546875 
L 16.796875 10.546875 
z
" id="SimHei-46"/>
        <path d="M 8.59375 20.703125 
Q 11.328125 10.15625 17.96875 8.984375 
Q 24.609375 7.8125 28.703125 10.34375 
Q 32.8125 12.890625 34.5625 16.984375 
Q 36.328125 21.09375 36.125 26.171875 
Q 35.9375 31.25 33.390625 34.765625 
Q 30.859375 38.28125 26.953125 39.453125 
Q 23.046875 40.625 18.15625 39.453125 
Q 13.28125 38.28125 10.15625 33.984375 
L 3.515625 34.765625 
Q 4.296875 37.109375 10.9375 68.359375 
L 41.796875 68.359375 
L 41.796875 61.328125 
L 16.796875 61.328125 
Q 14.84375 50.78125 12.890625 44.53125 
Q 18.75 47.265625 23.828125 47.0625 
Q 28.90625 46.875 33.59375 44.71875 
Q 38.28125 42.578125 40.421875 38.859375 
Q 42.578125 35.15625 43.546875 31.4375 
Q 44.53125 27.734375 44.328125 23.4375 
Q 44.140625 19.140625 42.578125 14.640625 
Q 41.015625 10.15625 37.890625 7.21875 
Q 34.765625 4.296875 30.265625 2.53125 
Q 25.78125 0.78125 19.921875 1.171875 
Q 14.0625 1.5625 8.78125 5.46875 
Q 3.515625 9.375 1.5625 18.75 
z
" id="SimHei-53"/>
       </defs>
       <use xlink:href="#SimHei-49"/>
       <use x="50" xlink:href="#SimHei-46"/>
       <use x="100" xlink:href="#SimHei-53"/>
      </g>
     </g>
    </g>
    <g id="xtick_2">
     <g id="line2d_3">
      <path clip-path="url(#pbe13b0529d)" d="M 155.533333 294.12 
L 155.533333 22.32 
" style="fill:none;stroke:#b0b0b0;stroke-linecap:square;stroke-width:0.8;"/>
     </g>
     <g id="line2d_4">
      <g>
       <use style="stroke:#000000;stroke-width:0.8;" x="155.533333" xlink:href="#m202fe19804" y="294.12"/>
      </g>
     </g>
     <g id="text_2">
      <!-- 2.0 -->
      <g transform="translate(148.033333 307.995)scale(0.1 -0.1)">
       <defs>
        <path d="M 4.6875 3.90625 
Q 5.078125 9.765625 10.15625 14.453125 
Q 15.234375 19.140625 23.046875 29.09375 
Q 30.859375 39.0625 33.203125 44.53125 
Q 35.546875 50 34.953125 53.90625 
Q 34.375 57.8125 31.25 60.34375 
Q 28.125 62.890625 24.015625 62.5 
Q 19.921875 62.109375 16.203125 59.375 
Q 12.5 56.640625 10.546875 51.171875 
L 3.125 52.34375 
Q 6.25 61.328125 11.125 65.421875 
Q 16.015625 69.53125 22.65625 69.921875 
Q 26.5625 70.3125 29.6875 69.71875 
Q 32.8125 69.140625 36.125 66.984375 
Q 39.453125 64.84375 41.59375 60.546875 
Q 43.75 56.25 43.15625 50.1875 
Q 42.578125 44.140625 37.109375 35.734375 
Q 31.640625 27.34375 16.015625 9.375 
L 44.140625 9.375 
L 44.140625 2.34375 
L 4.6875 2.34375 
z
" id="SimHei-50"/>
        <path d="M 3.125 29.296875 
Q 3.90625 50 6.4375 56.046875 
Q 8.984375 62.109375 13.671875 66.015625 
Q 18.359375 69.921875 25.1875 69.921875 
Q 32.03125 69.921875 37.109375 64.25 
Q 42.1875 58.59375 43.75 50 
Q 45.3125 41.40625 44.71875 30.265625 
Q 44.140625 19.140625 40.8125 12.109375 
Q 37.5 5.078125 30.859375 2.34375 
Q 24.21875 -0.390625 17.578125 2.921875 
Q 10.9375 6.25 8.203125 11.71875 
Q 5.46875 17.1875 4.296875 23.234375 
Q 3.125 29.296875 3.90625 50 
z
M 12.890625 52.734375 
Q 10.546875 31.25 12.5 22.84375 
Q 14.453125 14.453125 18.9375 10.9375 
Q 23.4375 7.421875 28.125 9.5625 
Q 32.8125 11.71875 34.953125 18.15625 
Q 37.109375 24.609375 37.109375 32.21875 
Q 37.109375 39.84375 36.515625 46.09375 
Q 35.9375 52.34375 33 57.421875 
Q 30.078125 62.5 25.1875 62.6875 
Q 20.3125 62.890625 16.59375 57.8125 
Q 12.890625 52.734375 10.546875 31.25 
z
" id="SimHei-48"/>
       </defs>
       <use xlink:href="#SimHei-50"/>
       <use x="50" xlink:href="#SimHei-46"/>
       <use x="100" xlink:href="#SimHei-48"/>
      </g>
     </g>
    </g>
    <g id="xtick_3">
     <g id="line2d_5">
      <path clip-path="url(#pbe13b0529d)" d="M 258.866667 294.12 
L 258.866667 22.32 
" style="fill:none;stroke:#b0b0b0;stroke-linecap:square;stroke-width:0.8;"/>
     </g>
     <g id="line2d_6">
      <g>
       <use style="stroke:#000000;stroke-width:0.8;" x="258.866667" xlink:href="#m202fe19804" y="294.12"/>
      </g>
     </g>
     <g id="text_3">
      <!-- 2.5 -->
      <g transform="translate(251.366667 307.995)scale(0.1 -0.1)">
       <use xlink:href="#SimHei-50"/>
       <use x="50" xlink:href="#SimHei-46"/>
       <use x="100" xlink:href="#SimHei-53"/>
      </g>
     </g>
    </g>
    <g id="xtick_4">
     <g id="line2d_7">
      <path clip-path="url(#pbe13b0529d)" d="M 362.2 294.12 
L 362.2 22.32 
" style="fill:none;stroke:#b0b0b0;stroke-linecap:square;stroke-width:0.8;"/>
     </g>
     <g id="line2d_8">
      <g>
       <use style="stroke:#000000;stroke-width:0.8;" x="362.2" xlink:href="#m202fe19804" y="294.12"/>
      </g>
     </g>
     <g id="text_4">
      <!-- 3.0 -->
      <g transform="translate(354.7 307.995)scale(0.1 -0.1)">
       <defs>
        <path d="M 3.90625 19.140625 
L 10.9375 20.3125 
Q 12.5 15.234375 16.015625 11.90625 
Q 19.53125 8.59375 24.796875 8.78125 
Q 30.078125 8.984375 33.203125 13.078125 
Q 36.328125 17.1875 35.9375 22.453125 
Q 35.546875 27.734375 31.828125 30.65625 
Q 28.125 33.59375 19.921875 34.765625 
L 19.921875 39.84375 
Q 28.125 40.625 31.828125 44.140625 
Q 35.546875 47.65625 35.15625 53.3125 
Q 34.765625 58.984375 30.078125 61.515625 
Q 25.390625 64.0625 20.109375 62.109375 
Q 14.84375 60.15625 11.71875 51.171875 
L 4.6875 52.34375 
Q 7.03125 59.375 11.125 64.0625 
Q 15.234375 68.75 22.265625 69.53125 
Q 29.296875 70.3125 34.5625 67.765625 
Q 39.84375 65.234375 41.984375 59.953125 
Q 44.140625 54.6875 42.578125 48.4375 
Q 41.015625 42.1875 33.59375 37.5 
Q 39.0625 35.15625 41.984375 30.46875 
Q 44.921875 25.78125 43.9375 18.15625 
Q 42.96875 10.546875 37.109375 5.859375 
Q 31.25 1.171875 23.828125 1.359375 
Q 16.40625 1.5625 10.9375 6.046875 
Q 5.46875 10.546875 3.90625 19.140625 
z
" id="SimHei-51"/>
       </defs>
       <use xlink:href="#SimHei-51"/>
       <use x="50" xlink:href="#SimHei-46"/>
       <use x="100" xlink:href="#SimHei-48"/>
      </g>
     </g>
    </g>
    <g id="xtick_5">
     <g id="line2d_9">
      <path clip-path="url(#pbe13b0529d)" d="M 465.533333 294.12 
L 465.533333 22.32 
" style="fill:none;stroke:#b0b0b0;stroke-linecap:square;stroke-width:0.8;"/>
     </g>
     <g id="line2d_10">
      <g>
       <use style="stroke:#000000;stroke-width:0.8;" x="465.533333" xlink:href="#m202fe19804" y="294.12"/>
      </g>
     </g>
     <g id="text_5">
      <!-- 3.5 -->
      <g transform="translate(458.033333 307.995)scale(0.1 -0.1)">
       <use xlink:href="#SimHei-51"/>
       <use x="50" xlink:href="#SimHei-46"/>
       <use x="100" xlink:href="#SimHei-53"/>
      </g>
     </g>
    </g>
    <g id="xtick_6">
     <g id="line2d_11">
      <path clip-path="url(#pbe13b0529d)" d="M 568.866667 294.12 
L 568.866667 22.32 
" style="fill:none;stroke:#b0b0b0;stroke-linecap:square;stroke-width:0.8;"/>
     </g>
     <g id="line2d_12">
      <g>
       <use style="stroke:#000000;stroke-width:0.8;" x="568.866667" xlink:href="#m202fe19804" y="294.12"/>
      </g>
     </g>
     <g id="text_6">
      <!-- 4.0 -->
      <g transform="translate(561.366667 307.995)scale(0.1 -0.1)">
       <defs>
        <path d="M 31.25 17.1875 
L 1.171875 17.1875 
L 1.171875 23.828125 
L 32.8125 69.53125 
L 38.671875 69.53125 
L 38.671875 23.828125 
L 48.046875 23.828125 
L 48.046875 17.1875 
L 38.671875 17.1875 
L 38.671875 2.34375 
L 31.25 2.34375 
z
M 31.25 23.828125 
L 31.25 54.6875 
L 9.375 23.828125 
z
" id="SimHei-52"/>
       </defs>
       <use xlink:href="#SimHei-52"/>
       <use x="50" xlink:href="#SimHei-46"/>
       <use x="100" xlink:href="#SimHei-48"/>
      </g>
     </g>
    </g>
    <g id="text_7">
     <!-- $h\nu(eV)$ -->
     <g transform="translate(314.8 320.845)scale(0.1 -0.1)">
      <defs>
       <path d="M 55.71875 33.015625 
L 49.3125 0 
L 40.28125 0 
L 46.6875 32.671875 
Q 47.125 34.96875 47.359375 36.71875 
Q 47.609375 38.484375 47.609375 39.5 
Q 47.609375 43.609375 45.015625 45.890625 
Q 42.4375 48.1875 37.796875 48.1875 
Q 30.5625 48.1875 25.265625 43.296875 
Q 19.96875 38.421875 18.40625 30.328125 
L 12.5 0 
L 3.515625 0 
L 18.3125 75.984375 
L 27.296875 75.984375 
L 21.484375 46.09375 
Q 24.90625 50.6875 30.21875 53.34375 
Q 35.546875 56 41.40625 56 
Q 48.640625 56 52.609375 52.09375 
Q 56.59375 48.1875 56.59375 41.109375 
Q 56.59375 39.359375 56.375 37.359375 
Q 56.15625 35.359375 55.71875 33.015625 
z
" id="DejaVuSans-Oblique-104"/>
       <path d="M 14.984375 0 
L 8.9375 54.6875 
L 18.609375 54.6875 
L 23.78125 8.796875 
Q 30.8125 14.84375 37.359375 23.25 
Q 42.28125 29.546875 43.5625 35.015625 
Q 44.140625 37.59375 43.890625 42.484375 
Q 43.65625 48.296875 39.75 54.6875 
L 48.828125 54.6875 
L 48.828125 54.6875 
Q 51.375 50.34375 52.390625 44.28125 
Q 53.375 38.71875 52.640625 34.90625 
Q 50.78125 25.34375 42.484375 16.796875 
Q 31.640625 5.671875 24.5625 0 
z
" id="DejaVuSans-Oblique-957"/>
       <path d="M 31 75.875 
Q 24.46875 64.65625 21.28125 53.65625 
Q 18.109375 42.671875 18.109375 31.390625 
Q 18.109375 20.125 21.3125 9.0625 
Q 24.515625 -2 31 -13.1875 
L 23.1875 -13.1875 
Q 15.875 -1.703125 12.234375 9.375 
Q 8.59375 20.453125 8.59375 31.390625 
Q 8.59375 42.28125 12.203125 53.3125 
Q 15.828125 64.359375 23.1875 75.875 
z
" id="DejaVuSans-40"/>
       <path d="M 48.09375 32.234375 
Q 48.25 33.015625 48.3125 33.84375 
Q 48.390625 34.671875 48.390625 35.5 
Q 48.390625 41.453125 44.890625 44.921875 
Q 41.40625 48.390625 35.40625 48.390625 
Q 28.71875 48.390625 23.578125 44.15625 
Q 18.453125 39.9375 15.828125 32.171875 
z
M 55.90625 25.203125 
L 14.109375 25.203125 
Q 13.8125 23.34375 13.71875 22.265625 
Q 13.625 21.1875 13.625 20.40625 
Q 13.625 13.625 17.796875 9.90625 
Q 21.96875 6.203125 29.59375 6.203125 
Q 35.453125 6.203125 40.671875 7.515625 
Q 45.90625 8.84375 50.390625 11.375 
L 48.6875 2.484375 
Q 43.84375 0.53125 38.6875 -0.4375 
Q 33.546875 -1.421875 28.21875 -1.421875 
Q 16.84375 -1.421875 10.71875 4.015625 
Q 4.59375 9.46875 4.59375 19.484375 
Q 4.59375 28.03125 7.640625 35.375 
Q 10.6875 42.71875 16.609375 48.484375 
Q 20.40625 52.09375 25.65625 54.046875 
Q 30.90625 56 36.8125 56 
Q 46.09375 56 51.578125 50.4375 
Q 57.078125 44.875 57.078125 35.5 
Q 57.078125 33.25 56.78125 30.6875 
Q 56.5 28.125 55.90625 25.203125 
z
" id="DejaVuSans-Oblique-101"/>
       <path d="M 20.609375 0 
L 7.8125 72.90625 
L 17.484375 72.90625 
L 28.078125 10.203125 
L 63.484375 72.90625 
L 74.21875 72.90625 
L 32.078125 0 
z
" id="DejaVuSans-Oblique-86"/>
       <path d="M 8.015625 75.875 
L 15.828125 75.875 
Q 23.140625 64.359375 26.78125 53.3125 
Q 30.421875 42.28125 30.421875 31.390625 
Q 30.421875 20.453125 26.78125 9.375 
Q 23.140625 -1.703125 15.828125 -13.1875 
L 8.015625 -13.1875 
Q 14.5 -2 17.703125 9.0625 
Q 20.90625 20.125 20.90625 31.390625 
Q 20.90625 42.671875 17.703125 53.65625 
Q 14.5 64.65625 8.015625 75.875 
z
" id="DejaVuSans-41"/>
      </defs>
      <use transform="translate(0 0.015625)" xlink:href="#DejaVuSans-Oblique-104"/>
      <use transform="translate(63.378906 0.015625)" xlink:href="#DejaVuSans-Oblique-957"/>
      <use transform="translate(119.238281 0.015625)" xlink:href="#DejaVuSans-40"/>
      <use transform="translate(158.251953 0.015625)" xlink:href="#DejaVuSans-Oblique-101"/>
      <use transform="translate(219.775391 0.015625)" xlink:href="#DejaVuSans-Oblique-86"/>
      <use transform="translate(288.183594 0.015625)" xlink:href="#DejaVuSans-41"/>
     </g>
    </g>
   </g>
   <g id="matplotlib.axis_2">
    <g id="ytick_1">
     <g id="line2d_13">
      <path clip-path="url(#pbe13b0529d)" d="M 52.2 294.12 
L 610.2 294.12 
" style="fill:none;stroke:#b0b0b0;stroke-linecap:square;stroke-width:0.8;"/>
     </g>
     <g id="line2d_14">
      <defs>
       <path d="M 0 0 
L -3.5 0 
" id="m4cc08e30a0" style="stroke:#000000;stroke-width:0.8;"/>
      </defs>
      <g>
       <use style="stroke:#000000;stroke-width:0.8;" x="52.2" xlink:href="#m4cc08e30a0" y="294.12"/>
      </g>
     </g>
     <g id="text_8">
      <!-- 0.000 -->
      <g transform="translate(20.2 297.5575)scale(0.1 -0.1)">
       <use xlink:href="#SimHei-48"/>
       <use x="50" xlink:href="#SimHei-46"/>
       <use x="100" xlink:href="#SimHei-48"/>
       <use x="150" xlink:href="#SimHei-48"/>
       <use x="200" xlink:href="#SimHei-48"/>
      </g>
     </g>
    </g>
    <g id="ytick_2">
     <g id="line2d_15">
      <path clip-path="url(#pbe13b0529d)" d="M 52.2 234.810019 
L 610.2 234.810019 
" style="fill:none;stroke:#b0b0b0;stroke-linecap:square;stroke-width:0.8;"/>
     </g>
     <g id="line2d_16">
      <g>
       <use style="stroke:#000000;stroke-width:0.8;" x="52.2" xlink:href="#m4cc08e30a0" y="234.810019"/>
      </g>
     </g>
     <g id="text_9">
      <!-- 0.002 -->
      <g transform="translate(20.2 238.247519)scale(0.1 -0.1)">
       <use xlink:href="#SimHei-48"/>
       <use x="50" xlink:href="#SimHei-46"/>
       <use x="100" xlink:href="#SimHei-48"/>
       <use x="150" xlink:href="#SimHei-48"/>
       <use x="200" xlink:href="#SimHei-50"/>
      </g>
     </g>
    </g>
    <g id="ytick_3">
     <g id="line2d_17">
      <path clip-path="url(#pbe13b0529d)" d="M 52.2 175.500038 
L 610.2 175.500038 
" style="fill:none;stroke:#b0b0b0;stroke-linecap:square;stroke-width:0.8;"/>
     </g>
     <g id="line2d_18">
      <g>
       <use style="stroke:#000000;stroke-width:0.8;" x="52.2" xlink:href="#m4cc08e30a0" y="175.500038"/>
      </g>
     </g>
     <g id="text_10">
      <!-- 0.004 -->
      <g transform="translate(20.2 178.937538)scale(0.1 -0.1)">
       <use xlink:href="#SimHei-48"/>
       <use x="50" xlink:href="#SimHei-46"/>
       <use x="100" xlink:href="#SimHei-48"/>
       <use x="150" xlink:href="#SimHei-48"/>
       <use x="200" xlink:href="#SimHei-52"/>
      </g>
     </g>
    </g>
    <g id="ytick_4">
     <g id="line2d_19">
      <path clip-path="url(#pbe13b0529d)" d="M 52.2 116.190057 
L 610.2 116.190057 
" style="fill:none;stroke:#b0b0b0;stroke-linecap:square;stroke-width:0.8;"/>
     </g>
     <g id="line2d_20">
      <g>
       <use style="stroke:#000000;stroke-width:0.8;" x="52.2" xlink:href="#m4cc08e30a0" y="116.190057"/>
      </g>
     </g>
     <g id="text_11">
      <!-- 0.006 -->
      <g transform="translate(20.2 119.627557)scale(0.1 -0.1)">
       <defs>
        <path d="M 3.515625 19.53125 
Q 4.296875 30.859375 6.046875 34.765625 
Q 7.8125 38.671875 11.328125 44.53125 
L 27.34375 69.53125 
L 36.328125 69.53125 
L 19.921875 43.75 
Q 30.46875 46.484375 36.71875 42.96875 
Q 42.96875 39.453125 45.109375 34.953125 
Q 47.265625 30.46875 47.453125 25.1875 
Q 47.65625 19.921875 45.890625 14.84375 
Q 44.140625 9.765625 39.640625 5.65625 
Q 35.15625 1.5625 27.140625 1.171875 
Q 19.140625 0.78125 13.46875 4.09375 
Q 7.8125 7.421875 5.65625 13.46875 
Q 3.515625 19.53125 4.296875 30.859375 
z
M 12.5 16.015625 
Q 19.53125 8.59375 25.390625 8.203125 
Q 31.25 7.8125 35.15625 12.109375 
Q 39.0625 16.40625 39.0625 24.609375 
Q 39.0625 32.8125 34.171875 35.9375 
Q 29.296875 39.0625 23.234375 38.28125 
Q 17.1875 37.5 14.453125 32.421875 
Q 11.71875 27.34375 12.109375 21.671875 
Q 12.5 16.015625 19.53125 8.59375 
z
" id="SimHei-54"/>
       </defs>
       <use xlink:href="#SimHei-48"/>
       <use x="50" xlink:href="#SimHei-46"/>
       <use x="100" xlink:href="#SimHei-48"/>
       <use x="150" xlink:href="#SimHei-48"/>
       <use x="200" xlink:href="#SimHei-54"/>
      </g>
     </g>
    </g>
    <g id="ytick_5">
     <g id="line2d_21">
      <path clip-path="url(#pbe13b0529d)" d="M 52.2 56.880076 
L 610.2 56.880076 
" style="fill:none;stroke:#b0b0b0;stroke-linecap:square;stroke-width:0.8;"/>
     </g>
     <g id="line2d_22">
      <g>
       <use style="stroke:#000000;stroke-width:0.8;" x="52.2" xlink:href="#m4cc08e30a0" y="56.880076"/>
      </g>
     </g>
     <g id="text_12">
      <!-- 0.008 -->
      <g transform="translate(20.2 60.317576)scale(0.1 -0.1)">
       <defs>
        <path d="M 2.734375 16.796875 
Q 2.734375 26.171875 5.078125 30.65625 
Q 7.421875 35.15625 12.890625 37.890625 
Q 8.203125 40.625 6.640625 43.9375 
Q 5.078125 47.265625 4.875 51.5625 
Q 4.6875 55.859375 6.046875 58.984375 
Q 7.421875 62.109375 10.15625 64.84375 
Q 12.890625 67.578125 16.203125 68.546875 
Q 19.53125 69.53125 23.4375 69.53125 
Q 27.34375 69.53125 30.46875 68.75 
Q 33.59375 67.96875 37.109375 65.421875 
Q 40.625 62.890625 42.1875 58.203125 
Q 43.75 53.515625 41.984375 47.265625 
Q 40.234375 41.015625 32.8125 37.5 
Q 39.453125 35.546875 42.1875 31.4375 
Q 44.921875 27.34375 44.921875 21.484375 
Q 44.921875 15.625 43.15625 12.109375 
Q 41.40625 8.59375 39.25 6.25 
Q 37.109375 3.90625 33.390625 2.53125 
Q 29.6875 1.171875 24.015625 1.171875 
Q 18.359375 1.171875 14.25 2.53125 
Q 10.15625 3.90625 7.421875 6.640625 
Q 4.6875 9.375 3.703125 13.078125 
Q 2.734375 16.796875 2.734375 26.171875 
z
M 10.9375 26.5625 
Q 10.546875 17.1875 12.296875 13.671875 
Q 14.0625 10.15625 18.75 9.171875 
Q 23.4375 8.203125 28.515625 9.375 
Q 33.59375 10.546875 35.546875 14.84375 
Q 37.5 19.140625 36.90625 23.4375 
Q 36.328125 27.734375 32.03125 30.65625 
Q 27.734375 33.59375 22.65625 33.203125 
Q 17.578125 32.8125 14.25 29.6875 
Q 10.9375 26.5625 10.546875 17.1875 
z
M 12.109375 56.25 
Q 12.109375 48.4375 14.84375 44.921875 
Q 17.578125 41.40625 23.4375 41.40625 
Q 29.296875 41.40625 32.21875 44.921875 
Q 35.15625 48.4375 34.953125 53.3125 
Q 34.765625 58.203125 31.4375 60.546875 
Q 28.125 62.890625 22.453125 62.5 
Q 16.796875 62.109375 14.453125 59.171875 
Q 12.109375 56.25 12.109375 48.4375 
z
" id="SimHei-56"/>
       </defs>
       <use xlink:href="#SimHei-48"/>
       <use x="50" xlink:href="#SimHei-46"/>
       <use x="100" xlink:href="#SimHei-48"/>
       <use x="150" xlink:href="#SimHei-48"/>
       <use x="200" xlink:href="#SimHei-56"/>
      </g>
     </g>
    </g>
    <g id="text_13">
     <!-- $\alpha h\nu(eV/m)$ -->
     <g transform="translate(14.8 184.47)rotate(-90)scale(0.1 -0.1)">
      <defs>
       <path d="M 40.921875 25.4375 
L 40.96875 36.71875 
Q 41.015625 48.25 32.328125 48.296875 
Q 25.828125 48.34375 21.78125 42.921875 
Q 16.703125 36.234375 14.984375 27.296875 
Q 12.890625 16.546875 15.53125 11.421875 
Q 18.265625 6.203125 24.171875 6.203125 
Q 30.71875 6.203125 36.234375 16.609375 
z
M 33.84375 55.90625 
Q 49.078125 56.15625 48.875 40.375 
Q 48.875 40.375 56.5 54.6875 
L 64.5 54.6875 
L 48.734375 25.046875 
L 48.578125 14.359375 
Q 48.578125 11.96875 49.90625 9.96875 
Q 51.421875 7.625 52.984375 7.625 
L 57.328125 7.625 
L 55.859375 0 
L 50.4375 0 
Q 45.84375 0 42.53125 4.109375 
Q 40.96875 6.15625 40.921875 10.453125 
Q 37.75 5.21875 32.28125 0.78125 
Q 29.6875 -1.265625 22.703125 -1.21875 
Q 11.28125 -1.125 7.125 6.203125 
Q 2.875 13.8125 5.515625 27.296875 
Q 8.34375 41.796875 15.765625 48.390625 
Q 24.125 55.765625 33.84375 55.90625 
z
" id="DejaVuSans-Oblique-945"/>
       <path d="M 25.390625 72.90625 
L 33.6875 72.90625 
L 8.296875 -9.28125 
L 0 -9.28125 
z
" id="DejaVuSans-47"/>
       <path d="M 89.796875 33.015625 
L 83.40625 0 
L 74.421875 0 
L 80.71875 32.71875 
Q 81.109375 34.8125 81.296875 36.328125 
Q 81.5 37.84375 81.5 38.921875 
Q 81.5 43.3125 79.046875 45.75 
Q 76.609375 48.1875 72.21875 48.1875 
Q 65.671875 48.1875 60.546875 43.28125 
Q 55.421875 38.375 53.90625 30.515625 
L 47.90625 0 
L 38.921875 0 
L 45.3125 32.71875 
Q 45.703125 34.515625 45.890625 36.046875 
Q 46.09375 37.59375 46.09375 38.8125 
Q 46.09375 43.265625 43.65625 45.71875 
Q 41.21875 48.1875 36.921875 48.1875 
Q 30.28125 48.1875 25.140625 43.28125 
Q 20.015625 38.375 18.5 30.515625 
L 12.5 0 
L 3.515625 0 
L 14.203125 54.6875 
L 23.1875 54.6875 
L 21.484375 46.1875 
Q 25.140625 50.984375 30.046875 53.484375 
Q 34.96875 56 40.578125 56 
Q 46.53125 56 50.359375 52.875 
Q 54.203125 49.75 54.984375 44.1875 
Q 59.078125 49.953125 64.46875 52.96875 
Q 69.875 56 75.875 56 
Q 82.90625 56 86.734375 51.953125 
Q 90.578125 47.90625 90.578125 40.484375 
Q 90.578125 38.875 90.375 36.9375 
Q 90.1875 35.015625 89.796875 33.015625 
z
" id="DejaVuSans-Oblique-109"/>
      </defs>
      <use transform="translate(0 0.015625)" xlink:href="#DejaVuSans-Oblique-945"/>
      <use transform="translate(65.917969 0.015625)" xlink:href="#DejaVuSans-Oblique-104"/>
      <use transform="translate(129.296875 0.015625)" xlink:href="#DejaVuSans-Oblique-957"/>
      <use transform="translate(185.15625 0.015625)" xlink:href="#DejaVuSans-40"/>
      <use transform="translate(224.169922 0.015625)" xlink:href="#DejaVuSans-Oblique-101"/>
      <use transform="translate(285.693359 0.015625)" xlink:href="#DejaVuSans-Oblique-86"/>
      <use transform="translate(354.101562 0.015625)" xlink:href="#DejaVuSans-47"/>
      <use transform="translate(387.792969 0.015625)" xlink:href="#DejaVuSans-Oblique-109"/>
      <use transform="translate(485.205078 0.015625)" xlink:href="#DejaVuSans-41"/>
     </g>
    </g>
   </g>
   <g id="line2d_23">
    <path clip-path="url(#pbe13b0529d)" d="M 62.492513 270.194801 
L 63.496564 270.208392 
L 63.698131 270.281905 
L 63.89995 270.089668 
L 64.30435 270.325504 
L 64.709767 270.206895 
L 64.912859 270.369135 
L 65.116207 270.176759 
L 65.523672 270.324181 
L 65.727791 270.220351 
L 66.136802 270.279056 
L 66.341695 270.175001 
L 66.752261 270.322715 
L 66.957934 270.218623 
L 67.370064 270.366407 
L 67.576521 270.173096 
L 67.990223 270.321105 
L 68.404978 270.201532 
L 68.612752 270.364828 
L 68.82079 270.171043 
L 69.237664 270.319349 
L 69.446501 270.214724 
L 69.864975 270.363104 
L 70.074613 270.16884 
L 70.494696 270.317447 
L 70.705141 270.12278 
L 70.915856 270.286911 
L 72.185847 270.28474 
L 72.398467 270.359215 
L 72.611361 270.163981 
L 73.037973 270.313197 
L 73.251693 270.207753 
L 73.679961 270.357048 
L 74.10934 270.236102 
L 74.324446 270.310847 
L 74.539832 270.114709 
L 74.971442 270.354731 
L 75.187667 270.067915 
L 75.620963 270.308344 
L 76.055388 270.18676 
L 76.273025 270.261777 
L 76.490946 270.155536 
L 76.927642 270.305689 
L 77.146418 270.108547 
L 77.58483 270.258933 
L 77.804466 270.152407 
L 78.244603 270.302878 
L 78.465105 270.105227 
L 78.685896 270.180597 
L 79.12835 270.05786 
L 80.016757 269.994413 
L 80.239591 270.161483 
L 80.46272 269.962565 
L 80.909861 270.113978 
L 81.133876 269.914633 
L 81.358187 270.082203 
L 84.073262 269.889772 
L 84.301482 270.058236 
L 84.530007 269.857401 
L 84.987973 270.009952 
L 85.217416 269.808681 
L 85.677225 270.05396 
L 85.907592 269.852586 
L 88.228373 269.782038 
L 88.462176 269.85883 
L 88.696295 269.65569 
L 89.165484 269.809552 
L 89.400556 269.605965 
L 89.871655 269.760074 
L 90.107685 269.556039 
L 90.580707 269.710393 
L 90.817701 269.505908 
L 91.292657 269.66051 
L 91.53062 269.361233 
L 92.007522 269.610422 
L 92.246462 269.405031 
L 92.725322 269.560129 
L 93.205493 269.431971 
L 93.446073 269.509629 
L 93.686982 269.303323 
L 93.928223 269.475847 
L 94.169794 269.458921 
L 94.411698 269.252155 
L 94.896504 269.408003 
L 95.139408 269.200775 
L 95.626221 269.261709 
L 95.870131 269.149182 
L 96.358964 269.305535 
L 96.603887 269.001666 
L 96.849149 269.175694 
L 100.820028 268.896402 
L 101.071163 268.685048 
L 101.574488 268.843337 
L 101.826681 268.631501 
L 102.332129 268.790048 
L 102.585387 268.577728 
L 103.092972 268.736534 
L 103.347301 268.523727 
L 103.857036 268.682793 
L 104.112444 268.371617 
L 104.368212 268.549177 
L 104.624342 268.531093 
L 104.880835 268.316949 
L 105.394912 268.476687 
L 105.652497 268.262049 
L 106.168764 268.422049 
L 106.427449 268.206915 
L 106.945922 268.367178 
L 107.205712 268.052682 
L 107.726405 268.312072 
L 107.987309 268.095938 
L 108.510236 268.25673 
L 108.772261 267.940805 
L 109.297436 268.20115 
L 109.560588 267.884506 
L 110.088026 268.14533 
L 110.352313 267.827964 
L 110.882029 267.989704 
L 111.147459 267.771177 
L 111.679467 267.933186 
L 111.946046 267.714145 
L 112.480361 267.876423 
L 112.748098 267.656866 
L 113.284736 267.819413 
L 113.553638 267.498606 
L 114.092613 267.762155 
L 114.362687 267.440607 
L 114.633154 267.623117 
L 114.904015 267.603847 
L 115.175269 267.281035 
L 115.718965 267.646887 
L 115.991408 267.222306 
L 116.537487 267.689967 
L 116.811126 267.16332 
L 117.359605 267.530607 
L 117.634447 267.206063 
L 118.185341 267.472083 
L 118.461395 267.044568 
L 118.737855 267.126963 
L 119.014721 267.413301 
L 119.291994 266.984799 
L 119.847767 267.354259 
L 120.126269 266.821948 
L 120.684505 267.294955 
L 120.964243 266.76142 
L 121.524959 267.235388 
L 121.805941 266.700623 
L 122.369154 267.175556 
L 122.651388 266.639556 
L 123.217115 267.012408 
L 123.50061 266.681951 
L 124.068868 266.848379 
L 124.638821 266.703938 
L 125.496949 266.642421 
L 125.783847 266.413295 
L 126.071176 266.913175 
L 126.647127 266.246192 
L 126.935751 266.851899 
L 127.514301 266.07818 
L 127.804229 266.790345 
L 128.385396 266.120162 
L 128.676637 266.728514 
L 129.260438 266.056718 
L 129.553001 266.56164 
L 130.139455 266.098684 
L 130.433349 266.604007 
L 131.022474 266.24631 
L 131.317707 266.436089 
L 131.613389 266.309578 
L 131.909521 266.393984 
L 132.206104 266.161458 
L 132.800625 266.330586 
L 133.098566 266.203513 
L 133.695814 266.266898 
L 140.38805 265.898468 
L 141.007798 265.962245 
L 148.276086 265.558572 
L 148.598113 265.645352 
L 149.243702 265.490515 
L 149.567266 265.577447 
L 149.891345 265.444963 
L 150.541052 265.509218 
L 150.866683 265.376362 
L 151.519505 265.440662 
L 156.14832 265.11634 
L 156.482959 265.204282 
L 157.153863 265.045885 
L 157.49013 265.133985 
L 158.164302 264.975088 
L 158.50221 265.063344 
L 159.179675 264.903945 
L 161.568265 264.736586 
L 161.911728 264.599507 
L 162.600345 264.664273 
L 163.637517 264.591602 
L 164.331812 264.42929 
L 165.377556 264.355737 
L 165.727289 264.445181 
L 166.428494 264.281819 
L 166.779967 264.371424 
L 167.484664 264.207534 
L 168.191704 264.157804 
L 168.901099 263.992843 
L 169.612861 263.94259 
L 169.969633 264.032753 
L 170.684967 263.866894 
L 171.043532 263.841577 
L 171.762465 263.674811 
L 172.122836 263.765373 
L 172.845395 263.598058 
L 173.207586 263.572388 
L 173.570387 263.430008 
L 173.9338 263.520917 
L 174.297825 263.495117 
L 175.02772 263.326325 
L 176.863291 263.195733 
L 177.601886 263.025255 
L 178.714498 262.945797 
L 179.086633 262.800713 
L 179.459403 262.892598 
L 180.206855 262.601421 
L 180.956867 262.785655 
L 182.086713 262.466148 
L 183.602257 262.35709 
L 183.982776 262.209519 
L 184.363952 262.30228 
L 184.745786 262.154405 
L 186.664892 262.015786 
L 187.050712 261.866714 
L 188.989904 261.726115 
L 189.379773 261.575829 
L 191.339369 261.433216 
L 191.733351 261.2817 
L 192.128025 261.375821 
L 192.523392 261.347047 
L 192.919455 261.195055 
L 194.910265 261.049627 
L 195.31054 260.896381 
L 198.538397 260.659703 
L 198.945116 260.504694 
L 199.35256 260.600006 
L 199.760732 260.570077 
L 200.169634 260.414572 
L 200.579267 260.384424 
L 200.989633 260.47997 
L 201.400735 260.323966 
L 201.812574 260.293656 
L 202.225153 260.389378 
L 202.638473 260.232872 
L 203.467345 260.171869 
L 203.882901 260.267826 
L 205.971964 260.114649 
L 206.392047 259.956618 
L 206.812892 259.925645 
L 207.234501 260.022075 
L 207.656876 259.991105 
L 208.080018 259.832388 
L 208.503931 259.928996 
L 208.928616 259.769933 
L 209.354075 259.73862 
L 209.78031 259.835407 
L 210.207324 259.675823 
L 210.635119 259.644339 
L 211.063696 259.741305 
L 211.493059 259.581196 
L 212.354147 259.517822 
L 212.785877 259.356875 
L 213.218401 259.454216 
L 213.651721 259.422324 
L 214.085838 259.260844 
L 214.956476 259.455873 
L 215.393001 259.164281 
L 215.830333 259.261984 
L 216.268474 259.229738 
L 216.707426 259.067182 
L 217.147192 259.034696 
L 217.587774 259.132641 
L 218.029174 258.969542 
L 218.471394 258.936874 
L 218.914437 259.035001 
L 219.358306 258.871356 
L 222.939231 258.606826 
L 223.390629 258.441198 
L 223.842876 258.540072 
L 224.295974 258.506601 
L 224.749925 258.340411 
L 225.204732 258.306688 
L 225.660396 258.405808 
L 226.116922 258.239052 
L 228.412543 258.068839 
L 228.874283 257.900612 
L 229.336901 257.866183 
L 229.8004 257.965934 
L 230.264781 257.797128 
L 231.196202 257.72781 
L 231.663248 257.558091 
L 232.131186 257.523137 
L 232.600019 257.623335 
L 233.069751 257.317477 
L 233.540384 257.417873 
L 234.01192 257.38265 
L 234.484361 257.211418 
L 234.957712 257.175929 
L 235.431973 257.276575 
L 235.907149 257.104746 
L 236.38324 257.069051 
L 236.860251 257.169886 
L 237.338184 256.86052 
L 239.741767 256.679648 
L 240.225287 256.505322 
L 241.195151 256.43207 
L 241.681501 256.256783 
L 242.657051 256.182832 
L 243.146256 256.006577 
L 243.636419 256.108591 
L 244.619628 255.754688 
L 245.112679 255.856966 
L 245.6067 255.81938 
L 246.101691 255.641516 
L 247.094601 255.565696 
L 247.592525 255.386843 
L 248.591324 255.310295 
L 249.092206 255.130444 
L 250.096948 255.053161 
L 250.600814 254.872304 
L 251.611551 254.794276 
L 252.118428 254.612404 
L 253.135215 254.533626 
L 253.64513 254.350731 
L 254.156064 254.311001 
L 254.66802 254.414866 
L 255.181001 254.087266 
L 256.21005 254.006959 
L 256.726125 253.821992 
L 257.243236 253.781492 
L 257.761389 253.885894 
L 258.280584 253.554894 
L 258.800827 253.514001 
L 259.322119 253.618672 
L 259.844465 253.285953 
L 260.892328 253.203293 
L 261.417852 253.015151 
L 261.944442 252.973463 
L 262.472102 253.078673 
L 263.000834 252.742472 
L 263.530641 252.700379 
L 264.061528 252.80586 
L 264.593497 252.467898 
L 265.126551 252.425396 
L 265.660695 252.531147 
L 266.195931 252.191409 
L 266.732262 252.297367 
L 267.269693 252.254516 
L 267.808226 251.912989 
L 268.347865 252.019218 
L 268.888613 251.975949 
L 269.430473 251.632617 
L 269.97345 251.739118 
L 271.062766 251.651645 
L 271.609112 251.306092 
L 272.705197 251.519755 
L 273.254943 251.02133 
L 274.357861 251.235539 
L 274.91104 250.886927 
L 275.46537 250.994232 
L 276.020854 250.94931 
L 276.577498 250.598835 
L 277.694274 250.813978 
L 278.254414 250.462262 
L 278.815728 250.570035 
L 279.378218 250.524385 
L 279.941889 250.324829 
L 280.506744 250.278826 
L 281.072787 250.38686 
L 281.640021 250.031992 
L 282.208451 250.140234 
L 282.77808 250.093842 
L 283.348913 249.892326 
L 283.920952 250.000764 
L 284.494201 249.954077 
L 285.068665 249.751772 
L 289.124248 249.420312 
L 289.708569 249.215463 
L 290.294139 249.324698 
L 290.880964 249.276737 
L 291.469046 249.071076 
L 292.058391 249.180507 
L 292.649001 248.9743 
L 293.240882 248.925756 
L 293.834037 249.035385 
L 295.024186 248.62063 
L 295.621188 248.730533 
L 296.219481 248.522253 
L 296.819069 248.472905 
L 297.419957 248.583005 
L 298.625646 248.164066 
L 299.230457 248.27444 
L 300.444031 247.852956 
L 301.052803 248.124454 
L 302.274339 247.701261 
L 302.887112 247.812106 
L 304.116689 247.386328 
L 304.733502 247.65961 
L 305.351671 247.446213 
L 305.971199 247.069059 
L 306.592093 247.506107 
L 307.214355 247.1287 
L 307.837991 246.913261 
L 308.463006 247.188347 
L 309.089403 246.808822 
L 309.717187 246.592055 
L 310.346364 246.868216 
L 310.976937 246.651293 
L 311.608911 246.268446 
L 312.242292 246.710535 
L 313.513289 245.942411 
L 314.150915 246.3864 
L 315.430448 245.613924 
L 316.072363 246.059827 
L 316.715718 245.672357 
L 317.360516 245.115049 
L 318.006764 245.563486 
L 318.654466 245.341111 
L 319.303626 244.949492 
L 319.95425 245.062725 
L 320.606343 245.007355 
L 321.25991 244.613494 
L 321.914955 244.896241 
L 323.229501 244.104503 
L 323.889013 244.38872 
L 324.550023 244.161655 
L 325.212537 243.76251 
L 325.876561 243.876642 
L 327.209155 243.4179 
L 327.877737 243.532305 
L 329.219496 243.070644 
L 329.892684 243.012101 
L 330.567417 242.779726 
L 331.243701 242.720714 
L 331.921542 242.487189 
L 332.600945 242.427704 
L 333.281915 242.193021 
L 333.964457 242.133059 
L 334.648578 241.897209 
L 336.021576 241.776182 
L 336.710464 241.538812 
L 337.400953 241.477742 
L 338.093047 241.239187 
L 339.482075 241.115921 
L 340.17902 240.875819 
L 340.877594 240.813618 
L 341.577801 240.572311 
L 342.983142 240.446759 
L 343.688287 240.20388 
L 345.103553 240.077018 
L 345.813687 239.83255 
L 347.954161 239.640042 
L 349.389597 239.146282 
L 350.10987 239.08107 
L 350.831853 238.832491 
L 352.280976 238.700854 
L 353.008129 238.450632 
L 353.737017 238.568589 
L 354.467647 238.502219 
L 355.200024 238.250861 
L 355.934156 238.553751 
L 356.670048 238.302155 
L 357.407707 237.863852 
L 358.14714 238.167978 
L 359.63135 237.660516 
L 360.37614 237.965498 
L 361.871125 237.455705 
L 362.621332 237.761547 
L 364.127209 237.249403 
L 364.882892 237.36836 
L 365.640414 237.299319 
L 366.399781 237.041594 
L 367.161 237.160732 
L 367.924078 237.091184 
L 368.689022 236.83226 
L 369.455839 236.951579 
L 370.224535 236.691848 
L 372.541968 236.479936 
L 373.318251 236.026798 
L 374.096449 236.146636 
L 374.876568 235.883358 
L 376.442599 235.739208 
L 378.016402 235.208072 
L 378.806236 235.134889 
L 379.598035 234.867428 
L 380.391806 234.793639 
L 383.586759 233.712137 
L 384.390501 233.636438 
L 386.813862 232.813401 
L 387.625718 232.33749 
L 388.439622 232.25958 
L 389.255581 231.78042 
L 391.715868 230.936963 
L 392.540127 230.450265 
L 394.194937 229.879313 
L 395.025503 229.386612 
L 396.693002 228.807934 
L 397.529949 228.309129 
L 398.36904 228.016416 
L 399.210282 227.513152 
L 400.899255 226.920876 
L 402.596933 225.898979 
L 403.449058 225.810952 
L 405.159923 224.776217 
L 406.018679 224.686394 
L 406.879663 223.947171 
L 409.476068 223.017875 
L 410.34605 222.48586 
L 411.218303 222.392343 
L 412.092837 221.856537 
L 412.96966 221.540042 
L 413.848781 221.444918 
L 414.73021 220.903356 
L 415.613956 220.807145 
L 416.500027 220.486393 
L 417.388432 220.389379 
L 418.279182 219.841125 
L 419.172286 220.194582 
L 420.96559 219.545977 
L 421.865809 219.673966 
L 422.76842 219.347905 
L 425.490694 219.048817 
L 426.402964 218.719764 
L 427.317674 218.848092 
L 429.154451 218.186382 
L 430.076537 218.084458 
L 431.001102 217.751056 
L 431.928156 217.183969 
L 432.857709 217.312958 
L 433.789771 216.976314 
L 434.724352 216.404168 
L 435.661462 216.299004 
L 436.601111 215.486556 
L 437.543311 214.905701 
L 438.488071 214.798073 
L 439.435402 213.97365 
L 440.385314 212.901538 
L 441.337817 212.548542 
L 443.250643 210.858535 
L 444.210987 210.498037 
L 445.173965 209.142315 
L 446.139588 208.274185 
L 447.107868 207.146008 
L 448.078816 206.262385 
L 449.052442 205.114308 
L 450.028757 203.694445 
L 451.007773 203.046239 
L 452.973953 200.138596 
L 453.961139 199.469779 
L 455.943761 196.473368 
L 456.939219 195.782957 
L 457.937458 193.966432 
L 458.93849 192.408494 
L 459.942325 191.406737 
L 461.958455 188.204593 
L 462.970774 187.46429 
L 465.003978 184.158031 
L 466.024887 183.086385 
L 468.075383 179.662207 
L 469.104993 178.86824 
L 471.173002 175.327573 
L 472.211425 174.177905 
L 473.252811 171.687531 
L 474.297172 169.828742 
L 475.344521 175.6253 
L 477.448236 172.655135 
L 478.504627 170.133104 
L 479.564058 168.250172 
L 480.626542 166.687581 
L 481.692093 164.754641 
L 482.760723 163.150017 
L 484.907276 159.149742 
L 485.985225 157.476119 
L 487.066308 155.027255 
L 488.150539 152.918132 
L 489.23793 151.165392 
L 490.328497 148.599724 
L 492.51921 144.141461 
L 493.619384 141.440796 
L 495.829441 136.743008 
L 496.939352 133.894139 
L 499.169011 128.932941 
L 500.288787 125.920597 
L 501.411882 123.318512 
L 502.538309 121.150948 
L 503.668083 117.96829 
L 504.801221 115.718232 
L 505.937735 112.923362 
L 507.077642 108.5031 
L 508.220957 105.564413 
L 509.367695 103.11309 
L 510.517871 100.063481 
L 517.492012 84.722319 
L 522.212207 75.766346 
L 524.593924 71.086781 
L 530.612339 62.370263 
L 533.04571 58.748145 
L 534.268037 57.647332 
L 535.494149 55.793639 
L 545.441411 46.621481 
L 546.702386 46.232943 
L 547.967327 45.04919 
L 549.236252 44.656953 
L 550.50918 43.462686 
L 551.78613 43.066703 
L 553.067121 41.861787 
L 555.641302 41.060967 
L 556.934531 39.842693 
L 559.533366 39.031601 
L 560.83901 37.799754 
L 563.462853 36.978215 
L 564.781092 35.732576 
L 567.430306 34.90041 
L 568.761323 33.640757 
L 570.09664 34.062867 
L 571.436279 32.797782 
L 575.481334 31.523039 
L 576.838469 30.240841 
L 583.691002 28.074346 
L 585.075033 26.768988 
L 590.656987 24.998451 
L 592.064047 23.672239 
L 596.313367 22.32 
L 596.313367 22.32 
" style="fill:none;stroke:#1f77b4;stroke-linecap:square;stroke-width:1.5;"/>
   </g>
   <g id="line2d_24">
    <path clip-path="url(#pbe13b0529d)" d="M 349.521572 330.445 
L 355.311111 322.384481 
L 362.2 312.793385 
L 369.088889 303.202289 
L 375.977778 293.611194 
L 382.866667 284.020098 
L 389.755556 274.429002 
L 396.644444 264.837906 
L 403.533333 255.24681 
L 410.422222 245.655715 
L 417.311111 236.064619 
L 424.2 226.473523 
L 431.088889 216.882427 
L 437.977778 207.291331 
L 444.866667 197.700235 
L 451.755556 188.10914 
L 458.644444 178.518044 
L 465.533333 168.926948 
L 472.422222 159.335852 
L 479.311111 149.744756 
L 486.2 140.153661 
L 493.088889 130.562565 
L 499.977778 120.971469 
L 506.866667 111.380373 
L 513.755556 101.789277 
L 520.644444 92.198181 
L 527.533333 82.607086 
L 534.422222 73.01599 
L 541.311111 63.424894 
L 548.2 53.833798 
L 555.088889 44.242702 
L 561.977778 34.651607 
L 568.866667 25.060511 
L 575.755556 15.469415 
L 582.644444 5.878319 
L 587.584858 -1 
" style="fill:none;stroke:#ff7f0e;stroke-linecap:square;stroke-width:1.5;"/>
   </g>
   <g id="line2d_25">
    <path clip-path="url(#pbe13b0529d)" d="M -1 294.12 
L 618.4 294.12 
L 618.4 294.12 
" style="fill:none;stroke:#000000;stroke-linecap:square;stroke-width:1.5;"/>
   </g>
   <g id="patch_3">
    <path d="M 52.2 294.12 
L 52.2 22.32 
" style="fill:none;stroke:#000000;stroke-linecap:square;stroke-linejoin:miter;stroke-width:0.8;"/>
   </g>
   <g id="patch_4">
    <path d="M 610.2 294.12 
L 610.2 22.32 
" style="fill:none;stroke:#000000;stroke-linecap:square;stroke-linejoin:miter;stroke-width:0.8;"/>
   </g>
   <g id="patch_5">
    <path d="M 52.2 294.12 
L 610.2 294.12 
" style="fill:none;stroke:#000000;stroke-linecap:square;stroke-linejoin:miter;stroke-width:0.8;"/>
   </g>
   <g id="patch_6">
    <path d="M 52.2 22.32 
L 610.2 22.32 
" style="fill:none;stroke:#000000;stroke-linecap:square;stroke-linejoin:miter;stroke-width:0.8;"/>
   </g>
   <g id="text_14">
    <!-- $E_g=3.06eV$ -->
    <g transform="translate(375.612323 264.46501)scale(0.15 -0.15)">
     <defs>
      <path d="M 16.890625 72.90625 
L 62.984375 72.90625 
L 61.375 64.59375 
L 25.09375 64.59375 
L 20.90625 43.015625 
L 55.71875 43.015625 
L 54.109375 34.71875 
L 19.28125 34.71875 
L 14.203125 8.296875 
L 51.3125 8.296875 
L 49.703125 0 
L 2.6875 0 
z
" id="DejaVuSans-Oblique-69"/>
      <path d="M 59.625 54.6875 
L 50.296875 6.78125 
Q 47.609375 -7.125 40.015625 -13.953125 
Q 32.421875 -20.796875 19.578125 -20.796875 
Q 14.84375 -20.796875 10.78125 -20.09375 
Q 6.734375 -19.390625 3.21875 -17.921875 
L 4.890625 -9.1875 
Q 8.203125 -11.328125 11.90625 -12.34375 
Q 15.625 -13.375 19.828125 -13.375 
Q 28.375 -13.375 33.859375 -8.703125 
Q 39.359375 -4.046875 41.109375 4.6875 
L 41.890625 8.796875 
Q 38.140625 4.5 33.15625 2.25 
Q 28.171875 0 22.40625 0 
Q 14.109375 0 9.34375 5.484375 
Q 4.59375 10.984375 4.59375 20.609375 
Q 4.59375 28.171875 7.46875 35.421875 
Q 10.359375 42.671875 15.578125 48.296875 
Q 19.046875 52 23.65625 54 
Q 28.265625 56 33.296875 56 
Q 38.8125 56 42.90625 53.4375 
Q 47.015625 50.875 49.03125 46.1875 
L 50.59375 54.6875 
z
M 46.09375 34.625 
Q 46.09375 41.265625 42.96875 44.875 
Q 39.84375 48.484375 34.078125 48.484375 
Q 30.515625 48.484375 27.296875 47.0625 
Q 24.078125 45.65625 21.78125 43.109375 
Q 18.0625 38.921875 15.984375 33.234375 
Q 13.921875 27.546875 13.921875 21.484375 
Q 13.921875 14.75 17.0625 11.125 
Q 20.21875 7.515625 26.125 7.515625 
Q 34.671875 7.515625 40.375 15.25 
Q 46.09375 23 46.09375 34.625 
z
" id="DejaVuSans-Oblique-103"/>
      <path d="M 10.59375 45.40625 
L 73.1875 45.40625 
L 73.1875 37.203125 
L 10.59375 37.203125 
z
M 10.59375 25.484375 
L 73.1875 25.484375 
L 73.1875 17.1875 
L 10.59375 17.1875 
z
" id="DejaVuSans-61"/>
      <path d="M 40.578125 39.3125 
Q 47.65625 37.796875 51.625 33 
Q 55.609375 28.21875 55.609375 21.1875 
Q 55.609375 10.40625 48.1875 4.484375 
Q 40.765625 -1.421875 27.09375 -1.421875 
Q 22.515625 -1.421875 17.65625 -0.515625 
Q 12.796875 0.390625 7.625 2.203125 
L 7.625 11.71875 
Q 11.71875 9.328125 16.59375 8.109375 
Q 21.484375 6.890625 26.8125 6.890625 
Q 36.078125 6.890625 40.9375 10.546875 
Q 45.796875 14.203125 45.796875 21.1875 
Q 45.796875 27.640625 41.28125 31.265625 
Q 36.765625 34.90625 28.71875 34.90625 
L 20.21875 34.90625 
L 20.21875 43.015625 
L 29.109375 43.015625 
Q 36.375 43.015625 40.234375 45.921875 
Q 44.09375 48.828125 44.09375 54.296875 
Q 44.09375 59.90625 40.109375 62.90625 
Q 36.140625 65.921875 28.71875 65.921875 
Q 24.65625 65.921875 20.015625 65.03125 
Q 15.375 64.15625 9.8125 62.3125 
L 9.8125 71.09375 
Q 15.4375 72.65625 20.34375 73.4375 
Q 25.25 74.21875 29.59375 74.21875 
Q 40.828125 74.21875 47.359375 69.109375 
Q 53.90625 64.015625 53.90625 55.328125 
Q 53.90625 49.265625 50.4375 45.09375 
Q 46.96875 40.921875 40.578125 39.3125 
z
" id="DejaVuSans-51"/>
      <path d="M 10.6875 12.40625 
L 21 12.40625 
L 21 0 
L 10.6875 0 
z
" id="DejaVuSans-46"/>
      <path d="M 31.78125 66.40625 
Q 24.171875 66.40625 20.328125 58.90625 
Q 16.5 51.421875 16.5 36.375 
Q 16.5 21.390625 20.328125 13.890625 
Q 24.171875 6.390625 31.78125 6.390625 
Q 39.453125 6.390625 43.28125 13.890625 
Q 47.125 21.390625 47.125 36.375 
Q 47.125 51.421875 43.28125 58.90625 
Q 39.453125 66.40625 31.78125 66.40625 
z
M 31.78125 74.21875 
Q 44.046875 74.21875 50.515625 64.515625 
Q 56.984375 54.828125 56.984375 36.375 
Q 56.984375 17.96875 50.515625 8.265625 
Q 44.046875 -1.421875 31.78125 -1.421875 
Q 19.53125 -1.421875 13.0625 8.265625 
Q 6.59375 17.96875 6.59375 36.375 
Q 6.59375 54.828125 13.0625 64.515625 
Q 19.53125 74.21875 31.78125 74.21875 
z
" id="DejaVuSans-48"/>
      <path d="M 33.015625 40.375 
Q 26.375 40.375 22.484375 35.828125 
Q 18.609375 31.296875 18.609375 23.390625 
Q 18.609375 15.53125 22.484375 10.953125 
Q 26.375 6.390625 33.015625 6.390625 
Q 39.65625 6.390625 43.53125 10.953125 
Q 47.40625 15.53125 47.40625 23.390625 
Q 47.40625 31.296875 43.53125 35.828125 
Q 39.65625 40.375 33.015625 40.375 
z
M 52.59375 71.296875 
L 52.59375 62.3125 
Q 48.875 64.0625 45.09375 64.984375 
Q 41.3125 65.921875 37.59375 65.921875 
Q 27.828125 65.921875 22.671875 59.328125 
Q 17.53125 52.734375 16.796875 39.40625 
Q 19.671875 43.65625 24.015625 45.921875 
Q 28.375 48.1875 33.59375 48.1875 
Q 44.578125 48.1875 50.953125 41.515625 
Q 57.328125 34.859375 57.328125 23.390625 
Q 57.328125 12.15625 50.6875 5.359375 
Q 44.046875 -1.421875 33.015625 -1.421875 
Q 20.359375 -1.421875 13.671875 8.265625 
Q 6.984375 17.96875 6.984375 36.375 
Q 6.984375 53.65625 15.1875 63.9375 
Q 23.390625 74.21875 37.203125 74.21875 
Q 40.921875 74.21875 44.703125 73.484375 
Q 48.484375 72.75 52.59375 71.296875 
z
" id="DejaVuSans-54"/>
     </defs>
     <use transform="translate(0 0.78125)" xlink:href="#DejaVuSans-Oblique-69"/>
     <use transform="translate(63.183594 -15.625)scale(0.7)" xlink:href="#DejaVuSans-Oblique-103"/>
     <use transform="translate(129.833984 0.78125)" xlink:href="#DejaVuSans-61"/>
     <use transform="translate(233.105469 0.78125)" xlink:href="#DejaVuSans-51"/>
     <use transform="translate(296.728516 0.78125)" xlink:href="#DejaVuSans-46"/>
     <use transform="translate(328.515625 0.78125)" xlink:href="#DejaVuSans-48"/>
     <use transform="translate(392.138672 0.78125)" xlink:href="#DejaVuSans-54"/>
     <use transform="translate(455.761719 0.78125)" xlink:href="#DejaVuSans-Oblique-101"/>
     <use transform="translate(517.285156 0.78125)" xlink:href="#DejaVuSans-Oblique-86"/>
    </g>
   </g>
   <g id="text_15">
    <!-- $TiO_2\ \ \ d=780.80nm$ -->
    <g transform="translate(270.78 16.32)scale(0.12 -0.12)">
     <defs>
      <path d="M 5.90625 72.90625 
L 67.578125 72.90625 
L 66.015625 64.59375 
L 39.984375 64.59375 
L 27.484375 0 
L 17.578125 0 
L 30.078125 64.59375 
L 4.296875 64.59375 
z
" id="DejaVuSans-Oblique-84"/>
      <path d="M 18.3125 75.984375 
L 27.296875 75.984375 
L 25.09375 64.59375 
L 16.109375 64.59375 
z
M 14.203125 54.6875 
L 23.1875 54.6875 
L 12.5 0 
L 3.515625 0 
z
" id="DejaVuSans-Oblique-105"/>
      <path d="M 45.609375 66.21875 
Q 37.5 66.21875 31.296875 62.28125 
Q 25.09375 58.34375 20.515625 50.296875 
Q 17.578125 45.171875 16.03125 39.40625 
Q 14.5 33.640625 14.5 27.78125 
Q 14.5 17.625 19.359375 12.109375 
Q 24.21875 6.59375 33.109375 6.59375 
Q 41.109375 6.59375 47.375 10.5625 
Q 53.65625 14.546875 58.109375 22.40625 
Q 61.078125 27.6875 62.640625 33.46875 
Q 64.203125 39.265625 64.203125 45.015625 
Q 64.203125 55.125 59.3125 60.671875 
Q 54.4375 66.21875 45.609375 66.21875 
z
M 32.8125 -1.421875 
Q 19.390625 -1.421875 11.6875 6.53125 
Q 4 14.5 4 28.328125 
Q 4 36.234375 7 44.484375 
Q 10.015625 52.734375 15.28125 59.1875 
Q 21.484375 66.75 29.09375 70.484375 
Q 36.71875 74.21875 45.90625 74.21875 
Q 59.28125 74.21875 66.984375 66.328125 
Q 74.703125 58.453125 74.703125 44.828125 
Q 74.703125 36.421875 71.765625 28.3125 
Q 68.84375 20.21875 63.375 13.625 
Q 57.125 6 49.578125 2.28125 
Q 42.046875 -1.421875 32.8125 -1.421875 
z
" id="DejaVuSans-Oblique-79"/>
      <path d="M 19.1875 8.296875 
L 53.609375 8.296875 
L 53.609375 0 
L 7.328125 0 
L 7.328125 8.296875 
Q 12.9375 14.109375 22.625 23.890625 
Q 32.328125 33.6875 34.8125 36.53125 
Q 39.546875 41.84375 41.421875 45.53125 
Q 43.3125 49.21875 43.3125 52.78125 
Q 43.3125 58.59375 39.234375 62.25 
Q 35.15625 65.921875 28.609375 65.921875 
Q 23.96875 65.921875 18.8125 64.3125 
Q 13.671875 62.703125 7.8125 59.421875 
L 7.8125 69.390625 
Q 13.765625 71.78125 18.9375 73 
Q 24.125 74.21875 28.421875 74.21875 
Q 39.75 74.21875 46.484375 68.546875 
Q 53.21875 62.890625 53.21875 53.421875 
Q 53.21875 48.921875 51.53125 44.890625 
Q 49.859375 40.875 45.40625 35.40625 
Q 44.1875 33.984375 37.640625 27.21875 
Q 31.109375 20.453125 19.1875 8.296875 
z
" id="DejaVuSans-50"/>
      <path d="M 41.796875 8.203125 
Q 38.1875 3.46875 33.25 1.015625 
Q 28.328125 -1.421875 22.3125 -1.421875 
Q 14.109375 -1.421875 9.34375 4.171875 
Q 4.59375 9.765625 4.59375 19.484375 
Q 4.59375 27.59375 7.46875 34.9375 
Q 10.359375 42.28125 15.828125 48.09375 
Q 19.4375 51.953125 23.96875 53.96875 
Q 28.515625 56 33.5 56 
Q 38.765625 56 42.796875 53.453125 
Q 46.828125 50.921875 49.03125 46.1875 
L 54.890625 75.984375 
L 63.921875 75.984375 
L 49.125 0 
L 40.09375 0 
z
M 13.921875 21.09375 
Q 13.921875 14.015625 17.109375 10.0625 
Q 20.3125 6.109375 25.984375 6.109375 
Q 30.171875 6.109375 33.765625 8.125 
Q 37.359375 10.15625 40.09375 14.109375 
Q 42.96875 18.21875 44.625 23.578125 
Q 46.296875 28.953125 46.296875 34.1875 
Q 46.296875 40.96875 43.09375 44.765625 
Q 39.890625 48.578125 34.28125 48.578125 
Q 30.03125 48.578125 26.359375 46.578125 
Q 22.703125 44.578125 20.125 40.828125 
Q 17.28125 36.765625 15.59375 31.390625 
Q 13.921875 26.03125 13.921875 21.09375 
z
" id="DejaVuSans-Oblique-100"/>
      <path d="M 8.203125 72.90625 
L 55.078125 72.90625 
L 55.078125 68.703125 
L 28.609375 0 
L 18.3125 0 
L 43.21875 64.59375 
L 8.203125 64.59375 
z
" id="DejaVuSans-55"/>
      <path d="M 31.78125 34.625 
Q 24.75 34.625 20.71875 30.859375 
Q 16.703125 27.09375 16.703125 20.515625 
Q 16.703125 13.921875 20.71875 10.15625 
Q 24.75 6.390625 31.78125 6.390625 
Q 38.8125 6.390625 42.859375 10.171875 
Q 46.921875 13.96875 46.921875 20.515625 
Q 46.921875 27.09375 42.890625 30.859375 
Q 38.875 34.625 31.78125 34.625 
z
M 21.921875 38.8125 
Q 15.578125 40.375 12.03125 44.71875 
Q 8.5 49.078125 8.5 55.328125 
Q 8.5 64.0625 14.71875 69.140625 
Q 20.953125 74.21875 31.78125 74.21875 
Q 42.671875 74.21875 48.875 69.140625 
Q 55.078125 64.0625 55.078125 55.328125 
Q 55.078125 49.078125 51.53125 44.71875 
Q 48 40.375 41.703125 38.8125 
Q 48.828125 37.15625 52.796875 32.3125 
Q 56.78125 27.484375 56.78125 20.515625 
Q 56.78125 9.90625 50.3125 4.234375 
Q 43.84375 -1.421875 31.78125 -1.421875 
Q 19.734375 -1.421875 13.25 4.234375 
Q 6.78125 9.90625 6.78125 20.515625 
Q 6.78125 27.484375 10.78125 32.3125 
Q 14.796875 37.15625 21.921875 38.8125 
z
M 18.3125 54.390625 
Q 18.3125 48.734375 21.84375 45.5625 
Q 25.390625 42.390625 31.78125 42.390625 
Q 38.140625 42.390625 41.71875 45.5625 
Q 45.3125 48.734375 45.3125 54.390625 
Q 45.3125 60.0625 41.71875 63.234375 
Q 38.140625 66.40625 31.78125 66.40625 
Q 25.390625 66.40625 21.84375 63.234375 
Q 18.3125 60.0625 18.3125 54.390625 
z
" id="DejaVuSans-56"/>
      <path d="M 55.71875 33.015625 
L 49.3125 0 
L 40.28125 0 
L 46.6875 32.671875 
Q 47.125 34.96875 47.359375 36.71875 
Q 47.609375 38.484375 47.609375 39.5 
Q 47.609375 43.609375 45.015625 45.890625 
Q 42.4375 48.1875 37.796875 48.1875 
Q 30.5625 48.1875 25.34375 43.375 
Q 20.125 38.578125 18.5 30.328125 
L 12.5 0 
L 3.515625 0 
L 14.109375 54.6875 
L 23.09375 54.6875 
L 21.296875 46.09375 
Q 25.046875 50.828125 30.3125 53.40625 
Q 35.59375 56 41.40625 56 
Q 48.640625 56 52.609375 52.09375 
Q 56.59375 48.1875 56.59375 41.109375 
Q 56.59375 39.359375 56.375 37.359375 
Q 56.15625 35.359375 55.71875 33.015625 
z
" id="DejaVuSans-Oblique-110"/>
     </defs>
     <use transform="translate(0 0.015625)" xlink:href="#DejaVuSans-Oblique-84"/>
     <use transform="translate(61.083984 0.015625)" xlink:href="#DejaVuSans-Oblique-105"/>
     <use transform="translate(88.867188 0.015625)" xlink:href="#DejaVuSans-Oblique-79"/>
     <use transform="translate(167.578125 -16.390625)scale(0.7)" xlink:href="#DejaVuSans-50"/>
     <use transform="translate(312.259768 0.015625)" xlink:href="#DejaVuSans-Oblique-100"/>
     <use transform="translate(395.218752 0.015625)" xlink:href="#DejaVuSans-61"/>
     <use transform="translate(498.490237 0.015625)" xlink:href="#DejaVuSans-55"/>
     <use transform="translate(562.113284 0.015625)" xlink:href="#DejaVuSans-56"/>
     <use transform="translate(625.736331 0.015625)" xlink:href="#DejaVuSans-48"/>
     <use transform="translate(689.359377 0.015625)" xlink:href="#DejaVuSans-46"/>
     <use transform="translate(718.521487 0.015625)" xlink:href="#DejaVuSans-56"/>
     <use transform="translate(782.144534 0.015625)" xlink:href="#DejaVuSans-48"/>
     <use transform="translate(845.767581 0.015625)" xlink:href="#DejaVuSans-Oblique-110"/>
     <use transform="translate(909.146487 0.015625)" xlink:href="#DejaVuSans-Oblique-109"/>
    </g>
   </g>
  </g>
 </g>
 <defs>
  <clipPath id="pbe13b0529d">
   <rect height="271.8" width="558" x="52.2" y="22.32"/>
  </clipPath>
 </defs>
</svg>
