<?xml version="1.0" encoding="utf-8" standalone="no"?>
<!DOCTYPE svg PUBLIC "-//W3C//DTD SVG 1.1//EN"
  "http://www.w3.org/Graphics/SVG/1.1/DTD/svg11.dtd">
<!-- Created with matplotlib (https://matplotlib.org/) -->
<svg height="314.925pt" version="1.1" viewBox="0 0 608 314.925" width="608pt" xmlns="http://www.w3.org/2000/svg" xmlns:xlink="http://www.w3.org/1999/xlink">
 <metadata>
  <rdf:RDF xmlns:cc="http://creativecommons.org/ns#" xmlns:dc="http://purl.org/dc/elements/1.1/" xmlns:rdf="http://www.w3.org/1999/02/22-rdf-syntax-ns#">
   <cc:Work>
    <dc:type rdf:resource="http://purl.org/dc/dcmitype/StillImage"/>
    <dc:date>2020-10-23T18:05:33.275494</dc:date>
    <dc:format>image/svg+xml</dc:format>
    <dc:creator>
     <cc:Agent>
      <dc:title>Matplotlib v3.3.1, https://matplotlib.org/</dc:title>
     </cc:Agent>
    </dc:creator>
   </cc:Work>
  </rdf:RDF>
 </metadata>
 <defs>
  <style type="text/css">*{stroke-linecap:butt;stroke-linejoin:round;}</style>
 </defs>
 <g id="figure_1">
  <g id="patch_1">
   <path d="M 0 314.925 
L 608 314.925 
L 608 0 
L 0 0 
z
" style="fill:none;"/>
  </g>
  <g id="axes_1">
   <g id="patch_2">
    <path d="M 42.8 279 
L 600.8 279 
L 600.8 7.2 
L 42.8 7.2 
z
" style="fill:#ffffff;"/>
   </g>
   <g id="matplotlib.axis_1">
    <g id="xtick_1">
     <g id="line2d_1">
      <defs>
       <path d="M 0 0 
L 0 3.5 
" id="m9ae6602744" style="stroke:#000000;stroke-width:0.8;"/>
      </defs>
      <g>
       <use style="stroke:#000000;stroke-width:0.8;" x="68.163636" xlink:href="#m9ae6602744" y="279"/>
      </g>
     </g>
     <g id="text_1">
      <!-- 300 -->
      <g transform="translate(60.663636 292.875)scale(0.1 -0.1)">
       <defs>
        <path d="M 3.90625 19.140625 
L 10.9375 20.3125 
Q 12.5 15.234375 16.015625 11.90625 
Q 19.53125 8.59375 24.796875 8.78125 
Q 30.078125 8.984375 33.203125 13.078125 
Q 36.328125 17.1875 35.9375 22.453125 
Q 35.546875 27.734375 31.828125 30.65625 
Q 28.125 33.59375 19.921875 34.765625 
L 19.921875 39.84375 
Q 28.125 40.625 31.828125 44.140625 
Q 35.546875 47.65625 35.15625 53.3125 
Q 34.765625 58.984375 30.078125 61.515625 
Q 25.390625 64.0625 20.109375 62.109375 
Q 14.84375 60.15625 11.71875 51.171875 
L 4.6875 52.34375 
Q 7.03125 59.375 11.125 64.0625 
Q 15.234375 68.75 22.265625 69.53125 
Q 29.296875 70.3125 34.5625 67.765625 
Q 39.84375 65.234375 41.984375 59.953125 
Q 44.140625 54.6875 42.578125 48.4375 
Q 41.015625 42.1875 33.59375 37.5 
Q 39.0625 35.15625 41.984375 30.46875 
Q 44.921875 25.78125 43.9375 18.15625 
Q 42.96875 10.546875 37.109375 5.859375 
Q 31.25 1.171875 23.828125 1.359375 
Q 16.40625 1.5625 10.9375 6.046875 
Q 5.46875 10.546875 3.90625 19.140625 
z
" id="SimHei-51"/>
        <path d="M 3.125 29.296875 
Q 3.90625 50 6.4375 56.046875 
Q 8.984375 62.109375 13.671875 66.015625 
Q 18.359375 69.921875 25.1875 69.921875 
Q 32.03125 69.921875 37.109375 64.25 
Q 42.1875 58.59375 43.75 50 
Q 45.3125 41.40625 44.71875 30.265625 
Q 44.140625 19.140625 40.8125 12.109375 
Q 37.5 5.078125 30.859375 2.34375 
Q 24.21875 -0.390625 17.578125 2.921875 
Q 10.9375 6.25 8.203125 11.71875 
Q 5.46875 17.1875 4.296875 23.234375 
Q 3.125 29.296875 3.90625 50 
z
M 12.890625 52.734375 
Q 10.546875 31.25 12.5 22.84375 
Q 14.453125 14.453125 18.9375 10.9375 
Q 23.4375 7.421875 28.125 9.5625 
Q 32.8125 11.71875 34.953125 18.15625 
Q 37.109375 24.609375 37.109375 32.21875 
Q 37.109375 39.84375 36.515625 46.09375 
Q 35.9375 52.34375 33 57.421875 
Q 30.078125 62.5 25.1875 62.6875 
Q 20.3125 62.890625 16.59375 57.8125 
Q 12.890625 52.734375 10.546875 31.25 
z
" id="SimHei-48"/>
       </defs>
       <use xlink:href="#SimHei-51"/>
       <use x="50" xlink:href="#SimHei-48"/>
       <use x="100" xlink:href="#SimHei-48"/>
      </g>
     </g>
    </g>
    <g id="xtick_2">
     <g id="line2d_2">
      <g>
       <use style="stroke:#000000;stroke-width:0.8;" x="169.618182" xlink:href="#m9ae6602744" y="279"/>
      </g>
     </g>
     <g id="text_2">
      <!-- 400 -->
      <g transform="translate(162.118182 292.875)scale(0.1 -0.1)">
       <defs>
        <path d="M 31.25 17.1875 
L 1.171875 17.1875 
L 1.171875 23.828125 
L 32.8125 69.53125 
L 38.671875 69.53125 
L 38.671875 23.828125 
L 48.046875 23.828125 
L 48.046875 17.1875 
L 38.671875 17.1875 
L 38.671875 2.34375 
L 31.25 2.34375 
z
M 31.25 23.828125 
L 31.25 54.6875 
L 9.375 23.828125 
z
" id="SimHei-52"/>
       </defs>
       <use xlink:href="#SimHei-52"/>
       <use x="50" xlink:href="#SimHei-48"/>
       <use x="100" xlink:href="#SimHei-48"/>
      </g>
     </g>
    </g>
    <g id="xtick_3">
     <g id="line2d_3">
      <g>
       <use style="stroke:#000000;stroke-width:0.8;" x="271.072727" xlink:href="#m9ae6602744" y="279"/>
      </g>
     </g>
     <g id="text_3">
      <!-- 500 -->
      <g transform="translate(263.572727 292.875)scale(0.1 -0.1)">
       <defs>
        <path d="M 8.59375 20.703125 
Q 11.328125 10.15625 17.96875 8.984375 
Q 24.609375 7.8125 28.703125 10.34375 
Q 32.8125 12.890625 34.5625 16.984375 
Q 36.328125 21.09375 36.125 26.171875 
Q 35.9375 31.25 33.390625 34.765625 
Q 30.859375 38.28125 26.953125 39.453125 
Q 23.046875 40.625 18.15625 39.453125 
Q 13.28125 38.28125 10.15625 33.984375 
L 3.515625 34.765625 
Q 4.296875 37.109375 10.9375 68.359375 
L 41.796875 68.359375 
L 41.796875 61.328125 
L 16.796875 61.328125 
Q 14.84375 50.78125 12.890625 44.53125 
Q 18.75 47.265625 23.828125 47.0625 
Q 28.90625 46.875 33.59375 44.71875 
Q 38.28125 42.578125 40.421875 38.859375 
Q 42.578125 35.15625 43.546875 31.4375 
Q 44.53125 27.734375 44.328125 23.4375 
Q 44.140625 19.140625 42.578125 14.640625 
Q 41.015625 10.15625 37.890625 7.21875 
Q 34.765625 4.296875 30.265625 2.53125 
Q 25.78125 0.78125 19.921875 1.171875 
Q 14.0625 1.5625 8.78125 5.46875 
Q 3.515625 9.375 1.5625 18.75 
z
" id="SimHei-53"/>
       </defs>
       <use xlink:href="#SimHei-53"/>
       <use x="50" xlink:href="#SimHei-48"/>
       <use x="100" xlink:href="#SimHei-48"/>
      </g>
     </g>
    </g>
    <g id="xtick_4">
     <g id="line2d_4">
      <g>
       <use style="stroke:#000000;stroke-width:0.8;" x="372.527273" xlink:href="#m9ae6602744" y="279"/>
      </g>
     </g>
     <g id="text_4">
      <!-- 600 -->
      <g transform="translate(365.027273 292.875)scale(0.1 -0.1)">
       <defs>
        <path d="M 3.515625 19.53125 
Q 4.296875 30.859375 6.046875 34.765625 
Q 7.8125 38.671875 11.328125 44.53125 
L 27.34375 69.53125 
L 36.328125 69.53125 
L 19.921875 43.75 
Q 30.46875 46.484375 36.71875 42.96875 
Q 42.96875 39.453125 45.109375 34.953125 
Q 47.265625 30.46875 47.453125 25.1875 
Q 47.65625 19.921875 45.890625 14.84375 
Q 44.140625 9.765625 39.640625 5.65625 
Q 35.15625 1.5625 27.140625 1.171875 
Q 19.140625 0.78125 13.46875 4.09375 
Q 7.8125 7.421875 5.65625 13.46875 
Q 3.515625 19.53125 4.296875 30.859375 
z
M 12.5 16.015625 
Q 19.53125 8.59375 25.390625 8.203125 
Q 31.25 7.8125 35.15625 12.109375 
Q 39.0625 16.40625 39.0625 24.609375 
Q 39.0625 32.8125 34.171875 35.9375 
Q 29.296875 39.0625 23.234375 38.28125 
Q 17.1875 37.5 14.453125 32.421875 
Q 11.71875 27.34375 12.109375 21.671875 
Q 12.5 16.015625 19.53125 8.59375 
z
" id="SimHei-54"/>
       </defs>
       <use xlink:href="#SimHei-54"/>
       <use x="50" xlink:href="#SimHei-48"/>
       <use x="100" xlink:href="#SimHei-48"/>
      </g>
     </g>
    </g>
    <g id="xtick_5">
     <g id="line2d_5">
      <g>
       <use style="stroke:#000000;stroke-width:0.8;" x="473.981818" xlink:href="#m9ae6602744" y="279"/>
      </g>
     </g>
     <g id="text_5">
      <!-- 700 -->
      <g transform="translate(466.481818 292.875)scale(0.1 -0.1)">
       <defs>
        <path d="M 13.28125 2.34375 
Q 20.3125 32.03125 37.890625 61.328125 
L 4.296875 61.328125 
L 4.296875 68.359375 
L 46.09375 68.359375 
L 46.09375 61.71875 
Q 27.734375 32.03125 21.875 2.34375 
L 13.28125 2.34375 
z
" id="SimHei-55"/>
       </defs>
       <use xlink:href="#SimHei-55"/>
       <use x="50" xlink:href="#SimHei-48"/>
       <use x="100" xlink:href="#SimHei-48"/>
      </g>
     </g>
    </g>
    <g id="xtick_6">
     <g id="line2d_6">
      <g>
       <use style="stroke:#000000;stroke-width:0.8;" x="575.436364" xlink:href="#m9ae6602744" y="279"/>
      </g>
     </g>
     <g id="text_6">
      <!-- 800 -->
      <g transform="translate(567.936364 292.875)scale(0.1 -0.1)">
       <defs>
        <path d="M 2.734375 16.796875 
Q 2.734375 26.171875 5.078125 30.65625 
Q 7.421875 35.15625 12.890625 37.890625 
Q 8.203125 40.625 6.640625 43.9375 
Q 5.078125 47.265625 4.875 51.5625 
Q 4.6875 55.859375 6.046875 58.984375 
Q 7.421875 62.109375 10.15625 64.84375 
Q 12.890625 67.578125 16.203125 68.546875 
Q 19.53125 69.53125 23.4375 69.53125 
Q 27.34375 69.53125 30.46875 68.75 
Q 33.59375 67.96875 37.109375 65.421875 
Q 40.625 62.890625 42.1875 58.203125 
Q 43.75 53.515625 41.984375 47.265625 
Q 40.234375 41.015625 32.8125 37.5 
Q 39.453125 35.546875 42.1875 31.4375 
Q 44.921875 27.34375 44.921875 21.484375 
Q 44.921875 15.625 43.15625 12.109375 
Q 41.40625 8.59375 39.25 6.25 
Q 37.109375 3.90625 33.390625 2.53125 
Q 29.6875 1.171875 24.015625 1.171875 
Q 18.359375 1.171875 14.25 2.53125 
Q 10.15625 3.90625 7.421875 6.640625 
Q 4.6875 9.375 3.703125 13.078125 
Q 2.734375 16.796875 2.734375 26.171875 
z
M 10.9375 26.5625 
Q 10.546875 17.1875 12.296875 13.671875 
Q 14.0625 10.15625 18.75 9.171875 
Q 23.4375 8.203125 28.515625 9.375 
Q 33.59375 10.546875 35.546875 14.84375 
Q 37.5 19.140625 36.90625 23.4375 
Q 36.328125 27.734375 32.03125 30.65625 
Q 27.734375 33.59375 22.65625 33.203125 
Q 17.578125 32.8125 14.25 29.6875 
Q 10.9375 26.5625 10.546875 17.1875 
z
M 12.109375 56.25 
Q 12.109375 48.4375 14.84375 44.921875 
Q 17.578125 41.40625 23.4375 41.40625 
Q 29.296875 41.40625 32.21875 44.921875 
Q 35.15625 48.4375 34.953125 53.3125 
Q 34.765625 58.203125 31.4375 60.546875 
Q 28.125 62.890625 22.453125 62.5 
Q 16.796875 62.109375 14.453125 59.171875 
Q 12.109375 56.25 12.109375 48.4375 
z
" id="SimHei-56"/>
       </defs>
       <use xlink:href="#SimHei-56"/>
       <use x="50" xlink:href="#SimHei-48"/>
       <use x="100" xlink:href="#SimHei-48"/>
      </g>
     </g>
    </g>
    <g id="text_7">
     <!-- 光波长 $\lambda(nm)$ -->
     <g transform="translate(289.4 306.325)scale(0.1 -0.1)">
      <defs>
       <path d="M 94.53125 35.9375 
Q 90.234375 36.328125 80.46875 36.328125 
L 63.28125 36.328125 
L 63.28125 6.25 
Q 63.28125 0.78125 69.140625 0.78125 
L 77.734375 0.78125 
Q 82.8125 0.78125 83.984375 3.3125 
Q 85.15625 5.859375 85.9375 13.28125 
Q 89.84375 9.765625 95.3125 8.203125 
Q 93.75 2.734375 91.203125 -1.5625 
Q 88.671875 -5.859375 83.203125 -5.859375 
L 64.0625 -5.859375 
Q 55.46875 -5.859375 55.46875 2.734375 
L 55.46875 36.328125 
L 43.359375 36.328125 
Q 44.140625 1.953125 8.984375 -8.984375 
Q 6.25 -4.296875 3.515625 -0.78125 
Q 19.140625 2.34375 27.140625 10.734375 
Q 35.15625 19.140625 35.546875 36.328125 
L 22.65625 36.328125 
Q 9.765625 36.328125 5.859375 35.9375 
L 5.859375 43.359375 
Q 9.765625 42.96875 22.265625 42.96875 
L 46.09375 42.96875 
L 46.09375 67.1875 
Q 46.09375 74.21875 45.703125 80.46875 
L 55.078125 80.46875 
Q 54.296875 76.5625 54.296875 67.1875 
L 54.296875 42.96875 
L 80.46875 42.96875 
Q 89.453125 42.96875 94.53125 43.359375 
z
M 64.0625 51.953125 
Q 73.4375 63.28125 76.171875 71.484375 
Q 81.25 68.359375 85.546875 66.796875 
Q 82.8125 64.0625 79.296875 58.78125 
Q 75.78125 53.515625 71.484375 47.65625 
Q 67.1875 50 64.0625 51.953125 
z
M 27.734375 46.875 
Q 25 52.734375 16.015625 64.84375 
Q 19.921875 67.1875 24.21875 69.53125 
Q 28.125 64.0625 30.65625 60.15625 
Q 33.203125 56.25 35.9375 51.5625 
Q 31.640625 49.609375 27.734375 46.875 
z
" id="SimHei-20809"/>
       <path d="M 79.296875 51.171875 
Q 80.859375 56.25 81.640625 60.15625 
L 67.578125 60.15625 
L 67.578125 42.96875 
L 86.71875 42.96875 
Q 84.375 32.8125 80.078125 23.625 
Q 75.78125 14.453125 70.703125 8.59375 
Q 74.609375 5.46875 81.25 2.734375 
Q 87.890625 0 96.484375 -1.5625 
Q 92.1875 -4.6875 90.234375 -9.375 
Q 82.03125 -6.640625 75 -2.734375 
Q 67.96875 1.171875 65.625 3.515625 
Q 61.71875 0.390625 55.265625 -3.3125 
Q 48.828125 -7.03125 39.0625 -10.546875 
Q 37.109375 -7.8125 32.03125 -5.859375 
Q 39.453125 -3.90625 47.84375 0.390625 
Q 56.25 4.6875 60.15625 8.59375 
Q 51.953125 20.3125 48.046875 36.328125 
L 44.140625 36.328125 
Q 43.75 21.875 38.859375 11.328125 
Q 33.984375 0.78125 29.296875 -4.6875 
Q 26.5625 -2.34375 21.484375 -0.78125 
Q 27.34375 5.078125 30.46875 11.125 
Q 33.59375 17.1875 35.34375 23.046875 
Q 37.109375 28.90625 37.296875 44.140625 
Q 37.5 59.375 36.71875 66.796875 
L 60.546875 66.796875 
Q 60.546875 75.78125 60.15625 81.25 
L 67.96875 81.25 
Q 67.578125 76.5625 67.578125 66.796875 
L 91.40625 66.796875 
Q 91.015625 64.453125 89.84375 59.953125 
Q 88.671875 55.46875 87.5 50 
Q 82.8125 50.78125 79.296875 51.171875 
z
M 55.078125 36.328125 
Q 59.375 21.875 65.625 14.453125 
Q 72.65625 23.046875 76.953125 36.328125 
z
M 30.46875 26.5625 
Q 26.5625 21.484375 19.71875 11.125 
Q 12.890625 0.78125 10.546875 -3.125 
Q 7.421875 0.78125 3.515625 4.296875 
Q 8.203125 8.203125 14.640625 17.1875 
Q 21.09375 26.171875 24.21875 32.8125 
L 30.46875 26.5625 
z
M 60.546875 42.96875 
L 60.546875 60.15625 
L 44.53125 60.15625 
L 44.53125 42.96875 
z
M 14.453125 76.953125 
Q 25 70.703125 31.25 66.40625 
Q 28.125 62.890625 26.171875 59.375 
Q 19.53125 64.84375 9.765625 70.3125 
Q 12.109375 73.4375 14.453125 76.953125 
z
M 9.375 55.078125 
Q 17.578125 50.78125 26.953125 44.53125 
Q 23.828125 41.796875 21.875 37.890625 
Q 14.453125 44.140625 5.46875 48.4375 
Q 7.03125 51.171875 9.375 55.078125 
z
" id="SimHei-27874"/>
       <path d="M 27.34375 43.75 
L 27.34375 69.53125 
Q 27.34375 73.046875 26.953125 79.6875 
L 35.546875 79.6875 
Q 35.15625 72.265625 35.15625 69.921875 
L 35.15625 43.75 
L 82.421875 43.75 
Q 87.5 43.75 93.359375 44.140625 
L 93.359375 36.328125 
Q 85.9375 36.71875 79.6875 36.71875 
L 57.03125 36.71875 
Q 59.765625 28.90625 65.421875 21.484375 
Q 71.09375 14.0625 78.90625 9.171875 
Q 86.71875 4.296875 92.96875 2.34375 
Q 87.890625 -0.78125 85.15625 -5.46875 
Q 76.953125 -1.171875 69.921875 4.6875 
Q 62.890625 10.546875 57.421875 18.9375 
Q 51.953125 27.34375 49.21875 36.71875 
L 35.15625 36.71875 
L 35.15625 5.859375 
Q 46.484375 12.890625 50.390625 16.40625 
Q 53.125 12.109375 55.859375 8.59375 
Q 48.4375 5.078125 41.015625 -0.1875 
Q 33.59375 -5.46875 30.078125 -8.984375 
Q 26.953125 -4.6875 24.21875 -1.5625 
Q 27.34375 1.5625 27.34375 6.640625 
L 27.34375 36.71875 
L 18.359375 36.71875 
Q 12.890625 36.71875 5.859375 36.328125 
L 5.859375 44.140625 
Q 12.890625 43.75 17.578125 43.75 
z
M 76.5625 73.4375 
Q 72.265625 69.921875 63.859375 61.515625 
Q 55.46875 53.125 47.265625 45.3125 
Q 43.75 50 41.40625 51.5625 
Q 48.046875 56.25 56.25 64.84375 
Q 64.453125 73.4375 68.75 79.6875 
Q 71.875 76.953125 76.5625 73.4375 
z
" id="SimHei-38271"/>
       <path id="SimHei-32"/>
       <path d="M 36.71875 67.4375 
L 48.828125 0 
L 39.3125 0 
L 31.84375 40.4375 
L 5.125 0 
L -4.390625 0 
L 29.734375 52.4375 
L 28.03125 62.109375 
Q 26.953125 68.265625 21.734375 68.265625 
L 17.046875 68.265625 
L 18.5 75.984375 
L 24.21875 75.875 
Q 35.203125 75.734375 36.71875 67.4375 
z
" id="DejaVuSans-Oblique-955"/>
       <path d="M 31 75.875 
Q 24.46875 64.65625 21.28125 53.65625 
Q 18.109375 42.671875 18.109375 31.390625 
Q 18.109375 20.125 21.3125 9.0625 
Q 24.515625 -2 31 -13.1875 
L 23.1875 -13.1875 
Q 15.875 -1.703125 12.234375 9.375 
Q 8.59375 20.453125 8.59375 31.390625 
Q 8.59375 42.28125 12.203125 53.3125 
Q 15.828125 64.359375 23.1875 75.875 
z
" id="DejaVuSans-40"/>
       <path d="M 55.71875 33.015625 
L 49.3125 0 
L 40.28125 0 
L 46.6875 32.671875 
Q 47.125 34.96875 47.359375 36.71875 
Q 47.609375 38.484375 47.609375 39.5 
Q 47.609375 43.609375 45.015625 45.890625 
Q 42.4375 48.1875 37.796875 48.1875 
Q 30.5625 48.1875 25.34375 43.375 
Q 20.125 38.578125 18.5 30.328125 
L 12.5 0 
L 3.515625 0 
L 14.109375 54.6875 
L 23.09375 54.6875 
L 21.296875 46.09375 
Q 25.046875 50.828125 30.3125 53.40625 
Q 35.59375 56 41.40625 56 
Q 48.640625 56 52.609375 52.09375 
Q 56.59375 48.1875 56.59375 41.109375 
Q 56.59375 39.359375 56.375 37.359375 
Q 56.15625 35.359375 55.71875 33.015625 
z
" id="DejaVuSans-Oblique-110"/>
       <path d="M 89.796875 33.015625 
L 83.40625 0 
L 74.421875 0 
L 80.71875 32.71875 
Q 81.109375 34.8125 81.296875 36.328125 
Q 81.5 37.84375 81.5 38.921875 
Q 81.5 43.3125 79.046875 45.75 
Q 76.609375 48.1875 72.21875 48.1875 
Q 65.671875 48.1875 60.546875 43.28125 
Q 55.421875 38.375 53.90625 30.515625 
L 47.90625 0 
L 38.921875 0 
L 45.3125 32.71875 
Q 45.703125 34.515625 45.890625 36.046875 
Q 46.09375 37.59375 46.09375 38.8125 
Q 46.09375 43.265625 43.65625 45.71875 
Q 41.21875 48.1875 36.921875 48.1875 
Q 30.28125 48.1875 25.140625 43.28125 
Q 20.015625 38.375 18.5 30.515625 
L 12.5 0 
L 3.515625 0 
L 14.203125 54.6875 
L 23.1875 54.6875 
L 21.484375 46.1875 
Q 25.140625 50.984375 30.046875 53.484375 
Q 34.96875 56 40.578125 56 
Q 46.53125 56 50.359375 52.875 
Q 54.203125 49.75 54.984375 44.1875 
Q 59.078125 49.953125 64.46875 52.96875 
Q 69.875 56 75.875 56 
Q 82.90625 56 86.734375 51.953125 
Q 90.578125 47.90625 90.578125 40.484375 
Q 90.578125 38.875 90.375 36.9375 
Q 90.1875 35.015625 89.796875 33.015625 
z
" id="DejaVuSans-Oblique-109"/>
       <path d="M 8.015625 75.875 
L 15.828125 75.875 
Q 23.140625 64.359375 26.78125 53.3125 
Q 30.421875 42.28125 30.421875 31.390625 
Q 30.421875 20.453125 26.78125 9.375 
Q 23.140625 -1.703125 15.828125 -13.1875 
L 8.015625 -13.1875 
Q 14.5 -2 17.703125 9.0625 
Q 20.90625 20.125 20.90625 31.390625 
Q 20.90625 42.671875 17.703125 53.65625 
Q 14.5 64.65625 8.015625 75.875 
z
" id="DejaVuSans-41"/>
      </defs>
      <use transform="translate(0 0.75)" xlink:href="#SimHei-20809"/>
      <use transform="translate(100 0.75)" xlink:href="#SimHei-27874"/>
      <use transform="translate(200 0.75)" xlink:href="#SimHei-38271"/>
      <use transform="translate(300 0.75)" xlink:href="#SimHei-32"/>
      <use transform="translate(350 0.75)" xlink:href="#DejaVuSans-Oblique-955"/>
      <use transform="translate(409.179688 0.75)" xlink:href="#DejaVuSans-40"/>
      <use transform="translate(448.193359 0.75)" xlink:href="#DejaVuSans-Oblique-110"/>
      <use transform="translate(511.572266 0.75)" xlink:href="#DejaVuSans-Oblique-109"/>
      <use transform="translate(608.984375 0.75)" xlink:href="#DejaVuSans-41"/>
     </g>
    </g>
   </g>
   <g id="matplotlib.axis_2">
    <g id="ytick_1">
     <g id="line2d_7">
      <defs>
       <path d="M 0 0 
L -3.5 0 
" id="me0ae9df000" style="stroke:#000000;stroke-width:0.8;"/>
      </defs>
      <g>
       <use style="stroke:#000000;stroke-width:0.8;" x="42.8" xlink:href="#me0ae9df000" y="266.626235"/>
      </g>
     </g>
     <g id="text_8">
      <!-- 0 -->
      <g transform="translate(30.8 270.063735)scale(0.1 -0.1)">
       <use xlink:href="#SimHei-48"/>
      </g>
     </g>
    </g>
    <g id="ytick_2">
     <g id="line2d_8">
      <g>
       <use style="stroke:#000000;stroke-width:0.8;" x="42.8" xlink:href="#me0ae9df000" y="235.181961"/>
      </g>
     </g>
     <g id="text_9">
      <!-- 10 -->
      <g transform="translate(25.8 238.619461)scale(0.1 -0.1)">
       <defs>
        <path d="M 21.875 56.25 
Q 16.796875 51.171875 8.984375 46.484375 
L 8.984375 53.90625 
Q 18.75 60.546875 25 69.53125 
L 29.6875 69.53125 
L 29.6875 2.34375 
L 21.875 2.34375 
z
" id="SimHei-49"/>
       </defs>
       <use xlink:href="#SimHei-49"/>
       <use x="50" xlink:href="#SimHei-48"/>
      </g>
     </g>
    </g>
    <g id="ytick_3">
     <g id="line2d_9">
      <g>
       <use style="stroke:#000000;stroke-width:0.8;" x="42.8" xlink:href="#me0ae9df000" y="203.737686"/>
      </g>
     </g>
     <g id="text_10">
      <!-- 20 -->
      <g transform="translate(25.8 207.175186)scale(0.1 -0.1)">
       <defs>
        <path d="M 4.6875 3.90625 
Q 5.078125 9.765625 10.15625 14.453125 
Q 15.234375 19.140625 23.046875 29.09375 
Q 30.859375 39.0625 33.203125 44.53125 
Q 35.546875 50 34.953125 53.90625 
Q 34.375 57.8125 31.25 60.34375 
Q 28.125 62.890625 24.015625 62.5 
Q 19.921875 62.109375 16.203125 59.375 
Q 12.5 56.640625 10.546875 51.171875 
L 3.125 52.34375 
Q 6.25 61.328125 11.125 65.421875 
Q 16.015625 69.53125 22.65625 69.921875 
Q 26.5625 70.3125 29.6875 69.71875 
Q 32.8125 69.140625 36.125 66.984375 
Q 39.453125 64.84375 41.59375 60.546875 
Q 43.75 56.25 43.15625 50.1875 
Q 42.578125 44.140625 37.109375 35.734375 
Q 31.640625 27.34375 16.015625 9.375 
L 44.140625 9.375 
L 44.140625 2.34375 
L 4.6875 2.34375 
z
" id="SimHei-50"/>
       </defs>
       <use xlink:href="#SimHei-50"/>
       <use x="50" xlink:href="#SimHei-48"/>
      </g>
     </g>
    </g>
    <g id="ytick_4">
     <g id="line2d_10">
      <g>
       <use style="stroke:#000000;stroke-width:0.8;" x="42.8" xlink:href="#me0ae9df000" y="172.293412"/>
      </g>
     </g>
     <g id="text_11">
      <!-- 30 -->
      <g transform="translate(25.8 175.730912)scale(0.1 -0.1)">
       <use xlink:href="#SimHei-51"/>
       <use x="50" xlink:href="#SimHei-48"/>
      </g>
     </g>
    </g>
    <g id="ytick_5">
     <g id="line2d_11">
      <g>
       <use style="stroke:#000000;stroke-width:0.8;" x="42.8" xlink:href="#me0ae9df000" y="140.849137"/>
      </g>
     </g>
     <g id="text_12">
      <!-- 40 -->
      <g transform="translate(25.8 144.286637)scale(0.1 -0.1)">
       <use xlink:href="#SimHei-52"/>
       <use x="50" xlink:href="#SimHei-48"/>
      </g>
     </g>
    </g>
    <g id="ytick_6">
     <g id="line2d_12">
      <g>
       <use style="stroke:#000000;stroke-width:0.8;" x="42.8" xlink:href="#me0ae9df000" y="109.404863"/>
      </g>
     </g>
     <g id="text_13">
      <!-- 50 -->
      <g transform="translate(25.8 112.842363)scale(0.1 -0.1)">
       <use xlink:href="#SimHei-53"/>
       <use x="50" xlink:href="#SimHei-48"/>
      </g>
     </g>
    </g>
    <g id="ytick_7">
     <g id="line2d_13">
      <g>
       <use style="stroke:#000000;stroke-width:0.8;" x="42.8" xlink:href="#me0ae9df000" y="77.960588"/>
      </g>
     </g>
     <g id="text_14">
      <!-- 60 -->
      <g transform="translate(25.8 81.398088)scale(0.1 -0.1)">
       <use xlink:href="#SimHei-54"/>
       <use x="50" xlink:href="#SimHei-48"/>
      </g>
     </g>
    </g>
    <g id="ytick_8">
     <g id="line2d_14">
      <g>
       <use style="stroke:#000000;stroke-width:0.8;" x="42.8" xlink:href="#me0ae9df000" y="46.516314"/>
      </g>
     </g>
     <g id="text_15">
      <!-- 70 -->
      <g transform="translate(25.8 49.953814)scale(0.1 -0.1)">
       <use xlink:href="#SimHei-55"/>
       <use x="50" xlink:href="#SimHei-48"/>
      </g>
     </g>
    </g>
    <g id="ytick_9">
     <g id="line2d_15">
      <g>
       <use style="stroke:#000000;stroke-width:0.8;" x="42.8" xlink:href="#me0ae9df000" y="15.072039"/>
      </g>
     </g>
     <g id="text_16">
      <!-- 80 -->
      <g transform="translate(25.8 18.509539)scale(0.1 -0.1)">
       <use xlink:href="#SimHei-56"/>
       <use x="50" xlink:href="#SimHei-48"/>
      </g>
     </g>
    </g>
    <g id="text_17">
     <!-- 透光率 $T\%=\frac{I}{I_0}$ -->
     <g transform="translate(16.7 177.9)rotate(-90)scale(0.1 -0.1)">
      <defs>
       <path d="M 85.15625 72.265625 
Q 82.03125 72.265625 76.359375 71.875 
Q 70.703125 71.484375 62.890625 70.3125 
L 62.890625 62.109375 
Q 83.59375 62.109375 89.84375 62.5 
L 89.84375 55.859375 
Q 83.59375 56.25 69.53125 56.25 
Q 72.265625 51.953125 78.90625 48.625 
Q 85.546875 45.3125 93.359375 44.53125 
Q 90.234375 41.015625 89.84375 37.5 
Q 79.6875 39.453125 72.265625 44.921875 
Q 64.84375 50.390625 62.890625 55.859375 
L 62.890625 37.890625 
L 77.34375 37.890625 
L 74.21875 27.34375 
L 88.28125 27.34375 
Q 87.109375 18.75 84.953125 13.46875 
Q 82.8125 8.203125 78.703125 6.4375 
Q 74.609375 4.6875 67.96875 3.90625 
Q 67.96875 7.8125 65.234375 11.71875 
Q 74.609375 10.9375 76.75 13.671875 
Q 78.90625 16.40625 79.6875 21.875 
L 66.015625 21.875 
L 68.75 32.03125 
L 56.640625 32.03125 
Q 55.078125 21.484375 50 14.25 
Q 44.921875 7.03125 38.671875 3.515625 
Q 36.328125 6.25 32.8125 8.203125 
Q 40.234375 11.71875 44.328125 18.15625 
Q 48.4375 24.609375 49.21875 32.03125 
Q 42.96875 32.03125 37.890625 31.640625 
L 37.890625 37.890625 
L 33.984375 35.9375 
Q 32.8125 39.453125 28.90625 41.796875 
Q 35.546875 43.75 40.8125 47.453125 
Q 46.09375 51.171875 49.609375 56.25 
Q 37.5 56.25 30.46875 55.859375 
L 30.46875 62.5 
Q 37.5 62.109375 56.25 62.109375 
L 56.25 69.921875 
Q 42.1875 68.75 37.109375 68.359375 
Q 36.328125 72.265625 35.15625 75 
Q 47.65625 75 59.5625 76.171875 
Q 71.484375 77.34375 81.640625 79.6875 
Q 83.59375 76.171875 85.15625 72.265625 
z
M 23.046875 48.828125 
Q 22.65625 41.40625 22.65625 34.765625 
L 22.65625 9.765625 
Q 34.765625 0 59.765625 0 
Q 85.15625 0 96.09375 2.34375 
Q 93.75 -2.734375 92.96875 -6.640625 
Q 69.140625 -7.421875 58.984375 -6.828125 
Q 48.828125 -6.25 40.421875 -4.296875 
Q 32.03125 -2.34375 26.359375 0.78125 
Q 20.703125 3.90625 17.578125 0.96875 
Q 14.453125 -1.953125 9.375 -7.421875 
Q 7.03125 -4.6875 3.515625 -1.953125 
Q 11.71875 5.46875 15.625 7.8125 
L 15.625 42.578125 
Q 10.15625 42.578125 4.6875 42.1875 
L 4.6875 49.21875 
Q 10.15625 48.828125 14.84375 48.828125 
z
M 14.453125 79.296875 
Q 19.53125 73.046875 25 64.0625 
Q 21.484375 62.5 18.359375 59.375 
Q 16.015625 65.234375 7.8125 75 
Q 11.328125 76.5625 14.453125 79.296875 
z
M 37.890625 38.28125 
Q 44.53125 37.890625 56.25 37.890625 
L 56.25 54.6875 
Q 53.125 49.609375 48.4375 45.703125 
Q 43.75 41.796875 37.890625 38.28125 
z
" id="SimHei-36879"/>
       <path d="M 51.953125 80.46875 
Q 53.515625 76.5625 55.46875 70.703125 
L 75 70.703125 
Q 82.03125 70.703125 90.625 71.09375 
L 90.625 64.453125 
Q 82.03125 65.234375 74.609375 65.234375 
L 43.75 65.234375 
Q 46.484375 63.28125 51.5625 60.9375 
Q 48.046875 58.59375 44.921875 55.265625 
Q 41.796875 51.953125 38.671875 48.828125 
L 51.171875 48.828125 
Q 55.859375 53.515625 58.984375 58.984375 
Q 62.5 56.25 66.796875 53.515625 
Q 61.71875 50.78125 56.25 44.921875 
Q 50.78125 39.0625 41.015625 31.25 
L 60.15625 32.8125 
Q 58.203125 35.15625 56.25 37.890625 
Q 58.59375 38.671875 62.5 41.40625 
Q 66.40625 36.71875 73.4375 26.5625 
Q 69.921875 25.390625 66.015625 22.65625 
Q 65.234375 25 62.890625 27.734375 
Q 57.8125 27.34375 53.515625 27.34375 
L 53.515625 16.40625 
L 80.46875 16.40625 
Q 88.671875 16.40625 95.3125 16.796875 
L 95.3125 10.15625 
Q 89.0625 10.546875 80.078125 10.546875 
L 53.515625 10.546875 
L 53.515625 2.734375 
Q 53.515625 -4.6875 53.90625 -9.765625 
L 45.3125 -9.765625 
Q 45.703125 -4.6875 45.703125 2.734375 
L 45.703125 10.546875 
L 20.703125 10.546875 
Q 12.890625 10.546875 5.078125 10.15625 
L 5.078125 16.796875 
Q 12.890625 16.40625 21.09375 16.40625 
L 45.703125 16.40625 
L 45.703125 26.5625 
Q 42.1875 26.171875 38.671875 25.578125 
Q 35.15625 25 31.640625 23.828125 
Q 30.46875 27.734375 28.90625 31.25 
Q 32.421875 31.640625 36.328125 34.375 
Q 40.234375 37.109375 46.484375 43.75 
Q 35.9375 42.578125 31.640625 41.015625 
Q 30.859375 44.921875 28.90625 49.609375 
Q 32.421875 49.609375 36.328125 54.484375 
Q 40.234375 59.375 42.96875 65.234375 
L 26.5625 65.234375 
Q 17.96875 65.234375 10.15625 64.453125 
L 10.15625 71.09375 
Q 17.96875 70.703125 24.21875 70.703125 
L 46.484375 70.703125 
Q 45.3125 75.390625 43.75 78.515625 
Q 47.265625 79.296875 51.953125 80.46875 
z
M 25.390625 40.234375 
Q 26.953125 37.5 28.515625 34.375 
Q 24.609375 32.03125 20.703125 29.09375 
Q 16.796875 26.171875 12.5 22.265625 
Q 9.765625 26.171875 7.421875 29.296875 
Q 12.5 31.640625 17.1875 34.5625 
Q 21.875 37.5 25.390625 40.234375 
z
M 75.78125 41.40625 
Q 80.078125 38.671875 83.390625 36.515625 
Q 86.71875 34.375 91.796875 30.46875 
Q 88.671875 28.125 85.9375 25 
Q 82.8125 27.734375 79.09375 30.859375 
Q 75.390625 33.984375 71.484375 36.328125 
Q 73.828125 38.671875 75.78125 41.40625 
z
M 89.453125 55.078125 
Q 86.71875 53.90625 82.8125 50.96875 
Q 78.90625 48.046875 75 44.140625 
Q 72.265625 47.65625 69.921875 49.609375 
Q 73.4375 51.953125 76.171875 54.484375 
Q 78.90625 57.03125 82.8125 61.328125 
Q 86.328125 57.8125 89.453125 55.078125 
z
M 16.40625 60.15625 
Q 22.265625 56.25 27.734375 51.171875 
Q 24.609375 48.4375 22.265625 45.703125 
Q 16.796875 51.5625 10.546875 55.078125 
Q 13.671875 57.8125 16.40625 60.15625 
z
" id="SimHei-29575"/>
       <path d="M 5.90625 72.90625 
L 67.578125 72.90625 
L 66.015625 64.59375 
L 39.984375 64.59375 
L 27.484375 0 
L 17.578125 0 
L 30.078125 64.59375 
L 4.296875 64.59375 
z
" id="DejaVuSans-Oblique-84"/>
       <path d="M 72.703125 32.078125 
Q 68.453125 32.078125 66.03125 28.46875 
Q 63.625 24.859375 63.625 18.40625 
Q 63.625 12.0625 66.03125 8.421875 
Q 68.453125 4.78125 72.703125 4.78125 
Q 76.859375 4.78125 79.265625 8.421875 
Q 81.6875 12.0625 81.6875 18.40625 
Q 81.6875 24.8125 79.265625 28.4375 
Q 76.859375 32.078125 72.703125 32.078125 
z
M 72.703125 38.28125 
Q 80.421875 38.28125 84.953125 32.90625 
Q 89.5 27.546875 89.5 18.40625 
Q 89.5 9.28125 84.9375 3.921875 
Q 80.375 -1.421875 72.703125 -1.421875 
Q 64.890625 -1.421875 60.34375 3.921875 
Q 55.8125 9.28125 55.8125 18.40625 
Q 55.8125 27.59375 60.375 32.9375 
Q 64.9375 38.28125 72.703125 38.28125 
z
M 22.3125 68.015625 
Q 18.109375 68.015625 15.6875 64.375 
Q 13.28125 60.75 13.28125 54.390625 
Q 13.28125 47.953125 15.671875 44.328125 
Q 18.0625 40.71875 22.3125 40.71875 
Q 26.5625 40.71875 28.96875 44.328125 
Q 31.390625 47.953125 31.390625 54.390625 
Q 31.390625 60.6875 28.953125 64.34375 
Q 26.515625 68.015625 22.3125 68.015625 
z
M 66.40625 74.21875 
L 74.21875 74.21875 
L 28.609375 -1.421875 
L 20.796875 -1.421875 
z
M 22.3125 74.21875 
Q 30.03125 74.21875 34.609375 68.875 
Q 39.203125 63.53125 39.203125 54.390625 
Q 39.203125 45.171875 34.640625 39.84375 
Q 30.078125 34.515625 22.3125 34.515625 
Q 14.546875 34.515625 10.03125 39.859375 
Q 5.515625 45.21875 5.515625 54.390625 
Q 5.515625 63.484375 10.046875 68.84375 
Q 14.59375 74.21875 22.3125 74.21875 
z
" id="DejaVuSans-37"/>
       <path d="M 10.59375 45.40625 
L 73.1875 45.40625 
L 73.1875 37.203125 
L 10.59375 37.203125 
z
M 10.59375 25.484375 
L 73.1875 25.484375 
L 73.1875 17.1875 
L 10.59375 17.1875 
z
" id="DejaVuSans-61"/>
       <path d="M 16.890625 72.90625 
L 26.8125 72.90625 
L 12.59375 0 
L 2.6875 0 
z
" id="DejaVuSans-Oblique-73"/>
       <path d="M 31.78125 66.40625 
Q 24.171875 66.40625 20.328125 58.90625 
Q 16.5 51.421875 16.5 36.375 
Q 16.5 21.390625 20.328125 13.890625 
Q 24.171875 6.390625 31.78125 6.390625 
Q 39.453125 6.390625 43.28125 13.890625 
Q 47.125 21.390625 47.125 36.375 
Q 47.125 51.421875 43.28125 58.90625 
Q 39.453125 66.40625 31.78125 66.40625 
z
M 31.78125 74.21875 
Q 44.046875 74.21875 50.515625 64.515625 
Q 56.984375 54.828125 56.984375 36.375 
Q 56.984375 17.96875 50.515625 8.265625 
Q 44.046875 -1.421875 31.78125 -1.421875 
Q 19.53125 -1.421875 13.0625 8.265625 
Q 6.59375 17.96875 6.59375 36.375 
Q 6.59375 54.828125 13.0625 64.515625 
Q 19.53125 74.21875 31.78125 74.21875 
z
" id="DejaVuSans-48"/>
      </defs>
      <use transform="translate(0 0.16875)" xlink:href="#SimHei-36879"/>
      <use transform="translate(100 0.16875)" xlink:href="#SimHei-20809"/>
      <use transform="translate(200 0.16875)" xlink:href="#SimHei-29575"/>
      <use transform="translate(300 0.16875)" xlink:href="#SimHei-32"/>
      <use transform="translate(350 0.16875)" xlink:href="#DejaVuSans-Oblique-84"/>
      <use transform="translate(411.083984 0.16875)" xlink:href="#DejaVuSans-37"/>
      <use transform="translate(525.585938 0.16875)" xlink:href="#DejaVuSans-61"/>
      <use transform="translate(645.857422 43.965625)scale(0.7)" xlink:href="#DejaVuSans-Oblique-73"/>
      <use transform="translate(628.857422 -38.31875)scale(0.7)" xlink:href="#DejaVuSans-Oblique-73"/>
      <use transform="translate(649.501953 -49.803125)scale(0.49)" xlink:href="#DejaVuSans-48"/>
      <path d="M 628.857422 18.965625 
L 628.857422 25.215625 
L 682.591309 25.215625 
L 682.591309 18.965625 
L 628.857422 18.965625 
z
"/>
     </g>
    </g>
   </g>
   <g id="line2d_16">
    <defs>
     <path d="M 0 1.5 
C 0.397805 1.5 0.77937 1.341951 1.06066 1.06066 
C 1.341951 0.77937 1.5 0.397805 1.5 0 
C 1.5 -0.397805 1.341951 -0.77937 1.06066 -1.06066 
C 0.77937 -1.341951 0.397805 -1.5 0 -1.5 
C -0.397805 -1.5 -0.77937 -1.341951 -1.06066 -1.06066 
C -1.341951 -0.77937 -1.5 -0.397805 -1.5 0 
C -1.5 0.397805 -1.341951 0.77937 -1.06066 1.06066 
C -0.77937 1.341951 -0.397805 1.5 0 1.5 
z
" id="mb07f6f2561" style="stroke:#ff0000;"/>
    </defs>
    <g clip-path="url(#p1059c58413)">
     <use style="fill:#ff0000;stroke:#ff0000;" x="325.858182" xlink:href="#mb07f6f2561" y="56.593212"/>
     <use style="fill:#ff0000;stroke:#ff0000;" x="389.774545" xlink:href="#mb07f6f2561" y="52.639117"/>
     <use style="fill:#ff0000;stroke:#ff0000;" x="492.243636" xlink:href="#mb07f6f2561" y="53.04492"/>
    </g>
   </g>
   <g id="line2d_17">
    <path clip-path="url(#p1059c58413)" d="M 575.436364 57.219896 
L 574.421818 57.04165 
L 571.885455 56.758717 
L 567.827273 56.148488 
L 562.754545 55.644445 
L 562.247273 56.477675 
L 554.130909 55.700148 
L 552.101818 55.456721 
L 549.058182 55.039669 
L 542.970909 54.620203 
L 537.390909 54.143996 
L 533.84 54.257967 
L 521.158182 53.318314 
L 515.070909 53.133196 
L 512.534545 53.046833 
L 506.447273 53.091631 
L 502.389091 52.995976 
L 498.838182 53.187427 
L 495.287273 53.14395 
L 492.243636 53.04492 
L 489.2 53.272067 
L 487.170909 53.388289 
L 466.372727 54.003587 
L 464.343636 54.077121 
L 462.314545 54.239318 
L 455.212727 54.30134 
L 451.154545 54.483027 
L 450.14 54.391706 
L 449.632727 54.464635 
L 448.618182 54.437943 
L 448.110909 54.522708 
L 447.096364 54.509395 
L 446.589091 54.59146 
L 445.574545 54.543307 
L 445.067273 54.61134 
L 444.052727 54.586194 
L 435.936364 54.70531 
L 434.921818 54.618766 
L 432.892727 54.42898 
L 431.370909 54.296069 
L 426.805455 54.049974 
L 425.790909 54.048066 
L 425.283636 53.962688 
L 424.269091 53.954068 
L 423.254545 53.92122 
L 416.66 53.55898 
L 413.616364 53.432116 
L 394.34 52.755739 
L 391.296364 52.697233 
L 388.76 52.659555 
L 373.034545 53.248718 
L 352.743636 55.058797 
L 348.685455 55.404914 
L 345.641818 55.742779 
L 343.612727 55.901121 
L 330.930909 56.721652 
L 328.394545 56.736505 
L 324.843636 56.601754 
L 315.205455 56.911511 
L 303.030909 57.290053 
L 299.48 57.484252 
L 296.436364 57.756255 
L 292.378182 58.201266 
L 286.290909 58.872211 
L 282.74 59.484475 
L 276.652727 60.484789 
L 271.072727 61.591783 
L 254.84 64.646427 
L 247.738182 65.434298 
L 242.158182 65.883129 
L 240.129091 65.932012 
L 234.041818 66.292498 
L 230.998182 66.644155 
L 218.823636 68.22841 
L 212.736364 69.731001 
L 208.678182 70.873268 
L 206.141818 71.645544 
L 204.112727 72.231629 
L 203.098182 72.560494 
L 201.069091 73.049947 
L 198.532727 73.719574 
L 194.981818 74.419273 
L 191.430909 75.337835 
L 189.401818 75.685919 
L 186.358182 75.798828 
L 177.227273 76.265662 
L 175.198182 76.63052 
L 173.169091 77.208724 
L 170.125455 78.390501 
L 167.589091 79.785374 
L 165.56 81.145627 
L 163.023636 83.150358 
L 159.98 85.693555 
L 152.878182 91.769361 
L 150.849091 93.064645 
L 149.834545 93.546093 
L 148.312727 94.012597 
L 146.790909 94.216626 
L 143.747273 94.583293 
L 142.732727 94.76949 
L 140.703636 95.553492 
L 139.689091 96.138275 
L 138.167273 97.415045 
L 136.645455 99.176377 
L 135.123636 101.499546 
L 133.094545 105.448576 
L 132.08 107.664191 
L 131.065455 109.981538 
L 130.050909 112.367514 
L 127.514545 119.123276 
L 125.485455 124.048747 
L 123.963636 128.397471 
L 122.441818 132.795732 
L 121.427273 135.222725 
L 120.412727 137.096718 
L 119.398182 138.439702 
L 117.369091 140.849906 
L 116.354545 142.614394 
L 115.34 145.088304 
L 114.325455 148.136992 
L 109.76 162.8092 
L 108.238182 167.701227 
L 106.209091 174.484013 
L 105.194545 177.727461 
L 102.658182 185.747569 
L 101.136364 189.964378 
L 99.614545 193.545627 
L 98.092727 196.550031 
L 96.063636 200.012432 
L 94.541818 202.241977 
L 93.527273 203.471856 
L 91.498182 205.417137 
L 90.483636 206.214539 
L 88.961818 207.193823 
L 87.44 207.949403 
L 85.410909 208.618384 
L 83.381818 209.142576 
L 81.352727 209.541568 
L 80.845455 209.393791 
L 76.787273 210.049296 
L 68.163636 210.986644 
L 68.163636 210.986644 
" style="fill:none;stroke:#ff0000;stroke-linecap:square;stroke-width:1.5;"/>
   </g>
   <g id="line2d_18">
    <defs>
     <path d="M 0 1.5 
C 0.397805 1.5 0.77937 1.341951 1.06066 1.06066 
C 1.341951 0.77937 1.5 0.397805 1.5 0 
C 1.5 -0.397805 1.341951 -0.77937 1.06066 -1.06066 
C 0.77937 -1.341951 0.397805 -1.5 0 -1.5 
C -0.397805 -1.5 -0.77937 -1.341951 -1.06066 -1.06066 
C -1.341951 -0.77937 -1.5 -0.397805 -1.5 0 
C -1.5 0.397805 -1.341951 0.77937 -1.06066 1.06066 
C -0.77937 1.341951 -0.397805 1.5 0 1.5 
z
" id="m11fd1c2781" style="stroke:#bfbf00;"/>
    </defs>
    <g clip-path="url(#p1059c58413)">
     <use style="fill:#bfbf00;stroke:#bfbf00;" x="164.038182" xlink:href="#m11fd1c2781" y="42.841837"/>
     <use style="fill:#bfbf00;stroke:#bfbf00;" x="234.041818" xlink:href="#m11fd1c2781" y="26.32376"/>
     <use style="fill:#bfbf00;stroke:#bfbf00;" x="371.512727" xlink:href="#m11fd1c2781" y="19.554545"/>
    </g>
   </g>
   <g id="line2d_19">
    <path clip-path="url(#p1059c58413)" d="M 575.436364 29.341525 
L 568.334545 27.498851 
L 562.754545 26.252076 
L 562.247273 27.185979 
L 544.492727 24.187908 
L 542.463636 23.969023 
L 537.898182 23.261148 
L 534.347273 23.038151 
L 532.318182 22.809456 
L 530.289091 22.487135 
L 528.767273 22.332166 
L 523.187273 21.995336 
L 520.650909 21.690373 
L 517.607273 21.573853 
L 516.085455 21.440494 
L 512.027273 21.122811 
L 501.374545 20.911375 
L 494.78 20.868609 
L 488.692727 20.811337 
L 486.663636 20.824668 
L 485.141818 20.838061 
L 483.112727 20.893826 
L 480.069091 21.033211 
L 478.04 21.049753 
L 476.010909 21.105948 
L 473.981818 21.135566 
L 466.88 21.345502 
L 465.865455 21.321595 
L 463.836364 21.414521 
L 461.807273 21.446401 
L 460.285455 21.468857 
L 457.749091 21.510285 
L 454.705455 21.644931 
L 454.198182 21.754346 
L 453.183636 21.713469 
L 452.676364 21.813227 
L 451.661818 21.696807 
L 451.154545 21.800374 
L 450.14 21.69704 
L 449.632727 21.791456 
L 448.618182 21.730859 
L 448.110909 21.811752 
L 447.096364 21.735165 
L 446.589091 21.817058 
L 445.574545 21.7905 
L 444.56 21.878296 
L 442.023636 22.083635 
L 439.994545 22.095841 
L 437.458182 22.246081 
L 434.921818 22.190548 
L 433.4 22.090359 
L 426.805455 21.901999 
L 425.790909 21.951405 
L 425.283636 21.87777 
L 424.269091 21.905268 
L 423.761818 21.828193 
L 422.747273 21.825191 
L 422.24 21.750651 
L 421.225455 21.778056 
L 420.210909 21.772009 
L 401.441818 21.08612 
L 398.398182 20.764148 
L 395.354545 20.679067 
L 390.789091 20.386675 
L 388.252727 20.288262 
L 384.194545 20.064599 
L 381.658182 19.947519 
L 377.092727 19.739094 
L 369.990909 19.569184 
L 363.396364 19.608139 
L 358.830909 19.632448 
L 352.236364 19.873433 
L 348.685455 20.148373 
L 341.076364 20.904288 
L 330.930909 22.321729 
L 318.756364 24.581214 
L 309.625455 26.387654 
L 307.089091 26.921264 
L 299.48 28.278077 
L 287.812727 29.576159 
L 283.247273 29.948796 
L 280.710909 29.915533 
L 278.174545 29.92776 
L 273.101818 29.88391 
L 268.536364 29.533269 
L 266.507273 29.295873 
L 264.478182 29.103884 
L 256.361818 28.226118 
L 253.318182 27.714166 
L 245.201818 26.658429 
L 241.650909 26.457366 
L 237.592727 26.54155 
L 236.578182 26.427991 
L 235.563636 26.381105 
L 233.534545 26.331781 
L 230.998182 26.697997 
L 225.925455 27.458739 
L 222.881818 28.189612 
L 217.809091 29.876301 
L 215.272727 30.791448 
L 213.243636 31.56667 
L 207.663636 34.170303 
L 204.112727 35.613948 
L 202.083636 36.595683 
L 195.996364 39.328387 
L 193.46 40.373965 
L 191.430909 41.245878 
L 187.88 42.321953 
L 185.343636 42.853558 
L 183.314545 43.18249 
L 178.749091 43.553787 
L 175.705455 43.430714 
L 173.169091 43.311657 
L 172.154545 43.292248 
L 166.574545 42.91654 
L 163.530909 42.842787 
L 160.994545 43.002238 
L 158.458182 43.484247 
L 155.921818 44.200652 
L 154.4 44.86453 
L 151.863636 46.323045 
L 148.312727 48.617388 
L 146.283636 49.851273 
L 144.254545 51.337346 
L 141.718182 53.65272 
L 140.196364 55.454908 
L 138.674545 57.502155 
L 136.645455 60.5727 
L 133.601818 65.811998 
L 129.543636 73.974244 
L 124.470909 85.002111 
L 120.412727 94.562111 
L 118.383636 99.784081 
L 116.354545 105.430786 
L 113.310909 114.997769 
L 110.774545 123.921759 
L 109.252727 129.864819 
L 107.223636 138.668541 
L 103.165455 157.976999 
L 99.614545 175.892254 
L 92.512727 212.620715 
L 89.976364 224.420633 
L 87.947273 232.816944 
L 85.918182 240.195988 
L 84.396364 245.069588 
L 82.874545 249.315254 
L 81.352727 252.96423 
L 79.323636 256.923364 
L 77.801818 259.35843 
L 76.28 261.351523 
L 74.758182 262.93495 
L 73.236364 264.133505 
L 71.714545 264.981917 
L 70.192727 265.543218 
L 68.163636 266.015806 
L 68.163636 266.015806 
" style="fill:none;stroke:#bfbf00;stroke-linecap:square;stroke-width:1.5;"/>
   </g>
   <g id="line2d_20">
    <defs>
     <path d="M 0 1.5 
C 0.397805 1.5 0.77937 1.341951 1.06066 1.06066 
C 1.341951 0.77937 1.5 0.397805 1.5 0 
C 1.5 -0.397805 1.341951 -0.77937 1.06066 -1.06066 
C 0.77937 -1.341951 0.397805 -1.5 0 -1.5 
C -0.397805 -1.5 -0.77937 -1.341951 -1.06066 -1.06066 
C -1.341951 -0.77937 -1.5 -0.397805 -1.5 0 
C -1.5 0.397805 -1.341951 0.77937 -1.06066 1.06066 
C -0.77937 1.341951 -0.397805 1.5 0 1.5 
z
" id="m8f60d07e92" style="stroke:#00bfbf;"/>
    </defs>
    <g clip-path="url(#p1059c58413)">
     <use style="fill:#00bfbf;stroke:#00bfbf;" x="186.358182" xlink:href="#m8f60d07e92" y="157.003019"/>
     <use style="fill:#00bfbf;stroke:#00bfbf;" x="262.956364" xlink:href="#m8f60d07e92" y="80.480103"/>
     <use style="fill:#00bfbf;stroke:#00bfbf;" x="368.469091" xlink:href="#m8f60d07e92" y="53.064661"/>
    </g>
   </g>
   <g id="line2d_21">
    <path clip-path="url(#p1059c58413)" d="M 575.436364 48.747186 
L 574.421818 48.540948 
L 563.769091 44.528081 
L 562.754545 44.209388 
L 562.247273 44.993466 
L 554.130909 42.428397 
L 551.594545 41.800236 
L 549.058182 41.12752 
L 547.029091 40.664758 
L 545 40.195854 
L 541.449091 39.61341 
L 539.42 39.252842 
L 537.390909 39.106248 
L 531.303636 39.004063 
L 529.274545 38.937266 
L 525.723636 39.098241 
L 523.694545 38.995313 
L 519.129091 39.421103 
L 516.592727 39.920853 
L 513.041818 40.490586 
L 510.505455 41.150843 
L 501.881818 43.612291 
L 498.838182 44.672321 
L 494.272727 46.458127 
L 481.590909 51.815854 
L 473.474545 55.489079 
L 469.416364 57.436006 
L 464.850909 59.345338 
L 462.314545 60.334456 
L 452.169091 63.997731 
L 451.661818 64.10676 
L 450.647273 64.490125 
L 450.14 64.568493 
L 449.125455 64.909964 
L 448.110909 65.12205 
L 437.458182 67.24319 
L 430.863636 67.55558 
L 427.312727 67.524802 
L 426.298182 67.45731 
L 425.283636 67.360395 
L 422.747273 67.153303 
L 421.732727 66.978384 
L 420.210909 66.779779 
L 417.167273 66.322906 
L 412.601818 65.391191 
L 404.992727 63.182185 
L 401.949091 62.137574 
L 386.730909 56.617529 
L 377.092727 53.99898 
L 372.02 53.262125 
L 368.469091 53.064661 
L 365.932727 53.193843 
L 362.889091 53.639988 
L 360.352727 54.146635 
L 357.309091 54.948955 
L 354.265455 56.122609 
L 352.236364 57.064532 
L 349.7 58.434226 
L 344.627273 61.481505 
L 342.090909 63.256266 
L 338.032727 66.378894 
L 327.38 74.89286 
L 324.336364 77.051195 
L 320.278182 80.13683 
L 314.190909 84.079895 
L 311.147273 85.798092 
L 308.610909 86.973003 
L 306.074545 87.913175 
L 302.523636 88.971498 
L 299.48 89.510189 
L 297.450909 89.626444 
L 292.378182 89.416438 
L 289.841818 88.938806 
L 281.725455 86.45726 
L 278.174545 84.911241 
L 274.116364 83.179969 
L 268.029091 81.034746 
L 266.507273 80.714433 
L 264.478182 80.484451 
L 261.434545 80.652213 
L 259.912727 81.04037 
L 257.376364 82.109195 
L 256.361818 82.697198 
L 254.84 83.76436 
L 253.318182 85.023966 
L 251.796364 86.540158 
L 249.767273 88.916295 
L 248.245455 90.984429 
L 246.216364 94.142033 
L 243.68 98.612173 
L 241.143636 103.597205 
L 238.1 110.31295 
L 230.998182 127.215151 
L 225.925455 138.251349 
L 223.389091 143.32855 
L 221.867273 145.93209 
L 219.838182 148.892315 
L 217.301818 152.075605 
L 215.78 153.729387 
L 214.765455 154.646121 
L 212.229091 156.594017 
L 209.692727 157.893831 
L 207.663636 158.610171 
L 204.62 159.127883 
L 202.083636 159.078943 
L 200.054545 158.841322 
L 188.894545 157.155916 
L 185.850909 157.00845 
L 183.314545 157.210261 
L 181.792727 157.470375 
L 179.256364 158.117404 
L 177.227273 158.8947 
L 175.705455 159.632911 
L 173.169091 161.208958 
L 170.632727 163.072837 
L 167.589091 165.555845 
L 164.038182 168.795262 
L 155.414545 176.48193 
L 152.878182 178.335845 
L 149.834545 180.204989 
L 148.312727 180.919527 
L 146.790909 181.365488 
L 144.761818 181.658796 
L 143.24 181.819537 
L 141.718182 182.13428 
L 140.196364 182.608848 
L 138.167273 183.397815 
L 136.138182 184.348718 
L 134.109091 185.673092 
L 133.094545 186.496266 
L 130.558182 188.973764 
L 128.529091 191.294951 
L 125.485455 195.282407 
L 122.949091 199.12505 
L 116.861818 208.681623 
L 112.803636 215.21286 
L 109.252727 220.712222 
L 102.658182 230.689802 
L 99.107273 236.498756 
L 96.063636 241.882637 
L 88.454545 255.641296 
L 86.425455 258.580626 
L 84.903636 260.416556 
L 83.381818 261.952233 
L 81.86 263.192169 
L 80.338182 264.201748 
L 78.816364 265.011103 
L 77.294545 265.608089 
L 75.265455 266.109851 
L 72.729091 266.458639 
L 70.192727 266.645455 
L 68.163636 266.624154 
L 68.163636 266.624154 
" style="fill:none;stroke:#00bfbf;stroke-linecap:square;stroke-width:1.5;"/>
   </g>
   <g id="patch_3">
    <path d="M 42.8 279 
L 42.8 7.2 
" style="fill:none;stroke:#000000;stroke-linecap:square;stroke-linejoin:miter;stroke-width:0.8;"/>
   </g>
   <g id="patch_4">
    <path d="M 600.8 279 
L 600.8 7.2 
" style="fill:none;stroke:#000000;stroke-linecap:square;stroke-linejoin:miter;stroke-width:0.8;"/>
   </g>
   <g id="patch_5">
    <path d="M 42.8 279 
L 600.8 279 
" style="fill:none;stroke:#000000;stroke-linecap:square;stroke-linejoin:miter;stroke-width:0.8;"/>
   </g>
   <g id="patch_6">
    <path d="M 42.8 7.2 
L 600.8 7.2 
" style="fill:none;stroke:#000000;stroke-linecap:square;stroke-linejoin:miter;stroke-width:0.8;"/>
   </g>
   <g id="text_18">
    <!-- (554.0,66.8) -->
    <g transform="translate(325.858182 56.593212)scale(0.1 -0.1)">
     <defs>
      <path d="M 46.484375 -3.125 
L 42.1875 -7.421875 
Q 32.421875 1.953125 27.53125 12.109375 
Q 22.65625 22.265625 22.65625 35.15625 
Q 22.65625 48.046875 27.53125 58.203125 
Q 32.421875 68.359375 42.1875 78.125 
L 46.484375 73.828125 
Q 37.5 65.234375 33 56.046875 
Q 28.515625 46.875 28.515625 35.15625 
Q 28.515625 23.4375 33 14.25 
Q 37.5 5.078125 46.484375 -3.125 
z
" id="SimHei-40"/>
      <path d="M 16.796875 1.953125 
L 7.8125 1.953125 
L 7.8125 10.546875 
L 16.796875 10.546875 
z
" id="SimHei-46"/>
      <path d="M 17.1875 1.953125 
L 12.109375 -8.59375 
L 8.203125 -8.59375 
L 12.109375 1.953125 
L 8.203125 1.953125 
L 8.203125 10.546875 
L 17.1875 10.546875 
z
" id="SimHei-44"/>
      <path d="M 26.171875 35.15625 
Q 26.171875 22.265625 21.28125 12.109375 
Q 16.40625 1.953125 6.640625 -7.421875 
L 2.34375 -3.125 
Q 11.328125 5.078125 15.8125 14.25 
Q 20.3125 23.4375 20.3125 35.15625 
Q 20.3125 46.875 15.8125 56.046875 
Q 11.328125 65.234375 2.34375 73.828125 
L 6.640625 78.125 
Q 16.40625 68.359375 21.28125 58.203125 
Q 26.171875 48.046875 26.171875 35.15625 
z
" id="SimHei-41"/>
     </defs>
     <use xlink:href="#SimHei-40"/>
     <use x="50" xlink:href="#SimHei-53"/>
     <use x="100" xlink:href="#SimHei-53"/>
     <use x="150" xlink:href="#SimHei-52"/>
     <use x="200" xlink:href="#SimHei-46"/>
     <use x="250" xlink:href="#SimHei-48"/>
     <use x="300" xlink:href="#SimHei-44"/>
     <use x="350" xlink:href="#SimHei-54"/>
     <use x="400" xlink:href="#SimHei-54"/>
     <use x="450" xlink:href="#SimHei-46"/>
     <use x="500" xlink:href="#SimHei-56"/>
     <use x="550" xlink:href="#SimHei-41"/>
    </g>
   </g>
   <g id="text_19">
    <!-- (617.0,68.1) -->
    <g transform="translate(389.774545 58.927972)scale(0.1 -0.1)">
     <use xlink:href="#SimHei-40"/>
     <use x="50" xlink:href="#SimHei-54"/>
     <use x="100" xlink:href="#SimHei-49"/>
     <use x="150" xlink:href="#SimHei-55"/>
     <use x="200" xlink:href="#SimHei-46"/>
     <use x="250" xlink:href="#SimHei-48"/>
     <use x="300" xlink:href="#SimHei-44"/>
     <use x="350" xlink:href="#SimHei-54"/>
     <use x="400" xlink:href="#SimHei-56"/>
     <use x="450" xlink:href="#SimHei-46"/>
     <use x="500" xlink:href="#SimHei-49"/>
     <use x="550" xlink:href="#SimHei-41"/>
    </g>
   </g>
   <g id="text_20">
    <!-- (718.0,67.9) -->
    <g transform="translate(492.243636 65.62263)scale(0.1 -0.1)">
     <defs>
      <path d="M 12.5 1.171875 
Q 21.09375 15.625 26.5625 27.34375 
Q 16.796875 25.78125 10.34375 29.875 
Q 3.90625 33.984375 2.53125 41.015625 
Q 1.171875 48.046875 2.734375 53.703125 
Q 4.296875 59.375 7.609375 63.078125 
Q 10.9375 66.796875 15.625 68.359375 
Q 20.3125 69.921875 24.015625 69.921875 
Q 27.734375 69.921875 31.640625 68.359375 
Q 35.546875 66.796875 38.671875 63.671875 
Q 41.796875 60.546875 42.96875 57.21875 
Q 44.140625 53.90625 44.140625 48.625 
Q 44.140625 43.359375 40.234375 35.15625 
Q 36.328125 26.953125 21.09375 1.171875 
z
M 9.765625 50 
Q 10.9375 39.84375 14.640625 36.515625 
Q 18.359375 33.203125 22.65625 33.59375 
Q 26.953125 33.984375 29.484375 35.9375 
Q 32.03125 37.890625 34.375 42.578125 
Q 35.9375 48.4375 35.15625 52.53125 
Q 34.375 56.640625 31.046875 59.375 
Q 27.734375 62.109375 23.828125 62.109375 
Q 21.484375 62.5 17.765625 60.9375 
Q 14.0625 59.375 11.90625 54.6875 
Q 9.765625 50 10.9375 39.84375 
z
" id="SimHei-57"/>
     </defs>
     <use xlink:href="#SimHei-40"/>
     <use x="50" xlink:href="#SimHei-55"/>
     <use x="100" xlink:href="#SimHei-49"/>
     <use x="150" xlink:href="#SimHei-56"/>
     <use x="200" xlink:href="#SimHei-46"/>
     <use x="250" xlink:href="#SimHei-48"/>
     <use x="300" xlink:href="#SimHei-44"/>
     <use x="350" xlink:href="#SimHei-54"/>
     <use x="400" xlink:href="#SimHei-55"/>
     <use x="450" xlink:href="#SimHei-46"/>
     <use x="500" xlink:href="#SimHei-57"/>
     <use x="550" xlink:href="#SimHei-41"/>
    </g>
   </g>
   <g id="text_21">
    <!-- (394.5,71.2) -->
    <g transform="translate(164.038182 42.841837)scale(0.1 -0.1)">
     <use xlink:href="#SimHei-40"/>
     <use x="50" xlink:href="#SimHei-51"/>
     <use x="100" xlink:href="#SimHei-57"/>
     <use x="150" xlink:href="#SimHei-52"/>
     <use x="200" xlink:href="#SimHei-46"/>
     <use x="250" xlink:href="#SimHei-53"/>
     <use x="300" xlink:href="#SimHei-44"/>
     <use x="350" xlink:href="#SimHei-55"/>
     <use x="400" xlink:href="#SimHei-49"/>
     <use x="450" xlink:href="#SimHei-46"/>
     <use x="500" xlink:href="#SimHei-50"/>
     <use x="550" xlink:href="#SimHei-41"/>
    </g>
   </g>
   <g id="text_22">
    <!-- (463.5,76.4) -->
    <g transform="translate(234.041818 32.612615)scale(0.1 -0.1)">
     <use xlink:href="#SimHei-40"/>
     <use x="50" xlink:href="#SimHei-52"/>
     <use x="100" xlink:href="#SimHei-54"/>
     <use x="150" xlink:href="#SimHei-51"/>
     <use x="200" xlink:href="#SimHei-46"/>
     <use x="250" xlink:href="#SimHei-53"/>
     <use x="300" xlink:href="#SimHei-44"/>
     <use x="350" xlink:href="#SimHei-55"/>
     <use x="400" xlink:href="#SimHei-54"/>
     <use x="450" xlink:href="#SimHei-46"/>
     <use x="500" xlink:href="#SimHei-52"/>
     <use x="550" xlink:href="#SimHei-41"/>
    </g>
   </g>
   <g id="text_23">
    <!-- (599.0,78.6) -->
    <g transform="translate(371.512727 32.132255)scale(0.1 -0.1)">
     <use xlink:href="#SimHei-40"/>
     <use x="50" xlink:href="#SimHei-53"/>
     <use x="100" xlink:href="#SimHei-57"/>
     <use x="150" xlink:href="#SimHei-57"/>
     <use x="200" xlink:href="#SimHei-46"/>
     <use x="250" xlink:href="#SimHei-48"/>
     <use x="300" xlink:href="#SimHei-44"/>
     <use x="350" xlink:href="#SimHei-55"/>
     <use x="400" xlink:href="#SimHei-56"/>
     <use x="450" xlink:href="#SimHei-46"/>
     <use x="500" xlink:href="#SimHei-54"/>
     <use x="550" xlink:href="#SimHei-41"/>
    </g>
   </g>
   <g id="text_24">
    <!-- (416.5,34.9) -->
    <g transform="translate(186.358182 157.003019)scale(0.1 -0.1)">
     <use xlink:href="#SimHei-40"/>
     <use x="50" xlink:href="#SimHei-52"/>
     <use x="100" xlink:href="#SimHei-49"/>
     <use x="150" xlink:href="#SimHei-54"/>
     <use x="200" xlink:href="#SimHei-46"/>
     <use x="250" xlink:href="#SimHei-53"/>
     <use x="300" xlink:href="#SimHei-44"/>
     <use x="350" xlink:href="#SimHei-51"/>
     <use x="400" xlink:href="#SimHei-52"/>
     <use x="450" xlink:href="#SimHei-46"/>
     <use x="500" xlink:href="#SimHei-57"/>
     <use x="550" xlink:href="#SimHei-41"/>
    </g>
   </g>
   <g id="text_25">
    <!-- (492.0,59.2) -->
    <g transform="translate(262.956364 86.768958)scale(0.1 -0.1)">
     <use xlink:href="#SimHei-40"/>
     <use x="50" xlink:href="#SimHei-52"/>
     <use x="100" xlink:href="#SimHei-57"/>
     <use x="150" xlink:href="#SimHei-50"/>
     <use x="200" xlink:href="#SimHei-46"/>
     <use x="250" xlink:href="#SimHei-48"/>
     <use x="300" xlink:href="#SimHei-44"/>
     <use x="350" xlink:href="#SimHei-53"/>
     <use x="400" xlink:href="#SimHei-57"/>
     <use x="450" xlink:href="#SimHei-46"/>
     <use x="500" xlink:href="#SimHei-50"/>
     <use x="550" xlink:href="#SimHei-41"/>
    </g>
   </g>
   <g id="text_26">
    <!-- (596.0,67.9) -->
    <g transform="translate(368.469091 65.642371)scale(0.1 -0.1)">
     <use xlink:href="#SimHei-40"/>
     <use x="50" xlink:href="#SimHei-53"/>
     <use x="100" xlink:href="#SimHei-57"/>
     <use x="150" xlink:href="#SimHei-54"/>
     <use x="200" xlink:href="#SimHei-46"/>
     <use x="250" xlink:href="#SimHei-48"/>
     <use x="300" xlink:href="#SimHei-44"/>
     <use x="350" xlink:href="#SimHei-54"/>
     <use x="400" xlink:href="#SimHei-55"/>
     <use x="450" xlink:href="#SimHei-46"/>
     <use x="500" xlink:href="#SimHei-57"/>
     <use x="550" xlink:href="#SimHei-41"/>
    </g>
   </g>
   <g id="legend_1">
    <g id="patch_7">
     <path d="M 532.7 274 
L 593.8 274 
Q 595.8 274 595.8 272 
L 595.8 230.1 
Q 595.8 228.1 593.8 228.1 
L 532.7 228.1 
Q 530.7 228.1 530.7 230.1 
L 530.7 272 
Q 530.7 274 532.7 274 
z
" style="fill:#ffffff;opacity:0.8;stroke:#cccccc;stroke-linejoin:miter;"/>
    </g>
    <g id="line2d_22">
     <path d="M 534.7 236.2 
L 554.7 236.2 
" style="fill:none;stroke:#ff0000;stroke-linecap:square;stroke-width:1.5;"/>
    </g>
    <g id="line2d_23"/>
    <g id="text_27">
     <!-- $TiO_2$ -->
     <g transform="translate(562.7 239.7)scale(0.1 -0.1)">
      <defs>
       <path d="M 18.3125 75.984375 
L 27.296875 75.984375 
L 25.09375 64.59375 
L 16.109375 64.59375 
z
M 14.203125 54.6875 
L 23.1875 54.6875 
L 12.5 0 
L 3.515625 0 
z
" id="DejaVuSans-Oblique-105"/>
       <path d="M 45.609375 66.21875 
Q 37.5 66.21875 31.296875 62.28125 
Q 25.09375 58.34375 20.515625 50.296875 
Q 17.578125 45.171875 16.03125 39.40625 
Q 14.5 33.640625 14.5 27.78125 
Q 14.5 17.625 19.359375 12.109375 
Q 24.21875 6.59375 33.109375 6.59375 
Q 41.109375 6.59375 47.375 10.5625 
Q 53.65625 14.546875 58.109375 22.40625 
Q 61.078125 27.6875 62.640625 33.46875 
Q 64.203125 39.265625 64.203125 45.015625 
Q 64.203125 55.125 59.3125 60.671875 
Q 54.4375 66.21875 45.609375 66.21875 
z
M 32.8125 -1.421875 
Q 19.390625 -1.421875 11.6875 6.53125 
Q 4 14.5 4 28.328125 
Q 4 36.234375 7 44.484375 
Q 10.015625 52.734375 15.28125 59.1875 
Q 21.484375 66.75 29.09375 70.484375 
Q 36.71875 74.21875 45.90625 74.21875 
Q 59.28125 74.21875 66.984375 66.328125 
Q 74.703125 58.453125 74.703125 44.828125 
Q 74.703125 36.421875 71.765625 28.3125 
Q 68.84375 20.21875 63.375 13.625 
Q 57.125 6 49.578125 2.28125 
Q 42.046875 -1.421875 32.8125 -1.421875 
z
" id="DejaVuSans-Oblique-79"/>
       <path d="M 19.1875 8.296875 
L 53.609375 8.296875 
L 53.609375 0 
L 7.328125 0 
L 7.328125 8.296875 
Q 12.9375 14.109375 22.625 23.890625 
Q 32.328125 33.6875 34.8125 36.53125 
Q 39.546875 41.84375 41.421875 45.53125 
Q 43.3125 49.21875 43.3125 52.78125 
Q 43.3125 58.59375 39.234375 62.25 
Q 35.15625 65.921875 28.609375 65.921875 
Q 23.96875 65.921875 18.8125 64.3125 
Q 13.671875 62.703125 7.8125 59.421875 
L 7.8125 69.390625 
Q 13.765625 71.78125 18.9375 73 
Q 24.125 74.21875 28.421875 74.21875 
Q 39.75 74.21875 46.484375 68.546875 
Q 53.21875 62.890625 53.21875 53.421875 
Q 53.21875 48.921875 51.53125 44.890625 
Q 49.859375 40.875 45.40625 35.40625 
Q 44.1875 33.984375 37.640625 27.21875 
Q 31.109375 20.453125 19.1875 8.296875 
z
" id="DejaVuSans-50"/>
      </defs>
      <use transform="translate(0 0.015625)" xlink:href="#DejaVuSans-Oblique-84"/>
      <use transform="translate(61.083984 0.015625)" xlink:href="#DejaVuSans-Oblique-105"/>
      <use transform="translate(88.867188 0.015625)" xlink:href="#DejaVuSans-Oblique-79"/>
      <use transform="translate(167.578125 -16.390625)scale(0.7)" xlink:href="#DejaVuSans-50"/>
     </g>
    </g>
    <g id="line2d_24">
     <path d="M 534.7 250.4 
L 554.7 250.4 
" style="fill:none;stroke:#bfbf00;stroke-linecap:square;stroke-width:1.5;"/>
    </g>
    <g id="line2d_25"/>
    <g id="text_28">
     <!-- $WO_3$ -->
     <g transform="translate(562.7 253.9)scale(0.1 -0.1)">
      <defs>
       <path d="M 9.625 72.90625 
L 19.1875 72.90625 
L 22.703125 10.890625 
L 50.203125 72.90625 
L 61.1875 72.90625 
L 64.796875 10.890625 
L 92 72.90625 
L 102 72.90625 
L 69.578125 0 
L 57.171875 0 
L 53.8125 60.796875 
L 26.515625 0 
L 14.109375 0 
z
" id="DejaVuSans-Oblique-87"/>
       <path d="M 40.578125 39.3125 
Q 47.65625 37.796875 51.625 33 
Q 55.609375 28.21875 55.609375 21.1875 
Q 55.609375 10.40625 48.1875 4.484375 
Q 40.765625 -1.421875 27.09375 -1.421875 
Q 22.515625 -1.421875 17.65625 -0.515625 
Q 12.796875 0.390625 7.625 2.203125 
L 7.625 11.71875 
Q 11.71875 9.328125 16.59375 8.109375 
Q 21.484375 6.890625 26.8125 6.890625 
Q 36.078125 6.890625 40.9375 10.546875 
Q 45.796875 14.203125 45.796875 21.1875 
Q 45.796875 27.640625 41.28125 31.265625 
Q 36.765625 34.90625 28.71875 34.90625 
L 20.21875 34.90625 
L 20.21875 43.015625 
L 29.109375 43.015625 
Q 36.375 43.015625 40.234375 45.921875 
Q 44.09375 48.828125 44.09375 54.296875 
Q 44.09375 59.90625 40.109375 62.90625 
Q 36.140625 65.921875 28.71875 65.921875 
Q 24.65625 65.921875 20.015625 65.03125 
Q 15.375 64.15625 9.8125 62.3125 
L 9.8125 71.09375 
Q 15.4375 72.65625 20.34375 73.4375 
Q 25.25 74.21875 29.59375 74.21875 
Q 40.828125 74.21875 47.359375 69.109375 
Q 53.90625 64.015625 53.90625 55.328125 
Q 53.90625 49.265625 50.4375 45.09375 
Q 46.96875 40.921875 40.578125 39.3125 
z
" id="DejaVuSans-51"/>
      </defs>
      <use transform="translate(0 0.78125)" xlink:href="#DejaVuSans-Oblique-87"/>
      <use transform="translate(98.876953 0.78125)" xlink:href="#DejaVuSans-Oblique-79"/>
      <use transform="translate(177.587891 -15.625)scale(0.7)" xlink:href="#DejaVuSans-51"/>
     </g>
    </g>
    <g id="line2d_26">
     <path d="M 534.7 264.8 
L 554.7 264.8 
" style="fill:none;stroke:#00bfbf;stroke-linecap:square;stroke-width:1.5;"/>
    </g>
    <g id="line2d_27"/>
    <g id="text_29">
     <!-- $BiVO_4$ -->
     <g transform="translate(562.7 268.3)scale(0.1 -0.1)">
      <defs>
       <path d="M 16.890625 72.90625 
L 42.09375 72.90625 
Q 52.34375 72.90625 57.421875 69.09375 
Q 62.5 65.28125 62.5 57.625 
Q 62.5 50.59375 58.125 45.484375 
Q 53.765625 40.375 46.6875 39.3125 
Q 52.734375 37.9375 55.765625 34.078125 
Q 58.796875 30.21875 58.796875 23.78125 
Q 58.796875 12.796875 50.65625 6.390625 
Q 42.53125 0 28.421875 0 
L 2.6875 0 
z
M 19.28125 34.8125 
L 14.109375 8.109375 
L 29.984375 8.109375 
Q 38.921875 8.109375 43.75 12.203125 
Q 48.578125 16.3125 48.578125 23.78125 
Q 48.578125 29.546875 45.375 32.171875 
Q 42.1875 34.8125 35.109375 34.8125 
z
M 25.09375 64.796875 
L 20.796875 42.828125 
L 35.5 42.828125 
Q 43.359375 42.828125 47.78125 46.234375 
Q 52.203125 49.65625 52.203125 55.71875 
Q 52.203125 60.453125 49.21875 62.625 
Q 46.234375 64.796875 39.703125 64.796875 
z
" id="DejaVuSans-Oblique-66"/>
       <path d="M 20.609375 0 
L 7.8125 72.90625 
L 17.484375 72.90625 
L 28.078125 10.203125 
L 63.484375 72.90625 
L 74.21875 72.90625 
L 32.078125 0 
z
" id="DejaVuSans-Oblique-86"/>
       <path d="M 37.796875 64.3125 
L 12.890625 25.390625 
L 37.796875 25.390625 
z
M 35.203125 72.90625 
L 47.609375 72.90625 
L 47.609375 25.390625 
L 58.015625 25.390625 
L 58.015625 17.1875 
L 47.609375 17.1875 
L 47.609375 0 
L 37.796875 0 
L 37.796875 17.1875 
L 4.890625 17.1875 
L 4.890625 26.703125 
z
" id="DejaVuSans-52"/>
      </defs>
      <use transform="translate(0 0.015625)" xlink:href="#DejaVuSans-Oblique-66"/>
      <use transform="translate(68.603516 0.015625)" xlink:href="#DejaVuSans-Oblique-105"/>
      <use transform="translate(96.386719 0.015625)" xlink:href="#DejaVuSans-Oblique-86"/>
      <use transform="translate(164.794922 0.015625)" xlink:href="#DejaVuSans-Oblique-79"/>
      <use transform="translate(243.505859 -16.390625)scale(0.7)" xlink:href="#DejaVuSans-52"/>
     </g>
    </g>
   </g>
  </g>
 </g>
 <defs>
  <clipPath id="p1059c58413">
   <rect height="271.8" width="558" x="42.8" y="7.2"/>
  </clipPath>
 </defs>
</svg>
