<?xml version="1.0" encoding="utf-8" standalone="no"?>
<!DOCTYPE svg PUBLIC "-//W3C//DTD SVG 1.1//EN"
  "http://www.w3.org/Graphics/SVG/1.1/DTD/svg11.dtd">
<!-- Created with matplotlib (https://matplotlib.org/) -->
<svg height="573.125pt" version="1.1" viewBox="0 0 594.4 573.125" width="594.4pt" xmlns="http://www.w3.org/2000/svg" xmlns:xlink="http://www.w3.org/1999/xlink">
 <metadata>
  <rdf:RDF xmlns:cc="http://creativecommons.org/ns#" xmlns:dc="http://purl.org/dc/elements/1.1/" xmlns:rdf="http://www.w3.org/1999/02/22-rdf-syntax-ns#">
   <cc:Work>
    <dc:type rdf:resource="http://purl.org/dc/dcmitype/StillImage"/>
    <dc:date>2020-10-23T18:05:32.644233</dc:date>
    <dc:format>image/svg+xml</dc:format>
    <dc:creator>
     <cc:Agent>
      <dc:title>Matplotlib v3.3.1, https://matplotlib.org/</dc:title>
     </cc:Agent>
    </dc:creator>
   </cc:Work>
  </rdf:RDF>
 </metadata>
 <defs>
  <style type="text/css">*{stroke-linecap:butt;stroke-linejoin:round;}</style>
 </defs>
 <g id="figure_1">
  <g id="patch_1">
   <path d="M 0 573.125 
L 594.4 573.125 
L 594.4 0 
L 0 0 
z
" style="fill:none;"/>
  </g>
  <g id="axes_1">
   <g id="patch_2">
    <path d="M 29.2 550.8 
L 587.2 550.8 
L 587.2 7.2 
L 29.2 7.2 
z
" style="fill:#ffffff;"/>
   </g>
   <g id="matplotlib.axis_1">
    <g id="xtick_1">
     <g id="line2d_1">
      <defs>
       <path d="M 0 0 
L 0 3.5 
" id="m462bdbeb56" style="stroke:#000000;stroke-width:0.8;"/>
      </defs>
      <g>
       <use style="stroke:#000000;stroke-width:0.8;" x="54.563636" xlink:href="#m462bdbeb56" y="550.8"/>
      </g>
     </g>
     <g id="text_1">
      <!-- 0.0 -->
      <g transform="translate(47.063636 564.675)scale(0.1 -0.1)">
       <defs>
        <path d="M 3.125 29.296875 
Q 3.90625 50 6.4375 56.046875 
Q 8.984375 62.109375 13.671875 66.015625 
Q 18.359375 69.921875 25.1875 69.921875 
Q 32.03125 69.921875 37.109375 64.25 
Q 42.1875 58.59375 43.75 50 
Q 45.3125 41.40625 44.71875 30.265625 
Q 44.140625 19.140625 40.8125 12.109375 
Q 37.5 5.078125 30.859375 2.34375 
Q 24.21875 -0.390625 17.578125 2.921875 
Q 10.9375 6.25 8.203125 11.71875 
Q 5.46875 17.1875 4.296875 23.234375 
Q 3.125 29.296875 3.90625 50 
z
M 12.890625 52.734375 
Q 10.546875 31.25 12.5 22.84375 
Q 14.453125 14.453125 18.9375 10.9375 
Q 23.4375 7.421875 28.125 9.5625 
Q 32.8125 11.71875 34.953125 18.15625 
Q 37.109375 24.609375 37.109375 32.21875 
Q 37.109375 39.84375 36.515625 46.09375 
Q 35.9375 52.34375 33 57.421875 
Q 30.078125 62.5 25.1875 62.6875 
Q 20.3125 62.890625 16.59375 57.8125 
Q 12.890625 52.734375 10.546875 31.25 
z
" id="SimHei-48"/>
        <path d="M 16.796875 1.953125 
L 7.8125 1.953125 
L 7.8125 10.546875 
L 16.796875 10.546875 
z
" id="SimHei-46"/>
       </defs>
       <use xlink:href="#SimHei-48"/>
       <use x="50" xlink:href="#SimHei-46"/>
       <use x="100" xlink:href="#SimHei-48"/>
      </g>
     </g>
    </g>
    <g id="xtick_2">
     <g id="line2d_2">
      <g>
       <use style="stroke:#000000;stroke-width:0.8;" x="139.109091" xlink:href="#m462bdbeb56" y="550.8"/>
      </g>
     </g>
     <g id="text_2">
      <!-- 0.5 -->
      <g transform="translate(131.609091 564.675)scale(0.1 -0.1)">
       <defs>
        <path d="M 8.59375 20.703125 
Q 11.328125 10.15625 17.96875 8.984375 
Q 24.609375 7.8125 28.703125 10.34375 
Q 32.8125 12.890625 34.5625 16.984375 
Q 36.328125 21.09375 36.125 26.171875 
Q 35.9375 31.25 33.390625 34.765625 
Q 30.859375 38.28125 26.953125 39.453125 
Q 23.046875 40.625 18.15625 39.453125 
Q 13.28125 38.28125 10.15625 33.984375 
L 3.515625 34.765625 
Q 4.296875 37.109375 10.9375 68.359375 
L 41.796875 68.359375 
L 41.796875 61.328125 
L 16.796875 61.328125 
Q 14.84375 50.78125 12.890625 44.53125 
Q 18.75 47.265625 23.828125 47.0625 
Q 28.90625 46.875 33.59375 44.71875 
Q 38.28125 42.578125 40.421875 38.859375 
Q 42.578125 35.15625 43.546875 31.4375 
Q 44.53125 27.734375 44.328125 23.4375 
Q 44.140625 19.140625 42.578125 14.640625 
Q 41.015625 10.15625 37.890625 7.21875 
Q 34.765625 4.296875 30.265625 2.53125 
Q 25.78125 0.78125 19.921875 1.171875 
Q 14.0625 1.5625 8.78125 5.46875 
Q 3.515625 9.375 1.5625 18.75 
z
" id="SimHei-53"/>
       </defs>
       <use xlink:href="#SimHei-48"/>
       <use x="50" xlink:href="#SimHei-46"/>
       <use x="100" xlink:href="#SimHei-53"/>
      </g>
     </g>
    </g>
    <g id="xtick_3">
     <g id="line2d_3">
      <g>
       <use style="stroke:#000000;stroke-width:0.8;" x="223.654545" xlink:href="#m462bdbeb56" y="550.8"/>
      </g>
     </g>
     <g id="text_3">
      <!-- 1.0 -->
      <g transform="translate(216.154545 564.675)scale(0.1 -0.1)">
       <defs>
        <path d="M 21.875 56.25 
Q 16.796875 51.171875 8.984375 46.484375 
L 8.984375 53.90625 
Q 18.75 60.546875 25 69.53125 
L 29.6875 69.53125 
L 29.6875 2.34375 
L 21.875 2.34375 
z
" id="SimHei-49"/>
       </defs>
       <use xlink:href="#SimHei-49"/>
       <use x="50" xlink:href="#SimHei-46"/>
       <use x="100" xlink:href="#SimHei-48"/>
      </g>
     </g>
    </g>
    <g id="xtick_4">
     <g id="line2d_4">
      <g>
       <use style="stroke:#000000;stroke-width:0.8;" x="308.2" xlink:href="#m462bdbeb56" y="550.8"/>
      </g>
     </g>
     <g id="text_4">
      <!-- 1.5 -->
      <g transform="translate(300.7 564.675)scale(0.1 -0.1)">
       <use xlink:href="#SimHei-49"/>
       <use x="50" xlink:href="#SimHei-46"/>
       <use x="100" xlink:href="#SimHei-53"/>
      </g>
     </g>
    </g>
    <g id="xtick_5">
     <g id="line2d_5">
      <g>
       <use style="stroke:#000000;stroke-width:0.8;" x="392.745455" xlink:href="#m462bdbeb56" y="550.8"/>
      </g>
     </g>
     <g id="text_5">
      <!-- 2.0 -->
      <g transform="translate(385.245455 564.675)scale(0.1 -0.1)">
       <defs>
        <path d="M 4.6875 3.90625 
Q 5.078125 9.765625 10.15625 14.453125 
Q 15.234375 19.140625 23.046875 29.09375 
Q 30.859375 39.0625 33.203125 44.53125 
Q 35.546875 50 34.953125 53.90625 
Q 34.375 57.8125 31.25 60.34375 
Q 28.125 62.890625 24.015625 62.5 
Q 19.921875 62.109375 16.203125 59.375 
Q 12.5 56.640625 10.546875 51.171875 
L 3.125 52.34375 
Q 6.25 61.328125 11.125 65.421875 
Q 16.015625 69.53125 22.65625 69.921875 
Q 26.5625 70.3125 29.6875 69.71875 
Q 32.8125 69.140625 36.125 66.984375 
Q 39.453125 64.84375 41.59375 60.546875 
Q 43.75 56.25 43.15625 50.1875 
Q 42.578125 44.140625 37.109375 35.734375 
Q 31.640625 27.34375 16.015625 9.375 
L 44.140625 9.375 
L 44.140625 2.34375 
L 4.6875 2.34375 
z
" id="SimHei-50"/>
       </defs>
       <use xlink:href="#SimHei-50"/>
       <use x="50" xlink:href="#SimHei-46"/>
       <use x="100" xlink:href="#SimHei-48"/>
      </g>
     </g>
    </g>
    <g id="xtick_6">
     <g id="line2d_6">
      <g>
       <use style="stroke:#000000;stroke-width:0.8;" x="477.290909" xlink:href="#m462bdbeb56" y="550.8"/>
      </g>
     </g>
     <g id="text_6">
      <!-- 2.5 -->
      <g transform="translate(469.790909 564.675)scale(0.1 -0.1)">
       <use xlink:href="#SimHei-50"/>
       <use x="50" xlink:href="#SimHei-46"/>
       <use x="100" xlink:href="#SimHei-53"/>
      </g>
     </g>
    </g>
    <g id="xtick_7">
     <g id="line2d_7">
      <g>
       <use style="stroke:#000000;stroke-width:0.8;" x="561.836364" xlink:href="#m462bdbeb56" y="550.8"/>
      </g>
     </g>
     <g id="text_7">
      <!-- 3.0 -->
      <g transform="translate(554.336364 564.675)scale(0.1 -0.1)">
       <defs>
        <path d="M 3.90625 19.140625 
L 10.9375 20.3125 
Q 12.5 15.234375 16.015625 11.90625 
Q 19.53125 8.59375 24.796875 8.78125 
Q 30.078125 8.984375 33.203125 13.078125 
Q 36.328125 17.1875 35.9375 22.453125 
Q 35.546875 27.734375 31.828125 30.65625 
Q 28.125 33.59375 19.921875 34.765625 
L 19.921875 39.84375 
Q 28.125 40.625 31.828125 44.140625 
Q 35.546875 47.65625 35.15625 53.3125 
Q 34.765625 58.984375 30.078125 61.515625 
Q 25.390625 64.0625 20.109375 62.109375 
Q 14.84375 60.15625 11.71875 51.171875 
L 4.6875 52.34375 
Q 7.03125 59.375 11.125 64.0625 
Q 15.234375 68.75 22.265625 69.53125 
Q 29.296875 70.3125 34.5625 67.765625 
Q 39.84375 65.234375 41.984375 59.953125 
Q 44.140625 54.6875 42.578125 48.4375 
Q 41.015625 42.1875 33.59375 37.5 
Q 39.0625 35.15625 41.984375 30.46875 
Q 44.921875 25.78125 43.9375 18.15625 
Q 42.96875 10.546875 37.109375 5.859375 
Q 31.25 1.171875 23.828125 1.359375 
Q 16.40625 1.5625 10.9375 6.046875 
Q 5.46875 10.546875 3.90625 19.140625 
z
" id="SimHei-51"/>
       </defs>
       <use xlink:href="#SimHei-51"/>
       <use x="50" xlink:href="#SimHei-46"/>
       <use x="100" xlink:href="#SimHei-48"/>
      </g>
     </g>
    </g>
   </g>
   <g id="matplotlib.axis_2">
    <g id="ytick_1">
     <g id="line2d_8">
      <defs>
       <path d="M 0 0 
L -3.5 0 
" id="m7e73d60522" style="stroke:#000000;stroke-width:0.8;"/>
      </defs>
      <g>
       <use style="stroke:#000000;stroke-width:0.8;" x="29.2" xlink:href="#m7e73d60522" y="526.086435"/>
      </g>
     </g>
     <g id="text_8">
      <!-- 0.0 -->
      <g transform="translate(7.2 529.523935)scale(0.1 -0.1)">
       <use xlink:href="#SimHei-48"/>
       <use x="50" xlink:href="#SimHei-46"/>
       <use x="100" xlink:href="#SimHei-48"/>
      </g>
     </g>
    </g>
    <g id="ytick_2">
     <g id="line2d_9">
      <g>
       <use style="stroke:#000000;stroke-width:0.8;" x="29.2" xlink:href="#m7e73d60522" y="443.723544"/>
      </g>
     </g>
     <g id="text_9">
      <!-- 0.5 -->
      <g transform="translate(7.2 447.161044)scale(0.1 -0.1)">
       <use xlink:href="#SimHei-48"/>
       <use x="50" xlink:href="#SimHei-46"/>
       <use x="100" xlink:href="#SimHei-53"/>
      </g>
     </g>
    </g>
    <g id="ytick_3">
     <g id="line2d_10">
      <g>
       <use style="stroke:#000000;stroke-width:0.8;" x="29.2" xlink:href="#m7e73d60522" y="361.360653"/>
      </g>
     </g>
     <g id="text_10">
      <!-- 1.0 -->
      <g transform="translate(7.2 364.798153)scale(0.1 -0.1)">
       <use xlink:href="#SimHei-49"/>
       <use x="50" xlink:href="#SimHei-46"/>
       <use x="100" xlink:href="#SimHei-48"/>
      </g>
     </g>
    </g>
    <g id="ytick_4">
     <g id="line2d_11">
      <g>
       <use style="stroke:#000000;stroke-width:0.8;" x="29.2" xlink:href="#m7e73d60522" y="278.997763"/>
      </g>
     </g>
     <g id="text_11">
      <!-- 1.5 -->
      <g transform="translate(7.2 282.435263)scale(0.1 -0.1)">
       <use xlink:href="#SimHei-49"/>
       <use x="50" xlink:href="#SimHei-46"/>
       <use x="100" xlink:href="#SimHei-53"/>
      </g>
     </g>
    </g>
    <g id="ytick_5">
     <g id="line2d_12">
      <g>
       <use style="stroke:#000000;stroke-width:0.8;" x="29.2" xlink:href="#m7e73d60522" y="196.634872"/>
      </g>
     </g>
     <g id="text_12">
      <!-- 2.0 -->
      <g transform="translate(7.2 200.072372)scale(0.1 -0.1)">
       <use xlink:href="#SimHei-50"/>
       <use x="50" xlink:href="#SimHei-46"/>
       <use x="100" xlink:href="#SimHei-48"/>
      </g>
     </g>
    </g>
    <g id="ytick_6">
     <g id="line2d_13">
      <g>
       <use style="stroke:#000000;stroke-width:0.8;" x="29.2" xlink:href="#m7e73d60522" y="114.271982"/>
      </g>
     </g>
     <g id="text_13">
      <!-- 2.5 -->
      <g transform="translate(7.2 117.709482)scale(0.1 -0.1)">
       <use xlink:href="#SimHei-50"/>
       <use x="50" xlink:href="#SimHei-46"/>
       <use x="100" xlink:href="#SimHei-53"/>
      </g>
     </g>
    </g>
    <g id="ytick_7">
     <g id="line2d_14">
      <g>
       <use style="stroke:#000000;stroke-width:0.8;" x="29.2" xlink:href="#m7e73d60522" y="31.909091"/>
      </g>
     </g>
     <g id="text_14">
      <!-- 3.0 -->
      <g transform="translate(7.2 35.346591)scale(0.1 -0.1)">
       <use xlink:href="#SimHei-51"/>
       <use x="50" xlink:href="#SimHei-46"/>
       <use x="100" xlink:href="#SimHei-48"/>
      </g>
     </g>
    </g>
   </g>
   <g id="line2d_15">
    <path clip-path="url(#p525d0a2341)" d="M 54.563636 526.086435 
L 59.687603 521.094744 
L 64.81157 516.103054 
L 69.935537 511.111364 
L 75.059504 506.119673 
L 80.183471 501.127983 
L 85.307438 496.136293 
L 90.431405 491.144602 
L 95.555372 486.152912 
L 100.679339 481.161222 
L 105.803306 476.169531 
L 110.927273 471.177841 
L 116.05124 466.18615 
L 121.175207 461.19446 
L 126.299174 456.20277 
L 131.42314 451.211079 
L 136.547107 446.219389 
L 141.671074 441.227699 
L 146.795041 436.236008 
L 151.919008 431.244318 
L 157.042975 426.252628 
L 162.166942 421.260937 
L 167.290909 416.269247 
L 172.414876 411.277557 
L 177.538843 406.285866 
L 182.66281 401.294176 
L 187.786777 396.302486 
L 192.910744 391.310795 
L 198.034711 386.319105 
L 203.158678 381.327415 
L 208.282645 376.335724 
L 213.406612 371.344034 
L 218.530579 366.352344 
L 223.654545 361.360653 
L 228.778512 356.368963 
L 233.902479 351.377273 
L 239.026446 346.385582 
L 244.150413 341.393892 
L 249.27438 336.402202 
L 254.398347 331.410511 
L 259.522314 326.418821 
L 264.646281 321.427131 
L 269.770248 316.43544 
L 274.894215 311.44375 
L 280.018182 306.45206 
L 285.142149 301.460369 
L 290.266116 296.468679 
L 295.390083 291.476989 
L 300.51405 286.485298 
L 305.638017 281.493608 
L 310.761983 276.501918 
L 315.88595 271.510227 
L 321.009917 266.518537 
L 326.133884 261.526847 
L 331.257851 256.535156 
L 336.381818 251.543466 
L 341.505785 246.551776 
L 346.629752 241.560085 
L 351.753719 236.568395 
L 356.877686 231.576705 
L 362.001653 226.585014 
L 367.12562 221.593324 
L 372.249587 216.601633 
L 377.373554 211.609943 
L 382.497521 206.618253 
L 387.621488 201.626562 
L 392.745455 196.634872 
L 397.869421 191.643182 
L 402.993388 186.651491 
L 408.117355 181.659801 
L 413.241322 176.668111 
L 418.365289 171.67642 
L 423.489256 166.68473 
L 428.613223 161.69304 
L 433.73719 156.701349 
L 438.861157 151.709659 
L 443.985124 146.717969 
L 449.109091 141.726278 
L 454.233058 136.734588 
L 459.357025 131.742898 
L 464.480992 126.751207 
L 469.604959 121.759517 
L 474.728926 116.767827 
L 479.852893 111.776136 
L 484.97686 106.784446 
L 490.100826 101.792756 
L 495.224793 96.801065 
L 500.34876 91.809375 
L 505.472727 86.817685 
L 510.596694 81.825994 
L 515.720661 76.834304 
L 520.844628 71.842614 
L 525.968595 66.850923 
L 531.092562 61.859233 
L 536.216529 56.867543 
L 541.340496 51.875852 
L 546.464463 46.884162 
L 551.58843 41.892472 
L 556.712397 36.900781 
L 561.836364 31.909091 
" style="fill:none;stroke:#ff0000;stroke-linecap:square;stroke-width:1.5;"/>
   </g>
   <g id="line2d_16">
    <path clip-path="url(#p525d0a2341)" d="M 54.563636 524.732406 
L 59.687603 522.40706 
L 64.81157 520.081714 
L 69.935537 517.756368 
L 75.059504 515.431022 
L 80.183471 513.105676 
L 85.307438 510.78033 
L 90.431405 508.454985 
L 95.555372 506.129639 
L 100.679339 503.804293 
L 105.803306 501.478947 
L 110.927273 499.153601 
L 116.05124 496.828255 
L 121.175207 494.502909 
L 126.299174 492.177563 
L 131.42314 489.852217 
L 136.547107 487.526871 
L 141.671074 485.201525 
L 146.795041 482.876179 
L 151.919008 480.550833 
L 157.042975 478.225487 
L 162.166942 475.900141 
L 167.290909 473.574796 
L 172.414876 471.24945 
L 177.538843 468.924104 
L 182.66281 466.598758 
L 187.786777 464.273412 
L 192.910744 461.948066 
L 198.034711 459.62272 
L 203.158678 457.297374 
L 208.282645 454.972028 
L 213.406612 452.646682 
L 218.530579 450.321336 
L 223.654545 447.99599 
L 228.778512 445.670644 
L 233.902479 443.345298 
L 239.026446 441.019952 
L 244.150413 438.694607 
L 249.27438 436.369261 
L 254.398347 434.043915 
L 259.522314 431.718569 
L 264.646281 429.393223 
L 269.770248 427.067877 
L 274.894215 424.742531 
L 280.018182 422.417185 
L 285.142149 420.091839 
L 290.266116 417.766493 
L 295.390083 415.441147 
L 300.51405 413.115801 
L 305.638017 410.790455 
L 310.761983 408.465109 
L 315.88595 406.139763 
L 321.009917 403.814418 
L 326.133884 401.489072 
L 331.257851 399.163726 
L 336.381818 396.83838 
L 341.505785 394.513034 
L 346.629752 392.187688 
L 351.753719 389.862342 
L 356.877686 387.536996 
L 362.001653 385.21165 
L 367.12562 382.886304 
L 372.249587 380.560958 
L 377.373554 378.235612 
L 382.497521 375.910266 
L 387.621488 373.58492 
L 392.745455 371.259574 
L 397.869421 368.934229 
L 402.993388 366.608883 
L 408.117355 364.283537 
L 413.241322 361.958191 
L 418.365289 359.632845 
L 423.489256 357.307499 
L 428.613223 354.982153 
L 433.73719 352.656807 
L 438.861157 350.331461 
L 443.985124 348.006115 
L 449.109091 345.680769 
L 454.233058 343.355423 
L 459.357025 341.030077 
L 464.480992 338.704731 
L 469.604959 336.379385 
L 474.728926 334.05404 
L 479.852893 331.728694 
L 484.97686 329.403348 
L 490.100826 327.078002 
L 495.224793 324.752656 
L 500.34876 322.42731 
L 505.472727 320.101964 
L 510.596694 317.776618 
L 515.720661 315.451272 
L 520.844628 313.125926 
L 525.968595 310.80058 
L 531.092562 308.475234 
L 536.216529 306.149888 
L 541.340496 303.824542 
L 546.464463 301.499196 
L 551.58843 299.17385 
L 556.712397 296.848505 
L 561.836364 294.523159 
" style="fill:none;stroke:#bfbf00;stroke-linecap:square;stroke-width:1.5;"/>
   </g>
   <g id="line2d_17">
    <defs>
     <path d="M 0 1.25 
C 0.331504 1.25 0.649475 1.118292 0.883883 0.883883 
C 1.118292 0.649475 1.25 0.331504 1.25 0 
C 1.25 -0.331504 1.118292 -0.649475 0.883883 -0.883883 
C 0.649475 -1.118292 0.331504 -1.25 0 -1.25 
C -0.331504 -1.25 -0.649475 -1.118292 -0.883883 -0.883883 
C -1.118292 -0.649475 -1.25 -0.331504 -1.25 0 
C -1.25 0.331504 -1.118292 0.649475 -0.883883 0.883883 
C -0.649475 1.118292 -0.331504 1.25 0 1.25 
z
" id="m3ac18d7219" style="stroke:#000000;"/>
    </defs>
    <g clip-path="url(#p525d0a2341)">
     <use style="stroke:#000000;" x="436.032727" xlink:href="#m3ac18d7219" y="351.147655"/>
     <use style="stroke:#000000;" x="66.738182" xlink:href="#m3ac18d7219" y="518.344323"/>
     <use style="stroke:#000000;" x="85.845455" xlink:href="#m3ac18d7219" y="509.778582"/>
     <use style="stroke:#000000;" x="105.46" xlink:href="#m3ac18d7219" y="501.377567"/>
     <use style="stroke:#000000;" x="110.025455" xlink:href="#m3ac18d7219" y="499.400858"/>
     <use style="stroke:#000000;" x="158.892727" xlink:href="#m3ac18d7219" y="478.151232"/>
     <use style="stroke:#000000;" x="141.983636" xlink:href="#m3ac18d7219" y="485.893344"/>
     <use style="stroke:#000000;" x="144.689091" xlink:href="#m3ac18d7219" y="484.740263"/>
    </g>
   </g>
   <g id="line2d_18">
    <path clip-path="url(#p525d0a2341)" d="M 54.563636 525.393852 
L 59.687603 520.673737 
L 64.81157 515.953621 
L 69.935537 511.233506 
L 75.059504 506.513391 
L 80.183471 501.793275 
L 85.307438 497.07316 
L 90.431405 492.353045 
L 95.555372 487.632929 
L 100.679339 482.912814 
L 105.803306 478.192699 
L 110.927273 473.472583 
L 116.05124 468.752468 
L 121.175207 464.032353 
L 126.299174 459.312237 
L 131.42314 454.592122 
L 136.547107 449.872007 
L 141.671074 445.151891 
L 146.795041 440.431776 
L 151.919008 435.711661 
L 157.042975 430.991545 
L 162.166942 426.27143 
L 167.290909 421.551315 
L 172.414876 416.831199 
L 177.538843 412.111084 
L 182.66281 407.390969 
L 187.786777 402.670853 
L 192.910744 397.950738 
L 198.034711 393.230623 
L 203.158678 388.510507 
L 208.282645 383.790392 
L 213.406612 379.070277 
L 218.530579 374.350161 
L 223.654545 369.630046 
L 228.778512 364.909931 
L 233.902479 360.189815 
L 239.026446 355.4697 
L 244.150413 350.749585 
L 249.27438 346.029469 
L 254.398347 341.309354 
L 259.522314 336.589239 
L 264.646281 331.869123 
L 269.770248 327.149008 
L 274.894215 322.428893 
L 280.018182 317.708777 
L 285.142149 312.988662 
L 290.266116 308.268547 
L 295.390083 303.548431 
L 300.51405 298.828316 
L 305.638017 294.108201 
L 310.761983 289.388085 
L 315.88595 284.66797 
L 321.009917 279.947855 
L 326.133884 275.227739 
L 331.257851 270.507624 
L 336.381818 265.787509 
L 341.505785 261.067393 
L 346.629752 256.347278 
L 351.753719 251.627163 
L 356.877686 246.907047 
L 362.001653 242.186932 
L 367.12562 237.466817 
L 372.249587 232.746701 
L 377.373554 228.026586 
L 382.497521 223.306471 
L 387.621488 218.586355 
L 392.745455 213.86624 
L 397.869421 209.146125 
L 402.993388 204.426009 
L 408.117355 199.705894 
L 413.241322 194.985779 
L 418.365289 190.265663 
L 423.489256 185.545548 
L 428.613223 180.825433 
L 433.73719 176.105317 
L 438.861157 171.385202 
L 443.985124 166.665087 
L 449.109091 161.944971 
L 454.233058 157.224856 
L 459.357025 152.504741 
L 464.480992 147.784625 
L 469.604959 143.06451 
L 474.728926 138.344395 
L 479.852893 133.624279 
L 484.97686 128.904164 
L 490.100826 124.184049 
L 495.224793 119.463933 
L 500.34876 114.743818 
L 505.472727 110.023703 
L 510.596694 105.303587 
L 515.720661 100.583472 
L 520.844628 95.863357 
L 525.968595 91.143241 
L 531.092562 86.423126 
L 536.216529 81.703011 
L 541.340496 76.982895 
L 546.464463 72.26278 
L 551.58843 67.542665 
L 556.712397 62.822549 
L 561.836364 58.102434 
" style="fill:none;stroke:#00bfbf;stroke-linecap:square;stroke-width:1.5;"/>
   </g>
   <g id="line2d_19">
    <g clip-path="url(#p525d0a2341)">
     <use style="stroke:#000000;" x="436.032727" xlink:href="#m3ac18d7219" y="174.232166"/>
     <use style="stroke:#000000;" x="66.738182" xlink:href="#m3ac18d7219" y="514.720356"/>
     <use style="stroke:#000000;" x="85.845455" xlink:href="#m3ac18d7219" y="496.929971"/>
     <use style="stroke:#000000;" x="105.46" xlink:href="#m3ac18d7219" y="478.64541"/>
     <use style="stroke:#000000;" x="110.025455" xlink:href="#m3ac18d7219" y="474.362539"/>
     <use style="stroke:#000000;" x="158.892727" xlink:href="#m3ac18d7219" y="429.227675"/>
     <use style="stroke:#000000;" x="141.983636" xlink:href="#m3ac18d7219" y="444.547173"/>
     <use style="stroke:#000000;" x="144.689091" xlink:href="#m3ac18d7219" y="441.417383"/>
    </g>
   </g>
   <g id="line2d_20">
    <path clip-path="url(#p525d0a2341)" d="M 54.563636 526.090909 
L 59.687603 525.407687 
L 64.81157 524.724464 
L 69.935537 524.041242 
L 75.059504 523.358019 
L 80.183471 522.674797 
L 85.307438 521.991574 
L 90.431405 521.308352 
L 95.555372 520.625129 
L 100.679339 519.941907 
L 105.803306 519.258684 
L 110.927273 518.575462 
L 116.05124 517.892239 
L 121.175207 517.209017 
L 126.299174 516.525794 
L 131.42314 515.842572 
L 136.547107 515.159349 
L 141.671074 514.476127 
L 146.795041 513.792904 
L 151.919008 513.109682 
L 157.042975 512.426459 
L 162.166942 511.743237 
L 167.290909 511.060014 
L 172.414876 510.376792 
L 177.538843 509.693569 
L 182.66281 509.010347 
L 187.786777 508.327124 
L 192.910744 507.643902 
L 198.034711 506.960679 
L 203.158678 506.277457 
L 208.282645 505.594234 
L 213.406612 504.911012 
L 218.530579 504.227789 
L 223.654545 503.544567 
L 228.778512 502.861344 
L 233.902479 502.178122 
L 239.026446 501.494899 
L 244.150413 500.811677 
L 249.27438 500.128454 
L 254.398347 499.445232 
L 259.522314 498.762009 
L 264.646281 498.078787 
L 269.770248 497.395564 
L 274.894215 496.712342 
L 280.018182 496.029119 
L 285.142149 495.345897 
L 290.266116 494.662674 
L 295.390083 493.979452 
L 300.51405 493.296229 
L 305.638017 492.613007 
L 310.761983 491.929784 
L 315.88595 491.246562 
L 321.009917 490.563339 
L 326.133884 489.880117 
L 331.257851 489.196894 
L 336.381818 488.513672 
L 341.505785 487.830449 
L 346.629752 487.147227 
L 351.753719 486.464004 
L 356.877686 485.780782 
L 362.001653 485.097559 
L 367.12562 484.414337 
L 372.249587 483.731114 
L 377.373554 483.047892 
L 382.497521 482.364669 
L 387.621488 481.681447 
L 392.745455 480.998224 
L 397.869421 480.315002 
L 402.993388 479.631779 
L 408.117355 478.948557 
L 413.241322 478.265334 
L 418.365289 477.582112 
L 423.489256 476.898889 
L 428.613223 476.215667 
L 433.73719 475.532445 
L 438.861157 474.849222 
L 443.985124 474.166 
L 449.109091 473.482777 
L 454.233058 472.799555 
L 459.357025 472.116332 
L 464.480992 471.43311 
L 469.604959 470.749887 
L 474.728926 470.066665 
L 479.852893 469.383442 
L 484.97686 468.70022 
L 490.100826 468.016997 
L 495.224793 467.333775 
L 500.34876 466.650552 
L 505.472727 465.96733 
L 510.596694 465.284107 
L 515.720661 464.600885 
L 520.844628 463.917662 
L 525.968595 463.23444 
L 531.092562 462.551217 
L 536.216529 461.867995 
L 541.340496 461.184772 
L 546.464463 460.50155 
L 551.58843 459.818327 
L 556.712397 459.135105 
L 561.836364 458.451882 
" style="fill:none;stroke:#008000;stroke-linecap:square;stroke-width:1.5;"/>
   </g>
   <g id="line2d_21">
    <g clip-path="url(#p525d0a2341)">
     <use style="stroke:#000000;" x="436.032727" xlink:href="#m3ac18d7219" y="475.186168"/>
     <use style="stroke:#000000;" x="66.738182" xlink:href="#m3ac18d7219" y="524.439177"/>
     <use style="stroke:#000000;" x="85.845455" xlink:href="#m3ac18d7219" y="521.803564"/>
     <use style="stroke:#000000;" x="105.46" xlink:href="#m3ac18d7219" y="519.332678"/>
     <use style="stroke:#000000;" x="110.025455" xlink:href="#m3ac18d7219" y="518.673774"/>
     <use style="stroke:#000000;" x="158.892727" xlink:href="#m3ac18d7219" y="512.414195"/>
     <use style="stroke:#000000;" x="141.983636" xlink:href="#m3ac18d7219" y="514.55563"/>
     <use style="stroke:#000000;" x="144.689091" xlink:href="#m3ac18d7219" y="513.896727"/>
    </g>
   </g>
   <g id="line2d_22">
    <path clip-path="url(#p525d0a2341)" d="M 54.563636 525.925732 
L 59.687603 525.615171 
L 64.81157 525.304609 
L 69.935537 524.994048 
L 75.059504 524.683486 
L 80.183471 524.372924 
L 85.307438 524.062363 
L 90.431405 523.751801 
L 95.555372 523.441239 
L 100.679339 523.130678 
L 105.803306 522.820116 
L 110.927273 522.509555 
L 116.05124 522.198993 
L 121.175207 521.888431 
L 126.299174 521.57787 
L 131.42314 521.267308 
L 136.547107 520.956746 
L 141.671074 520.646185 
L 146.795041 520.335623 
L 151.919008 520.025062 
L 157.042975 519.7145 
L 162.166942 519.403938 
L 167.290909 519.093377 
L 172.414876 518.782815 
L 177.538843 518.472253 
L 182.66281 518.161692 
L 187.786777 517.85113 
L 192.910744 517.540569 
L 198.034711 517.230007 
L 203.158678 516.919445 
L 208.282645 516.608884 
L 213.406612 516.298322 
L 218.530579 515.987761 
L 223.654545 515.677199 
L 228.778512 515.366637 
L 233.902479 515.056076 
L 239.026446 514.745514 
L 244.150413 514.434952 
L 249.27438 514.124391 
L 254.398347 513.813829 
L 259.522314 513.503268 
L 264.646281 513.192706 
L 269.770248 512.882144 
L 274.894215 512.571583 
L 280.018182 512.261021 
L 285.142149 511.950459 
L 290.266116 511.639898 
L 295.390083 511.329336 
L 300.51405 511.018775 
L 305.638017 510.708213 
L 310.761983 510.397651 
L 315.88595 510.08709 
L 321.009917 509.776528 
L 326.133884 509.465966 
L 331.257851 509.155405 
L 336.381818 508.844843 
L 341.505785 508.534282 
L 346.629752 508.22372 
L 351.753719 507.913158 
L 356.877686 507.602597 
L 362.001653 507.292035 
L 367.12562 506.981473 
L 372.249587 506.670912 
L 377.373554 506.36035 
L 382.497521 506.049789 
L 387.621488 505.739227 
L 392.745455 505.428665 
L 397.869421 505.118104 
L 402.993388 504.807542 
L 408.117355 504.49698 
L 413.241322 504.186419 
L 418.365289 503.875857 
L 423.489256 503.565296 
L 428.613223 503.254734 
L 433.73719 502.944172 
L 438.861157 502.633611 
L 443.985124 502.323049 
L 449.109091 502.012487 
L 454.233058 501.701926 
L 459.357025 501.391364 
L 464.480992 501.080803 
L 469.604959 500.770241 
L 474.728926 500.459679 
L 479.852893 500.149118 
L 484.97686 499.838556 
L 490.100826 499.527994 
L 495.224793 499.217433 
L 500.34876 498.906871 
L 505.472727 498.59631 
L 510.596694 498.285748 
L 515.720661 497.975186 
L 520.844628 497.664625 
L 525.968595 497.354063 
L 531.092562 497.043501 
L 536.216529 496.73294 
L 541.340496 496.422378 
L 546.464463 496.111817 
L 551.58843 495.801255 
L 556.712397 495.490693 
L 561.836364 495.180132 
" style="fill:none;stroke:#0000ff;stroke-linecap:square;stroke-width:1.5;"/>
   </g>
   <g id="line2d_23">
    <g clip-path="url(#p525d0a2341)">
     <use style="stroke:#000000;" x="436.032727" xlink:href="#m3ac18d7219" y="502.860099"/>
     <use style="stroke:#000000;" x="66.738182" xlink:href="#m3ac18d7219" y="525.262806"/>
     <use style="stroke:#000000;" x="85.845455" xlink:href="#m3ac18d7219" y="524.109725"/>
     <use style="stroke:#000000;" x="105.46" xlink:href="#m3ac18d7219" y="522.956645"/>
     <use style="stroke:#000000;" x="110.025455" xlink:href="#m3ac18d7219" y="522.627193"/>
     <use style="stroke:#000000;" x="158.892727" xlink:href="#m3ac18d7219" y="519.662129"/>
     <use style="stroke:#000000;" x="141.983636" xlink:href="#m3ac18d7219" y="520.485758"/>
     <use style="stroke:#000000;" x="144.689091" xlink:href="#m3ac18d7219" y="520.156306"/>
    </g>
   </g>
   <g id="patch_3">
    <path d="M 29.2 550.8 
L 29.2 7.2 
" style="fill:none;stroke:#000000;stroke-linecap:square;stroke-linejoin:miter;stroke-width:0.8;"/>
   </g>
   <g id="patch_4">
    <path d="M 587.2 550.8 
L 587.2 7.2 
" style="fill:none;stroke:#000000;stroke-linecap:square;stroke-linejoin:miter;stroke-width:0.8;"/>
   </g>
   <g id="patch_5">
    <path d="M 29.2 550.8 
L 587.2 550.8 
" style="fill:none;stroke:#000000;stroke-linecap:square;stroke-linejoin:miter;stroke-width:0.8;"/>
   </g>
   <g id="patch_6">
    <path d="M 29.2 7.2 
L 587.2 7.2 
" style="fill:none;stroke:#000000;stroke-linecap:square;stroke-linejoin:miter;stroke-width:0.8;"/>
   </g>
   <g id="text_15">
    <!-- $0.466*x+0.00822$ -->
    <g transform="translate(436.032727 359.383944)scale(0.1 -0.1)">
     <defs>
      <path d="M 31.78125 66.40625 
Q 24.171875 66.40625 20.328125 58.90625 
Q 16.5 51.421875 16.5 36.375 
Q 16.5 21.390625 20.328125 13.890625 
Q 24.171875 6.390625 31.78125 6.390625 
Q 39.453125 6.390625 43.28125 13.890625 
Q 47.125 21.390625 47.125 36.375 
Q 47.125 51.421875 43.28125 58.90625 
Q 39.453125 66.40625 31.78125 66.40625 
z
M 31.78125 74.21875 
Q 44.046875 74.21875 50.515625 64.515625 
Q 56.984375 54.828125 56.984375 36.375 
Q 56.984375 17.96875 50.515625 8.265625 
Q 44.046875 -1.421875 31.78125 -1.421875 
Q 19.53125 -1.421875 13.0625 8.265625 
Q 6.59375 17.96875 6.59375 36.375 
Q 6.59375 54.828125 13.0625 64.515625 
Q 19.53125 74.21875 31.78125 74.21875 
z
" id="DejaVuSans-48"/>
      <path d="M 10.6875 12.40625 
L 21 12.40625 
L 21 0 
L 10.6875 0 
z
" id="DejaVuSans-46"/>
      <path d="M 37.796875 64.3125 
L 12.890625 25.390625 
L 37.796875 25.390625 
z
M 35.203125 72.90625 
L 47.609375 72.90625 
L 47.609375 25.390625 
L 58.015625 25.390625 
L 58.015625 17.1875 
L 47.609375 17.1875 
L 47.609375 0 
L 37.796875 0 
L 37.796875 17.1875 
L 4.890625 17.1875 
L 4.890625 26.703125 
z
" id="DejaVuSans-52"/>
      <path d="M 33.015625 40.375 
Q 26.375 40.375 22.484375 35.828125 
Q 18.609375 31.296875 18.609375 23.390625 
Q 18.609375 15.53125 22.484375 10.953125 
Q 26.375 6.390625 33.015625 6.390625 
Q 39.65625 6.390625 43.53125 10.953125 
Q 47.40625 15.53125 47.40625 23.390625 
Q 47.40625 31.296875 43.53125 35.828125 
Q 39.65625 40.375 33.015625 40.375 
z
M 52.59375 71.296875 
L 52.59375 62.3125 
Q 48.875 64.0625 45.09375 64.984375 
Q 41.3125 65.921875 37.59375 65.921875 
Q 27.828125 65.921875 22.671875 59.328125 
Q 17.53125 52.734375 16.796875 39.40625 
Q 19.671875 43.65625 24.015625 45.921875 
Q 28.375 48.1875 33.59375 48.1875 
Q 44.578125 48.1875 50.953125 41.515625 
Q 57.328125 34.859375 57.328125 23.390625 
Q 57.328125 12.15625 50.6875 5.359375 
Q 44.046875 -1.421875 33.015625 -1.421875 
Q 20.359375 -1.421875 13.671875 8.265625 
Q 6.984375 17.96875 6.984375 36.375 
Q 6.984375 53.65625 15.1875 63.9375 
Q 23.390625 74.21875 37.203125 74.21875 
Q 40.921875 74.21875 44.703125 73.484375 
Q 48.484375 72.75 52.59375 71.296875 
z
" id="DejaVuSans-54"/>
      <path d="M 47.015625 60.890625 
L 29.5 51.421875 
L 47.015625 41.890625 
L 44.1875 37.109375 
L 27.78125 47.015625 
L 27.78125 28.609375 
L 22.21875 28.609375 
L 22.21875 47.015625 
L 5.8125 37.109375 
L 2.984375 41.890625 
L 20.515625 51.421875 
L 2.984375 60.890625 
L 5.8125 65.71875 
L 22.21875 55.8125 
L 22.21875 74.21875 
L 27.78125 74.21875 
L 27.78125 55.8125 
L 44.1875 65.71875 
z
" id="DejaVuSans-42"/>
      <path d="M 60.015625 54.6875 
L 34.90625 27.875 
L 50.296875 0 
L 39.984375 0 
L 28.421875 21.6875 
L 8.296875 0 
L -2.59375 0 
L 24.3125 28.8125 
L 10.015625 54.6875 
L 20.3125 54.6875 
L 30.8125 34.90625 
L 49.125 54.6875 
z
" id="DejaVuSans-Oblique-120"/>
      <path d="M 46 62.703125 
L 46 35.5 
L 73.1875 35.5 
L 73.1875 27.203125 
L 46 27.203125 
L 46 0 
L 37.796875 0 
L 37.796875 27.203125 
L 10.59375 27.203125 
L 10.59375 35.5 
L 37.796875 35.5 
L 37.796875 62.703125 
z
" id="DejaVuSans-43"/>
      <path d="M 31.78125 34.625 
Q 24.75 34.625 20.71875 30.859375 
Q 16.703125 27.09375 16.703125 20.515625 
Q 16.703125 13.921875 20.71875 10.15625 
Q 24.75 6.390625 31.78125 6.390625 
Q 38.8125 6.390625 42.859375 10.171875 
Q 46.921875 13.96875 46.921875 20.515625 
Q 46.921875 27.09375 42.890625 30.859375 
Q 38.875 34.625 31.78125 34.625 
z
M 21.921875 38.8125 
Q 15.578125 40.375 12.03125 44.71875 
Q 8.5 49.078125 8.5 55.328125 
Q 8.5 64.0625 14.71875 69.140625 
Q 20.953125 74.21875 31.78125 74.21875 
Q 42.671875 74.21875 48.875 69.140625 
Q 55.078125 64.0625 55.078125 55.328125 
Q 55.078125 49.078125 51.53125 44.71875 
Q 48 40.375 41.703125 38.8125 
Q 48.828125 37.15625 52.796875 32.3125 
Q 56.78125 27.484375 56.78125 20.515625 
Q 56.78125 9.90625 50.3125 4.234375 
Q 43.84375 -1.421875 31.78125 -1.421875 
Q 19.734375 -1.421875 13.25 4.234375 
Q 6.78125 9.90625 6.78125 20.515625 
Q 6.78125 27.484375 10.78125 32.3125 
Q 14.796875 37.15625 21.921875 38.8125 
z
M 18.3125 54.390625 
Q 18.3125 48.734375 21.84375 45.5625 
Q 25.390625 42.390625 31.78125 42.390625 
Q 38.140625 42.390625 41.71875 45.5625 
Q 45.3125 48.734375 45.3125 54.390625 
Q 45.3125 60.0625 41.71875 63.234375 
Q 38.140625 66.40625 31.78125 66.40625 
Q 25.390625 66.40625 21.84375 63.234375 
Q 18.3125 60.0625 18.3125 54.390625 
z
" id="DejaVuSans-56"/>
      <path d="M 19.1875 8.296875 
L 53.609375 8.296875 
L 53.609375 0 
L 7.328125 0 
L 7.328125 8.296875 
Q 12.9375 14.109375 22.625 23.890625 
Q 32.328125 33.6875 34.8125 36.53125 
Q 39.546875 41.84375 41.421875 45.53125 
Q 43.3125 49.21875 43.3125 52.78125 
Q 43.3125 58.59375 39.234375 62.25 
Q 35.15625 65.921875 28.609375 65.921875 
Q 23.96875 65.921875 18.8125 64.3125 
Q 13.671875 62.703125 7.8125 59.421875 
L 7.8125 69.390625 
Q 13.765625 71.78125 18.9375 73 
Q 24.125 74.21875 28.421875 74.21875 
Q 39.75 74.21875 46.484375 68.546875 
Q 53.21875 62.890625 53.21875 53.421875 
Q 53.21875 48.921875 51.53125 44.890625 
Q 49.859375 40.875 45.40625 35.40625 
Q 44.1875 33.984375 37.640625 27.21875 
Q 31.109375 20.453125 19.1875 8.296875 
z
" id="DejaVuSans-50"/>
     </defs>
     <use transform="translate(0 0.78125)" xlink:href="#DejaVuSans-48"/>
     <use transform="translate(63.623047 0.78125)" xlink:href="#DejaVuSans-46"/>
     <use transform="translate(95.410156 0.78125)" xlink:href="#DejaVuSans-52"/>
     <use transform="translate(159.033203 0.78125)" xlink:href="#DejaVuSans-54"/>
     <use transform="translate(222.65625 0.78125)" xlink:href="#DejaVuSans-54"/>
     <use transform="translate(305.761719 0.78125)" xlink:href="#DejaVuSans-42"/>
     <use transform="translate(375.244141 0.78125)" xlink:href="#DejaVuSans-Oblique-120"/>
     <use transform="translate(453.90625 0.78125)" xlink:href="#DejaVuSans-43"/>
     <use transform="translate(557.177734 0.78125)" xlink:href="#DejaVuSans-48"/>
     <use transform="translate(620.800781 0.78125)" xlink:href="#DejaVuSans-46"/>
     <use transform="translate(652.587891 0.78125)" xlink:href="#DejaVuSans-48"/>
     <use transform="translate(716.210938 0.78125)" xlink:href="#DejaVuSans-48"/>
     <use transform="translate(779.833984 0.78125)" xlink:href="#DejaVuSans-56"/>
     <use transform="translate(843.457031 0.78125)" xlink:href="#DejaVuSans-50"/>
     <use transform="translate(907.080078 0.78125)" xlink:href="#DejaVuSans-50"/>
    </g>
   </g>
   <g id="text_16">
    <!-- $0.946*x+0.0042$ -->
    <g transform="translate(436.032727 182.468455)scale(0.1 -0.1)">
     <defs>
      <path d="M 10.984375 1.515625 
L 10.984375 10.5 
Q 14.703125 8.734375 18.5 7.8125 
Q 22.3125 6.890625 25.984375 6.890625 
Q 35.75 6.890625 40.890625 13.453125 
Q 46.046875 20.015625 46.78125 33.40625 
Q 43.953125 29.203125 39.59375 26.953125 
Q 35.25 24.703125 29.984375 24.703125 
Q 19.046875 24.703125 12.671875 31.3125 
Q 6.296875 37.9375 6.296875 49.421875 
Q 6.296875 60.640625 12.9375 67.421875 
Q 19.578125 74.21875 30.609375 74.21875 
Q 43.265625 74.21875 49.921875 64.515625 
Q 56.59375 54.828125 56.59375 36.375 
Q 56.59375 19.140625 48.40625 8.859375 
Q 40.234375 -1.421875 26.421875 -1.421875 
Q 22.703125 -1.421875 18.890625 -0.6875 
Q 15.09375 0.046875 10.984375 1.515625 
z
M 30.609375 32.421875 
Q 37.25 32.421875 41.125 36.953125 
Q 45.015625 41.5 45.015625 49.421875 
Q 45.015625 57.28125 41.125 61.84375 
Q 37.25 66.40625 30.609375 66.40625 
Q 23.96875 66.40625 20.09375 61.84375 
Q 16.21875 57.28125 16.21875 49.421875 
Q 16.21875 41.5 20.09375 36.953125 
Q 23.96875 32.421875 30.609375 32.421875 
z
" id="DejaVuSans-57"/>
     </defs>
     <use transform="translate(0 0.78125)" xlink:href="#DejaVuSans-48"/>
     <use transform="translate(63.623047 0.78125)" xlink:href="#DejaVuSans-46"/>
     <use transform="translate(95.410156 0.78125)" xlink:href="#DejaVuSans-57"/>
     <use transform="translate(159.033203 0.78125)" xlink:href="#DejaVuSans-52"/>
     <use transform="translate(222.65625 0.78125)" xlink:href="#DejaVuSans-54"/>
     <use transform="translate(305.761719 0.78125)" xlink:href="#DejaVuSans-42"/>
     <use transform="translate(375.244141 0.78125)" xlink:href="#DejaVuSans-Oblique-120"/>
     <use transform="translate(453.90625 0.78125)" xlink:href="#DejaVuSans-43"/>
     <use transform="translate(557.177734 0.78125)" xlink:href="#DejaVuSans-48"/>
     <use transform="translate(620.800781 0.78125)" xlink:href="#DejaVuSans-46"/>
     <use transform="translate(652.587891 0.78125)" xlink:href="#DejaVuSans-48"/>
     <use transform="translate(716.210938 0.78125)" xlink:href="#DejaVuSans-48"/>
     <use transform="translate(779.833984 0.78125)" xlink:href="#DejaVuSans-52"/>
     <use transform="translate(843.457031 0.78125)" xlink:href="#DejaVuSans-50"/>
    </g>
   </g>
   <g id="text_17">
    <!-- $0.137*x-2.72E-05$ -->
    <g transform="translate(436.032727 483.422457)scale(0.1 -0.1)">
     <defs>
      <path d="M 12.40625 8.296875 
L 28.515625 8.296875 
L 28.515625 63.921875 
L 10.984375 60.40625 
L 10.984375 69.390625 
L 28.421875 72.90625 
L 38.28125 72.90625 
L 38.28125 8.296875 
L 54.390625 8.296875 
L 54.390625 0 
L 12.40625 0 
z
" id="DejaVuSans-49"/>
      <path d="M 40.578125 39.3125 
Q 47.65625 37.796875 51.625 33 
Q 55.609375 28.21875 55.609375 21.1875 
Q 55.609375 10.40625 48.1875 4.484375 
Q 40.765625 -1.421875 27.09375 -1.421875 
Q 22.515625 -1.421875 17.65625 -0.515625 
Q 12.796875 0.390625 7.625 2.203125 
L 7.625 11.71875 
Q 11.71875 9.328125 16.59375 8.109375 
Q 21.484375 6.890625 26.8125 6.890625 
Q 36.078125 6.890625 40.9375 10.546875 
Q 45.796875 14.203125 45.796875 21.1875 
Q 45.796875 27.640625 41.28125 31.265625 
Q 36.765625 34.90625 28.71875 34.90625 
L 20.21875 34.90625 
L 20.21875 43.015625 
L 29.109375 43.015625 
Q 36.375 43.015625 40.234375 45.921875 
Q 44.09375 48.828125 44.09375 54.296875 
Q 44.09375 59.90625 40.109375 62.90625 
Q 36.140625 65.921875 28.71875 65.921875 
Q 24.65625 65.921875 20.015625 65.03125 
Q 15.375 64.15625 9.8125 62.3125 
L 9.8125 71.09375 
Q 15.4375 72.65625 20.34375 73.4375 
Q 25.25 74.21875 29.59375 74.21875 
Q 40.828125 74.21875 47.359375 69.109375 
Q 53.90625 64.015625 53.90625 55.328125 
Q 53.90625 49.265625 50.4375 45.09375 
Q 46.96875 40.921875 40.578125 39.3125 
z
" id="DejaVuSans-51"/>
      <path d="M 8.203125 72.90625 
L 55.078125 72.90625 
L 55.078125 68.703125 
L 28.609375 0 
L 18.3125 0 
L 43.21875 64.59375 
L 8.203125 64.59375 
z
" id="DejaVuSans-55"/>
      <path d="M 10.59375 35.5 
L 73.1875 35.5 
L 73.1875 27.203125 
L 10.59375 27.203125 
z
" id="DejaVuSans-8722"/>
      <path d="M 16.890625 72.90625 
L 62.984375 72.90625 
L 61.375 64.59375 
L 25.09375 64.59375 
L 20.90625 43.015625 
L 55.71875 43.015625 
L 54.109375 34.71875 
L 19.28125 34.71875 
L 14.203125 8.296875 
L 51.3125 8.296875 
L 49.703125 0 
L 2.6875 0 
z
" id="DejaVuSans-Oblique-69"/>
      <path d="M 10.796875 72.90625 
L 49.515625 72.90625 
L 49.515625 64.59375 
L 19.828125 64.59375 
L 19.828125 46.734375 
Q 21.96875 47.46875 24.109375 47.828125 
Q 26.265625 48.1875 28.421875 48.1875 
Q 40.625 48.1875 47.75 41.5 
Q 54.890625 34.8125 54.890625 23.390625 
Q 54.890625 11.625 47.5625 5.09375 
Q 40.234375 -1.421875 26.90625 -1.421875 
Q 22.3125 -1.421875 17.546875 -0.640625 
Q 12.796875 0.140625 7.71875 1.703125 
L 7.71875 11.625 
Q 12.109375 9.234375 16.796875 8.0625 
Q 21.484375 6.890625 26.703125 6.890625 
Q 35.15625 6.890625 40.078125 11.328125 
Q 45.015625 15.765625 45.015625 23.390625 
Q 45.015625 31 40.078125 35.4375 
Q 35.15625 39.890625 26.703125 39.890625 
Q 22.75 39.890625 18.8125 39.015625 
Q 14.890625 38.140625 10.796875 36.28125 
z
" id="DejaVuSans-53"/>
     </defs>
     <use transform="translate(0 0.78125)" xlink:href="#DejaVuSans-48"/>
     <use transform="translate(63.623047 0.78125)" xlink:href="#DejaVuSans-46"/>
     <use transform="translate(95.410156 0.78125)" xlink:href="#DejaVuSans-49"/>
     <use transform="translate(159.033203 0.78125)" xlink:href="#DejaVuSans-51"/>
     <use transform="translate(222.65625 0.78125)" xlink:href="#DejaVuSans-55"/>
     <use transform="translate(305.761719 0.78125)" xlink:href="#DejaVuSans-42"/>
     <use transform="translate(375.244141 0.78125)" xlink:href="#DejaVuSans-Oblique-120"/>
     <use transform="translate(453.90625 0.78125)" xlink:href="#DejaVuSans-8722"/>
     <use transform="translate(557.177734 0.78125)" xlink:href="#DejaVuSans-50"/>
     <use transform="translate(620.800781 0.78125)" xlink:href="#DejaVuSans-46"/>
     <use transform="translate(644.837891 0.78125)" xlink:href="#DejaVuSans-55"/>
     <use transform="translate(708.460938 0.78125)" xlink:href="#DejaVuSans-50"/>
     <use transform="translate(772.083984 0.78125)" xlink:href="#DejaVuSans-Oblique-69"/>
     <use transform="translate(854.75 0.78125)" xlink:href="#DejaVuSans-8722"/>
     <use transform="translate(958.021484 0.78125)" xlink:href="#DejaVuSans-48"/>
     <use transform="translate(1021.644531 0.78125)" xlink:href="#DejaVuSans-53"/>
    </g>
   </g>
   <g id="text_18">
    <!-- $0.0622*x+0.000976$ -->
    <g transform="translate(436.032727 511.096388)scale(0.1 -0.1)">
     <use transform="translate(0 0.78125)" xlink:href="#DejaVuSans-48"/>
     <use transform="translate(63.623047 0.78125)" xlink:href="#DejaVuSans-46"/>
     <use transform="translate(95.410156 0.78125)" xlink:href="#DejaVuSans-48"/>
     <use transform="translate(159.033203 0.78125)" xlink:href="#DejaVuSans-54"/>
     <use transform="translate(222.65625 0.78125)" xlink:href="#DejaVuSans-50"/>
     <use transform="translate(286.279297 0.78125)" xlink:href="#DejaVuSans-50"/>
     <use transform="translate(369.384766 0.78125)" xlink:href="#DejaVuSans-42"/>
     <use transform="translate(438.867188 0.78125)" xlink:href="#DejaVuSans-Oblique-120"/>
     <use transform="translate(517.529297 0.78125)" xlink:href="#DejaVuSans-43"/>
     <use transform="translate(620.800781 0.78125)" xlink:href="#DejaVuSans-48"/>
     <use transform="translate(684.423828 0.78125)" xlink:href="#DejaVuSans-46"/>
     <use transform="translate(716.210938 0.78125)" xlink:href="#DejaVuSans-48"/>
     <use transform="translate(779.833984 0.78125)" xlink:href="#DejaVuSans-48"/>
     <use transform="translate(843.457031 0.78125)" xlink:href="#DejaVuSans-48"/>
     <use transform="translate(907.080078 0.78125)" xlink:href="#DejaVuSans-57"/>
     <use transform="translate(970.703125 0.78125)" xlink:href="#DejaVuSans-55"/>
     <use transform="translate(1034.326172 0.78125)" xlink:href="#DejaVuSans-54"/>
    </g>
   </g>
   <g id="legend_1">
    <g id="patch_7">
     <path d="M 36.2 87.99375 
L 211.9 87.99375 
Q 213.9 87.99375 213.9 85.99375 
L 213.9 14.2 
Q 213.9 12.2 211.9 12.2 
L 36.2 12.2 
Q 34.2 12.2 34.2 14.2 
L 34.2 85.99375 
Q 34.2 87.99375 36.2 87.99375 
z
" style="fill:#ffffff;opacity:0.8;stroke:#cccccc;stroke-linejoin:miter;"/>
    </g>
    <g id="line2d_24">
     <path d="M 38.2 20.04375 
L 58.2 20.04375 
" style="fill:none;stroke:#ff0000;stroke-linecap:square;stroke-width:1.5;"/>
    </g>
    <g id="line2d_25"/>
    <g id="text_19">
     <!-- 10mg/L -->
     <g transform="translate(66.2 23.54375)scale(0.1 -0.1)">
      <defs>
       <path d="M 47.65625 1.953125 
L 39.84375 1.953125 
L 39.84375 33.59375 
Q 39.84375 35.9375 39.0625 37.5 
Q 38.28125 39.0625 35.9375 39.0625 
Q 33.203125 39.0625 30.859375 36.125 
Q 28.515625 33.203125 28.515625 28.515625 
L 28.515625 1.953125 
L 20.703125 1.953125 
L 20.703125 33.59375 
Q 20.703125 35.9375 19.921875 37.5 
Q 19.140625 39.0625 16.796875 39.0625 
Q 14.0625 39.0625 11.71875 36.125 
Q 9.375 33.203125 9.375 28.515625 
L 9.375 1.953125 
L 1.5625 1.953125 
L 1.5625 45.703125 
L 9.375 45.703125 
L 9.375 39.84375 
Q 11.328125 42.96875 14.0625 44.71875 
Q 16.796875 46.484375 19.921875 46.484375 
Q 23.046875 46.484375 25.1875 44.71875 
Q 27.34375 42.96875 28.125 39.84375 
Q 30.078125 42.96875 32.609375 44.71875 
Q 35.15625 46.484375 38.28125 46.484375 
Q 42.96875 46.484375 45.3125 43.9375 
Q 47.65625 41.40625 47.65625 36.71875 
z
" id="SimHei-109"/>
       <path d="M 46.484375 39.0625 
Q 43.75 39.84375 41.203125 40.03125 
Q 38.671875 40.234375 35.9375 39.453125 
Q 37.109375 38.28125 37.890625 36.515625 
Q 38.671875 34.765625 38.671875 31.25 
Q 38.671875 24.609375 34.171875 20.3125 
Q 29.6875 16.015625 23.046875 16.015625 
Q 21.484375 16.015625 18.9375 16.59375 
Q 16.40625 17.1875 14.84375 17.96875 
Q 13.671875 17.1875 13.28125 16.40625 
Q 12.890625 15.625 12.890625 14.453125 
Q 12.890625 12.5 15.625 11.515625 
Q 18.359375 10.546875 25.390625 10.546875 
Q 36.71875 10.546875 40.8125 7.421875 
Q 44.921875 4.296875 44.921875 -0.390625 
Q 44.921875 -6.640625 38.859375 -9.5625 
Q 32.8125 -12.5 24.609375 -12.5 
Q 14.0625 -12.5 8.984375 -9.765625 
Q 3.90625 -7.03125 3.90625 -2.34375 
Q 3.90625 0 5.859375 2.34375 
Q 7.8125 4.6875 10.9375 6.25 
Q 8.59375 7.421875 7.21875 9.171875 
Q 5.859375 10.9375 5.859375 13.671875 
Q 5.859375 16.015625 7.609375 17.765625 
Q 9.375 19.53125 11.71875 20.703125 
Q 9.765625 22.65625 8.59375 25.390625 
Q 7.421875 28.125 7.421875 31.25 
Q 7.421875 37.890625 11.90625 42.1875 
Q 16.40625 46.484375 23.046875 46.484375 
Q 26.5625 46.484375 29.09375 45.5 
Q 31.640625 44.53125 33.59375 42.578125 
Q 36.71875 44.921875 39.84375 45.890625 
Q 42.96875 46.875 46.484375 46.484375 
z
M 30.859375 31.25 
Q 30.859375 35.15625 28.90625 37.5 
Q 26.953125 39.84375 23.046875 39.84375 
Q 19.140625 39.84375 17.1875 37.5 
Q 15.234375 35.15625 15.234375 31.25 
Q 15.234375 27.34375 17.1875 25 
Q 19.140625 22.65625 23.046875 22.65625 
Q 26.953125 22.65625 28.90625 25 
Q 30.859375 27.34375 30.859375 31.25 
z
M 37.5 -1.171875 
Q 37.5 0.390625 35.734375 1.953125 
Q 33.984375 3.515625 26.953125 3.515625 
Q 25.390625 3.515625 22.65625 3.703125 
Q 19.921875 3.90625 16.40625 4.296875 
Q 13.28125 3.125 12.109375 1.5625 
Q 10.9375 0 10.9375 -1.5625 
Q 10.9375 -3.90625 14.0625 -5.46875 
Q 17.1875 -7.03125 25 -7.03125 
Q 31.640625 -7.03125 34.5625 -5.265625 
Q 37.5 -3.515625 37.5 -1.171875 
z
" id="SimHei-103"/>
       <path d="M 46.875 71.09375 
L 5.46875 -2.734375 
L 1.5625 -0.390625 
L 42.96875 73.4375 
z
" id="SimHei-47"/>
       <path d="M 45.3125 1.953125 
L 4.6875 1.953125 
L 4.6875 68.75 
L 13.671875 68.75 
L 13.671875 9.375 
L 45.3125 9.375 
z
" id="SimHei-76"/>
      </defs>
      <use xlink:href="#SimHei-49"/>
      <use x="50" xlink:href="#SimHei-48"/>
      <use x="100" xlink:href="#SimHei-109"/>
      <use x="150" xlink:href="#SimHei-103"/>
      <use x="200" xlink:href="#SimHei-47"/>
      <use x="250" xlink:href="#SimHei-76"/>
     </g>
    </g>
    <g id="line2d_26">
     <path d="M 38.2 34.84375 
L 58.2 34.84375 
" style="fill:none;stroke:#bfbf00;stroke-linecap:square;stroke-width:1.5;"/>
    </g>
    <g id="line2d_27"/>
    <g id="text_20">
     <!-- A     $R^2=1.376586E-04$ -->
     <g transform="translate(66.2 38.34375)scale(0.1 -0.1)">
      <defs>
       <path d="M 48.046875 1.953125 
L 38.671875 1.953125 
L 33.203125 22.65625 
L 16.015625 22.65625 
L 10.546875 1.953125 
L 1.171875 1.953125 
L 20.703125 69.53125 
L 28.515625 69.53125 
z
M 31.25 30.078125 
L 25 53.90625 
L 24.21875 53.90625 
L 17.96875 30.078125 
z
" id="SimHei-65"/>
       <path d="M 95.703125 -6.640625 
Q 89.84375 -6.25 81.640625 -6.25 
L 51.171875 -6.25 
Q 43.359375 -6.25 37.5 -6.640625 
L 37.5 0.78125 
Q 42.578125 0.390625 46.09375 0.390625 
L 46.09375 58.984375 
Q 46.09375 68.359375 45.3125 72.265625 
L 86.328125 72.265625 
Q 85.9375 68.75 85.9375 58.984375 
L 85.9375 0.390625 
Q 91.015625 0.390625 95.703125 0.78125 
z
M 26.953125 75.390625 
Q 23.4375 71.09375 20.109375 64.640625 
Q 16.796875 58.203125 11.328125 47.65625 
Q 14.84375 47.65625 24.21875 48.046875 
Q 28.125 55.46875 29.6875 62.109375 
Q 32.421875 59.765625 38.28125 57.421875 
Q 34.765625 52.34375 30.265625 44.921875 
Q 25.78125 37.5 17.96875 25.390625 
Q 30.46875 26.953125 37.890625 27.734375 
L 37.890625 21.09375 
Q 32.8125 20.703125 24.609375 19.53125 
Q 16.40625 18.359375 8.984375 16.40625 
Q 8.59375 20.3125 6.25 24.609375 
Q 10.546875 26.171875 14.25 30.859375 
Q 17.96875 35.546875 21.484375 42.578125 
Q 19.140625 42.578125 14.84375 41.984375 
Q 10.546875 41.40625 6.640625 39.453125 
Q 5.078125 44.140625 3.515625 47.65625 
Q 7.03125 51.5625 11.125 60.34375 
Q 15.234375 69.140625 17.96875 79.296875 
Q 22.265625 76.953125 26.953125 75.390625 
z
M 78.515625 0.390625 
L 78.515625 19.921875 
L 53.515625 19.921875 
L 53.515625 0.390625 
z
M 78.515625 48.828125 
L 78.515625 66.015625 
L 53.515625 66.015625 
L 53.515625 48.828125 
z
M 78.515625 26.5625 
L 78.515625 42.578125 
L 53.515625 42.578125 
L 53.515625 26.5625 
z
M 37.109375 2.734375 
Q 29.296875 1.5625 21.484375 -0.1875 
Q 13.671875 -1.953125 7.03125 -4.6875 
Q 5.859375 -1.171875 3.90625 3.90625 
Q 14.453125 5.078125 18.15625 5.859375 
Q 21.875 6.640625 37.109375 9.375 
z
" id="SimHei-32452"/>
       <path id="SimHei-32"/>
       <path d="M 25.203125 64.796875 
L 20.21875 38.921875 
L 32.90625 38.921875 
Q 40.375 38.921875 44.984375 43.046875 
Q 49.609375 47.171875 49.609375 53.8125 
Q 49.609375 59.125 46.5 61.953125 
Q 43.40625 64.796875 37.59375 64.796875 
z
M 43.3125 35.015625 
Q 46.4375 34.28125 48.515625 31.390625 
Q 50.59375 28.515625 53.328125 19.921875 
L 59.515625 0 
L 49.125 0 
L 43.40625 18.703125 
Q 41.21875 25.921875 38.328125 28.359375 
Q 35.453125 30.8125 29.5 30.8125 
L 18.609375 30.8125 
L 12.59375 0 
L 2.6875 0 
L 16.890625 72.90625 
L 39.109375 72.90625 
Q 49.21875 72.90625 54.609375 68.328125 
Q 60.015625 63.765625 60.015625 55.171875 
Q 60.015625 47.5625 55.421875 41.984375 
Q 50.828125 36.421875 43.3125 35.015625 
z
" id="DejaVuSans-Oblique-82"/>
       <path d="M 10.59375 45.40625 
L 73.1875 45.40625 
L 73.1875 37.203125 
L 10.59375 37.203125 
z
M 10.59375 25.484375 
L 73.1875 25.484375 
L 73.1875 17.1875 
L 10.59375 17.1875 
z
" id="DejaVuSans-61"/>
      </defs>
      <use transform="translate(0 0.765625)" xlink:href="#SimHei-65"/>
      <use transform="translate(50 0.765625)" xlink:href="#SimHei-32452"/>
      <use transform="translate(150 0.765625)" xlink:href="#SimHei-32"/>
      <use transform="translate(200 0.765625)" xlink:href="#SimHei-32"/>
      <use transform="translate(250 0.765625)" xlink:href="#SimHei-32"/>
      <use transform="translate(300 0.765625)" xlink:href="#SimHei-32"/>
      <use transform="translate(350 0.765625)" xlink:href="#SimHei-32"/>
      <use transform="translate(400 0.765625)" xlink:href="#DejaVuSans-Oblique-82"/>
      <use transform="translate(476.499193 39.046875)scale(0.7)" xlink:href="#DejaVuSans-50"/>
      <use transform="translate(543.252122 0.765625)" xlink:href="#DejaVuSans-61"/>
      <use transform="translate(646.523607 0.765625)" xlink:href="#DejaVuSans-49"/>
      <use transform="translate(710.146654 0.765625)" xlink:href="#DejaVuSans-46"/>
      <use transform="translate(741.933763 0.765625)" xlink:href="#DejaVuSans-51"/>
      <use transform="translate(805.55681 0.765625)" xlink:href="#DejaVuSans-55"/>
      <use transform="translate(869.179857 0.765625)" xlink:href="#DejaVuSans-54"/>
      <use transform="translate(932.802904 0.765625)" xlink:href="#DejaVuSans-53"/>
      <use transform="translate(996.425951 0.765625)" xlink:href="#DejaVuSans-56"/>
      <use transform="translate(1060.048997 0.765625)" xlink:href="#DejaVuSans-54"/>
      <use transform="translate(1123.672044 0.765625)" xlink:href="#DejaVuSans-Oblique-69"/>
      <use transform="translate(1206.33806 0.765625)" xlink:href="#DejaVuSans-8722"/>
      <use transform="translate(1309.609544 0.765625)" xlink:href="#DejaVuSans-48"/>
      <use transform="translate(1373.232591 0.765625)" xlink:href="#DejaVuSans-52"/>
     </g>
    </g>
    <g id="line2d_28">
     <path d="M 38.2 49.64375 
L 58.2 49.64375 
" style="fill:none;stroke:#00bfbf;stroke-linecap:square;stroke-width:1.5;"/>
    </g>
    <g id="line2d_29"/>
    <g id="text_21">
     <!-- B     $R^2=5.574448E-05$ -->
     <g transform="translate(66.2 53.14375)scale(0.1 -0.1)">
      <defs>
       <path d="M 46.09375 21.875 
Q 46.09375 10.546875 39.84375 6.25 
Q 33.59375 1.953125 23.828125 1.953125 
L 4.296875 1.953125 
L 4.296875 68.75 
L 24.609375 68.75 
Q 34.375 68.75 39.25 63.671875 
Q 44.140625 58.59375 44.140625 51.5625 
Q 44.140625 44.53125 40.8125 41.203125 
Q 37.5 37.890625 33.984375 36.71875 
Q 38.671875 35.546875 42.375 31.828125 
Q 46.09375 28.125 46.09375 21.875 
z
M 35.15625 51.5625 
Q 35.15625 56.640625 32.21875 58.984375 
Q 29.296875 61.328125 25 61.328125 
L 13.28125 61.328125 
L 13.28125 40.625 
L 24.609375 40.625 
Q 28.90625 40.625 32.03125 43.15625 
Q 35.15625 45.703125 35.15625 51.5625 
z
M 36.71875 21.875 
Q 36.71875 28.125 32.609375 30.65625 
Q 28.515625 33.203125 23.4375 33.203125 
L 13.28125 33.203125 
L 13.28125 9.375 
L 22.265625 9.375 
Q 29.296875 9.375 33 12.109375 
Q 36.71875 14.84375 36.71875 21.875 
z
" id="SimHei-66"/>
      </defs>
      <use transform="translate(0 0.765625)" xlink:href="#SimHei-66"/>
      <use transform="translate(50 0.765625)" xlink:href="#SimHei-32452"/>
      <use transform="translate(150 0.765625)" xlink:href="#SimHei-32"/>
      <use transform="translate(200 0.765625)" xlink:href="#SimHei-32"/>
      <use transform="translate(250 0.765625)" xlink:href="#SimHei-32"/>
      <use transform="translate(300 0.765625)" xlink:href="#SimHei-32"/>
      <use transform="translate(350 0.765625)" xlink:href="#SimHei-32"/>
      <use transform="translate(400 0.765625)" xlink:href="#DejaVuSans-Oblique-82"/>
      <use transform="translate(476.499193 39.046875)scale(0.7)" xlink:href="#DejaVuSans-50"/>
      <use transform="translate(543.252122 0.765625)" xlink:href="#DejaVuSans-61"/>
      <use transform="translate(646.523607 0.765625)" xlink:href="#DejaVuSans-53"/>
      <use transform="translate(710.146654 0.765625)" xlink:href="#DejaVuSans-46"/>
      <use transform="translate(741.933763 0.765625)" xlink:href="#DejaVuSans-53"/>
      <use transform="translate(798.30681 0.765625)" xlink:href="#DejaVuSans-55"/>
      <use transform="translate(861.929857 0.765625)" xlink:href="#DejaVuSans-52"/>
      <use transform="translate(925.552904 0.765625)" xlink:href="#DejaVuSans-52"/>
      <use transform="translate(989.175951 0.765625)" xlink:href="#DejaVuSans-52"/>
      <use transform="translate(1052.798997 0.765625)" xlink:href="#DejaVuSans-56"/>
      <use transform="translate(1116.422044 0.765625)" xlink:href="#DejaVuSans-Oblique-69"/>
      <use transform="translate(1199.08806 0.765625)" xlink:href="#DejaVuSans-8722"/>
      <use transform="translate(1302.359544 0.765625)" xlink:href="#DejaVuSans-48"/>
      <use transform="translate(1365.982591 0.765625)" xlink:href="#DejaVuSans-53"/>
     </g>
    </g>
    <g id="line2d_30">
     <path d="M 38.2 64.44375 
L 58.2 64.44375 
" style="fill:none;stroke:#008000;stroke-linecap:square;stroke-width:1.5;"/>
    </g>
    <g id="line2d_31"/>
    <g id="text_22">
     <!-- C     $R^2=4.354544E-06$ -->
     <g transform="translate(66.2 67.94375)scale(0.1 -0.1)">
      <defs>
       <path d="M 46.484375 28.515625 
Q 46.09375 13.671875 40.234375 7.421875 
Q 34.375 1.171875 26.171875 1.171875 
Q 16.796875 1.171875 10.15625 8.78125 
Q 3.515625 16.40625 3.515625 33.203125 
Q 3.515625 51.5625 9.953125 60.546875 
Q 16.40625 69.53125 26.5625 69.53125 
Q 35.15625 69.53125 40.8125 63.078125 
Q 46.484375 56.640625 46.09375 44.921875 
L 37.5 44.921875 
Q 37.5 53.515625 34.765625 57.8125 
Q 32.03125 62.109375 26.5625 62.109375 
Q 20.3125 62.109375 16.59375 55.65625 
Q 12.890625 49.21875 12.890625 33.984375 
Q 12.890625 19.921875 16.59375 14.25 
Q 20.3125 8.59375 26.171875 8.59375 
Q 30.46875 8.59375 33.984375 12.6875 
Q 37.5 16.796875 37.5 28.515625 
z
" id="SimHei-67"/>
      </defs>
      <use transform="translate(0 0.765625)" xlink:href="#SimHei-67"/>
      <use transform="translate(50 0.765625)" xlink:href="#SimHei-32452"/>
      <use transform="translate(150 0.765625)" xlink:href="#SimHei-32"/>
      <use transform="translate(200 0.765625)" xlink:href="#SimHei-32"/>
      <use transform="translate(250 0.765625)" xlink:href="#SimHei-32"/>
      <use transform="translate(300 0.765625)" xlink:href="#SimHei-32"/>
      <use transform="translate(350 0.765625)" xlink:href="#SimHei-32"/>
      <use transform="translate(400 0.765625)" xlink:href="#DejaVuSans-Oblique-82"/>
      <use transform="translate(476.499193 39.046875)scale(0.7)" xlink:href="#DejaVuSans-50"/>
      <use transform="translate(543.252122 0.765625)" xlink:href="#DejaVuSans-61"/>
      <use transform="translate(646.523607 0.765625)" xlink:href="#DejaVuSans-52"/>
      <use transform="translate(710.146654 0.765625)" xlink:href="#DejaVuSans-46"/>
      <use transform="translate(741.933763 0.765625)" xlink:href="#DejaVuSans-51"/>
      <use transform="translate(805.55681 0.765625)" xlink:href="#DejaVuSans-53"/>
      <use transform="translate(869.179857 0.765625)" xlink:href="#DejaVuSans-52"/>
      <use transform="translate(932.802904 0.765625)" xlink:href="#DejaVuSans-53"/>
      <use transform="translate(996.425951 0.765625)" xlink:href="#DejaVuSans-52"/>
      <use transform="translate(1060.048997 0.765625)" xlink:href="#DejaVuSans-52"/>
      <use transform="translate(1123.672044 0.765625)" xlink:href="#DejaVuSans-Oblique-69"/>
      <use transform="translate(1206.33806 0.765625)" xlink:href="#DejaVuSans-8722"/>
      <use transform="translate(1309.609544 0.765625)" xlink:href="#DejaVuSans-48"/>
      <use transform="translate(1373.232591 0.765625)" xlink:href="#DejaVuSans-54"/>
     </g>
    </g>
    <g id="line2d_32">
     <path d="M 38.2 79.24375 
L 58.2 79.24375 
" style="fill:none;stroke:#0000ff;stroke-linecap:square;stroke-width:1.5;"/>
    </g>
    <g id="line2d_33"/>
    <g id="text_23">
     <!-- D     $R^2=5.535895E-06$ -->
     <g transform="translate(66.2 82.74375)scale(0.1 -0.1)">
      <defs>
       <path d="M 45.703125 35.15625 
Q 45.703125 17.1875 38.078125 9.5625 
Q 30.46875 1.953125 17.578125 1.953125 
L 4.296875 1.953125 
L 4.296875 68.75 
L 17.578125 68.75 
Q 32.03125 68.75 38.859375 60.9375 
Q 45.703125 53.125 45.703125 35.15625 
z
M 36.328125 35.15625 
Q 36.328125 49.609375 31.640625 55.46875 
Q 26.953125 61.328125 17.578125 61.328125 
L 13.28125 61.328125 
L 13.28125 9.375 
L 17.578125 9.375 
Q 26.953125 9.375 31.640625 15.03125 
Q 36.328125 20.703125 36.328125 35.15625 
z
" id="SimHei-68"/>
      </defs>
      <use transform="translate(0 0.765625)" xlink:href="#SimHei-68"/>
      <use transform="translate(50 0.765625)" xlink:href="#SimHei-32452"/>
      <use transform="translate(150 0.765625)" xlink:href="#SimHei-32"/>
      <use transform="translate(200 0.765625)" xlink:href="#SimHei-32"/>
      <use transform="translate(250 0.765625)" xlink:href="#SimHei-32"/>
      <use transform="translate(300 0.765625)" xlink:href="#SimHei-32"/>
      <use transform="translate(350 0.765625)" xlink:href="#SimHei-32"/>
      <use transform="translate(400 0.765625)" xlink:href="#DejaVuSans-Oblique-82"/>
      <use transform="translate(476.499193 39.046875)scale(0.7)" xlink:href="#DejaVuSans-50"/>
      <use transform="translate(543.252122 0.765625)" xlink:href="#DejaVuSans-61"/>
      <use transform="translate(646.523607 0.765625)" xlink:href="#DejaVuSans-53"/>
      <use transform="translate(710.146654 0.765625)" xlink:href="#DejaVuSans-46"/>
      <use transform="translate(741.933763 0.765625)" xlink:href="#DejaVuSans-53"/>
      <use transform="translate(805.55681 0.765625)" xlink:href="#DejaVuSans-51"/>
      <use transform="translate(869.179857 0.765625)" xlink:href="#DejaVuSans-53"/>
      <use transform="translate(932.802904 0.765625)" xlink:href="#DejaVuSans-56"/>
      <use transform="translate(996.425951 0.765625)" xlink:href="#DejaVuSans-57"/>
      <use transform="translate(1060.048997 0.765625)" xlink:href="#DejaVuSans-53"/>
      <use transform="translate(1123.672044 0.765625)" xlink:href="#DejaVuSans-Oblique-69"/>
      <use transform="translate(1206.33806 0.765625)" xlink:href="#DejaVuSans-8722"/>
      <use transform="translate(1309.609544 0.765625)" xlink:href="#DejaVuSans-48"/>
      <use transform="translate(1373.232591 0.765625)" xlink:href="#DejaVuSans-54"/>
     </g>
    </g>
   </g>
  </g>
 </g>
 <defs>
  <clipPath id="p525d0a2341">
   <rect height="543.6" width="558" x="29.2" y="7.2"/>
  </clipPath>
 </defs>
</svg>
