<?xml version="1.0" encoding="utf-8" standalone="no"?>
<!DOCTYPE svg PUBLIC "-//W3C//DTD SVG 1.1//EN"
  "http://www.w3.org/Graphics/SVG/1.1/DTD/svg11.dtd">
<!-- Created with matplotlib (https://matplotlib.org/) -->
<svg height="316.445pt" version="1.1" viewBox="0 0 604.4 316.445" width="604.4pt" xmlns="http://www.w3.org/2000/svg" xmlns:xlink="http://www.w3.org/1999/xlink">
 <metadata>
  <rdf:RDF xmlns:cc="http://creativecommons.org/ns#" xmlns:dc="http://purl.org/dc/elements/1.1/" xmlns:rdf="http://www.w3.org/1999/02/22-rdf-syntax-ns#">
   <cc:Work>
    <dc:type rdf:resource="http://purl.org/dc/dcmitype/StillImage"/>
    <dc:date>2020-10-23T16:48:41.596425</dc:date>
    <dc:format>image/svg+xml</dc:format>
    <dc:creator>
     <cc:Agent>
      <dc:title>Matplotlib v3.3.1, https://matplotlib.org/</dc:title>
     </cc:Agent>
    </dc:creator>
   </cc:Work>
  </rdf:RDF>
 </metadata>
 <defs>
  <style type="text/css">*{stroke-linecap:butt;stroke-linejoin:round;}</style>
 </defs>
 <g id="figure_1">
  <g id="patch_1">
   <path d="M 0 316.445 
L 604.4 316.445 
L 604.4 0 
L 0 0 
z
" style="fill:none;"/>
  </g>
  <g id="axes_1">
   <g id="patch_2">
    <path d="M 39.2 294.12 
L 597.2 294.12 
L 597.2 22.32 
L 39.2 22.32 
z
" style="fill:#ffffff;"/>
   </g>
   <g id="matplotlib.axis_1">
    <g id="xtick_1">
     <g id="line2d_1">
      <path clip-path="url(#p177614ec77)" d="M 39.2 294.12 
L 39.2 22.32 
" style="fill:none;stroke:#b0b0b0;stroke-linecap:square;stroke-width:0.8;"/>
     </g>
     <g id="line2d_2">
      <defs>
       <path d="M 0 0 
L 0 3.5 
" id="m4d545d83c4" style="stroke:#000000;stroke-width:0.8;"/>
      </defs>
      <g>
       <use style="stroke:#000000;stroke-width:0.8;" x="39.2" xlink:href="#m4d545d83c4" y="294.12"/>
      </g>
     </g>
     <g id="text_1">
      <!-- 1.5 -->
      <g transform="translate(31.7 307.995)scale(0.1 -0.1)">
       <defs>
        <path d="M 21.875 56.25 
Q 16.796875 51.171875 8.984375 46.484375 
L 8.984375 53.90625 
Q 18.75 60.546875 25 69.53125 
L 29.6875 69.53125 
L 29.6875 2.34375 
L 21.875 2.34375 
z
" id="SimHei-49"/>
        <path d="M 16.796875 1.953125 
L 7.8125 1.953125 
L 7.8125 10.546875 
L 16.796875 10.546875 
z
" id="SimHei-46"/>
        <path d="M 8.59375 20.703125 
Q 11.328125 10.15625 17.96875 8.984375 
Q 24.609375 7.8125 28.703125 10.34375 
Q 32.8125 12.890625 34.5625 16.984375 
Q 36.328125 21.09375 36.125 26.171875 
Q 35.9375 31.25 33.390625 34.765625 
Q 30.859375 38.28125 26.953125 39.453125 
Q 23.046875 40.625 18.15625 39.453125 
Q 13.28125 38.28125 10.15625 33.984375 
L 3.515625 34.765625 
Q 4.296875 37.109375 10.9375 68.359375 
L 41.796875 68.359375 
L 41.796875 61.328125 
L 16.796875 61.328125 
Q 14.84375 50.78125 12.890625 44.53125 
Q 18.75 47.265625 23.828125 47.0625 
Q 28.90625 46.875 33.59375 44.71875 
Q 38.28125 42.578125 40.421875 38.859375 
Q 42.578125 35.15625 43.546875 31.4375 
Q 44.53125 27.734375 44.328125 23.4375 
Q 44.140625 19.140625 42.578125 14.640625 
Q 41.015625 10.15625 37.890625 7.21875 
Q 34.765625 4.296875 30.265625 2.53125 
Q 25.78125 0.78125 19.921875 1.171875 
Q 14.0625 1.5625 8.78125 5.46875 
Q 3.515625 9.375 1.5625 18.75 
z
" id="SimHei-53"/>
       </defs>
       <use xlink:href="#SimHei-49"/>
       <use x="50" xlink:href="#SimHei-46"/>
       <use x="100" xlink:href="#SimHei-53"/>
      </g>
     </g>
    </g>
    <g id="xtick_2">
     <g id="line2d_3">
      <path clip-path="url(#p177614ec77)" d="M 142.533333 294.12 
L 142.533333 22.32 
" style="fill:none;stroke:#b0b0b0;stroke-linecap:square;stroke-width:0.8;"/>
     </g>
     <g id="line2d_4">
      <g>
       <use style="stroke:#000000;stroke-width:0.8;" x="142.533333" xlink:href="#m4d545d83c4" y="294.12"/>
      </g>
     </g>
     <g id="text_2">
      <!-- 2.0 -->
      <g transform="translate(135.033333 307.995)scale(0.1 -0.1)">
       <defs>
        <path d="M 4.6875 3.90625 
Q 5.078125 9.765625 10.15625 14.453125 
Q 15.234375 19.140625 23.046875 29.09375 
Q 30.859375 39.0625 33.203125 44.53125 
Q 35.546875 50 34.953125 53.90625 
Q 34.375 57.8125 31.25 60.34375 
Q 28.125 62.890625 24.015625 62.5 
Q 19.921875 62.109375 16.203125 59.375 
Q 12.5 56.640625 10.546875 51.171875 
L 3.125 52.34375 
Q 6.25 61.328125 11.125 65.421875 
Q 16.015625 69.53125 22.65625 69.921875 
Q 26.5625 70.3125 29.6875 69.71875 
Q 32.8125 69.140625 36.125 66.984375 
Q 39.453125 64.84375 41.59375 60.546875 
Q 43.75 56.25 43.15625 50.1875 
Q 42.578125 44.140625 37.109375 35.734375 
Q 31.640625 27.34375 16.015625 9.375 
L 44.140625 9.375 
L 44.140625 2.34375 
L 4.6875 2.34375 
z
" id="SimHei-50"/>
        <path d="M 3.125 29.296875 
Q 3.90625 50 6.4375 56.046875 
Q 8.984375 62.109375 13.671875 66.015625 
Q 18.359375 69.921875 25.1875 69.921875 
Q 32.03125 69.921875 37.109375 64.25 
Q 42.1875 58.59375 43.75 50 
Q 45.3125 41.40625 44.71875 30.265625 
Q 44.140625 19.140625 40.8125 12.109375 
Q 37.5 5.078125 30.859375 2.34375 
Q 24.21875 -0.390625 17.578125 2.921875 
Q 10.9375 6.25 8.203125 11.71875 
Q 5.46875 17.1875 4.296875 23.234375 
Q 3.125 29.296875 3.90625 50 
z
M 12.890625 52.734375 
Q 10.546875 31.25 12.5 22.84375 
Q 14.453125 14.453125 18.9375 10.9375 
Q 23.4375 7.421875 28.125 9.5625 
Q 32.8125 11.71875 34.953125 18.15625 
Q 37.109375 24.609375 37.109375 32.21875 
Q 37.109375 39.84375 36.515625 46.09375 
Q 35.9375 52.34375 33 57.421875 
Q 30.078125 62.5 25.1875 62.6875 
Q 20.3125 62.890625 16.59375 57.8125 
Q 12.890625 52.734375 10.546875 31.25 
z
" id="SimHei-48"/>
       </defs>
       <use xlink:href="#SimHei-50"/>
       <use x="50" xlink:href="#SimHei-46"/>
       <use x="100" xlink:href="#SimHei-48"/>
      </g>
     </g>
    </g>
    <g id="xtick_3">
     <g id="line2d_5">
      <path clip-path="url(#p177614ec77)" d="M 245.866667 294.12 
L 245.866667 22.32 
" style="fill:none;stroke:#b0b0b0;stroke-linecap:square;stroke-width:0.8;"/>
     </g>
     <g id="line2d_6">
      <g>
       <use style="stroke:#000000;stroke-width:0.8;" x="245.866667" xlink:href="#m4d545d83c4" y="294.12"/>
      </g>
     </g>
     <g id="text_3">
      <!-- 2.5 -->
      <g transform="translate(238.366667 307.995)scale(0.1 -0.1)">
       <use xlink:href="#SimHei-50"/>
       <use x="50" xlink:href="#SimHei-46"/>
       <use x="100" xlink:href="#SimHei-53"/>
      </g>
     </g>
    </g>
    <g id="xtick_4">
     <g id="line2d_7">
      <path clip-path="url(#p177614ec77)" d="M 349.2 294.12 
L 349.2 22.32 
" style="fill:none;stroke:#b0b0b0;stroke-linecap:square;stroke-width:0.8;"/>
     </g>
     <g id="line2d_8">
      <g>
       <use style="stroke:#000000;stroke-width:0.8;" x="349.2" xlink:href="#m4d545d83c4" y="294.12"/>
      </g>
     </g>
     <g id="text_4">
      <!-- 3.0 -->
      <g transform="translate(341.7 307.995)scale(0.1 -0.1)">
       <defs>
        <path d="M 3.90625 19.140625 
L 10.9375 20.3125 
Q 12.5 15.234375 16.015625 11.90625 
Q 19.53125 8.59375 24.796875 8.78125 
Q 30.078125 8.984375 33.203125 13.078125 
Q 36.328125 17.1875 35.9375 22.453125 
Q 35.546875 27.734375 31.828125 30.65625 
Q 28.125 33.59375 19.921875 34.765625 
L 19.921875 39.84375 
Q 28.125 40.625 31.828125 44.140625 
Q 35.546875 47.65625 35.15625 53.3125 
Q 34.765625 58.984375 30.078125 61.515625 
Q 25.390625 64.0625 20.109375 62.109375 
Q 14.84375 60.15625 11.71875 51.171875 
L 4.6875 52.34375 
Q 7.03125 59.375 11.125 64.0625 
Q 15.234375 68.75 22.265625 69.53125 
Q 29.296875 70.3125 34.5625 67.765625 
Q 39.84375 65.234375 41.984375 59.953125 
Q 44.140625 54.6875 42.578125 48.4375 
Q 41.015625 42.1875 33.59375 37.5 
Q 39.0625 35.15625 41.984375 30.46875 
Q 44.921875 25.78125 43.9375 18.15625 
Q 42.96875 10.546875 37.109375 5.859375 
Q 31.25 1.171875 23.828125 1.359375 
Q 16.40625 1.5625 10.9375 6.046875 
Q 5.46875 10.546875 3.90625 19.140625 
z
" id="SimHei-51"/>
       </defs>
       <use xlink:href="#SimHei-51"/>
       <use x="50" xlink:href="#SimHei-46"/>
       <use x="100" xlink:href="#SimHei-48"/>
      </g>
     </g>
    </g>
    <g id="xtick_5">
     <g id="line2d_9">
      <path clip-path="url(#p177614ec77)" d="M 452.533333 294.12 
L 452.533333 22.32 
" style="fill:none;stroke:#b0b0b0;stroke-linecap:square;stroke-width:0.8;"/>
     </g>
     <g id="line2d_10">
      <g>
       <use style="stroke:#000000;stroke-width:0.8;" x="452.533333" xlink:href="#m4d545d83c4" y="294.12"/>
      </g>
     </g>
     <g id="text_5">
      <!-- 3.5 -->
      <g transform="translate(445.033333 307.995)scale(0.1 -0.1)">
       <use xlink:href="#SimHei-51"/>
       <use x="50" xlink:href="#SimHei-46"/>
       <use x="100" xlink:href="#SimHei-53"/>
      </g>
     </g>
    </g>
    <g id="xtick_6">
     <g id="line2d_11">
      <path clip-path="url(#p177614ec77)" d="M 555.866667 294.12 
L 555.866667 22.32 
" style="fill:none;stroke:#b0b0b0;stroke-linecap:square;stroke-width:0.8;"/>
     </g>
     <g id="line2d_12">
      <g>
       <use style="stroke:#000000;stroke-width:0.8;" x="555.866667" xlink:href="#m4d545d83c4" y="294.12"/>
      </g>
     </g>
     <g id="text_6">
      <!-- 4.0 -->
      <g transform="translate(548.366667 307.995)scale(0.1 -0.1)">
       <defs>
        <path d="M 31.25 17.1875 
L 1.171875 17.1875 
L 1.171875 23.828125 
L 32.8125 69.53125 
L 38.671875 69.53125 
L 38.671875 23.828125 
L 48.046875 23.828125 
L 48.046875 17.1875 
L 38.671875 17.1875 
L 38.671875 2.34375 
L 31.25 2.34375 
z
M 31.25 23.828125 
L 31.25 54.6875 
L 9.375 23.828125 
z
" id="SimHei-52"/>
       </defs>
       <use xlink:href="#SimHei-52"/>
       <use x="50" xlink:href="#SimHei-46"/>
       <use x="100" xlink:href="#SimHei-48"/>
      </g>
     </g>
    </g>
   </g>
   <g id="matplotlib.axis_2">
    <g id="ytick_1">
     <g id="line2d_13">
      <path clip-path="url(#p177614ec77)" d="M 39.2 294.12 
L 597.2 294.12 
" style="fill:none;stroke:#b0b0b0;stroke-linecap:square;stroke-width:0.8;"/>
     </g>
     <g id="line2d_14">
      <defs>
       <path d="M 0 0 
L -3.5 0 
" id="m7205373702" style="stroke:#000000;stroke-width:0.8;"/>
      </defs>
      <g>
       <use style="stroke:#000000;stroke-width:0.8;" x="39.2" xlink:href="#m7205373702" y="294.12"/>
      </g>
     </g>
     <g id="text_7">
      <!-- 0.000 -->
      <g transform="translate(7.2 297.5575)scale(0.1 -0.1)">
       <use xlink:href="#SimHei-48"/>
       <use x="50" xlink:href="#SimHei-46"/>
       <use x="100" xlink:href="#SimHei-48"/>
       <use x="150" xlink:href="#SimHei-48"/>
       <use x="200" xlink:href="#SimHei-48"/>
      </g>
     </g>
    </g>
    <g id="ytick_2">
     <g id="line2d_15">
      <path clip-path="url(#p177614ec77)" d="M 39.2 234.810019 
L 597.2 234.810019 
" style="fill:none;stroke:#b0b0b0;stroke-linecap:square;stroke-width:0.8;"/>
     </g>
     <g id="line2d_16">
      <g>
       <use style="stroke:#000000;stroke-width:0.8;" x="39.2" xlink:href="#m7205373702" y="234.810019"/>
      </g>
     </g>
     <g id="text_8">
      <!-- 0.002 -->
      <g transform="translate(7.2 238.247519)scale(0.1 -0.1)">
       <use xlink:href="#SimHei-48"/>
       <use x="50" xlink:href="#SimHei-46"/>
       <use x="100" xlink:href="#SimHei-48"/>
       <use x="150" xlink:href="#SimHei-48"/>
       <use x="200" xlink:href="#SimHei-50"/>
      </g>
     </g>
    </g>
    <g id="ytick_3">
     <g id="line2d_17">
      <path clip-path="url(#p177614ec77)" d="M 39.2 175.500038 
L 597.2 175.500038 
" style="fill:none;stroke:#b0b0b0;stroke-linecap:square;stroke-width:0.8;"/>
     </g>
     <g id="line2d_18">
      <g>
       <use style="stroke:#000000;stroke-width:0.8;" x="39.2" xlink:href="#m7205373702" y="175.500038"/>
      </g>
     </g>
     <g id="text_9">
      <!-- 0.004 -->
      <g transform="translate(7.2 178.937538)scale(0.1 -0.1)">
       <use xlink:href="#SimHei-48"/>
       <use x="50" xlink:href="#SimHei-46"/>
       <use x="100" xlink:href="#SimHei-48"/>
       <use x="150" xlink:href="#SimHei-48"/>
       <use x="200" xlink:href="#SimHei-52"/>
      </g>
     </g>
    </g>
    <g id="ytick_4">
     <g id="line2d_19">
      <path clip-path="url(#p177614ec77)" d="M 39.2 116.190057 
L 597.2 116.190057 
" style="fill:none;stroke:#b0b0b0;stroke-linecap:square;stroke-width:0.8;"/>
     </g>
     <g id="line2d_20">
      <g>
       <use style="stroke:#000000;stroke-width:0.8;" x="39.2" xlink:href="#m7205373702" y="116.190057"/>
      </g>
     </g>
     <g id="text_10">
      <!-- 0.006 -->
      <g transform="translate(7.2 119.627557)scale(0.1 -0.1)">
       <defs>
        <path d="M 3.515625 19.53125 
Q 4.296875 30.859375 6.046875 34.765625 
Q 7.8125 38.671875 11.328125 44.53125 
L 27.34375 69.53125 
L 36.328125 69.53125 
L 19.921875 43.75 
Q 30.46875 46.484375 36.71875 42.96875 
Q 42.96875 39.453125 45.109375 34.953125 
Q 47.265625 30.46875 47.453125 25.1875 
Q 47.65625 19.921875 45.890625 14.84375 
Q 44.140625 9.765625 39.640625 5.65625 
Q 35.15625 1.5625 27.140625 1.171875 
Q 19.140625 0.78125 13.46875 4.09375 
Q 7.8125 7.421875 5.65625 13.46875 
Q 3.515625 19.53125 4.296875 30.859375 
z
M 12.5 16.015625 
Q 19.53125 8.59375 25.390625 8.203125 
Q 31.25 7.8125 35.15625 12.109375 
Q 39.0625 16.40625 39.0625 24.609375 
Q 39.0625 32.8125 34.171875 35.9375 
Q 29.296875 39.0625 23.234375 38.28125 
Q 17.1875 37.5 14.453125 32.421875 
Q 11.71875 27.34375 12.109375 21.671875 
Q 12.5 16.015625 19.53125 8.59375 
z
" id="SimHei-54"/>
       </defs>
       <use xlink:href="#SimHei-48"/>
       <use x="50" xlink:href="#SimHei-46"/>
       <use x="100" xlink:href="#SimHei-48"/>
       <use x="150" xlink:href="#SimHei-48"/>
       <use x="200" xlink:href="#SimHei-54"/>
      </g>
     </g>
    </g>
    <g id="ytick_5">
     <g id="line2d_21">
      <path clip-path="url(#p177614ec77)" d="M 39.2 56.880076 
L 597.2 56.880076 
" style="fill:none;stroke:#b0b0b0;stroke-linecap:square;stroke-width:0.8;"/>
     </g>
     <g id="line2d_22">
      <g>
       <use style="stroke:#000000;stroke-width:0.8;" x="39.2" xlink:href="#m7205373702" y="56.880076"/>
      </g>
     </g>
     <g id="text_11">
      <!-- 0.008 -->
      <g transform="translate(7.2 60.317576)scale(0.1 -0.1)">
       <defs>
        <path d="M 2.734375 16.796875 
Q 2.734375 26.171875 5.078125 30.65625 
Q 7.421875 35.15625 12.890625 37.890625 
Q 8.203125 40.625 6.640625 43.9375 
Q 5.078125 47.265625 4.875 51.5625 
Q 4.6875 55.859375 6.046875 58.984375 
Q 7.421875 62.109375 10.15625 64.84375 
Q 12.890625 67.578125 16.203125 68.546875 
Q 19.53125 69.53125 23.4375 69.53125 
Q 27.34375 69.53125 30.46875 68.75 
Q 33.59375 67.96875 37.109375 65.421875 
Q 40.625 62.890625 42.1875 58.203125 
Q 43.75 53.515625 41.984375 47.265625 
Q 40.234375 41.015625 32.8125 37.5 
Q 39.453125 35.546875 42.1875 31.4375 
Q 44.921875 27.34375 44.921875 21.484375 
Q 44.921875 15.625 43.15625 12.109375 
Q 41.40625 8.59375 39.25 6.25 
Q 37.109375 3.90625 33.390625 2.53125 
Q 29.6875 1.171875 24.015625 1.171875 
Q 18.359375 1.171875 14.25 2.53125 
Q 10.15625 3.90625 7.421875 6.640625 
Q 4.6875 9.375 3.703125 13.078125 
Q 2.734375 16.796875 2.734375 26.171875 
z
M 10.9375 26.5625 
Q 10.546875 17.1875 12.296875 13.671875 
Q 14.0625 10.15625 18.75 9.171875 
Q 23.4375 8.203125 28.515625 9.375 
Q 33.59375 10.546875 35.546875 14.84375 
Q 37.5 19.140625 36.90625 23.4375 
Q 36.328125 27.734375 32.03125 30.65625 
Q 27.734375 33.59375 22.65625 33.203125 
Q 17.578125 32.8125 14.25 29.6875 
Q 10.9375 26.5625 10.546875 17.1875 
z
M 12.109375 56.25 
Q 12.109375 48.4375 14.84375 44.921875 
Q 17.578125 41.40625 23.4375 41.40625 
Q 29.296875 41.40625 32.21875 44.921875 
Q 35.15625 48.4375 34.953125 53.3125 
Q 34.765625 58.203125 31.4375 60.546875 
Q 28.125 62.890625 22.453125 62.5 
Q 16.796875 62.109375 14.453125 59.171875 
Q 12.109375 56.25 12.109375 48.4375 
z
" id="SimHei-56"/>
       </defs>
       <use xlink:href="#SimHei-48"/>
       <use x="50" xlink:href="#SimHei-46"/>
       <use x="100" xlink:href="#SimHei-48"/>
       <use x="150" xlink:href="#SimHei-48"/>
       <use x="200" xlink:href="#SimHei-56"/>
      </g>
     </g>
    </g>
   </g>
   <g id="line2d_23">
    <path clip-path="url(#p177614ec77)" d="M 49.492513 270.194801 
L 50.496564 270.208392 
L 50.698131 270.281905 
L 50.89995 270.089668 
L 51.30435 270.325504 
L 51.709767 270.206895 
L 51.912859 270.369135 
L 52.116207 270.176759 
L 52.523672 270.324181 
L 52.727791 270.220351 
L 53.136802 270.279056 
L 53.341695 270.175001 
L 53.752261 270.322715 
L 53.957934 270.218623 
L 54.370064 270.366407 
L 54.576521 270.173096 
L 54.990223 270.321105 
L 55.404978 270.201532 
L 55.612752 270.364828 
L 55.82079 270.171043 
L 56.237664 270.319349 
L 56.446501 270.214724 
L 56.864975 270.363104 
L 57.074613 270.16884 
L 57.494696 270.317447 
L 57.705141 270.12278 
L 57.915856 270.286911 
L 59.185847 270.28474 
L 59.398467 270.359215 
L 59.611361 270.163981 
L 60.037973 270.313197 
L 60.251693 270.207753 
L 60.679961 270.357048 
L 61.10934 270.236102 
L 61.324446 270.310847 
L 61.539832 270.114709 
L 61.971442 270.354731 
L 62.187667 270.067915 
L 62.620963 270.308344 
L 63.055388 270.18676 
L 63.273025 270.261777 
L 63.490946 270.155536 
L 63.927642 270.305689 
L 64.146418 270.108547 
L 64.58483 270.258933 
L 64.804466 270.152407 
L 65.244603 270.302878 
L 65.465105 270.105227 
L 65.685896 270.180597 
L 66.12835 270.05786 
L 67.016757 269.994413 
L 67.239591 270.161483 
L 67.46272 269.962565 
L 67.909861 270.113978 
L 68.133876 269.914633 
L 68.358187 270.082203 
L 71.073262 269.889772 
L 71.301482 270.058236 
L 71.530007 269.857401 
L 71.987973 270.009952 
L 72.217416 269.808681 
L 72.677225 270.05396 
L 72.907592 269.852586 
L 75.228373 269.782038 
L 75.462176 269.85883 
L 75.696295 269.65569 
L 76.165484 269.809552 
L 76.400556 269.605965 
L 76.871655 269.760074 
L 77.107685 269.556039 
L 77.580707 269.710393 
L 77.817701 269.505908 
L 78.292657 269.66051 
L 78.53062 269.361233 
L 79.007522 269.610422 
L 79.246462 269.405031 
L 79.725322 269.560129 
L 80.205493 269.431971 
L 80.446073 269.509629 
L 80.686982 269.303323 
L 80.928223 269.475847 
L 81.169794 269.458921 
L 81.411698 269.252155 
L 81.896504 269.408003 
L 82.139408 269.200775 
L 82.626221 269.261709 
L 82.870131 269.149182 
L 83.358964 269.305535 
L 83.603887 269.001666 
L 83.849149 269.175694 
L 87.820028 268.896402 
L 88.071163 268.685048 
L 88.574488 268.843337 
L 88.826681 268.631501 
L 89.332129 268.790048 
L 89.585387 268.577728 
L 90.092972 268.736534 
L 90.347301 268.523727 
L 90.857036 268.682793 
L 91.112444 268.371617 
L 91.368212 268.549177 
L 91.624342 268.531093 
L 91.880835 268.316949 
L 92.394912 268.476687 
L 92.652497 268.262049 
L 93.168764 268.422049 
L 93.427449 268.206915 
L 93.945922 268.367178 
L 94.205712 268.052682 
L 94.726405 268.312072 
L 94.987309 268.095938 
L 95.510236 268.25673 
L 95.772261 267.940805 
L 96.297436 268.20115 
L 96.560588 267.884506 
L 97.088026 268.14533 
L 97.352313 267.827964 
L 97.882029 267.989704 
L 98.147459 267.771177 
L 98.679467 267.933186 
L 98.946046 267.714145 
L 99.480361 267.876423 
L 99.748098 267.656866 
L 100.284736 267.819413 
L 100.553638 267.498606 
L 101.092613 267.762155 
L 101.362687 267.440607 
L 101.633154 267.623117 
L 101.904015 267.603847 
L 102.175269 267.281035 
L 102.718965 267.646887 
L 102.991408 267.222306 
L 103.537487 267.689967 
L 103.811126 267.16332 
L 104.359605 267.530607 
L 104.634447 267.206063 
L 105.185341 267.472083 
L 105.461395 267.044568 
L 105.737855 267.126963 
L 106.014721 267.413301 
L 106.291994 266.984799 
L 106.847767 267.354259 
L 107.126269 266.821948 
L 107.684505 267.294955 
L 107.964243 266.76142 
L 108.524959 267.235388 
L 108.805941 266.700623 
L 109.369154 267.175556 
L 109.651388 266.639556 
L 110.217115 267.012408 
L 110.50061 266.681951 
L 111.068868 266.848379 
L 111.638821 266.703938 
L 112.496949 266.642421 
L 112.783847 266.413295 
L 113.071176 266.913175 
L 113.647127 266.246192 
L 113.935751 266.851899 
L 114.514301 266.07818 
L 114.804229 266.790345 
L 115.385396 266.120162 
L 115.676637 266.728514 
L 116.260438 266.056718 
L 116.553001 266.56164 
L 117.139455 266.098684 
L 117.433349 266.604007 
L 118.022474 266.24631 
L 118.317707 266.436089 
L 118.613389 266.309578 
L 118.909521 266.393984 
L 119.206104 266.161458 
L 119.800625 266.330586 
L 120.098566 266.203513 
L 120.695814 266.266898 
L 127.38805 265.898468 
L 128.007798 265.962245 
L 135.276086 265.558572 
L 135.598113 265.645352 
L 136.243702 265.490515 
L 136.567266 265.577447 
L 136.891345 265.444963 
L 137.541052 265.509218 
L 137.866683 265.376362 
L 138.519505 265.440662 
L 143.14832 265.11634 
L 143.482959 265.204282 
L 144.153863 265.045885 
L 144.49013 265.133985 
L 145.164302 264.975088 
L 145.50221 265.063344 
L 146.179675 264.903945 
L 148.568265 264.736586 
L 148.911728 264.599507 
L 149.600345 264.664273 
L 150.637517 264.591602 
L 151.331812 264.42929 
L 152.377556 264.355737 
L 152.727289 264.445181 
L 153.428494 264.281819 
L 153.779967 264.371424 
L 154.484664 264.207534 
L 155.191704 264.157804 
L 155.901099 263.992843 
L 156.612861 263.94259 
L 156.969633 264.032753 
L 157.684967 263.866894 
L 158.043532 263.841577 
L 158.762465 263.674811 
L 159.122836 263.765373 
L 159.845395 263.598058 
L 160.207586 263.572388 
L 160.570387 263.430008 
L 160.9338 263.520917 
L 161.297825 263.495117 
L 162.02772 263.326325 
L 163.863291 263.195733 
L 164.601886 263.025255 
L 165.714498 262.945797 
L 166.086633 262.800713 
L 166.459403 262.892598 
L 167.206855 262.601421 
L 167.956867 262.785655 
L 169.086713 262.466148 
L 170.602257 262.35709 
L 170.982776 262.209519 
L 171.363952 262.30228 
L 171.745786 262.154405 
L 173.664892 262.015786 
L 174.050712 261.866714 
L 175.989904 261.726115 
L 176.379773 261.575829 
L 178.339369 261.433216 
L 178.733351 261.2817 
L 179.128025 261.375821 
L 179.523392 261.347047 
L 179.919455 261.195055 
L 181.910265 261.049627 
L 182.31054 260.896381 
L 185.538397 260.659703 
L 185.945116 260.504694 
L 186.35256 260.600006 
L 186.760732 260.570077 
L 187.169634 260.414572 
L 187.579267 260.384424 
L 187.989633 260.47997 
L 188.400735 260.323966 
L 188.812574 260.293656 
L 189.225153 260.389378 
L 189.638473 260.232872 
L 190.467345 260.171869 
L 190.882901 260.267826 
L 192.971964 260.114649 
L 193.392047 259.956618 
L 193.812892 259.925645 
L 194.234501 260.022075 
L 194.656876 259.991105 
L 195.080018 259.832388 
L 195.503931 259.928996 
L 195.928616 259.769933 
L 196.354075 259.73862 
L 196.78031 259.835407 
L 197.207324 259.675823 
L 197.635119 259.644339 
L 198.063696 259.741305 
L 198.493059 259.581196 
L 199.354147 259.517822 
L 199.785877 259.356875 
L 200.218401 259.454216 
L 200.651721 259.422324 
L 201.085838 259.260844 
L 201.956476 259.455873 
L 202.393001 259.164281 
L 202.830333 259.261984 
L 203.268474 259.229738 
L 203.707426 259.067182 
L 204.147192 259.034696 
L 204.587774 259.132641 
L 205.029174 258.969542 
L 205.471394 258.936874 
L 205.914437 259.035001 
L 206.358306 258.871356 
L 209.939231 258.606826 
L 210.390629 258.441198 
L 210.842876 258.540072 
L 211.295974 258.506601 
L 211.749925 258.340411 
L 212.204732 258.306688 
L 212.660396 258.405808 
L 213.116922 258.239052 
L 215.412543 258.068839 
L 215.874283 257.900612 
L 216.336901 257.866183 
L 216.8004 257.965934 
L 217.264781 257.797128 
L 218.196202 257.72781 
L 218.663248 257.558091 
L 219.131186 257.523137 
L 219.600019 257.623335 
L 220.069751 257.317477 
L 220.540384 257.417873 
L 221.01192 257.38265 
L 221.484361 257.211418 
L 221.957712 257.175929 
L 222.431973 257.276575 
L 222.907149 257.104746 
L 223.38324 257.069051 
L 223.860251 257.169886 
L 224.338184 256.86052 
L 226.741767 256.679648 
L 227.225287 256.505322 
L 228.195151 256.43207 
L 228.681501 256.256783 
L 229.657051 256.182832 
L 230.146256 256.006577 
L 230.636419 256.108591 
L 231.619628 255.754688 
L 232.112679 255.856966 
L 232.6067 255.81938 
L 233.101691 255.641516 
L 234.094601 255.565696 
L 234.592525 255.386843 
L 235.591324 255.310295 
L 236.092206 255.130444 
L 237.096948 255.053161 
L 237.600814 254.872304 
L 238.611551 254.794276 
L 239.118428 254.612404 
L 240.135215 254.533626 
L 240.64513 254.350731 
L 241.156064 254.311001 
L 241.66802 254.414866 
L 242.181001 254.087266 
L 243.21005 254.006959 
L 243.726125 253.821992 
L 244.243236 253.781492 
L 244.761389 253.885894 
L 245.280584 253.554894 
L 245.800827 253.514001 
L 246.322119 253.618672 
L 246.844465 253.285953 
L 247.892328 253.203293 
L 248.417852 253.015151 
L 248.944442 252.973463 
L 249.472102 253.078673 
L 250.000834 252.742472 
L 250.530641 252.700379 
L 251.061528 252.80586 
L 251.593497 252.467898 
L 252.126551 252.425396 
L 252.660695 252.531147 
L 253.195931 252.191409 
L 253.732262 252.297367 
L 254.269693 252.254516 
L 254.808226 251.912989 
L 255.347865 252.019218 
L 255.888613 251.975949 
L 256.430473 251.632617 
L 256.97345 251.739118 
L 258.062766 251.651645 
L 258.609112 251.306092 
L 259.705197 251.519755 
L 260.254943 251.02133 
L 261.357861 251.235539 
L 261.91104 250.886927 
L 262.46537 250.994232 
L 263.020854 250.94931 
L 263.577498 250.598835 
L 264.694274 250.813978 
L 265.254414 250.462262 
L 265.815728 250.570035 
L 266.378218 250.524385 
L 266.941889 250.324829 
L 267.506744 250.278826 
L 268.072787 250.38686 
L 268.640021 250.031992 
L 269.208451 250.140234 
L 269.77808 250.093842 
L 270.348913 249.892326 
L 270.920952 250.000764 
L 271.494201 249.954077 
L 272.068665 249.751772 
L 276.124248 249.420312 
L 276.708569 249.215463 
L 277.294139 249.324698 
L 277.880964 249.276737 
L 278.469046 249.071076 
L 279.058391 249.180507 
L 279.649001 248.9743 
L 280.240882 248.925756 
L 280.834037 249.035385 
L 282.024186 248.62063 
L 282.621188 248.730533 
L 283.219481 248.522253 
L 283.819069 248.472905 
L 284.419957 248.583005 
L 285.625646 248.164066 
L 286.230457 248.27444 
L 287.444031 247.852956 
L 288.052803 248.124454 
L 289.274339 247.701261 
L 289.887112 247.812106 
L 291.116689 247.386328 
L 291.733502 247.65961 
L 292.351671 247.446213 
L 292.971199 247.069059 
L 293.592093 247.506107 
L 294.214355 247.1287 
L 294.837991 246.913261 
L 295.463006 247.188347 
L 296.089403 246.808822 
L 296.717187 246.592055 
L 297.346364 246.868216 
L 297.976937 246.651293 
L 298.608911 246.268446 
L 299.242292 246.710535 
L 300.513289 245.942411 
L 301.150915 246.3864 
L 302.430448 245.613924 
L 303.072363 246.059827 
L 303.715718 245.672357 
L 304.360516 245.115049 
L 305.006764 245.563486 
L 305.654466 245.341111 
L 306.303626 244.949492 
L 306.95425 245.062725 
L 307.606343 245.007355 
L 308.25991 244.613494 
L 308.914955 244.896241 
L 310.229501 244.104503 
L 310.889013 244.38872 
L 311.550023 244.161655 
L 312.212537 243.76251 
L 312.876561 243.876642 
L 314.209155 243.4179 
L 314.877737 243.532305 
L 316.219496 243.070644 
L 316.892684 243.012101 
L 317.567417 242.779726 
L 318.243701 242.720714 
L 318.921542 242.487189 
L 319.600945 242.427704 
L 320.281915 242.193021 
L 320.964457 242.133059 
L 321.648578 241.897209 
L 323.021576 241.776182 
L 323.710464 241.538812 
L 324.400953 241.477742 
L 325.093047 241.239187 
L 326.482075 241.115921 
L 327.17902 240.875819 
L 327.877594 240.813618 
L 328.577801 240.572311 
L 329.983142 240.446759 
L 330.688287 240.20388 
L 332.103553 240.077018 
L 332.813687 239.83255 
L 334.954161 239.640042 
L 336.389597 239.146282 
L 337.10987 239.08107 
L 337.831853 238.832491 
L 339.280976 238.700854 
L 340.008129 238.450632 
L 340.737017 238.568589 
L 341.467647 238.502219 
L 342.200024 238.250861 
L 342.934156 238.553751 
L 343.670048 238.302155 
L 344.407707 237.863852 
L 345.14714 238.167978 
L 346.63135 237.660516 
L 347.37614 237.965498 
L 348.871125 237.455705 
L 349.621332 237.761547 
L 351.127209 237.249403 
L 351.882892 237.36836 
L 352.640414 237.299319 
L 353.399781 237.041594 
L 354.161 237.160732 
L 354.924078 237.091184 
L 355.689022 236.83226 
L 356.455839 236.951579 
L 357.224535 236.691848 
L 359.541968 236.479936 
L 360.318251 236.026798 
L 361.096449 236.146636 
L 361.876568 235.883358 
L 363.442599 235.739208 
L 365.016402 235.208072 
L 365.806236 235.134889 
L 366.598035 234.867428 
L 367.391806 234.793639 
L 370.586759 233.712137 
L 371.390501 233.636438 
L 373.813862 232.813401 
L 374.625718 232.33749 
L 375.439622 232.25958 
L 376.255581 231.78042 
L 378.715868 230.936963 
L 379.540127 230.450265 
L 381.194937 229.879313 
L 382.025503 229.386612 
L 383.693002 228.807934 
L 384.529949 228.309129 
L 385.36904 228.016416 
L 386.210282 227.513152 
L 387.899255 226.920876 
L 389.596933 225.898979 
L 390.449058 225.810952 
L 392.159923 224.776217 
L 393.018679 224.686394 
L 393.879663 223.947171 
L 396.476068 223.017875 
L 397.34605 222.48586 
L 398.218303 222.392343 
L 399.092837 221.856537 
L 399.96966 221.540042 
L 400.848781 221.444918 
L 401.73021 220.903356 
L 402.613956 220.807145 
L 403.500027 220.486393 
L 404.388432 220.389379 
L 405.279182 219.841125 
L 406.172286 220.194582 
L 407.96559 219.545977 
L 408.865809 219.673966 
L 409.76842 219.347905 
L 412.490694 219.048817 
L 413.402964 218.719764 
L 414.317674 218.848092 
L 416.154451 218.186382 
L 417.076537 218.084458 
L 418.001102 217.751056 
L 418.928156 217.183969 
L 419.857709 217.312958 
L 420.789771 216.976314 
L 421.724352 216.404168 
L 422.661462 216.299004 
L 423.601111 215.486556 
L 424.543311 214.905701 
L 425.488071 214.798073 
L 426.435402 213.97365 
L 427.385314 212.901538 
L 428.337817 212.548542 
L 430.250643 210.858535 
L 431.210987 210.498037 
L 432.173965 209.142315 
L 433.139588 208.274185 
L 434.107868 207.146008 
L 435.078816 206.262385 
L 436.052442 205.114308 
L 437.028757 203.694445 
L 438.007773 203.046239 
L 439.973953 200.138596 
L 440.961139 199.469779 
L 442.943761 196.473368 
L 443.939219 195.782957 
L 444.937458 193.966432 
L 445.93849 192.408494 
L 446.942325 191.406737 
L 448.958455 188.204593 
L 449.970774 187.46429 
L 452.003978 184.158031 
L 453.024887 183.086385 
L 455.075383 179.662207 
L 456.104993 178.86824 
L 458.173002 175.327573 
L 459.211425 174.177905 
L 460.252811 171.687531 
L 461.297172 169.828742 
L 462.344521 175.6253 
L 464.448236 172.655135 
L 465.504627 170.133104 
L 466.564058 168.250172 
L 467.626542 166.687581 
L 468.692093 164.754641 
L 469.760723 163.150017 
L 471.907276 159.149742 
L 472.985225 157.476119 
L 474.066308 155.027255 
L 475.150539 152.918132 
L 476.23793 151.165392 
L 477.328497 148.599724 
L 479.51921 144.141461 
L 480.619384 141.440796 
L 482.829441 136.743008 
L 483.939352 133.894139 
L 486.169011 128.932941 
L 487.288787 125.920597 
L 488.411882 123.318512 
L 489.538309 121.150948 
L 490.668083 117.96829 
L 491.801221 115.718232 
L 492.937735 112.923362 
L 494.077642 108.5031 
L 495.220957 105.564413 
L 496.367695 103.11309 
L 497.517871 100.063481 
L 504.492012 84.722319 
L 509.212207 75.766346 
L 511.593924 71.086781 
L 517.612339 62.370263 
L 520.04571 58.748145 
L 521.268037 57.647332 
L 522.494149 55.793639 
L 532.441411 46.621481 
L 533.702386 46.232943 
L 534.967327 45.04919 
L 536.236252 44.656953 
L 537.50918 43.462686 
L 538.78613 43.066703 
L 540.067121 41.861787 
L 542.641302 41.060967 
L 543.934531 39.842693 
L 546.533366 39.031601 
L 547.83901 37.799754 
L 550.462853 36.978215 
L 551.781092 35.732576 
L 554.430306 34.90041 
L 555.761323 33.640757 
L 557.09664 34.062867 
L 558.436279 32.797782 
L 562.481334 31.523039 
L 563.838469 30.240841 
L 570.691002 28.074346 
L 572.075033 26.768988 
L 577.656987 24.998451 
L 579.064047 23.672239 
L 583.313367 22.32 
L 583.313367 22.32 
" style="fill:none;stroke:#1f77b4;stroke-linecap:square;stroke-width:1.5;"/>
   </g>
   <g id="line2d_24">
    <path clip-path="url(#p177614ec77)" d="M 345.858937 317.445 
L 349.2 312.793385 
L 356.088889 303.202289 
L 362.977778 293.611194 
L 369.866667 284.020098 
L 376.755556 274.429002 
L 383.644444 264.837906 
L 390.533333 255.24681 
L 397.422222 245.655715 
L 404.311111 236.064619 
L 411.2 226.473523 
L 418.088889 216.882427 
L 424.977778 207.291331 
L 431.866667 197.700235 
L 438.755556 188.10914 
L 445.644444 178.518044 
L 452.533333 168.926948 
L 459.422222 159.335852 
L 466.311111 149.744756 
L 473.2 140.153661 
L 480.088889 130.562565 
L 486.977778 120.971469 
L 493.866667 111.380373 
L 500.755556 101.789277 
L 507.644444 92.198181 
L 514.533333 82.607086 
L 521.422222 73.01599 
L 528.311111 63.424894 
L 535.2 53.833798 
L 542.088889 44.242702 
L 548.977778 34.651607 
L 555.866667 25.060511 
L 562.755556 15.469415 
L 569.644444 5.878319 
L 574.584858 -1 
" style="fill:none;stroke:#ff7f0e;stroke-linecap:square;stroke-width:1.5;"/>
   </g>
   <g id="line2d_25">
    <path clip-path="url(#p177614ec77)" d="M -1 294.12 
L 605.4 294.12 
L 605.4 294.12 
" style="fill:none;stroke:#000000;stroke-linecap:square;stroke-width:1.5;"/>
   </g>
   <g id="patch_3">
    <path d="M 39.2 294.12 
L 39.2 22.32 
" style="fill:none;stroke:#000000;stroke-linecap:square;stroke-linejoin:miter;stroke-width:0.8;"/>
   </g>
   <g id="patch_4">
    <path d="M 597.2 294.12 
L 597.2 22.32 
" style="fill:none;stroke:#000000;stroke-linecap:square;stroke-linejoin:miter;stroke-width:0.8;"/>
   </g>
   <g id="patch_5">
    <path d="M 39.2 294.12 
L 597.2 294.12 
" style="fill:none;stroke:#000000;stroke-linecap:square;stroke-linejoin:miter;stroke-width:0.8;"/>
   </g>
   <g id="patch_6">
    <path d="M 39.2 22.32 
L 597.2 22.32 
" style="fill:none;stroke:#000000;stroke-linecap:square;stroke-linejoin:miter;stroke-width:0.8;"/>
   </g>
   <g id="text_12">
    <!-- $E_g=3.06$ -->
    <g transform="translate(362.612323 264.46501)scale(0.15 -0.15)">
     <defs>
      <path d="M 16.890625 72.90625 
L 62.984375 72.90625 
L 61.375 64.59375 
L 25.09375 64.59375 
L 20.90625 43.015625 
L 55.71875 43.015625 
L 54.109375 34.71875 
L 19.28125 34.71875 
L 14.203125 8.296875 
L 51.3125 8.296875 
L 49.703125 0 
L 2.6875 0 
z
" id="DejaVuSans-Oblique-69"/>
      <path d="M 59.625 54.6875 
L 50.296875 6.78125 
Q 47.609375 -7.125 40.015625 -13.953125 
Q 32.421875 -20.796875 19.578125 -20.796875 
Q 14.84375 -20.796875 10.78125 -20.09375 
Q 6.734375 -19.390625 3.21875 -17.921875 
L 4.890625 -9.1875 
Q 8.203125 -11.328125 11.90625 -12.34375 
Q 15.625 -13.375 19.828125 -13.375 
Q 28.375 -13.375 33.859375 -8.703125 
Q 39.359375 -4.046875 41.109375 4.6875 
L 41.890625 8.796875 
Q 38.140625 4.5 33.15625 2.25 
Q 28.171875 0 22.40625 0 
Q 14.109375 0 9.34375 5.484375 
Q 4.59375 10.984375 4.59375 20.609375 
Q 4.59375 28.171875 7.46875 35.421875 
Q 10.359375 42.671875 15.578125 48.296875 
Q 19.046875 52 23.65625 54 
Q 28.265625 56 33.296875 56 
Q 38.8125 56 42.90625 53.4375 
Q 47.015625 50.875 49.03125 46.1875 
L 50.59375 54.6875 
z
M 46.09375 34.625 
Q 46.09375 41.265625 42.96875 44.875 
Q 39.84375 48.484375 34.078125 48.484375 
Q 30.515625 48.484375 27.296875 47.0625 
Q 24.078125 45.65625 21.78125 43.109375 
Q 18.0625 38.921875 15.984375 33.234375 
Q 13.921875 27.546875 13.921875 21.484375 
Q 13.921875 14.75 17.0625 11.125 
Q 20.21875 7.515625 26.125 7.515625 
Q 34.671875 7.515625 40.375 15.25 
Q 46.09375 23 46.09375 34.625 
z
" id="DejaVuSans-Oblique-103"/>
      <path d="M 10.59375 45.40625 
L 73.1875 45.40625 
L 73.1875 37.203125 
L 10.59375 37.203125 
z
M 10.59375 25.484375 
L 73.1875 25.484375 
L 73.1875 17.1875 
L 10.59375 17.1875 
z
" id="DejaVuSans-61"/>
      <path d="M 40.578125 39.3125 
Q 47.65625 37.796875 51.625 33 
Q 55.609375 28.21875 55.609375 21.1875 
Q 55.609375 10.40625 48.1875 4.484375 
Q 40.765625 -1.421875 27.09375 -1.421875 
Q 22.515625 -1.421875 17.65625 -0.515625 
Q 12.796875 0.390625 7.625 2.203125 
L 7.625 11.71875 
Q 11.71875 9.328125 16.59375 8.109375 
Q 21.484375 6.890625 26.8125 6.890625 
Q 36.078125 6.890625 40.9375 10.546875 
Q 45.796875 14.203125 45.796875 21.1875 
Q 45.796875 27.640625 41.28125 31.265625 
Q 36.765625 34.90625 28.71875 34.90625 
L 20.21875 34.90625 
L 20.21875 43.015625 
L 29.109375 43.015625 
Q 36.375 43.015625 40.234375 45.921875 
Q 44.09375 48.828125 44.09375 54.296875 
Q 44.09375 59.90625 40.109375 62.90625 
Q 36.140625 65.921875 28.71875 65.921875 
Q 24.65625 65.921875 20.015625 65.03125 
Q 15.375 64.15625 9.8125 62.3125 
L 9.8125 71.09375 
Q 15.4375 72.65625 20.34375 73.4375 
Q 25.25 74.21875 29.59375 74.21875 
Q 40.828125 74.21875 47.359375 69.109375 
Q 53.90625 64.015625 53.90625 55.328125 
Q 53.90625 49.265625 50.4375 45.09375 
Q 46.96875 40.921875 40.578125 39.3125 
z
" id="DejaVuSans-51"/>
      <path d="M 10.6875 12.40625 
L 21 12.40625 
L 21 0 
L 10.6875 0 
z
" id="DejaVuSans-46"/>
      <path d="M 31.78125 66.40625 
Q 24.171875 66.40625 20.328125 58.90625 
Q 16.5 51.421875 16.5 36.375 
Q 16.5 21.390625 20.328125 13.890625 
Q 24.171875 6.390625 31.78125 6.390625 
Q 39.453125 6.390625 43.28125 13.890625 
Q 47.125 21.390625 47.125 36.375 
Q 47.125 51.421875 43.28125 58.90625 
Q 39.453125 66.40625 31.78125 66.40625 
z
M 31.78125 74.21875 
Q 44.046875 74.21875 50.515625 64.515625 
Q 56.984375 54.828125 56.984375 36.375 
Q 56.984375 17.96875 50.515625 8.265625 
Q 44.046875 -1.421875 31.78125 -1.421875 
Q 19.53125 -1.421875 13.0625 8.265625 
Q 6.59375 17.96875 6.59375 36.375 
Q 6.59375 54.828125 13.0625 64.515625 
Q 19.53125 74.21875 31.78125 74.21875 
z
" id="DejaVuSans-48"/>
      <path d="M 33.015625 40.375 
Q 26.375 40.375 22.484375 35.828125 
Q 18.609375 31.296875 18.609375 23.390625 
Q 18.609375 15.53125 22.484375 10.953125 
Q 26.375 6.390625 33.015625 6.390625 
Q 39.65625 6.390625 43.53125 10.953125 
Q 47.40625 15.53125 47.40625 23.390625 
Q 47.40625 31.296875 43.53125 35.828125 
Q 39.65625 40.375 33.015625 40.375 
z
M 52.59375 71.296875 
L 52.59375 62.3125 
Q 48.875 64.0625 45.09375 64.984375 
Q 41.3125 65.921875 37.59375 65.921875 
Q 27.828125 65.921875 22.671875 59.328125 
Q 17.53125 52.734375 16.796875 39.40625 
Q 19.671875 43.65625 24.015625 45.921875 
Q 28.375 48.1875 33.59375 48.1875 
Q 44.578125 48.1875 50.953125 41.515625 
Q 57.328125 34.859375 57.328125 23.390625 
Q 57.328125 12.15625 50.6875 5.359375 
Q 44.046875 -1.421875 33.015625 -1.421875 
Q 20.359375 -1.421875 13.671875 8.265625 
Q 6.984375 17.96875 6.984375 36.375 
Q 6.984375 53.65625 15.1875 63.9375 
Q 23.390625 74.21875 37.203125 74.21875 
Q 40.921875 74.21875 44.703125 73.484375 
Q 48.484375 72.75 52.59375 71.296875 
z
" id="DejaVuSans-54"/>
     </defs>
     <use transform="translate(0 0.78125)" xlink:href="#DejaVuSans-Oblique-69"/>
     <use transform="translate(63.183594 -15.625)scale(0.7)" xlink:href="#DejaVuSans-Oblique-103"/>
     <use transform="translate(129.833984 0.78125)" xlink:href="#DejaVuSans-61"/>
     <use transform="translate(233.105469 0.78125)" xlink:href="#DejaVuSans-51"/>
     <use transform="translate(296.728516 0.78125)" xlink:href="#DejaVuSans-46"/>
     <use transform="translate(328.515625 0.78125)" xlink:href="#DejaVuSans-48"/>
     <use transform="translate(392.138672 0.78125)" xlink:href="#DejaVuSans-54"/>
    </g>
   </g>
   <g id="text_13">
    <!-- $TiO_2\ \ \ d=780.80nm$ -->
    <g transform="translate(257.78 16.32)scale(0.12 -0.12)">
     <defs>
      <path d="M 5.90625 72.90625 
L 67.578125 72.90625 
L 66.015625 64.59375 
L 39.984375 64.59375 
L 27.484375 0 
L 17.578125 0 
L 30.078125 64.59375 
L 4.296875 64.59375 
z
" id="DejaVuSans-Oblique-84"/>
      <path d="M 18.3125 75.984375 
L 27.296875 75.984375 
L 25.09375 64.59375 
L 16.109375 64.59375 
z
M 14.203125 54.6875 
L 23.1875 54.6875 
L 12.5 0 
L 3.515625 0 
z
" id="DejaVuSans-Oblique-105"/>
      <path d="M 45.609375 66.21875 
Q 37.5 66.21875 31.296875 62.28125 
Q 25.09375 58.34375 20.515625 50.296875 
Q 17.578125 45.171875 16.03125 39.40625 
Q 14.5 33.640625 14.5 27.78125 
Q 14.5 17.625 19.359375 12.109375 
Q 24.21875 6.59375 33.109375 6.59375 
Q 41.109375 6.59375 47.375 10.5625 
Q 53.65625 14.546875 58.109375 22.40625 
Q 61.078125 27.6875 62.640625 33.46875 
Q 64.203125 39.265625 64.203125 45.015625 
Q 64.203125 55.125 59.3125 60.671875 
Q 54.4375 66.21875 45.609375 66.21875 
z
M 32.8125 -1.421875 
Q 19.390625 -1.421875 11.6875 6.53125 
Q 4 14.5 4 28.328125 
Q 4 36.234375 7 44.484375 
Q 10.015625 52.734375 15.28125 59.1875 
Q 21.484375 66.75 29.09375 70.484375 
Q 36.71875 74.21875 45.90625 74.21875 
Q 59.28125 74.21875 66.984375 66.328125 
Q 74.703125 58.453125 74.703125 44.828125 
Q 74.703125 36.421875 71.765625 28.3125 
Q 68.84375 20.21875 63.375 13.625 
Q 57.125 6 49.578125 2.28125 
Q 42.046875 -1.421875 32.8125 -1.421875 
z
" id="DejaVuSans-Oblique-79"/>
      <path d="M 19.1875 8.296875 
L 53.609375 8.296875 
L 53.609375 0 
L 7.328125 0 
L 7.328125 8.296875 
Q 12.9375 14.109375 22.625 23.890625 
Q 32.328125 33.6875 34.8125 36.53125 
Q 39.546875 41.84375 41.421875 45.53125 
Q 43.3125 49.21875 43.3125 52.78125 
Q 43.3125 58.59375 39.234375 62.25 
Q 35.15625 65.921875 28.609375 65.921875 
Q 23.96875 65.921875 18.8125 64.3125 
Q 13.671875 62.703125 7.8125 59.421875 
L 7.8125 69.390625 
Q 13.765625 71.78125 18.9375 73 
Q 24.125 74.21875 28.421875 74.21875 
Q 39.75 74.21875 46.484375 68.546875 
Q 53.21875 62.890625 53.21875 53.421875 
Q 53.21875 48.921875 51.53125 44.890625 
Q 49.859375 40.875 45.40625 35.40625 
Q 44.1875 33.984375 37.640625 27.21875 
Q 31.109375 20.453125 19.1875 8.296875 
z
" id="DejaVuSans-50"/>
      <path d="M 41.796875 8.203125 
Q 38.1875 3.46875 33.25 1.015625 
Q 28.328125 -1.421875 22.3125 -1.421875 
Q 14.109375 -1.421875 9.34375 4.171875 
Q 4.59375 9.765625 4.59375 19.484375 
Q 4.59375 27.59375 7.46875 34.9375 
Q 10.359375 42.28125 15.828125 48.09375 
Q 19.4375 51.953125 23.96875 53.96875 
Q 28.515625 56 33.5 56 
Q 38.765625 56 42.796875 53.453125 
Q 46.828125 50.921875 49.03125 46.1875 
L 54.890625 75.984375 
L 63.921875 75.984375 
L 49.125 0 
L 40.09375 0 
z
M 13.921875 21.09375 
Q 13.921875 14.015625 17.109375 10.0625 
Q 20.3125 6.109375 25.984375 6.109375 
Q 30.171875 6.109375 33.765625 8.125 
Q 37.359375 10.15625 40.09375 14.109375 
Q 42.96875 18.21875 44.625 23.578125 
Q 46.296875 28.953125 46.296875 34.1875 
Q 46.296875 40.96875 43.09375 44.765625 
Q 39.890625 48.578125 34.28125 48.578125 
Q 30.03125 48.578125 26.359375 46.578125 
Q 22.703125 44.578125 20.125 40.828125 
Q 17.28125 36.765625 15.59375 31.390625 
Q 13.921875 26.03125 13.921875 21.09375 
z
" id="DejaVuSans-Oblique-100"/>
      <path d="M 8.203125 72.90625 
L 55.078125 72.90625 
L 55.078125 68.703125 
L 28.609375 0 
L 18.3125 0 
L 43.21875 64.59375 
L 8.203125 64.59375 
z
" id="DejaVuSans-55"/>
      <path d="M 31.78125 34.625 
Q 24.75 34.625 20.71875 30.859375 
Q 16.703125 27.09375 16.703125 20.515625 
Q 16.703125 13.921875 20.71875 10.15625 
Q 24.75 6.390625 31.78125 6.390625 
Q 38.8125 6.390625 42.859375 10.171875 
Q 46.921875 13.96875 46.921875 20.515625 
Q 46.921875 27.09375 42.890625 30.859375 
Q 38.875 34.625 31.78125 34.625 
z
M 21.921875 38.8125 
Q 15.578125 40.375 12.03125 44.71875 
Q 8.5 49.078125 8.5 55.328125 
Q 8.5 64.0625 14.71875 69.140625 
Q 20.953125 74.21875 31.78125 74.21875 
Q 42.671875 74.21875 48.875 69.140625 
Q 55.078125 64.0625 55.078125 55.328125 
Q 55.078125 49.078125 51.53125 44.71875 
Q 48 40.375 41.703125 38.8125 
Q 48.828125 37.15625 52.796875 32.3125 
Q 56.78125 27.484375 56.78125 20.515625 
Q 56.78125 9.90625 50.3125 4.234375 
Q 43.84375 -1.421875 31.78125 -1.421875 
Q 19.734375 -1.421875 13.25 4.234375 
Q 6.78125 9.90625 6.78125 20.515625 
Q 6.78125 27.484375 10.78125 32.3125 
Q 14.796875 37.15625 21.921875 38.8125 
z
M 18.3125 54.390625 
Q 18.3125 48.734375 21.84375 45.5625 
Q 25.390625 42.390625 31.78125 42.390625 
Q 38.140625 42.390625 41.71875 45.5625 
Q 45.3125 48.734375 45.3125 54.390625 
Q 45.3125 60.0625 41.71875 63.234375 
Q 38.140625 66.40625 31.78125 66.40625 
Q 25.390625 66.40625 21.84375 63.234375 
Q 18.3125 60.0625 18.3125 54.390625 
z
" id="DejaVuSans-56"/>
      <path d="M 55.71875 33.015625 
L 49.3125 0 
L 40.28125 0 
L 46.6875 32.671875 
Q 47.125 34.96875 47.359375 36.71875 
Q 47.609375 38.484375 47.609375 39.5 
Q 47.609375 43.609375 45.015625 45.890625 
Q 42.4375 48.1875 37.796875 48.1875 
Q 30.5625 48.1875 25.34375 43.375 
Q 20.125 38.578125 18.5 30.328125 
L 12.5 0 
L 3.515625 0 
L 14.109375 54.6875 
L 23.09375 54.6875 
L 21.296875 46.09375 
Q 25.046875 50.828125 30.3125 53.40625 
Q 35.59375 56 41.40625 56 
Q 48.640625 56 52.609375 52.09375 
Q 56.59375 48.1875 56.59375 41.109375 
Q 56.59375 39.359375 56.375 37.359375 
Q 56.15625 35.359375 55.71875 33.015625 
z
" id="DejaVuSans-Oblique-110"/>
      <path d="M 89.796875 33.015625 
L 83.40625 0 
L 74.421875 0 
L 80.71875 32.71875 
Q 81.109375 34.8125 81.296875 36.328125 
Q 81.5 37.84375 81.5 38.921875 
Q 81.5 43.3125 79.046875 45.75 
Q 76.609375 48.1875 72.21875 48.1875 
Q 65.671875 48.1875 60.546875 43.28125 
Q 55.421875 38.375 53.90625 30.515625 
L 47.90625 0 
L 38.921875 0 
L 45.3125 32.71875 
Q 45.703125 34.515625 45.890625 36.046875 
Q 46.09375 37.59375 46.09375 38.8125 
Q 46.09375 43.265625 43.65625 45.71875 
Q 41.21875 48.1875 36.921875 48.1875 
Q 30.28125 48.1875 25.140625 43.28125 
Q 20.015625 38.375 18.5 30.515625 
L 12.5 0 
L 3.515625 0 
L 14.203125 54.6875 
L 23.1875 54.6875 
L 21.484375 46.1875 
Q 25.140625 50.984375 30.046875 53.484375 
Q 34.96875 56 40.578125 56 
Q 46.53125 56 50.359375 52.875 
Q 54.203125 49.75 54.984375 44.1875 
Q 59.078125 49.953125 64.46875 52.96875 
Q 69.875 56 75.875 56 
Q 82.90625 56 86.734375 51.953125 
Q 90.578125 47.90625 90.578125 40.484375 
Q 90.578125 38.875 90.375 36.9375 
Q 90.1875 35.015625 89.796875 33.015625 
z
" id="DejaVuSans-Oblique-109"/>
     </defs>
     <use transform="translate(0 0.015625)" xlink:href="#DejaVuSans-Oblique-84"/>
     <use transform="translate(61.083984 0.015625)" xlink:href="#DejaVuSans-Oblique-105"/>
     <use transform="translate(88.867188 0.015625)" xlink:href="#DejaVuSans-Oblique-79"/>
     <use transform="translate(167.578125 -16.390625)scale(0.7)" xlink:href="#DejaVuSans-50"/>
     <use transform="translate(312.259768 0.015625)" xlink:href="#DejaVuSans-Oblique-100"/>
     <use transform="translate(395.218752 0.015625)" xlink:href="#DejaVuSans-61"/>
     <use transform="translate(498.490237 0.015625)" xlink:href="#DejaVuSans-55"/>
     <use transform="translate(562.113284 0.015625)" xlink:href="#DejaVuSans-56"/>
     <use transform="translate(625.736331 0.015625)" xlink:href="#DejaVuSans-48"/>
     <use transform="translate(689.359377 0.015625)" xlink:href="#DejaVuSans-46"/>
     <use transform="translate(718.521487 0.015625)" xlink:href="#DejaVuSans-56"/>
     <use transform="translate(782.144534 0.015625)" xlink:href="#DejaVuSans-48"/>
     <use transform="translate(845.767581 0.015625)" xlink:href="#DejaVuSans-Oblique-110"/>
     <use transform="translate(909.146487 0.015625)" xlink:href="#DejaVuSans-Oblique-109"/>
    </g>
   </g>
  </g>
 </g>
 <defs>
  <clipPath id="p177614ec77">
   <rect height="271.8" width="558" x="39.2" y="22.32"/>
  </clipPath>
 </defs>
</svg>
