<?xml version="1.0" encoding="utf-8" standalone="no"?>
<!DOCTYPE svg PUBLIC "-//W3C//DTD SVG 1.1//EN"
  "http://www.w3.org/Graphics/SVG/1.1/DTD/svg11.dtd">
<!-- Created with matplotlib (https://matplotlib.org/) -->
<svg height="298.183636pt" version="1.1" viewBox="0 0 661.2 298.183636" width="661.2pt" xmlns="http://www.w3.org/2000/svg" xmlns:xlink="http://www.w3.org/1999/xlink">
 <defs>
  <style type="text/css">
*{stroke-linecap:butt;stroke-linejoin:round;}
  </style>
 </defs>
 <g id="figure_1">
  <g id="patch_1">
   <path d="M 0 298.183636 
L 661.2 298.183636 
L 661.2 0 
L 0 0 
z
" style="fill:none;"/>
  </g>
  <g id="axes_1">
   <g id="patch_2">
    <path d="M 127.254545 224.64 
L 462.054545 224.64 
L 462.054545 7.2 
L 127.254545 7.2 
z
" style="fill:#ffffff;"/>
   </g>
   <g id="matplotlib.axis_1">
    <g id="xtick_1">
     <g id="line2d_1">
      <defs>
       <path d="M 0 0 
L 0 3.5 
" id="m06afb54b63" style="stroke:#000000;stroke-width:0.8;"/>
      </defs>
      <g>
       <use style="stroke:#000000;stroke-width:0.8;" x="176.290909" xlink:href="#m06afb54b63" y="224.64"/>
      </g>
     </g>
     <g id="text_1">
      <!-- 0.002 -->
      <defs>
       <path d="M 25 66.015625 
Q 19.53125 66.015625 15.8125 57.609375 
Q 12.109375 49.21875 12.109375 35.15625 
Q 12.109375 20.3125 15.8125 12.109375 
Q 19.53125 3.90625 25 3.90625 
Q 30.859375 3.90625 34.171875 12.109375 
Q 37.5 20.3125 37.5 35.15625 
Q 37.5 49.21875 34.375 57.609375 
Q 31.25 66.015625 25 66.015625 
z
M 25 0.78125 
Q 16.40625 0.78125 10.546875 9.765625 
Q 4.6875 18.75 4.6875 35.15625 
Q 4.6875 50.390625 10.34375 59.765625 
Q 16.015625 69.140625 25 69.140625 
Q 33.59375 69.140625 39.25 60.15625 
Q 44.921875 51.171875 44.921875 35.15625 
Q 44.921875 19.140625 39.25 9.953125 
Q 33.59375 0.78125 25 0.78125 
z
" id="SimSun-48"/>
       <path d="M 12.5 0.390625 
Q 10.15625 0.390625 8.390625 1.953125 
Q 6.640625 3.515625 6.640625 6.25 
Q 6.640625 8.984375 8.390625 10.546875 
Q 10.15625 12.109375 12.5 12.109375 
Q 14.84375 12.109375 16.59375 10.34375 
Q 18.359375 8.59375 18.359375 6.25 
Q 18.359375 3.515625 16.59375 1.953125 
Q 14.84375 0.390625 12.5 0.390625 
z
" id="SimSun-46"/>
       <path d="M 36.328125 51.953125 
Q 36.328125 58.984375 33.203125 62.6875 
Q 30.078125 66.40625 23.828125 66.40625 
Q 19.140625 66.40625 15.8125 63.859375 
Q 12.5 61.328125 12.5 57.421875 
Q 12.5 55.078125 14.0625 53.515625 
Q 15.234375 51.953125 15.234375 50.390625 
Q 15.234375 48.4375 14.25 47.453125 
Q 13.28125 46.484375 11.328125 46.484375 
Q 8.984375 46.484375 7.609375 47.84375 
Q 6.25 49.21875 6.25 52.34375 
Q 6.25 60.546875 12.109375 64.84375 
Q 17.96875 69.140625 24.609375 69.140625 
Q 33.984375 69.140625 38.46875 64.453125 
Q 42.96875 59.765625 42.96875 52.734375 
Q 42.96875 48.046875 40.8125 43.359375 
Q 38.671875 38.671875 33.984375 34.375 
Q 22.65625 23.4375 16.59375 16.59375 
Q 10.546875 9.765625 9.375 7.421875 
L 32.421875 7.421875 
Q 35.9375 7.421875 38.28125 10.15625 
Q 40.625 12.890625 41.40625 18.359375 
L 43.75 18.359375 
L 41.40625 1.5625 
L 5.078125 1.5625 
L 5.078125 6.640625 
Q 7.03125 10.15625 11.515625 15.625 
Q 16.015625 21.09375 23.4375 28.515625 
Q 30.078125 35.15625 33.203125 41.015625 
Q 36.328125 46.875 36.328125 51.953125 
z
" id="SimSun-50"/>
      </defs>
      <g transform="translate(163.790909 238.788437)scale(0.1 -0.1)">
       <use xlink:href="#SimSun-48"/>
       <use x="50" xlink:href="#SimSun-46"/>
       <use x="100" xlink:href="#SimSun-48"/>
       <use x="150" xlink:href="#SimSun-48"/>
       <use x="200" xlink:href="#SimSun-50"/>
      </g>
     </g>
    </g>
    <g id="xtick_2">
     <g id="line2d_2">
      <g>
       <use style="stroke:#000000;stroke-width:0.8;" x="243.927273" xlink:href="#m06afb54b63" y="224.64"/>
      </g>
     </g>
     <g id="text_2">
      <!-- 0.004 -->
      <defs>
       <path d="M 35.9375 8.984375 
Q 35.9375 6.25 37.5 5.078125 
Q 39.0625 3.90625 41.796875 3.90625 
L 45.3125 3.90625 
L 45.3125 1.5625 
L 19.53125 1.5625 
L 19.53125 3.90625 
L 23.828125 3.90625 
Q 26.953125 3.90625 28.3125 5.078125 
Q 29.6875 6.25 29.6875 8.984375 
L 29.6875 21.875 
L 3.515625 21.875 
L 3.515625 23.828125 
L 32.03125 69.140625 
L 35.9375 69.140625 
L 35.9375 24.21875 
L 46.484375 24.21875 
L 46.484375 21.875 
L 35.9375 21.875 
z
M 29.296875 59.375 
L 7.03125 24.21875 
L 29.6875 24.21875 
L 29.6875 59.375 
z
" id="SimSun-52"/>
      </defs>
      <g transform="translate(231.427273 238.788437)scale(0.1 -0.1)">
       <use xlink:href="#SimSun-48"/>
       <use x="50" xlink:href="#SimSun-46"/>
       <use x="100" xlink:href="#SimSun-48"/>
       <use x="150" xlink:href="#SimSun-48"/>
       <use x="200" xlink:href="#SimSun-52"/>
      </g>
     </g>
    </g>
    <g id="xtick_3">
     <g id="line2d_3">
      <g>
       <use style="stroke:#000000;stroke-width:0.8;" x="311.563636" xlink:href="#m06afb54b63" y="224.64"/>
      </g>
     </g>
     <g id="text_3">
      <!-- 0.006 -->
      <defs>
       <path d="M 12.109375 28.125 
Q 12.109375 16.40625 16.203125 9.953125 
Q 20.3125 3.515625 26.171875 3.515625 
Q 32.03125 3.515625 35.15625 7.8125 
Q 38.28125 12.109375 38.28125 23.828125 
Q 38.28125 31.640625 34.953125 35.9375 
Q 31.640625 40.234375 26.953125 40.234375 
Q 22.65625 40.234375 18.9375 37.6875 
Q 15.234375 35.15625 12.109375 28.125 
z
M 27.34375 44.140625 
Q 36.71875 44.140625 40.8125 37.890625 
Q 44.921875 31.640625 44.921875 23.828125 
Q 44.921875 12.109375 39.25 6.4375 
Q 33.59375 0.78125 26.171875 0.78125 
Q 15.625 0.78125 10.15625 8.78125 
Q 4.6875 16.796875 4.6875 32.03125 
Q 4.6875 50 11.328125 59.5625 
Q 17.96875 69.140625 29.296875 69.140625 
Q 34.765625 69.140625 38.078125 66.015625 
Q 41.40625 62.890625 41.40625 60.546875 
Q 41.40625 58.203125 40.421875 57.03125 
Q 39.453125 55.859375 37.109375 55.859375 
Q 35.15625 55.859375 34.171875 56.828125 
Q 33.203125 57.8125 33.203125 59.765625 
Q 33.203125 60.546875 33.59375 61.328125 
Q 33.59375 62.109375 33.59375 62.890625 
Q 33.59375 64.453125 32.421875 65.421875 
Q 31.25 66.40625 28.125 66.40625 
Q 21.484375 66.40625 16.796875 60.34375 
Q 12.109375 54.296875 12.109375 33.984375 
Q 14.453125 39.0625 18.546875 41.59375 
Q 22.65625 44.140625 27.34375 44.140625 
z
" id="SimSun-54"/>
      </defs>
      <g transform="translate(299.063636 238.788437)scale(0.1 -0.1)">
       <use xlink:href="#SimSun-48"/>
       <use x="50" xlink:href="#SimSun-46"/>
       <use x="100" xlink:href="#SimSun-48"/>
       <use x="150" xlink:href="#SimSun-48"/>
       <use x="200" xlink:href="#SimSun-54"/>
      </g>
     </g>
    </g>
    <g id="xtick_4">
     <g id="line2d_4">
      <g>
       <use style="stroke:#000000;stroke-width:0.8;" x="379.2" xlink:href="#m06afb54b63" y="224.64"/>
      </g>
     </g>
     <g id="text_4">
      <!-- 0.008 -->
      <defs>
       <path d="M 9.765625 17.578125 
Q 9.765625 11.328125 13.859375 7.421875 
Q 17.96875 3.515625 24.21875 3.515625 
Q 31.640625 3.515625 34.953125 7.421875 
Q 38.28125 11.328125 38.28125 17.1875 
Q 38.28125 22.265625 33.59375 26.953125 
Q 28.90625 31.640625 19.53125 35.546875 
Q 14.84375 32.421875 12.296875 27.734375 
Q 9.765625 23.046875 9.765625 17.578125 
z
M 44.140625 18.359375 
Q 44.140625 10.9375 38.671875 5.859375 
Q 33.203125 0.78125 24.21875 0.78125 
Q 16.015625 0.78125 10.15625 5.859375 
Q 4.296875 10.9375 4.296875 17.578125 
Q 4.296875 24.21875 7.609375 28.90625 
Q 10.9375 33.59375 17.1875 37.109375 
Q 11.71875 39.84375 8.78125 43.9375 
Q 5.859375 48.046875 5.859375 53.125 
Q 5.859375 59.765625 10.9375 64.453125 
Q 16.015625 69.140625 25 69.140625 
Q 33.203125 69.140625 38.28125 64.453125 
Q 43.359375 59.765625 43.359375 53.125 
Q 43.359375 48.4375 40.421875 44.328125 
Q 37.5 40.234375 31.25 37.109375 
Q 37.890625 33.203125 41.015625 28.515625 
Q 44.140625 23.828125 44.140625 18.359375 
z
M 37.890625 52.734375 
Q 37.890625 58.203125 34.765625 62.296875 
Q 31.640625 66.40625 25 66.40625 
Q 17.578125 66.40625 14.453125 62.5 
Q 11.328125 58.59375 11.328125 54.296875 
Q 11.328125 50 15.8125 45.890625 
Q 20.3125 41.796875 28.515625 38.671875 
Q 33.203125 41.015625 35.546875 44.53125 
Q 37.890625 48.046875 37.890625 52.734375 
z
" id="SimSun-56"/>
      </defs>
      <g transform="translate(366.7 238.788437)scale(0.1 -0.1)">
       <use xlink:href="#SimSun-48"/>
       <use x="50" xlink:href="#SimSun-46"/>
       <use x="100" xlink:href="#SimSun-48"/>
       <use x="150" xlink:href="#SimSun-48"/>
       <use x="200" xlink:href="#SimSun-56"/>
      </g>
     </g>
    </g>
    <g id="xtick_5">
     <g id="line2d_5">
      <g>
       <use style="stroke:#000000;stroke-width:0.8;" x="446.836364" xlink:href="#m06afb54b63" y="224.64"/>
      </g>
     </g>
     <g id="text_5">
      <!-- 0.010 -->
      <defs>
       <path d="M 28.515625 69.53125 
L 28.515625 10.15625 
Q 28.515625 7.03125 30.46875 5.46875 
Q 32.421875 3.90625 35.9375 3.90625 
L 39.84375 3.90625 
L 39.84375 1.5625 
L 11.328125 1.5625 
L 11.328125 3.90625 
L 14.84375 3.90625 
Q 18.75 3.90625 20.5 5.46875 
Q 22.265625 7.03125 22.265625 10.15625 
L 22.265625 57.421875 
Q 22.265625 58.984375 21.28125 59.953125 
Q 20.3125 60.9375 18.359375 60.9375 
L 11.328125 60.9375 
L 11.328125 63.28125 
L 14.84375 63.28125 
Q 19.53125 63.28125 22.453125 64.84375 
Q 25.390625 66.40625 26.953125 69.53125 
z
" id="SimSun-49"/>
      </defs>
      <g transform="translate(434.336364 238.788437)scale(0.1 -0.1)">
       <use xlink:href="#SimSun-48"/>
       <use x="50" xlink:href="#SimSun-46"/>
       <use x="100" xlink:href="#SimSun-48"/>
       <use x="150" xlink:href="#SimSun-49"/>
       <use x="200" xlink:href="#SimSun-48"/>
      </g>
     </g>
    </g>
    <g id="text_6">
     <!-- $\eta(0)/m$ -->
     <defs>
      <path d="M 57.859375 33.015625 
L 47.40625 -20.796875 
L 38.421875 -20.796875 
L 48.828125 32.71875 
Q 50.34375 40.484375 48.046875 44.34375 
Q 45.796875 48.1875 39.75 48.1875 
Q 32.46875 48.1875 27.34375 43.5625 
Q 22.265625 38.921875 20.703125 30.90625 
L 14.703125 0 
L 5.671875 0 
L 16.3125 54.6875 
L 25.34375 54.6875 
L 23.6875 46.1875 
Q 27.828125 51.125 32.71875 53.5625 
Q 37.546875 56 43.265625 56 
Q 52.6875 56 56.390625 50.203125 
Q 60.0625 44.34375 57.859375 33.015625 
z
" id="DejaVuSans-Oblique-951"/>
      <path d="M 31 75.875 
Q 24.46875 64.65625 21.28125 53.65625 
Q 18.109375 42.671875 18.109375 31.390625 
Q 18.109375 20.125 21.3125 9.0625 
Q 24.515625 -2 31 -13.1875 
L 23.1875 -13.1875 
Q 15.875 -1.703125 12.234375 9.375 
Q 8.59375 20.453125 8.59375 31.390625 
Q 8.59375 42.28125 12.203125 53.3125 
Q 15.828125 64.359375 23.1875 75.875 
z
" id="DejaVuSans-40"/>
      <path d="M 31.78125 66.40625 
Q 24.171875 66.40625 20.328125 58.90625 
Q 16.5 51.421875 16.5 36.375 
Q 16.5 21.390625 20.328125 13.890625 
Q 24.171875 6.390625 31.78125 6.390625 
Q 39.453125 6.390625 43.28125 13.890625 
Q 47.125 21.390625 47.125 36.375 
Q 47.125 51.421875 43.28125 58.90625 
Q 39.453125 66.40625 31.78125 66.40625 
z
M 31.78125 74.21875 
Q 44.046875 74.21875 50.515625 64.515625 
Q 56.984375 54.828125 56.984375 36.375 
Q 56.984375 17.96875 50.515625 8.265625 
Q 44.046875 -1.421875 31.78125 -1.421875 
Q 19.53125 -1.421875 13.0625 8.265625 
Q 6.59375 17.96875 6.59375 36.375 
Q 6.59375 54.828125 13.0625 64.515625 
Q 19.53125 74.21875 31.78125 74.21875 
z
" id="DejaVuSans-48"/>
      <path d="M 8.015625 75.875 
L 15.828125 75.875 
Q 23.140625 64.359375 26.78125 53.3125 
Q 30.421875 42.28125 30.421875 31.390625 
Q 30.421875 20.453125 26.78125 9.375 
Q 23.140625 -1.703125 15.828125 -13.1875 
L 8.015625 -13.1875 
Q 14.5 -2 17.703125 9.0625 
Q 20.90625 20.125 20.90625 31.390625 
Q 20.90625 42.671875 17.703125 53.65625 
Q 14.5 64.65625 8.015625 75.875 
z
" id="DejaVuSans-41"/>
      <path d="M 25.390625 72.90625 
L 33.6875 72.90625 
L 8.296875 -9.28125 
L 0 -9.28125 
z
" id="DejaVuSans-47"/>
      <path d="M 89.796875 33.015625 
L 83.40625 0 
L 74.421875 0 
L 80.71875 32.71875 
Q 81.109375 34.8125 81.296875 36.328125 
Q 81.5 37.84375 81.5 38.921875 
Q 81.5 43.3125 79.046875 45.75 
Q 76.609375 48.1875 72.21875 48.1875 
Q 65.671875 48.1875 60.546875 43.28125 
Q 55.421875 38.375 53.90625 30.515625 
L 47.90625 0 
L 38.921875 0 
L 45.3125 32.71875 
Q 45.703125 34.515625 45.890625 36.046875 
Q 46.09375 37.59375 46.09375 38.8125 
Q 46.09375 43.265625 43.65625 45.71875 
Q 41.21875 48.1875 36.921875 48.1875 
Q 30.28125 48.1875 25.140625 43.28125 
Q 20.015625 38.375 18.5 30.515625 
L 12.5 0 
L 3.515625 0 
L 14.203125 54.6875 
L 23.1875 54.6875 
L 21.484375 46.1875 
Q 25.140625 50.984375 30.046875 53.484375 
Q 34.96875 56 40.578125 56 
Q 46.53125 56 50.359375 52.875 
Q 54.203125 49.75 54.984375 44.1875 
Q 59.078125 49.953125 64.46875 52.96875 
Q 69.875 56 75.875 56 
Q 82.90625 56 86.734375 51.953125 
Q 90.578125 47.90625 90.578125 40.484375 
Q 90.578125 38.875 90.375 36.9375 
Q 90.1875 35.015625 89.796875 33.015625 
z
" id="DejaVuSans-Oblique-109"/>
     </defs>
     <g transform="translate(277.804545 251.6775)scale(0.1 -0.1)">
      <use transform="translate(0 0.125)" xlink:href="#DejaVuSans-Oblique-951"/>
      <use transform="translate(63.378906 0.125)" xlink:href="#DejaVuSans-40"/>
      <use transform="translate(102.392578 0.125)" xlink:href="#DejaVuSans-48"/>
      <use transform="translate(166.015625 0.125)" xlink:href="#DejaVuSans-41"/>
      <use transform="translate(205.029297 0.125)" xlink:href="#DejaVuSans-47"/>
      <use transform="translate(238.720703 0.125)" xlink:href="#DejaVuSans-Oblique-109"/>
     </g>
    </g>
   </g>
   <g id="matplotlib.axis_2">
    <g id="ytick_1">
     <g id="line2d_6">
      <defs>
       <path d="M 0 0 
L -3.5 0 
" id="m5b7a69563c" style="stroke:#000000;stroke-width:0.8;"/>
      </defs>
      <g>
       <use style="stroke:#000000;stroke-width:0.8;" x="127.254545" xlink:href="#m5b7a69563c" y="202.401818"/>
      </g>
     </g>
     <g id="text_7">
      <!-- 22 -->
      <g transform="translate(110.254545 205.976037)scale(0.1 -0.1)">
       <use xlink:href="#SimSun-50"/>
       <use x="50" xlink:href="#SimSun-50"/>
      </g>
     </g>
    </g>
    <g id="ytick_2">
     <g id="line2d_7">
      <g>
       <use style="stroke:#000000;stroke-width:0.8;" x="127.254545" xlink:href="#m5b7a69563c" y="177.692727"/>
      </g>
     </g>
     <g id="text_8">
      <!-- 24 -->
      <g transform="translate(110.254545 181.266946)scale(0.1 -0.1)">
       <use xlink:href="#SimSun-50"/>
       <use x="50" xlink:href="#SimSun-52"/>
      </g>
     </g>
    </g>
    <g id="ytick_3">
     <g id="line2d_8">
      <g>
       <use style="stroke:#000000;stroke-width:0.8;" x="127.254545" xlink:href="#m5b7a69563c" y="152.983636"/>
      </g>
     </g>
     <g id="text_9">
      <!-- 26 -->
      <g transform="translate(110.254545 156.557855)scale(0.1 -0.1)">
       <use xlink:href="#SimSun-50"/>
       <use x="50" xlink:href="#SimSun-54"/>
      </g>
     </g>
    </g>
    <g id="ytick_4">
     <g id="line2d_9">
      <g>
       <use style="stroke:#000000;stroke-width:0.8;" x="127.254545" xlink:href="#m5b7a69563c" y="128.274545"/>
      </g>
     </g>
     <g id="text_10">
      <!-- 28 -->
      <g transform="translate(110.254545 131.848764)scale(0.1 -0.1)">
       <use xlink:href="#SimSun-50"/>
       <use x="50" xlink:href="#SimSun-56"/>
      </g>
     </g>
    </g>
    <g id="ytick_5">
     <g id="line2d_10">
      <g>
       <use style="stroke:#000000;stroke-width:0.8;" x="127.254545" xlink:href="#m5b7a69563c" y="103.565455"/>
      </g>
     </g>
     <g id="text_11">
      <!-- 30 -->
      <defs>
       <path d="M 43.75 19.53125 
Q 43.75 12.109375 38.28125 6.4375 
Q 32.8125 0.78125 23.046875 0.78125 
Q 16.015625 0.78125 10.9375 4.6875 
Q 5.859375 8.59375 5.859375 13.671875 
Q 5.859375 16.015625 7.421875 17.765625 
Q 8.984375 19.53125 10.546875 19.53125 
Q 12.890625 19.53125 13.859375 17.765625 
Q 14.84375 16.015625 14.84375 14.84375 
Q 14.84375 12.890625 14.0625 11.71875 
Q 13.28125 10.15625 13.28125 8.984375 
Q 13.28125 6.640625 16.203125 5.078125 
Q 19.140625 3.515625 22.65625 3.515625 
Q 29.6875 3.515625 33.203125 7.609375 
Q 36.71875 11.71875 36.71875 20.3125 
Q 36.71875 27.34375 33 31.640625 
Q 29.296875 35.9375 19.140625 35.9375 
L 19.140625 38.671875 
Q 26.953125 38.671875 30.65625 42.375 
Q 34.375 46.09375 34.375 52.734375 
Q 34.375 58.203125 31.4375 62.296875 
Q 28.515625 66.40625 22.265625 66.40625 
Q 19.53125 66.40625 16.40625 65.03125 
Q 13.28125 63.671875 13.28125 60.546875 
Q 13.28125 57.421875 14.0625 56.640625 
Q 14.84375 55.859375 14.84375 54.6875 
Q 14.84375 52.734375 14.0625 51.5625 
Q 13.28125 50.390625 11.328125 50.390625 
Q 9.765625 50.390625 8.390625 51.5625 
Q 7.03125 52.734375 7.03125 55.859375 
Q 7.03125 61.71875 12.109375 65.421875 
Q 17.1875 69.140625 23.828125 69.140625 
Q 31.640625 69.140625 36.328125 64.25 
Q 41.015625 59.375 41.015625 53.90625 
Q 41.015625 48.046875 38.078125 43.9375 
Q 35.15625 39.84375 28.90625 37.890625 
Q 37.5 34.765625 40.625 29.6875 
Q 43.75 24.609375 43.75 19.53125 
z
" id="SimSun-51"/>
      </defs>
      <g transform="translate(110.254545 107.139673)scale(0.1 -0.1)">
       <use xlink:href="#SimSun-51"/>
       <use x="50" xlink:href="#SimSun-48"/>
      </g>
     </g>
    </g>
    <g id="ytick_6">
     <g id="line2d_11">
      <g>
       <use style="stroke:#000000;stroke-width:0.8;" x="127.254545" xlink:href="#m5b7a69563c" y="78.856364"/>
      </g>
     </g>
     <g id="text_12">
      <!-- 32 -->
      <g transform="translate(110.254545 82.430582)scale(0.1 -0.1)">
       <use xlink:href="#SimSun-51"/>
       <use x="50" xlink:href="#SimSun-50"/>
      </g>
     </g>
    </g>
    <g id="ytick_7">
     <g id="line2d_12">
      <g>
       <use style="stroke:#000000;stroke-width:0.8;" x="127.254545" xlink:href="#m5b7a69563c" y="54.147273"/>
      </g>
     </g>
     <g id="text_13">
      <!-- 34 -->
      <g transform="translate(110.254545 57.721491)scale(0.1 -0.1)">
       <use xlink:href="#SimSun-51"/>
       <use x="50" xlink:href="#SimSun-52"/>
      </g>
     </g>
    </g>
    <g id="ytick_8">
     <g id="line2d_13">
      <g>
       <use style="stroke:#000000;stroke-width:0.8;" x="127.254545" xlink:href="#m5b7a69563c" y="29.438182"/>
      </g>
     </g>
     <g id="text_14">
      <!-- 36 -->
      <g transform="translate(110.254545 33.012401)scale(0.1 -0.1)">
       <use xlink:href="#SimSun-51"/>
       <use x="50" xlink:href="#SimSun-54"/>
      </g>
     </g>
    </g>
    <g id="text_15">
     <!-- 周期T/s -->
     <defs>
      <path d="M 4.296875 -7.8125 
Q 12.5 4.296875 15.625 16.015625 
Q 18.75 27.734375 18.75 45.703125 
Q 18.75 63.671875 18.359375 79.6875 
L 24.21875 76.171875 
L 78.515625 76.171875 
L 81.640625 80.078125 
L 88.28125 75.390625 
L 84.765625 72.265625 
L 84.765625 4.296875 
Q 85.546875 -4.6875 76.171875 -8.203125 
Q 76.171875 -3.515625 64.453125 -0.390625 
L 64.453125 1.5625 
Q 72.65625 0.390625 76.171875 0.578125 
Q 79.6875 0.78125 79.6875 5.46875 
L 79.6875 73.828125 
L 24.21875 73.828125 
Q 24.21875 46.875 23.828125 35.9375 
Q 23.4375 25 19.53125 13.46875 
Q 15.625 1.953125 5.46875 -8.59375 
z
M 48.4375 57.03125 
Q 48.4375 66.015625 48.046875 71.484375 
L 56.640625 67.578125 
L 53.515625 65.234375 
L 53.515625 57.03125 
L 61.71875 57.03125 
L 66.015625 61.328125 
L 72.65625 54.6875 
L 53.515625 54.6875 
L 53.515625 42.96875 
L 65.625 42.96875 
L 70.3125 47.65625 
L 77.34375 40.625 
L 38.671875 40.625 
Q 33.59375 40.625 29.296875 39.453125 
L 25.78125 42.96875 
L 48.4375 42.96875 
L 48.4375 54.6875 
L 43.75 54.6875 
Q 38.671875 54.6875 34.375 53.515625 
L 30.859375 57.03125 
z
M 35.15625 3.125 
Q 35.546875 9.375 35.546875 18.9375 
Q 35.546875 28.515625 35.15625 35.15625 
L 41.015625 31.640625 
L 62.109375 31.640625 
L 64.84375 35.546875 
L 70.703125 30.46875 
L 67.578125 28.125 
Q 67.578125 13.28125 67.96875 7.03125 
L 62.5 4.6875 
L 62.5 10.9375 
L 40.625 10.9375 
L 40.625 5.46875 
z
M 40.625 29.296875 
L 40.625 13.28125 
L 62.5 13.28125 
L 62.5 29.296875 
z
" id="SimSun-21608"/>
      <path d="M 24.609375 62.109375 
L 24.609375 51.953125 
L 40.625 51.953125 
L 40.625 62.109375 
z
M 24.609375 49.609375 
L 24.609375 37.890625 
L 40.625 37.890625 
L 40.625 49.609375 
z
M 24.609375 35.546875 
L 24.609375 23.4375 
L 40.625 23.4375 
L 40.625 35.546875 
z
M 19.140625 64.453125 
Q 19.140625 74.21875 18.75 80.859375 
L 27.734375 75.78125 
L 24.609375 73.4375 
L 24.609375 64.453125 
L 40.625 64.453125 
Q 40.625 71.484375 40.234375 80.859375 
L 49.21875 76.171875 
L 46.09375 73.828125 
L 46.09375 64.453125 
L 47.265625 64.453125 
L 51.5625 68.75 
L 58.203125 62.109375 
L 46.09375 62.109375 
L 46.09375 23.4375 
L 46.484375 23.4375 
L 50.78125 27.734375 
L 57.421875 21.09375 
L 14.84375 21.09375 
L 9.375 20.3125 
L 6.25 23.4375 
L 19.140625 23.4375 
L 19.140625 62.109375 
L 15.625 62.109375 
L 10.15625 61.328125 
L 7.03125 64.453125 
z
M 24.21875 19.53125 
L 31.25 13.28125 
L 27.734375 12.109375 
Q 17.1875 -0.390625 5.859375 -7.421875 
L 5.078125 -6.25 
Q 10.9375 -0.78125 15.8125 5.46875 
Q 20.703125 11.71875 24.21875 19.53125 
z
M 37.109375 17.96875 
Q 46.484375 12.890625 48.046875 10.9375 
Q 49.609375 8.984375 49.609375 7.421875 
Q 49.609375 5.46875 48.4375 3.515625 
Q 47.265625 1.5625 46.484375 1.5625 
Q 45.3125 1.5625 44.140625 4.6875 
Q 42.1875 9.765625 36.328125 17.1875 
z
M 66.015625 71.09375 
L 66.015625 51.5625 
L 85.15625 51.5625 
L 85.15625 71.09375 
z
M 66.015625 49.21875 
Q 66.015625 38.28125 65.625 29.296875 
L 85.15625 29.296875 
L 85.15625 49.21875 
z
M 71.09375 0.78125 
Q 78.515625 -0.390625 81.828125 -0.578125 
Q 85.15625 -0.78125 85.15625 3.515625 
L 85.15625 26.953125 
L 65.625 26.953125 
Q 64.84375 13.28125 58.390625 4.6875 
Q 51.953125 -3.90625 42.1875 -9.765625 
L 41.40625 -8.59375 
Q 48.046875 -3.125 52.34375 3.3125 
Q 56.640625 9.765625 58.59375 18.359375 
Q 60.546875 26.953125 60.546875 46.875 
Q 60.546875 66.796875 60.15625 76.953125 
L 66.015625 73.4375 
L 84.375 73.4375 
L 87.109375 77.34375 
L 93.359375 72.65625 
L 90.625 69.921875 
L 90.625 1.953125 
Q 91.015625 -5.859375 82.03125 -8.984375 
Q 82.03125 -3.90625 71.09375 -0.78125 
z
" id="SimSun-26399"/>
      <path d="M 34.765625 1.5625 
L 14.453125 1.5625 
L 14.453125 3.90625 
L 17.96875 3.90625 
Q 19.921875 3.90625 20.703125 4.6875 
Q 21.484375 5.46875 21.484375 7.03125 
L 21.484375 61.71875 
Q 21.484375 64.84375 21.09375 65.234375 
Q 20.703125 65.625 17.96875 65.625 
Q 12.5 65.625 10.34375 63.671875 
Q 8.203125 61.71875 5.078125 53.125 
L 2.734375 53.515625 
L 6.25 68.359375 
L 43.359375 68.359375 
L 46.484375 53.515625 
L 44.53125 53.125 
Q 41.40625 61.328125 39.640625 63.46875 
Q 37.890625 65.625 32.421875 65.625 
Q 28.515625 65.625 28.125 65.234375 
Q 27.734375 64.84375 27.734375 61.328125 
L 27.734375 7.03125 
Q 27.734375 5.46875 28.703125 4.6875 
Q 29.6875 3.90625 31.25 3.90625 
L 34.765625 3.90625 
z
" id="SimSun-84"/>
      <path d="M 6.25 -7.421875 
L 3.515625 -5.859375 
L 43.359375 77.734375 
L 46.09375 76.171875 
z
" id="SimSun-47"/>
      <path d="M 9.765625 33.984375 
Q 9.765625 39.84375 14.25 42.96875 
Q 18.75 46.09375 25 46.09375 
Q 28.515625 46.09375 31.640625 45.3125 
Q 34.765625 44.140625 35.9375 44.140625 
Q 37.109375 44.140625 37.890625 44.53125 
Q 38.671875 44.921875 39.84375 46.09375 
L 41.40625 33.203125 
L 39.0625 32.8125 
Q 37.5 37.890625 33.78125 40.8125 
Q 30.078125 43.75 25.390625 43.75 
Q 20.3125 43.75 17.375 41.796875 
Q 14.453125 39.84375 14.453125 36.328125 
Q 14.453125 33.203125 15.8125 31.4375 
Q 17.1875 29.6875 20.703125 28.90625 
Q 23.4375 27.734375 27.734375 26.5625 
Q 31.640625 25 35.15625 23.4375 
Q 38.28125 21.875 40.421875 19.328125 
Q 42.578125 16.796875 42.578125 13.671875 
Q 42.578125 7.8125 38.46875 4.484375 
Q 34.375 1.171875 26.5625 1.171875 
Q 21.484375 1.171875 19.140625 2.34375 
Q 16.40625 3.125 14.84375 3.125 
Q 13.671875 3.125 12.296875 2.53125 
Q 10.9375 1.953125 9.375 1.171875 
L 8.203125 15.625 
L 10.546875 16.015625 
Q 11.71875 9.765625 15.625 6.640625 
Q 19.53125 3.515625 26.5625 3.515625 
Q 32.03125 3.515625 34.953125 5.46875 
Q 37.890625 7.421875 37.890625 11.328125 
Q 37.890625 14.0625 36.328125 15.8125 
Q 34.765625 17.578125 33.203125 18.359375 
Q 29.296875 19.921875 24.609375 21.875 
Q 19.921875 23.4375 16.40625 25 
Q 12.890625 26.5625 11.328125 28.90625 
Q 9.765625 31.25 9.765625 33.984375 
z
" id="SimSun-115"/>
     </defs>
     <g transform="translate(104.965483 133.42)rotate(-90)scale(0.1 -0.1)">
      <use xlink:href="#SimSun-21608"/>
      <use x="100" xlink:href="#SimSun-26399"/>
      <use x="200" xlink:href="#SimSun-84"/>
      <use x="250" xlink:href="#SimSun-47"/>
      <use x="300" xlink:href="#SimSun-115"/>
     </g>
    </g>
   </g>
   <g id="line2d_14">
    <path clip-path="url(#p3781028ff8)" d="M 142.472727 17.083636 
L 210.109091 103.565455 
L 311.563636 165.338182 
L 413.018182 202.401818 
L 446.836364 214.756364 
" style="fill:none;stroke:#1f77b4;stroke-linecap:square;stroke-width:1.5;"/>
   </g>
   <g id="line2d_15">
    <defs>
     <path d="M 0 1.5 
C 0.397805 1.5 0.77937 1.341951 1.06066 1.06066 
C 1.341951 0.77937 1.5 0.397805 1.5 0 
C 1.5 -0.397805 1.341951 -0.77937 1.06066 -1.06066 
C 0.77937 -1.341951 0.397805 -1.5 0 -1.5 
C -0.397805 -1.5 -0.77937 -1.341951 -1.06066 -1.06066 
C -1.341951 -0.77937 -1.5 -0.397805 -1.5 0 
C -1.5 0.397805 -1.341951 0.77937 -1.06066 1.06066 
C -0.77937 1.341951 -0.397805 1.5 0 1.5 
z
" id="m55b997c793" style="stroke:#ff7f0e;"/>
    </defs>
    <g clip-path="url(#p3781028ff8)">
     <use style="fill:#ff7f0e;stroke:#ff7f0e;" x="142.472727" xlink:href="#m55b997c793" y="17.083636"/>
     <use style="fill:#ff7f0e;stroke:#ff7f0e;" x="210.109091" xlink:href="#m55b997c793" y="103.565455"/>
     <use style="fill:#ff7f0e;stroke:#ff7f0e;" x="311.563636" xlink:href="#m55b997c793" y="165.338182"/>
     <use style="fill:#ff7f0e;stroke:#ff7f0e;" x="413.018182" xlink:href="#m55b997c793" y="202.401818"/>
     <use style="fill:#ff7f0e;stroke:#ff7f0e;" x="446.836364" xlink:href="#m55b997c793" y="214.756364"/>
    </g>
   </g>
   <g id="line2d_16">
    <path clip-path="url(#p3781028ff8)" d="M 142.472727 17.083636 
L 147.956757 26.264077 
L 153.440786 35.002747 
L 158.924816 43.317664 
L 164.408845 51.226476 
L 169.892875 58.746466 
L 175.376904 65.894551 
L 180.860934 72.687283 
L 186.344963 79.140846 
L 192.133661 85.602458 
L 197.922359 91.721951 
L 203.711057 97.517033 
L 209.499754 103.004956 
L 215.59312 108.468344 
L 221.686486 113.629047 
L 227.779853 118.505554 
L 234.177887 123.339636 
L 240.575921 127.900254 
L 247.278624 132.405887 
L 254.285995 136.841558 
L 261.598034 141.195817 
L 269.214742 145.460989 
L 277.136118 149.633355 
L 285.362162 153.713275 
L 294.197543 157.843712 
L 303.64226 162.011005 
L 314.000983 166.334968 
L 325.578378 170.922102 
L 338.983784 175.989574 
L 356.045209 182.18856 
L 386.512039 192.969582 
L 418.502211 204.379413 
L 445.313022 214.192594 
L 446.836364 214.756364 
L 446.836364 214.756364 
" style="fill:none;stroke:#2ca02c;stroke-linecap:square;stroke-width:1.5;"/>
   </g>
   <g id="patch_3">
    <path d="M 127.254545 224.64 
L 127.254545 7.2 
" style="fill:none;stroke:#000000;stroke-linecap:square;stroke-linejoin:miter;stroke-width:0.8;"/>
   </g>
   <g id="patch_4">
    <path d="M 462.054545 224.64 
L 462.054545 7.2 
" style="fill:none;stroke:#000000;stroke-linecap:square;stroke-linejoin:miter;stroke-width:0.8;"/>
   </g>
   <g id="patch_5">
    <path d="M 127.254545 224.64 
L 462.054545 224.64 
" style="fill:none;stroke:#000000;stroke-linecap:square;stroke-linejoin:miter;stroke-width:0.8;"/>
   </g>
   <g id="patch_6">
    <path d="M 127.254545 7.2 
L 462.054545 7.2 
" style="fill:none;stroke:#000000;stroke-linecap:square;stroke-linejoin:miter;stroke-width:0.8;"/>
   </g>
   <g id="text_16">
    <!-- $T=1785714285.7142 \eta(0)^{4} - 65873015.8730142 \eta(0)^{3} + 895039.682539672 \eta(0)^{2} - 6295.23809523807 \eta(0) + 42.4642857142857$ -->
    <defs>
     <path d="M 5.90625 72.90625 
L 67.578125 72.90625 
L 66.015625 64.59375 
L 39.984375 64.59375 
L 27.484375 0 
L 17.578125 0 
L 30.078125 64.59375 
L 4.296875 64.59375 
z
" id="DejaVuSans-Oblique-84"/>
     <path d="M 10.59375 45.40625 
L 73.1875 45.40625 
L 73.1875 37.203125 
L 10.59375 37.203125 
z
M 10.59375 25.484375 
L 73.1875 25.484375 
L 73.1875 17.1875 
L 10.59375 17.1875 
z
" id="DejaVuSans-61"/>
     <path d="M 12.40625 8.296875 
L 28.515625 8.296875 
L 28.515625 63.921875 
L 10.984375 60.40625 
L 10.984375 69.390625 
L 28.421875 72.90625 
L 38.28125 72.90625 
L 38.28125 8.296875 
L 54.390625 8.296875 
L 54.390625 0 
L 12.40625 0 
z
" id="DejaVuSans-49"/>
     <path d="M 8.203125 72.90625 
L 55.078125 72.90625 
L 55.078125 68.703125 
L 28.609375 0 
L 18.3125 0 
L 43.21875 64.59375 
L 8.203125 64.59375 
z
" id="DejaVuSans-55"/>
     <path d="M 31.78125 34.625 
Q 24.75 34.625 20.71875 30.859375 
Q 16.703125 27.09375 16.703125 20.515625 
Q 16.703125 13.921875 20.71875 10.15625 
Q 24.75 6.390625 31.78125 6.390625 
Q 38.8125 6.390625 42.859375 10.171875 
Q 46.921875 13.96875 46.921875 20.515625 
Q 46.921875 27.09375 42.890625 30.859375 
Q 38.875 34.625 31.78125 34.625 
z
M 21.921875 38.8125 
Q 15.578125 40.375 12.03125 44.71875 
Q 8.5 49.078125 8.5 55.328125 
Q 8.5 64.0625 14.71875 69.140625 
Q 20.953125 74.21875 31.78125 74.21875 
Q 42.671875 74.21875 48.875 69.140625 
Q 55.078125 64.0625 55.078125 55.328125 
Q 55.078125 49.078125 51.53125 44.71875 
Q 48 40.375 41.703125 38.8125 
Q 48.828125 37.15625 52.796875 32.3125 
Q 56.78125 27.484375 56.78125 20.515625 
Q 56.78125 9.90625 50.3125 4.234375 
Q 43.84375 -1.421875 31.78125 -1.421875 
Q 19.734375 -1.421875 13.25 4.234375 
Q 6.78125 9.90625 6.78125 20.515625 
Q 6.78125 27.484375 10.78125 32.3125 
Q 14.796875 37.15625 21.921875 38.8125 
z
M 18.3125 54.390625 
Q 18.3125 48.734375 21.84375 45.5625 
Q 25.390625 42.390625 31.78125 42.390625 
Q 38.140625 42.390625 41.71875 45.5625 
Q 45.3125 48.734375 45.3125 54.390625 
Q 45.3125 60.0625 41.71875 63.234375 
Q 38.140625 66.40625 31.78125 66.40625 
Q 25.390625 66.40625 21.84375 63.234375 
Q 18.3125 60.0625 18.3125 54.390625 
z
" id="DejaVuSans-56"/>
     <path d="M 10.796875 72.90625 
L 49.515625 72.90625 
L 49.515625 64.59375 
L 19.828125 64.59375 
L 19.828125 46.734375 
Q 21.96875 47.46875 24.109375 47.828125 
Q 26.265625 48.1875 28.421875 48.1875 
Q 40.625 48.1875 47.75 41.5 
Q 54.890625 34.8125 54.890625 23.390625 
Q 54.890625 11.625 47.5625 5.09375 
Q 40.234375 -1.421875 26.90625 -1.421875 
Q 22.3125 -1.421875 17.546875 -0.640625 
Q 12.796875 0.140625 7.71875 1.703125 
L 7.71875 11.625 
Q 12.109375 9.234375 16.796875 8.0625 
Q 21.484375 6.890625 26.703125 6.890625 
Q 35.15625 6.890625 40.078125 11.328125 
Q 45.015625 15.765625 45.015625 23.390625 
Q 45.015625 31 40.078125 35.4375 
Q 35.15625 39.890625 26.703125 39.890625 
Q 22.75 39.890625 18.8125 39.015625 
Q 14.890625 38.140625 10.796875 36.28125 
z
" id="DejaVuSans-53"/>
     <path d="M 37.796875 64.3125 
L 12.890625 25.390625 
L 37.796875 25.390625 
z
M 35.203125 72.90625 
L 47.609375 72.90625 
L 47.609375 25.390625 
L 58.015625 25.390625 
L 58.015625 17.1875 
L 47.609375 17.1875 
L 47.609375 0 
L 37.796875 0 
L 37.796875 17.1875 
L 4.890625 17.1875 
L 4.890625 26.703125 
z
" id="DejaVuSans-52"/>
     <path d="M 19.1875 8.296875 
L 53.609375 8.296875 
L 53.609375 0 
L 7.328125 0 
L 7.328125 8.296875 
Q 12.9375 14.109375 22.625 23.890625 
Q 32.328125 33.6875 34.8125 36.53125 
Q 39.546875 41.84375 41.421875 45.53125 
Q 43.3125 49.21875 43.3125 52.78125 
Q 43.3125 58.59375 39.234375 62.25 
Q 35.15625 65.921875 28.609375 65.921875 
Q 23.96875 65.921875 18.8125 64.3125 
Q 13.671875 62.703125 7.8125 59.421875 
L 7.8125 69.390625 
Q 13.765625 71.78125 18.9375 73 
Q 24.125 74.21875 28.421875 74.21875 
Q 39.75 74.21875 46.484375 68.546875 
Q 53.21875 62.890625 53.21875 53.421875 
Q 53.21875 48.921875 51.53125 44.890625 
Q 49.859375 40.875 45.40625 35.40625 
Q 44.1875 33.984375 37.640625 27.21875 
Q 31.109375 20.453125 19.1875 8.296875 
z
" id="DejaVuSans-50"/>
     <path d="M 10.6875 12.40625 
L 21 12.40625 
L 21 0 
L 10.6875 0 
z
" id="DejaVuSans-46"/>
     <path d="M 10.59375 35.5 
L 73.1875 35.5 
L 73.1875 27.203125 
L 10.59375 27.203125 
z
" id="DejaVuSans-8722"/>
     <path d="M 33.015625 40.375 
Q 26.375 40.375 22.484375 35.828125 
Q 18.609375 31.296875 18.609375 23.390625 
Q 18.609375 15.53125 22.484375 10.953125 
Q 26.375 6.390625 33.015625 6.390625 
Q 39.65625 6.390625 43.53125 10.953125 
Q 47.40625 15.53125 47.40625 23.390625 
Q 47.40625 31.296875 43.53125 35.828125 
Q 39.65625 40.375 33.015625 40.375 
z
M 52.59375 71.296875 
L 52.59375 62.3125 
Q 48.875 64.0625 45.09375 64.984375 
Q 41.3125 65.921875 37.59375 65.921875 
Q 27.828125 65.921875 22.671875 59.328125 
Q 17.53125 52.734375 16.796875 39.40625 
Q 19.671875 43.65625 24.015625 45.921875 
Q 28.375 48.1875 33.59375 48.1875 
Q 44.578125 48.1875 50.953125 41.515625 
Q 57.328125 34.859375 57.328125 23.390625 
Q 57.328125 12.15625 50.6875 5.359375 
Q 44.046875 -1.421875 33.015625 -1.421875 
Q 20.359375 -1.421875 13.671875 8.265625 
Q 6.984375 17.96875 6.984375 36.375 
Q 6.984375 53.65625 15.1875 63.9375 
Q 23.390625 74.21875 37.203125 74.21875 
Q 40.921875 74.21875 44.703125 73.484375 
Q 48.484375 72.75 52.59375 71.296875 
z
" id="DejaVuSans-54"/>
     <path d="M 40.578125 39.3125 
Q 47.65625 37.796875 51.625 33 
Q 55.609375 28.21875 55.609375 21.1875 
Q 55.609375 10.40625 48.1875 4.484375 
Q 40.765625 -1.421875 27.09375 -1.421875 
Q 22.515625 -1.421875 17.65625 -0.515625 
Q 12.796875 0.390625 7.625 2.203125 
L 7.625 11.71875 
Q 11.71875 9.328125 16.59375 8.109375 
Q 21.484375 6.890625 26.8125 6.890625 
Q 36.078125 6.890625 40.9375 10.546875 
Q 45.796875 14.203125 45.796875 21.1875 
Q 45.796875 27.640625 41.28125 31.265625 
Q 36.765625 34.90625 28.71875 34.90625 
L 20.21875 34.90625 
L 20.21875 43.015625 
L 29.109375 43.015625 
Q 36.375 43.015625 40.234375 45.921875 
Q 44.09375 48.828125 44.09375 54.296875 
Q 44.09375 59.90625 40.109375 62.90625 
Q 36.140625 65.921875 28.71875 65.921875 
Q 24.65625 65.921875 20.015625 65.03125 
Q 15.375 64.15625 9.8125 62.3125 
L 9.8125 71.09375 
Q 15.4375 72.65625 20.34375 73.4375 
Q 25.25 74.21875 29.59375 74.21875 
Q 40.828125 74.21875 47.359375 69.109375 
Q 53.90625 64.015625 53.90625 55.328125 
Q 53.90625 49.265625 50.4375 45.09375 
Q 46.96875 40.921875 40.578125 39.3125 
z
" id="DejaVuSans-51"/>
     <path d="M 46 62.703125 
L 46 35.5 
L 73.1875 35.5 
L 73.1875 27.203125 
L 46 27.203125 
L 46 0 
L 37.796875 0 
L 37.796875 27.203125 
L 10.59375 27.203125 
L 10.59375 35.5 
L 37.796875 35.5 
L 37.796875 62.703125 
z
" id="DejaVuSans-43"/>
     <path d="M 10.984375 1.515625 
L 10.984375 10.5 
Q 14.703125 8.734375 18.5 7.8125 
Q 22.3125 6.890625 25.984375 6.890625 
Q 35.75 6.890625 40.890625 13.453125 
Q 46.046875 20.015625 46.78125 33.40625 
Q 43.953125 29.203125 39.59375 26.953125 
Q 35.25 24.703125 29.984375 24.703125 
Q 19.046875 24.703125 12.671875 31.3125 
Q 6.296875 37.9375 6.296875 49.421875 
Q 6.296875 60.640625 12.9375 67.421875 
Q 19.578125 74.21875 30.609375 74.21875 
Q 43.265625 74.21875 49.921875 64.515625 
Q 56.59375 54.828125 56.59375 36.375 
Q 56.59375 19.140625 48.40625 8.859375 
Q 40.234375 -1.421875 26.421875 -1.421875 
Q 22.703125 -1.421875 18.890625 -0.6875 
Q 15.09375 0.046875 10.984375 1.515625 
z
M 30.609375 32.421875 
Q 37.25 32.421875 41.125 36.953125 
Q 45.015625 41.5 45.015625 49.421875 
Q 45.015625 57.28125 41.125 61.84375 
Q 37.25 66.40625 30.609375 66.40625 
Q 23.96875 66.40625 20.09375 61.84375 
Q 16.21875 57.28125 16.21875 49.421875 
Q 16.21875 41.5 20.09375 36.953125 
Q 23.96875 32.421875 30.609375 32.421875 
z
" id="DejaVuSans-57"/>
    </defs>
    <g transform="translate(7.2 288.883636)scale(0.1 -0.1)">
     <use transform="translate(0 0.765625)" xlink:href="#DejaVuSans-Oblique-84"/>
     <use transform="translate(80.566406 0.765625)" xlink:href="#DejaVuSans-61"/>
     <use transform="translate(183.837891 0.765625)" xlink:href="#DejaVuSans-49"/>
     <use transform="translate(247.460938 0.765625)" xlink:href="#DejaVuSans-55"/>
     <use transform="translate(311.083984 0.765625)" xlink:href="#DejaVuSans-56"/>
     <use transform="translate(374.707031 0.765625)" xlink:href="#DejaVuSans-53"/>
     <use transform="translate(431.080078 0.765625)" xlink:href="#DejaVuSans-55"/>
     <use transform="translate(494.703125 0.765625)" xlink:href="#DejaVuSans-49"/>
     <use transform="translate(558.326172 0.765625)" xlink:href="#DejaVuSans-52"/>
     <use transform="translate(621.949219 0.765625)" xlink:href="#DejaVuSans-50"/>
     <use transform="translate(685.572266 0.765625)" xlink:href="#DejaVuSans-56"/>
     <use transform="translate(749.195312 0.765625)" xlink:href="#DejaVuSans-53"/>
     <use transform="translate(812.818359 0.765625)" xlink:href="#DejaVuSans-46"/>
     <use transform="translate(836.855469 0.765625)" xlink:href="#DejaVuSans-55"/>
     <use transform="translate(900.478516 0.765625)" xlink:href="#DejaVuSans-49"/>
     <use transform="translate(964.101562 0.765625)" xlink:href="#DejaVuSans-52"/>
     <use transform="translate(1027.724609 0.765625)" xlink:href="#DejaVuSans-50"/>
     <use transform="translate(1091.347656 0.765625)" xlink:href="#DejaVuSans-Oblique-951"/>
     <use transform="translate(1154.726562 0.765625)" xlink:href="#DejaVuSans-40"/>
     <use transform="translate(1193.740234 0.765625)" xlink:href="#DejaVuSans-48"/>
     <use transform="translate(1257.363281 0.765625)" xlink:href="#DejaVuSans-41"/>
     <use transform="translate(1297.333984 39.046875)scale(0.7)" xlink:href="#DejaVuSans-52"/>
     <use transform="translate(1364.086914 0.765625)" xlink:href="#DejaVuSans-8722"/>
     <use transform="translate(1467.358398 0.765625)" xlink:href="#DejaVuSans-54"/>
     <use transform="translate(1530.981445 0.765625)" xlink:href="#DejaVuSans-53"/>
     <use transform="translate(1594.604492 0.765625)" xlink:href="#DejaVuSans-56"/>
     <use transform="translate(1658.227539 0.765625)" xlink:href="#DejaVuSans-55"/>
     <use transform="translate(1721.850586 0.765625)" xlink:href="#DejaVuSans-51"/>
     <use transform="translate(1785.473633 0.765625)" xlink:href="#DejaVuSans-48"/>
     <use transform="translate(1849.09668 0.765625)" xlink:href="#DejaVuSans-49"/>
     <use transform="translate(1912.719727 0.765625)" xlink:href="#DejaVuSans-53"/>
     <use transform="translate(1976.342773 0.765625)" xlink:href="#DejaVuSans-46"/>
     <use transform="translate(2005.504883 0.765625)" xlink:href="#DejaVuSans-56"/>
     <use transform="translate(2069.12793 0.765625)" xlink:href="#DejaVuSans-55"/>
     <use transform="translate(2132.750977 0.765625)" xlink:href="#DejaVuSans-51"/>
     <use transform="translate(2196.374023 0.765625)" xlink:href="#DejaVuSans-48"/>
     <use transform="translate(2259.99707 0.765625)" xlink:href="#DejaVuSans-49"/>
     <use transform="translate(2323.620117 0.765625)" xlink:href="#DejaVuSans-52"/>
     <use transform="translate(2387.243164 0.765625)" xlink:href="#DejaVuSans-50"/>
     <use transform="translate(2450.866211 0.765625)" xlink:href="#DejaVuSans-Oblique-951"/>
     <use transform="translate(2514.245117 0.765625)" xlink:href="#DejaVuSans-40"/>
     <use transform="translate(2553.258789 0.765625)" xlink:href="#DejaVuSans-48"/>
     <use transform="translate(2616.881836 0.765625)" xlink:href="#DejaVuSans-41"/>
     <use transform="translate(2656.852539 39.046875)scale(0.7)" xlink:href="#DejaVuSans-51"/>
     <use transform="translate(2723.605469 0.765625)" xlink:href="#DejaVuSans-43"/>
     <use transform="translate(2826.876953 0.765625)" xlink:href="#DejaVuSans-56"/>
     <use transform="translate(2890.5 0.765625)" xlink:href="#DejaVuSans-57"/>
     <use transform="translate(2954.123047 0.765625)" xlink:href="#DejaVuSans-53"/>
     <use transform="translate(3017.746094 0.765625)" xlink:href="#DejaVuSans-48"/>
     <use transform="translate(3081.369141 0.765625)" xlink:href="#DejaVuSans-51"/>
     <use transform="translate(3144.992188 0.765625)" xlink:href="#DejaVuSans-57"/>
     <use transform="translate(3208.615234 0.765625)" xlink:href="#DejaVuSans-46"/>
     <use transform="translate(3240.402344 0.765625)" xlink:href="#DejaVuSans-54"/>
     <use transform="translate(3304.025391 0.765625)" xlink:href="#DejaVuSans-56"/>
     <use transform="translate(3367.648438 0.765625)" xlink:href="#DejaVuSans-50"/>
     <use transform="translate(3431.271484 0.765625)" xlink:href="#DejaVuSans-53"/>
     <use transform="translate(3494.894531 0.765625)" xlink:href="#DejaVuSans-51"/>
     <use transform="translate(3558.517578 0.765625)" xlink:href="#DejaVuSans-57"/>
     <use transform="translate(3622.140625 0.765625)" xlink:href="#DejaVuSans-54"/>
     <use transform="translate(3685.763672 0.765625)" xlink:href="#DejaVuSans-55"/>
     <use transform="translate(3749.386719 0.765625)" xlink:href="#DejaVuSans-50"/>
     <use transform="translate(3813.009766 0.765625)" xlink:href="#DejaVuSans-Oblique-951"/>
     <use transform="translate(3876.388672 0.765625)" xlink:href="#DejaVuSans-40"/>
     <use transform="translate(3915.402344 0.765625)" xlink:href="#DejaVuSans-48"/>
     <use transform="translate(3979.025391 0.765625)" xlink:href="#DejaVuSans-41"/>
     <use transform="translate(4018.996094 39.046875)scale(0.7)" xlink:href="#DejaVuSans-50"/>
     <use transform="translate(4085.749023 0.765625)" xlink:href="#DejaVuSans-8722"/>
     <use transform="translate(4189.020508 0.765625)" xlink:href="#DejaVuSans-54"/>
     <use transform="translate(4252.643555 0.765625)" xlink:href="#DejaVuSans-50"/>
     <use transform="translate(4314.516602 0.765625)" xlink:href="#DejaVuSans-57"/>
     <use transform="translate(4378.139648 0.765625)" xlink:href="#DejaVuSans-53"/>
     <use transform="translate(4441.762695 0.765625)" xlink:href="#DejaVuSans-46"/>
     <use transform="translate(4468.049805 0.765625)" xlink:href="#DejaVuSans-50"/>
     <use transform="translate(4531.672852 0.765625)" xlink:href="#DejaVuSans-51"/>
     <use transform="translate(4595.295898 0.765625)" xlink:href="#DejaVuSans-56"/>
     <use transform="translate(4658.918945 0.765625)" xlink:href="#DejaVuSans-48"/>
     <use transform="translate(4722.541992 0.765625)" xlink:href="#DejaVuSans-57"/>
     <use transform="translate(4786.165039 0.765625)" xlink:href="#DejaVuSans-53"/>
     <use transform="translate(4849.788086 0.765625)" xlink:href="#DejaVuSans-50"/>
     <use transform="translate(4913.411133 0.765625)" xlink:href="#DejaVuSans-51"/>
     <use transform="translate(4977.03418 0.765625)" xlink:href="#DejaVuSans-56"/>
     <use transform="translate(5040.657227 0.765625)" xlink:href="#DejaVuSans-48"/>
     <use transform="translate(5104.280273 0.765625)" xlink:href="#DejaVuSans-55"/>
     <use transform="translate(5167.90332 0.765625)" xlink:href="#DejaVuSans-Oblique-951"/>
     <use transform="translate(5231.282227 0.765625)" xlink:href="#DejaVuSans-40"/>
     <use transform="translate(5270.295898 0.765625)" xlink:href="#DejaVuSans-48"/>
     <use transform="translate(5333.918945 0.765625)" xlink:href="#DejaVuSans-41"/>
     <use transform="translate(5392.415039 0.765625)" xlink:href="#DejaVuSans-43"/>
     <use transform="translate(5495.686523 0.765625)" xlink:href="#DejaVuSans-52"/>
     <use transform="translate(5559.30957 0.765625)" xlink:href="#DejaVuSans-50"/>
     <use transform="translate(5622.932617 0.765625)" xlink:href="#DejaVuSans-46"/>
     <use transform="translate(5654.719727 0.765625)" xlink:href="#DejaVuSans-52"/>
     <use transform="translate(5718.342773 0.765625)" xlink:href="#DejaVuSans-54"/>
     <use transform="translate(5781.96582 0.765625)" xlink:href="#DejaVuSans-52"/>
     <use transform="translate(5845.588867 0.765625)" xlink:href="#DejaVuSans-50"/>
     <use transform="translate(5909.211914 0.765625)" xlink:href="#DejaVuSans-56"/>
     <use transform="translate(5972.834961 0.765625)" xlink:href="#DejaVuSans-53"/>
     <use transform="translate(6029.208008 0.765625)" xlink:href="#DejaVuSans-55"/>
     <use transform="translate(6092.831055 0.765625)" xlink:href="#DejaVuSans-49"/>
     <use transform="translate(6156.454102 0.765625)" xlink:href="#DejaVuSans-52"/>
     <use transform="translate(6220.077148 0.765625)" xlink:href="#DejaVuSans-50"/>
     <use transform="translate(6283.700195 0.765625)" xlink:href="#DejaVuSans-56"/>
     <use transform="translate(6347.323242 0.765625)" xlink:href="#DejaVuSans-53"/>
     <use transform="translate(6403.696289 0.765625)" xlink:href="#DejaVuSans-55"/>
    </g>
   </g>
  </g>
 </g>
 <defs>
  <clipPath id="p3781028ff8">
   <rect height="217.44" width="334.8" x="127.254545" y="7.2"/>
  </clipPath>
 </defs>
</svg>
