<?xml version="1.0" encoding="utf-8" standalone="no"?>
<!DOCTYPE svg PUBLIC "-//W3C//DTD SVG 1.1//EN"
  "http://www.w3.org/Graphics/SVG/1.1/DTD/svg11.dtd">
<!-- Created with matplotlib (https://matplotlib.org/) -->
<svg height="360pt" version="1.1" viewBox="0 0 504 360" width="504pt" xmlns="http://www.w3.org/2000/svg" xmlns:xlink="http://www.w3.org/1999/xlink">
 <metadata>
  <rdf:RDF xmlns:cc="http://creativecommons.org/ns#" xmlns:dc="http://purl.org/dc/elements/1.1/" xmlns:rdf="http://www.w3.org/1999/02/22-rdf-syntax-ns#">
   <cc:Work>
    <dc:type rdf:resource="http://purl.org/dc/dcmitype/StillImage"/>
    <dc:date>2020-11-14T21:25:30.933522</dc:date>
    <dc:format>image/svg+xml</dc:format>
    <dc:creator>
     <cc:Agent>
      <dc:title>Matplotlib v3.3.1, https://matplotlib.org/</dc:title>
     </cc:Agent>
    </dc:creator>
   </cc:Work>
  </rdf:RDF>
 </metadata>
 <defs>
  <style type="text/css">*{stroke-linecap:butt;stroke-linejoin:round;}</style>
 </defs>
 <g id="figure_1">
  <g id="patch_1">
   <path d="M 0 360 
L 504 360 
L 504 0 
L 0 0 
z
" style="fill:none;"/>
  </g>
  <g id="axes_1">
   <g id="patch_2">
    <path d="M 63 315 
L 453.6 315 
L 453.6 43.2 
L 63 43.2 
z
" style="fill:#ffffff;"/>
   </g>
   <g id="matplotlib.axis_1">
    <g id="xtick_1">
     <g id="line2d_1">
      <defs>
       <path d="M 0 0 
L 0 3.5 
" id="m5246b2033c" style="stroke:#000000;stroke-width:0.8;"/>
      </defs>
      <g>
       <use style="stroke:#000000;stroke-width:0.8;" x="63" xlink:href="#m5246b2033c" y="315"/>
      </g>
     </g>
     <g id="text_1">
      <!-- 0 -->
      <g transform="translate(60.5 328.875)scale(0.1 -0.1)">
       <defs>
        <path d="M 3.125 29.296875 
Q 3.90625 50 6.4375 56.046875 
Q 8.984375 62.109375 13.671875 66.015625 
Q 18.359375 69.921875 25.1875 69.921875 
Q 32.03125 69.921875 37.109375 64.25 
Q 42.1875 58.59375 43.75 50 
Q 45.3125 41.40625 44.71875 30.265625 
Q 44.140625 19.140625 40.8125 12.109375 
Q 37.5 5.078125 30.859375 2.34375 
Q 24.21875 -0.390625 17.578125 2.921875 
Q 10.9375 6.25 8.203125 11.71875 
Q 5.46875 17.1875 4.296875 23.234375 
Q 3.125 29.296875 3.90625 50 
z
M 12.890625 52.734375 
Q 10.546875 31.25 12.5 22.84375 
Q 14.453125 14.453125 18.9375 10.9375 
Q 23.4375 7.421875 28.125 9.5625 
Q 32.8125 11.71875 34.953125 18.15625 
Q 37.109375 24.609375 37.109375 32.21875 
Q 37.109375 39.84375 36.515625 46.09375 
Q 35.9375 52.34375 33 57.421875 
Q 30.078125 62.5 25.1875 62.6875 
Q 20.3125 62.890625 16.59375 57.8125 
Q 12.890625 52.734375 10.546875 31.25 
z
" id="SimHei-48"/>
       </defs>
       <use xlink:href="#SimHei-48"/>
      </g>
     </g>
    </g>
    <g id="xtick_2">
     <g id="line2d_2">
      <g>
       <use style="stroke:#000000;stroke-width:0.8;" x="141.12" xlink:href="#m5246b2033c" y="315"/>
      </g>
     </g>
     <g id="text_2">
      <!-- 2 -->
      <g transform="translate(138.62 328.875)scale(0.1 -0.1)">
       <defs>
        <path d="M 4.6875 3.90625 
Q 5.078125 9.765625 10.15625 14.453125 
Q 15.234375 19.140625 23.046875 29.09375 
Q 30.859375 39.0625 33.203125 44.53125 
Q 35.546875 50 34.953125 53.90625 
Q 34.375 57.8125 31.25 60.34375 
Q 28.125 62.890625 24.015625 62.5 
Q 19.921875 62.109375 16.203125 59.375 
Q 12.5 56.640625 10.546875 51.171875 
L 3.125 52.34375 
Q 6.25 61.328125 11.125 65.421875 
Q 16.015625 69.53125 22.65625 69.921875 
Q 26.5625 70.3125 29.6875 69.71875 
Q 32.8125 69.140625 36.125 66.984375 
Q 39.453125 64.84375 41.59375 60.546875 
Q 43.75 56.25 43.15625 50.1875 
Q 42.578125 44.140625 37.109375 35.734375 
Q 31.640625 27.34375 16.015625 9.375 
L 44.140625 9.375 
L 44.140625 2.34375 
L 4.6875 2.34375 
z
" id="SimHei-50"/>
       </defs>
       <use xlink:href="#SimHei-50"/>
      </g>
     </g>
    </g>
    <g id="xtick_3">
     <g id="line2d_3">
      <g>
       <use style="stroke:#000000;stroke-width:0.8;" x="219.24" xlink:href="#m5246b2033c" y="315"/>
      </g>
     </g>
     <g id="text_3">
      <!-- 4 -->
      <g transform="translate(216.74 328.875)scale(0.1 -0.1)">
       <defs>
        <path d="M 31.25 17.1875 
L 1.171875 17.1875 
L 1.171875 23.828125 
L 32.8125 69.53125 
L 38.671875 69.53125 
L 38.671875 23.828125 
L 48.046875 23.828125 
L 48.046875 17.1875 
L 38.671875 17.1875 
L 38.671875 2.34375 
L 31.25 2.34375 
z
M 31.25 23.828125 
L 31.25 54.6875 
L 9.375 23.828125 
z
" id="SimHei-52"/>
       </defs>
       <use xlink:href="#SimHei-52"/>
      </g>
     </g>
    </g>
    <g id="xtick_4">
     <g id="line2d_4">
      <g>
       <use style="stroke:#000000;stroke-width:0.8;" x="297.36" xlink:href="#m5246b2033c" y="315"/>
      </g>
     </g>
     <g id="text_4">
      <!-- 6 -->
      <g transform="translate(294.86 328.875)scale(0.1 -0.1)">
       <defs>
        <path d="M 3.515625 19.53125 
Q 4.296875 30.859375 6.046875 34.765625 
Q 7.8125 38.671875 11.328125 44.53125 
L 27.34375 69.53125 
L 36.328125 69.53125 
L 19.921875 43.75 
Q 30.46875 46.484375 36.71875 42.96875 
Q 42.96875 39.453125 45.109375 34.953125 
Q 47.265625 30.46875 47.453125 25.1875 
Q 47.65625 19.921875 45.890625 14.84375 
Q 44.140625 9.765625 39.640625 5.65625 
Q 35.15625 1.5625 27.140625 1.171875 
Q 19.140625 0.78125 13.46875 4.09375 
Q 7.8125 7.421875 5.65625 13.46875 
Q 3.515625 19.53125 4.296875 30.859375 
z
M 12.5 16.015625 
Q 19.53125 8.59375 25.390625 8.203125 
Q 31.25 7.8125 35.15625 12.109375 
Q 39.0625 16.40625 39.0625 24.609375 
Q 39.0625 32.8125 34.171875 35.9375 
Q 29.296875 39.0625 23.234375 38.28125 
Q 17.1875 37.5 14.453125 32.421875 
Q 11.71875 27.34375 12.109375 21.671875 
Q 12.5 16.015625 19.53125 8.59375 
z
" id="SimHei-54"/>
       </defs>
       <use xlink:href="#SimHei-54"/>
      </g>
     </g>
    </g>
    <g id="xtick_5">
     <g id="line2d_5">
      <g>
       <use style="stroke:#000000;stroke-width:0.8;" x="375.48" xlink:href="#m5246b2033c" y="315"/>
      </g>
     </g>
     <g id="text_5">
      <!-- 8 -->
      <g transform="translate(372.98 328.875)scale(0.1 -0.1)">
       <defs>
        <path d="M 2.734375 16.796875 
Q 2.734375 26.171875 5.078125 30.65625 
Q 7.421875 35.15625 12.890625 37.890625 
Q 8.203125 40.625 6.640625 43.9375 
Q 5.078125 47.265625 4.875 51.5625 
Q 4.6875 55.859375 6.046875 58.984375 
Q 7.421875 62.109375 10.15625 64.84375 
Q 12.890625 67.578125 16.203125 68.546875 
Q 19.53125 69.53125 23.4375 69.53125 
Q 27.34375 69.53125 30.46875 68.75 
Q 33.59375 67.96875 37.109375 65.421875 
Q 40.625 62.890625 42.1875 58.203125 
Q 43.75 53.515625 41.984375 47.265625 
Q 40.234375 41.015625 32.8125 37.5 
Q 39.453125 35.546875 42.1875 31.4375 
Q 44.921875 27.34375 44.921875 21.484375 
Q 44.921875 15.625 43.15625 12.109375 
Q 41.40625 8.59375 39.25 6.25 
Q 37.109375 3.90625 33.390625 2.53125 
Q 29.6875 1.171875 24.015625 1.171875 
Q 18.359375 1.171875 14.25 2.53125 
Q 10.15625 3.90625 7.421875 6.640625 
Q 4.6875 9.375 3.703125 13.078125 
Q 2.734375 16.796875 2.734375 26.171875 
z
M 10.9375 26.5625 
Q 10.546875 17.1875 12.296875 13.671875 
Q 14.0625 10.15625 18.75 9.171875 
Q 23.4375 8.203125 28.515625 9.375 
Q 33.59375 10.546875 35.546875 14.84375 
Q 37.5 19.140625 36.90625 23.4375 
Q 36.328125 27.734375 32.03125 30.65625 
Q 27.734375 33.59375 22.65625 33.203125 
Q 17.578125 32.8125 14.25 29.6875 
Q 10.9375 26.5625 10.546875 17.1875 
z
M 12.109375 56.25 
Q 12.109375 48.4375 14.84375 44.921875 
Q 17.578125 41.40625 23.4375 41.40625 
Q 29.296875 41.40625 32.21875 44.921875 
Q 35.15625 48.4375 34.953125 53.3125 
Q 34.765625 58.203125 31.4375 60.546875 
Q 28.125 62.890625 22.453125 62.5 
Q 16.796875 62.109375 14.453125 59.171875 
Q 12.109375 56.25 12.109375 48.4375 
z
" id="SimHei-56"/>
       </defs>
       <use xlink:href="#SimHei-56"/>
      </g>
     </g>
    </g>
    <g id="xtick_6">
     <g id="line2d_6">
      <g>
       <use style="stroke:#000000;stroke-width:0.8;" x="453.6" xlink:href="#m5246b2033c" y="315"/>
      </g>
     </g>
     <g id="text_6">
      <!-- 10 -->
      <g transform="translate(448.6 328.875)scale(0.1 -0.1)">
       <defs>
        <path d="M 21.875 56.25 
Q 16.796875 51.171875 8.984375 46.484375 
L 8.984375 53.90625 
Q 18.75 60.546875 25 69.53125 
L 29.6875 69.53125 
L 29.6875 2.34375 
L 21.875 2.34375 
z
" id="SimHei-49"/>
       </defs>
       <use xlink:href="#SimHei-49"/>
       <use x="50" xlink:href="#SimHei-48"/>
      </g>
     </g>
    </g>
   </g>
   <g id="matplotlib.axis_2">
    <g id="ytick_1">
     <g id="line2d_7">
      <defs>
       <path d="M 0 0 
L -3.5 0 
" id="m6fef6d49c7" style="stroke:#000000;stroke-width:0.8;"/>
      </defs>
      <g>
       <use style="stroke:#000000;stroke-width:0.8;" x="63" xlink:href="#m6fef6d49c7" y="315"/>
      </g>
     </g>
     <g id="text_7">
      <!-- 0.0 -->
      <g transform="translate(41 318.4375)scale(0.1 -0.1)">
       <defs>
        <path d="M 16.796875 1.953125 
L 7.8125 1.953125 
L 7.8125 10.546875 
L 16.796875 10.546875 
z
" id="SimHei-46"/>
       </defs>
       <use xlink:href="#SimHei-48"/>
       <use x="50" xlink:href="#SimHei-46"/>
       <use x="100" xlink:href="#SimHei-48"/>
      </g>
     </g>
    </g>
    <g id="ytick_2">
     <g id="line2d_8">
      <g>
       <use style="stroke:#000000;stroke-width:0.8;" x="63" xlink:href="#m6fef6d49c7" y="275.803883"/>
      </g>
     </g>
     <g id="text_8">
      <!-- 0.5 -->
      <g transform="translate(41 279.241383)scale(0.1 -0.1)">
       <defs>
        <path d="M 8.59375 20.703125 
Q 11.328125 10.15625 17.96875 8.984375 
Q 24.609375 7.8125 28.703125 10.34375 
Q 32.8125 12.890625 34.5625 16.984375 
Q 36.328125 21.09375 36.125 26.171875 
Q 35.9375 31.25 33.390625 34.765625 
Q 30.859375 38.28125 26.953125 39.453125 
Q 23.046875 40.625 18.15625 39.453125 
Q 13.28125 38.28125 10.15625 33.984375 
L 3.515625 34.765625 
Q 4.296875 37.109375 10.9375 68.359375 
L 41.796875 68.359375 
L 41.796875 61.328125 
L 16.796875 61.328125 
Q 14.84375 50.78125 12.890625 44.53125 
Q 18.75 47.265625 23.828125 47.0625 
Q 28.90625 46.875 33.59375 44.71875 
Q 38.28125 42.578125 40.421875 38.859375 
Q 42.578125 35.15625 43.546875 31.4375 
Q 44.53125 27.734375 44.328125 23.4375 
Q 44.140625 19.140625 42.578125 14.640625 
Q 41.015625 10.15625 37.890625 7.21875 
Q 34.765625 4.296875 30.265625 2.53125 
Q 25.78125 0.78125 19.921875 1.171875 
Q 14.0625 1.5625 8.78125 5.46875 
Q 3.515625 9.375 1.5625 18.75 
z
" id="SimHei-53"/>
       </defs>
       <use xlink:href="#SimHei-48"/>
       <use x="50" xlink:href="#SimHei-46"/>
       <use x="100" xlink:href="#SimHei-53"/>
      </g>
     </g>
    </g>
    <g id="ytick_3">
     <g id="line2d_9">
      <g>
       <use style="stroke:#000000;stroke-width:0.8;" x="63" xlink:href="#m6fef6d49c7" y="236.607765"/>
      </g>
     </g>
     <g id="text_9">
      <!-- 1.0 -->
      <g transform="translate(41 240.045265)scale(0.1 -0.1)">
       <use xlink:href="#SimHei-49"/>
       <use x="50" xlink:href="#SimHei-46"/>
       <use x="100" xlink:href="#SimHei-48"/>
      </g>
     </g>
    </g>
    <g id="ytick_4">
     <g id="line2d_10">
      <g>
       <use style="stroke:#000000;stroke-width:0.8;" x="63" xlink:href="#m6fef6d49c7" y="197.411648"/>
      </g>
     </g>
     <g id="text_10">
      <!-- 1.5 -->
      <g transform="translate(41 200.849148)scale(0.1 -0.1)">
       <use xlink:href="#SimHei-49"/>
       <use x="50" xlink:href="#SimHei-46"/>
       <use x="100" xlink:href="#SimHei-53"/>
      </g>
     </g>
    </g>
    <g id="ytick_5">
     <g id="line2d_11">
      <g>
       <use style="stroke:#000000;stroke-width:0.8;" x="63" xlink:href="#m6fef6d49c7" y="158.21553"/>
      </g>
     </g>
     <g id="text_11">
      <!-- 2.0 -->
      <g transform="translate(41 161.65303)scale(0.1 -0.1)">
       <use xlink:href="#SimHei-50"/>
       <use x="50" xlink:href="#SimHei-46"/>
       <use x="100" xlink:href="#SimHei-48"/>
      </g>
     </g>
    </g>
    <g id="ytick_6">
     <g id="line2d_12">
      <g>
       <use style="stroke:#000000;stroke-width:0.8;" x="63" xlink:href="#m6fef6d49c7" y="119.019413"/>
      </g>
     </g>
     <g id="text_12">
      <!-- 2.5 -->
      <g transform="translate(41 122.456913)scale(0.1 -0.1)">
       <use xlink:href="#SimHei-50"/>
       <use x="50" xlink:href="#SimHei-46"/>
       <use x="100" xlink:href="#SimHei-53"/>
      </g>
     </g>
    </g>
    <g id="ytick_7">
     <g id="line2d_13">
      <g>
       <use style="stroke:#000000;stroke-width:0.8;" x="63" xlink:href="#m6fef6d49c7" y="79.823295"/>
      </g>
     </g>
     <g id="text_13">
      <!-- 3.0 -->
      <g transform="translate(41 83.260795)scale(0.1 -0.1)">
       <defs>
        <path d="M 3.90625 19.140625 
L 10.9375 20.3125 
Q 12.5 15.234375 16.015625 11.90625 
Q 19.53125 8.59375 24.796875 8.78125 
Q 30.078125 8.984375 33.203125 13.078125 
Q 36.328125 17.1875 35.9375 22.453125 
Q 35.546875 27.734375 31.828125 30.65625 
Q 28.125 33.59375 19.921875 34.765625 
L 19.921875 39.84375 
Q 28.125 40.625 31.828125 44.140625 
Q 35.546875 47.65625 35.15625 53.3125 
Q 34.765625 58.984375 30.078125 61.515625 
Q 25.390625 64.0625 20.109375 62.109375 
Q 14.84375 60.15625 11.71875 51.171875 
L 4.6875 52.34375 
Q 7.03125 59.375 11.125 64.0625 
Q 15.234375 68.75 22.265625 69.53125 
Q 29.296875 70.3125 34.5625 67.765625 
Q 39.84375 65.234375 41.984375 59.953125 
Q 44.140625 54.6875 42.578125 48.4375 
Q 41.015625 42.1875 33.59375 37.5 
Q 39.0625 35.15625 41.984375 30.46875 
Q 44.921875 25.78125 43.9375 18.15625 
Q 42.96875 10.546875 37.109375 5.859375 
Q 31.25 1.171875 23.828125 1.359375 
Q 16.40625 1.5625 10.9375 6.046875 
Q 5.46875 10.546875 3.90625 19.140625 
z
" id="SimHei-51"/>
       </defs>
       <use xlink:href="#SimHei-51"/>
       <use x="50" xlink:href="#SimHei-46"/>
       <use x="100" xlink:href="#SimHei-48"/>
      </g>
     </g>
    </g>
    <g id="text_14">
     <!-- 1e30 -->
     <g transform="translate(63 40.2)scale(0.1 -0.1)">
      <defs>
       <path d="M 44.53125 16.796875 
Q 43.75 9.765625 38.28125 5.46875 
Q 32.8125 1.171875 25.390625 1.171875 
Q 16.015625 1.171875 9.953125 7.21875 
Q 3.90625 13.28125 3.90625 23.828125 
Q 3.90625 34.375 9.953125 40.421875 
Q 16.015625 46.484375 25.390625 46.484375 
Q 33.59375 46.484375 38.859375 41.203125 
Q 44.140625 35.9375 44.140625 23.828125 
L 12.5 23.828125 
Q 12.5 15.234375 16.203125 11.71875 
Q 19.921875 8.203125 25.390625 8.203125 
Q 29.6875 8.203125 32.421875 10.34375 
Q 35.15625 12.5 35.9375 16.796875 
z
M 35.15625 30.078125 
Q 34.375 35.546875 31.640625 37.6875 
Q 28.90625 39.84375 24.609375 39.84375 
Q 20.703125 39.84375 17.578125 37.6875 
Q 14.453125 35.546875 12.890625 30.078125 
z
" id="SimHei-101"/>
      </defs>
      <use xlink:href="#SimHei-49"/>
      <use x="50" xlink:href="#SimHei-101"/>
      <use x="100" xlink:href="#SimHei-51"/>
      <use x="150" xlink:href="#SimHei-48"/>
     </g>
    </g>
   </g>
   <g id="line2d_14">
    <path clip-path="url(#p0bbc10abf3)" d="M 66.906 311.511807 
L 71.08542 309.911015 
L 74.718 308.664715 
L 78.93648 307.171088 
L 82.64718 305.756174 
L 86.90472 304.189845 
L 95.0292 300.706061 
L 102.17718 297.33242 
L 141.58872 275.970488 
L 180.53154 250.806825 
L 221.5836 221.335891 
L 258.96402 193.507899 
L 296.46162 163.456582 
L 333.45144 133.039891 
L 372.47238 99.635257 
L 414.69624 62.925984 
L 449.53776 32.981465 
" style="fill:none;stroke:#1f77b4;stroke-linecap:square;stroke-width:1.5;"/>
    <defs>
     <path d="M 0 4.242641 
L 2.545584 0 
L 0 -4.242641 
L -2.545584 0 
z
" id="m7b25b99a4e" style="stroke:#1f77b4;stroke-linejoin:miter;"/>
    </defs>
    <g clip-path="url(#p0bbc10abf3)">
     <use style="fill:#1f77b4;stroke:#1f77b4;stroke-linejoin:miter;" x="66.906" xlink:href="#m7b25b99a4e" y="311.511807"/>
     <use style="fill:#1f77b4;stroke:#1f77b4;stroke-linejoin:miter;" x="71.08542" xlink:href="#m7b25b99a4e" y="309.911015"/>
     <use style="fill:#1f77b4;stroke:#1f77b4;stroke-linejoin:miter;" x="74.718" xlink:href="#m7b25b99a4e" y="308.664715"/>
     <use style="fill:#1f77b4;stroke:#1f77b4;stroke-linejoin:miter;" x="78.93648" xlink:href="#m7b25b99a4e" y="307.171088"/>
     <use style="fill:#1f77b4;stroke:#1f77b4;stroke-linejoin:miter;" x="82.64718" xlink:href="#m7b25b99a4e" y="305.756174"/>
     <use style="fill:#1f77b4;stroke:#1f77b4;stroke-linejoin:miter;" x="86.90472" xlink:href="#m7b25b99a4e" y="304.189845"/>
     <use style="fill:#1f77b4;stroke:#1f77b4;stroke-linejoin:miter;" x="95.0292" xlink:href="#m7b25b99a4e" y="300.706061"/>
     <use style="fill:#1f77b4;stroke:#1f77b4;stroke-linejoin:miter;" x="102.17718" xlink:href="#m7b25b99a4e" y="297.33242"/>
     <use style="fill:#1f77b4;stroke:#1f77b4;stroke-linejoin:miter;" x="141.58872" xlink:href="#m7b25b99a4e" y="275.970488"/>
     <use style="fill:#1f77b4;stroke:#1f77b4;stroke-linejoin:miter;" x="180.53154" xlink:href="#m7b25b99a4e" y="250.806825"/>
     <use style="fill:#1f77b4;stroke:#1f77b4;stroke-linejoin:miter;" x="221.5836" xlink:href="#m7b25b99a4e" y="221.335891"/>
     <use style="fill:#1f77b4;stroke:#1f77b4;stroke-linejoin:miter;" x="258.96402" xlink:href="#m7b25b99a4e" y="193.507899"/>
     <use style="fill:#1f77b4;stroke:#1f77b4;stroke-linejoin:miter;" x="296.46162" xlink:href="#m7b25b99a4e" y="163.456582"/>
     <use style="fill:#1f77b4;stroke:#1f77b4;stroke-linejoin:miter;" x="333.45144" xlink:href="#m7b25b99a4e" y="133.039891"/>
     <use style="fill:#1f77b4;stroke:#1f77b4;stroke-linejoin:miter;" x="372.47238" xlink:href="#m7b25b99a4e" y="99.635257"/>
     <use style="fill:#1f77b4;stroke:#1f77b4;stroke-linejoin:miter;" x="414.69624" xlink:href="#m7b25b99a4e" y="62.925984"/>
     <use style="fill:#1f77b4;stroke:#1f77b4;stroke-linejoin:miter;" x="449.53776" xlink:href="#m7b25b99a4e" y="32.981465"/>
    </g>
   </g>
   <g id="line2d_15">
    <path clip-path="url(#p0bbc10abf3)" d="M 63 323.396339 
L 66.945455 320.566073 
L 70.890909 317.735807 
L 74.836364 314.90554 
L 78.781818 312.075274 
L 82.727273 309.245008 
L 86.672727 306.414742 
L 90.618182 303.584476 
L 94.563636 300.75421 
L 98.509091 297.923944 
L 102.454545 295.093678 
L 106.4 292.263412 
L 110.345455 289.433146 
L 114.290909 286.60288 
L 118.236364 283.772614 
L 122.181818 280.942348 
L 126.127273 278.112082 
L 130.072727 275.281816 
L 134.018182 272.45155 
L 137.963636 269.621284 
L 141.909091 266.791018 
L 145.854545 263.960752 
L 149.8 261.130486 
L 153.745455 258.30022 
L 157.690909 255.469953 
L 161.636364 252.639687 
L 165.581818 249.809421 
L 169.527273 246.979155 
L 173.472727 244.148889 
L 177.418182 241.318623 
L 181.363636 238.488357 
L 185.309091 235.658091 
L 189.254545 232.827825 
L 193.2 229.997559 
L 197.145455 227.167293 
L 201.090909 224.337027 
L 205.036364 221.506761 
L 208.981818 218.676495 
L 212.927273 215.846229 
L 216.872727 213.015963 
L 220.818182 210.185697 
L 224.763636 207.355431 
L 228.709091 204.525165 
L 232.654545 201.694899 
L 236.6 198.864633 
L 240.545455 196.034367 
L 244.490909 193.2041 
L 248.436364 190.373834 
L 252.381818 187.543568 
L 256.327273 184.713302 
L 260.272727 181.883036 
L 264.218182 179.05277 
L 268.163636 176.222504 
L 272.109091 173.392238 
L 276.054545 170.561972 
L 280 167.731706 
L 283.945455 164.90144 
L 287.890909 162.071174 
L 291.836364 159.240908 
L 295.781818 156.410642 
L 299.727273 153.580376 
L 303.672727 150.75011 
L 307.618182 147.919844 
L 311.563636 145.089578 
L 315.509091 142.259312 
L 319.454545 139.429046 
L 323.4 136.59878 
L 327.345455 133.768513 
L 331.290909 130.938247 
L 335.236364 128.107981 
L 339.181818 125.277715 
L 343.127273 122.447449 
L 347.072727 119.617183 
L 351.018182 116.786917 
L 354.963636 113.956651 
L 358.909091 111.126385 
L 362.854545 108.296119 
L 366.8 105.465853 
L 370.745455 102.635587 
L 374.690909 99.805321 
L 378.636364 96.975055 
L 382.581818 94.144789 
L 386.527273 91.314523 
L 390.472727 88.484257 
L 394.418182 85.653991 
L 398.363636 82.823725 
L 402.309091 79.993459 
L 406.254545 77.163193 
L 410.2 74.332927 
L 414.145455 71.50266 
L 418.090909 68.672394 
L 422.036364 65.842128 
L 425.981818 63.011862 
L 429.927273 60.181596 
L 433.872727 57.35133 
L 437.818182 54.521064 
L 441.763636 51.690798 
L 445.709091 48.860532 
L 449.654545 46.030266 
L 453.6 43.2 
" style="fill:none;stroke:#ff7f0e;stroke-linecap:square;stroke-width:1.5;"/>
   </g>
   <g id="patch_3">
    <path d="M 63 315 
L 63 43.2 
" style="fill:none;stroke:#000000;stroke-linecap:square;stroke-linejoin:miter;stroke-width:0.8;"/>
   </g>
   <g id="patch_4">
    <path d="M 453.6 315 
L 453.6 43.2 
" style="fill:none;stroke:#000000;stroke-linecap:square;stroke-linejoin:miter;stroke-width:0.8;"/>
   </g>
   <g id="patch_5">
    <path d="M 63 315 
L 453.6 315 
" style="fill:none;stroke:#000000;stroke-linecap:square;stroke-linejoin:miter;stroke-width:0.8;"/>
   </g>
   <g id="patch_6">
    <path d="M 63 43.2 
L 453.6 43.2 
" style="fill:none;stroke:#000000;stroke-linecap:square;stroke-linejoin:miter;stroke-width:0.8;"/>
   </g>
   <g id="text_15">
    <g id="patch_7">
     <path d="M 71.718 87.073725 
L 191.518 87.073725 
L 191.518 59.803725 
L 71.718 59.803725 
z
" style="fill:#bfbf00;stroke:#000000;stroke-linejoin:miter;"/>
    </g>
    <!-- 皮尔森相关系数:$0.9966$ -->
    <g transform="translate(74.718 70.953725)scale(0.1 -0.1)">
     <defs>
      <path d="M 26.171875 41.40625 
Q 33.984375 41.015625 43.359375 41.015625 
L 49.21875 41.015625 
L 49.21875 60.546875 
L 22.65625 60.546875 
Q 22.65625 47.265625 22.453125 37.890625 
Q 22.265625 28.515625 21.484375 20.890625 
Q 20.703125 13.28125 18.359375 6.4375 
Q 16.015625 -0.390625 12.109375 -8.59375 
Q 7.8125 -4.6875 3.125 -5.46875 
Q 8.59375 0.78125 12.109375 14.453125 
Q 15.625 28.125 15.421875 43.546875 
Q 15.234375 58.984375 14.84375 66.40625 
L 49.21875 66.40625 
Q 49.21875 76.171875 48.828125 82.03125 
L 57.03125 82.03125 
Q 56.640625 76.171875 56.640625 66.40625 
L 92.578125 66.40625 
Q 91.015625 62.5 89.453125 58.203125 
L 86.71875 49.609375 
Q 82.421875 50.390625 78.90625 50.78125 
Q 80.46875 53.90625 82.421875 60.546875 
L 56.640625 60.546875 
L 56.640625 41.015625 
L 81.25 41.015625 
Q 71.875 16.796875 62.109375 7.8125 
Q 67.1875 4.296875 75 1.75 
Q 82.8125 -0.78125 94.140625 -1.5625 
Q 89.84375 -5.859375 88.671875 -10.546875 
Q 80.859375 -8.59375 72.265625 -5.265625 
Q 63.671875 -1.953125 56.25 2.734375 
Q 48.828125 -2.34375 41.59375 -5.265625 
Q 34.375 -8.203125 24.21875 -10.9375 
Q 22.65625 -6.640625 18.359375 -3.125 
Q 27.734375 -1.953125 35.734375 0.390625 
Q 43.75 2.734375 50.390625 7.421875 
Q 39.84375 17.1875 33.984375 35.15625 
L 26.171875 34.765625 
z
M 56.25 12.5 
Q 67.1875 23.828125 70.703125 35.15625 
L 41.015625 35.15625 
Q 46.484375 19.921875 56.25 12.5 
z
" id="SimHei-30382"/>
      <path d="M 75.390625 45.3125 
Q 78.515625 50.78125 80.859375 57.03125 
L 29.296875 57.03125 
Q 21.484375 47.265625 14.453125 40.625 
Q 12.5 43.75 8.203125 46.09375 
Q 17.96875 53.515625 25 65.03125 
Q 32.03125 76.5625 34.375 82.03125 
Q 40.234375 78.90625 42.1875 78.515625 
Q 38.28125 72.265625 33.203125 64.0625 
L 92.578125 64.0625 
Q 86.71875 50.390625 83.203125 42.578125 
Q 78.90625 44.53125 75.390625 45.3125 
z
M 55.46875 50.390625 
Q 55.078125 44.53125 55.078125 39.0625 
L 55.078125 5.859375 
Q 55.078125 -3.515625 50.390625 -6.046875 
Q 45.703125 -8.59375 36.71875 -9.765625 
Q 35.9375 -5.46875 33.203125 -0.390625 
Q 42.578125 -0.78125 44.71875 0.390625 
Q 46.875 1.5625 46.875 5.859375 
L 46.875 38.28125 
Q 46.875 44.140625 46.484375 50.390625 
z
M 71.484375 35.9375 
Q 86.71875 17.578125 95.3125 7.421875 
Q 91.796875 5.46875 87.890625 1.5625 
Q 72.265625 23.046875 65.234375 30.46875 
Q 68.75 33.203125 71.484375 35.9375 
z
M 36.328125 31.640625 
Q 33.203125 28.125 27.140625 20.3125 
Q 21.09375 12.5 11.328125 1.953125 
Q 9.765625 5.078125 5.078125 8.203125 
Q 10.546875 12.5 17.1875 20.5 
Q 23.828125 28.515625 28.90625 37.5 
Q 33.203125 33.203125 36.328125 31.640625 
z
" id="SimHei-23572"/>
      <path d="M 46.09375 69.921875 
Q 46.09375 76.171875 45.703125 79.6875 
L 53.515625 79.6875 
Q 53.125 75.78125 53.125 69.921875 
L 75.78125 69.921875 
Q 81.640625 69.921875 87.890625 70.3125 
L 87.890625 63.28125 
Q 81.640625 63.671875 76.171875 63.671875 
L 62.5 63.671875 
Q 66.015625 57.421875 74.21875 53.703125 
Q 82.421875 50 91.796875 49.609375 
Q 88.28125 45.703125 87.109375 42.1875 
Q 73.046875 44.921875 65.03125 51.171875 
Q 57.03125 57.421875 54.6875 63.671875 
L 53.125 63.671875 
Q 53.125 46.09375 53.515625 39.0625 
L 45.703125 39.0625 
Q 46.09375 44.921875 46.09375 63.671875 
L 45.703125 63.671875 
Q 40.625 56.25 33.59375 50.78125 
Q 26.5625 45.3125 14.453125 39.84375 
Q 13.28125 43.359375 8.984375 46.484375 
Q 16.796875 48.4375 24.40625 52.734375 
Q 32.03125 57.03125 37.109375 63.671875 
Q 17.96875 63.671875 12.5 63.28125 
L 12.5 70.3125 
Q 18.75 69.921875 26.953125 69.921875 
z
M 64.0625 32.421875 
Q 64.0625 36.328125 63.671875 41.015625 
L 71.09375 41.015625 
Q 70.703125 36.71875 70.703125 32.421875 
Q 85.9375 32.421875 92.578125 32.8125 
L 92.578125 26.171875 
Q 85.546875 26.5625 75.78125 26.5625 
Q 78.125 20.3125 83.390625 13.859375 
Q 88.671875 7.421875 95.703125 3.90625 
Q 91.796875 1.171875 89.453125 -1.953125 
Q 85.546875 1.171875 80.46875 6.640625 
Q 75.390625 12.109375 70.703125 21.875 
L 70.703125 6.640625 
Q 70.703125 0 71.09375 -7.8125 
L 63.671875 -7.8125 
Q 64.0625 -1.171875 64.0625 6.25 
L 64.0625 20.3125 
Q 60.9375 12.109375 56.640625 6.046875 
Q 52.34375 0 48.4375 -4.296875 
Q 45.3125 -1.171875 40.625 0.390625 
Q 48.828125 6.25 52.921875 13.078125 
Q 57.03125 19.921875 58.984375 26.5625 
Q 55.46875 26.5625 50 26.171875 
L 50 32.8125 
Q 55.078125 32.421875 64.0625 32.421875 
z
M 26.5625 32.421875 
Q 26.5625 36.328125 26.171875 40.625 
L 33.59375 40.625 
Q 33.203125 35.9375 33.203125 32.421875 
Q 39.453125 32.421875 44.921875 32.8125 
L 44.921875 26.171875 
Q 39.0625 26.5625 33.203125 26.5625 
L 33.203125 6.25 
Q 33.203125 -0.390625 33.59375 -8.203125 
L 26.171875 -8.203125 
Q 26.5625 -1.953125 26.5625 6.25 
L 26.5625 19.53125 
Q 22.65625 12.109375 19.328125 7.609375 
Q 16.015625 3.125 11.71875 -1.5625 
Q 10.15625 1.953125 5.078125 3.515625 
Q 10.546875 7.8125 14.84375 13.671875 
Q 19.140625 19.53125 21.875 26.5625 
Q 13.28125 26.5625 6.640625 26.171875 
L 6.640625 32.8125 
Q 13.28125 32.421875 26.5625 32.421875 
z
M 39.453125 22.65625 
Q 44.53125 18.359375 48.828125 14.0625 
Q 45.703125 11.71875 42.96875 9.375 
Q 40.625 12.5 34.375 18.359375 
Q 37.109375 19.921875 39.453125 22.65625 
z
" id="SimHei-26862"/>
      <path d="M 92.1875 75.390625 
Q 91.796875 66.015625 91.796875 55.859375 
L 91.796875 11.71875 
Q 91.796875 1.171875 92.1875 -8.984375 
L 84.375 -8.984375 
L 84.375 -1.5625 
L 55.078125 -1.5625 
L 55.078125 -9.765625 
L 47.265625 -9.765625 
Q 47.65625 1.953125 47.65625 10.546875 
L 47.65625 56.25 
Q 47.65625 66.40625 47.265625 75.390625 
L 92.1875 75.390625 
z
M 21.875 59.765625 
Q 21.875 75.78125 21.484375 81.25 
L 30.078125 81.25 
Q 29.6875 75.390625 29.6875 59.765625 
Q 39.0625 59.765625 44.140625 60.15625 
L 44.140625 52.734375 
Q 39.453125 53.125 29.6875 53.125 
L 29.6875 38.28125 
Q 31.640625 40.234375 33.984375 42.96875 
Q 41.015625 35.546875 46.09375 28.515625 
Q 43.75 26.953125 40.234375 23.4375 
Q 35.9375 30.859375 29.6875 37.109375 
L 29.6875 7.421875 
Q 29.6875 0.78125 30.078125 -9.765625 
L 21.484375 -9.765625 
Q 21.875 0.78125 21.875 7.03125 
L 21.875 33.59375 
Q 16.796875 19.140625 10.15625 10.546875 
Q 7.421875 14.84375 4.6875 17.1875 
Q 7.421875 19.53125 12.5 29.484375 
Q 17.578125 39.453125 20.3125 53.125 
Q 11.71875 53.125 6.25 52.734375 
L 6.25 60.15625 
Q 13.28125 59.765625 21.875 59.765625 
z
M 84.375 5.078125 
L 84.375 23.046875 
L 55.078125 23.046875 
L 55.078125 5.078125 
z
M 84.375 51.5625 
L 84.375 68.75 
L 55.078125 68.75 
L 55.078125 51.5625 
z
M 84.375 29.6875 
L 84.375 45.3125 
L 55.078125 45.3125 
L 55.078125 29.6875 
z
" id="SimHei-30456"/>
      <path d="M 73.046875 75.78125 
Q 70.703125 73.046875 68.15625 68.359375 
Q 65.625 63.671875 63.671875 59.765625 
L 72.265625 59.765625 
Q 80.46875 59.765625 86.71875 60.15625 
L 86.71875 52.734375 
Q 81.640625 53.125 73.4375 53.125 
L 53.125 53.125 
L 53.125 33.59375 
L 77.734375 33.59375 
Q 85.546875 33.59375 91.796875 33.984375 
L 91.796875 26.5625 
Q 85.546875 26.953125 78.515625 26.953125 
L 54.6875 26.953125 
Q 66.40625 7.03125 93.75 1.171875 
Q 90.234375 -2.734375 87.5 -8.203125 
Q 62.890625 0 50.390625 20.3125 
Q 43.75 3.125 13.671875 -9.375 
Q 12.109375 -5.46875 7.8125 -2.34375 
Q 37.890625 5.859375 44.921875 26.953125 
L 24.21875 26.953125 
Q 15.234375 26.953125 9.375 26.5625 
L 9.375 33.59375 
Q 13.671875 33.203125 22.65625 33.203125 
L 45.703125 33.203125 
L 45.703125 53.125 
L 27.34375 53.125 
Q 19.921875 53.125 14.0625 52.734375 
L 14.0625 60.15625 
Q 19.921875 59.765625 27.734375 59.765625 
L 55.859375 59.765625 
Q 61.328125 72.265625 63.671875 80.46875 
Q 67.578125 78.125 73.046875 75.78125 
z
M 33.203125 80.078125 
Q 38.28125 73.828125 43.75 65.234375 
Q 39.0625 62.890625 36.328125 60.546875 
Q 31.640625 69.53125 26.953125 75.390625 
Q 30.46875 77.734375 33.203125 80.078125 
z
" id="SimHei-20851"/>
      <path d="M 82.8125 81.25 
Q 85.15625 77.34375 89.453125 73.046875 
Q 77.734375 72.65625 69.328125 71.671875 
Q 60.9375 70.703125 48.828125 69.53125 
Q 50.78125 67.578125 54.296875 66.015625 
Q 49.21875 62.890625 44.328125 58.78125 
Q 39.453125 54.6875 34.765625 51.171875 
L 54.296875 51.171875 
Q 64.0625 57.8125 70.703125 63.28125 
Q 74.609375 60.15625 80.078125 57.8125 
Q 74.609375 55.46875 69.53125 52.734375 
Q 64.453125 50 52.921875 42.765625 
Q 41.40625 35.546875 33.203125 30.859375 
Q 56.25 32.03125 76.171875 32.8125 
Q 74.21875 34.765625 66.015625 41.015625 
Q 69.921875 42.578125 72.65625 44.921875 
Q 77.34375 41.40625 83.390625 36.125 
Q 89.453125 30.859375 94.921875 25.78125 
Q 90.234375 23.046875 87.5 20.703125 
Q 84.375 24.609375 81.640625 26.953125 
Q 71.09375 26.5625 56.640625 25.78125 
L 56.640625 2.34375 
Q 56.640625 -5.078125 52.921875 -6.4375 
Q 49.21875 -7.8125 39.453125 -9.375 
Q 38.671875 -4.6875 35.9375 -0.390625 
Q 44.921875 -0.390625 47.0625 0.1875 
Q 49.21875 0.78125 49.21875 4.6875 
L 49.21875 25.78125 
Q 25.390625 25.390625 16.796875 23.828125 
Q 15.625 27.734375 14.0625 32.03125 
Q 22.65625 32.8125 29.296875 35.9375 
Q 35.9375 39.0625 45.3125 45.3125 
Q 36.328125 45.3125 31.828125 44.921875 
Q 27.34375 44.53125 21.875 43.75 
Q 20.703125 48.046875 19.53125 51.953125 
Q 26.171875 51.953125 32.8125 57.21875 
Q 39.453125 62.5 42.96875 68.75 
Q 21.09375 67.96875 14.453125 67.1875 
Q 13.28125 71.09375 11.71875 74.21875 
Q 33.59375 74.21875 50.78125 75.78125 
Q 67.96875 77.34375 82.8125 81.25 
z
M 72.265625 19.53125 
Q 76.953125 16.015625 83.203125 11.515625 
Q 89.453125 7.03125 93.75 2.734375 
Q 90.625 0 87.5 -3.515625 
Q 82.421875 1.953125 76.953125 6.25 
Q 71.484375 10.546875 66.796875 13.671875 
Q 70.3125 16.40625 72.265625 19.53125 
z
M 34.375 13.671875 
Q 29.6875 11.328125 24.015625 5.859375 
Q 18.359375 0.390625 12.5 -4.6875 
Q 8.984375 -1.171875 5.859375 0.390625 
Q 16.796875 7.03125 26.171875 19.140625 
Q 29.6875 16.40625 34.375 13.671875 
z
" id="SimHei-31995"/>
      <path d="M 70.703125 76.953125 
Q 69.921875 75 68.75 71.671875 
Q 67.578125 68.359375 65.234375 59.765625 
L 83.203125 59.765625 
Q 87.109375 59.765625 92.578125 60.15625 
L 92.578125 53.125 
Q 88.28125 53.515625 85.9375 53.515625 
Q 85.9375 47.265625 83.78125 33.78125 
Q 81.640625 20.3125 76.171875 10.546875 
Q 80.078125 5.859375 84.953125 2.140625 
Q 89.84375 -1.5625 94.140625 -3.125 
Q 89.453125 -6.640625 87.890625 -9.765625 
Q 83.203125 -7.03125 79.296875 -3.515625 
Q 75.390625 0 71.484375 5.078125 
Q 67.1875 0.390625 62.296875 -2.921875 
Q 57.421875 -6.25 50 -10.15625 
Q 48.046875 -6.640625 44.53125 -4.6875 
Q 50.390625 -2.34375 57.03125 1.953125 
Q 63.671875 6.25 67.1875 10.546875 
Q 64.453125 16.015625 61.90625 22.265625 
Q 59.375 28.515625 57.421875 38.671875 
Q 56.25 35.546875 53.515625 30.46875 
Q 50.78125 32.03125 46.875 33.59375 
Q 53.125 44.53125 57.03125 57.421875 
Q 60.9375 70.3125 62.109375 79.6875 
Q 66.796875 77.734375 70.703125 76.953125 
z
M 32.8125 35.15625 
Q 31.25 33.59375 29.296875 30.078125 
L 50.78125 30.078125 
Q 48.4375 20.3125 42.578125 10.546875 
Q 48.828125 8.203125 52.34375 6.25 
Q 50.390625 3.515625 48.828125 0.390625 
Q 45.3125 2.734375 38.28125 5.078125 
Q 30.46875 -3.515625 11.328125 -10.15625 
Q 9.375 -5.859375 6.25 -4.296875 
Q 24.609375 0 31.25 7.421875 
Q 20.3125 10.15625 13.28125 12.109375 
Q 15.625 15.625 19.53125 23.828125 
Q 15.625 23.828125 6.640625 23.4375 
L 6.640625 30.46875 
Q 14.0625 30.078125 21.875 30.078125 
Q 23.4375 33.59375 24.21875 37.890625 
Q 28.515625 36.328125 32.8125 35.15625 
z
M 27.734375 61.71875 
Q 27.734375 71.09375 27.34375 79.6875 
L 35.15625 79.6875 
Q 34.765625 71.484375 34.765625 61.71875 
Q 48.046875 61.71875 53.515625 62.109375 
L 53.515625 55.078125 
Q 48.046875 55.46875 34.765625 55.46875 
Q 34.765625 44.140625 35.15625 37.890625 
L 27.34375 37.890625 
Q 27.734375 43.359375 27.734375 51.5625 
Q 25.78125 48.4375 20.3125 43.546875 
Q 14.84375 38.671875 10.15625 35.9375 
Q 8.203125 39.453125 4.296875 41.015625 
Q 7.8125 42.1875 13.671875 46.484375 
Q 19.53125 50.78125 22.65625 55.46875 
Q 14.84375 55.46875 7.8125 55.078125 
L 7.8125 62.109375 
Q 14.453125 61.71875 27.734375 61.71875 
z
M 62.109375 49.609375 
Q 65.625 26.5625 71.875 17.578125 
Q 75.78125 26.5625 77.140625 35.734375 
Q 78.515625 44.921875 78.90625 53.515625 
L 63.671875 53.515625 
L 62.109375 49.609375 
z
M 22.65625 15.625 
Q 27.34375 14.453125 35.546875 12.5 
Q 38.671875 16.40625 41.40625 23.828125 
L 26.953125 23.828125 
Q 25 19.921875 22.65625 15.625 
z
M 51.953125 75.390625 
Q 50 72.265625 48.828125 69.53125 
Q 47.65625 66.796875 45.703125 62.890625 
Q 42.578125 64.453125 39.453125 65.234375 
Q 42.578125 70.3125 45.3125 78.125 
Q 49.21875 76.171875 51.953125 75.390625 
z
M 40.234375 52.734375 
Q 45.3125 47.65625 50 42.578125 
Q 47.65625 40.625 44.921875 37.890625 
Q 39.453125 44.53125 35.9375 48.4375 
Q 38.28125 50.390625 40.234375 52.734375 
z
M 14.453125 78.125 
Q 19.921875 72.65625 23.4375 67.1875 
L 17.578125 63.671875 
Q 14.84375 69.140625 9.375 73.828125 
Q 12.890625 76.171875 14.453125 78.125 
z
" id="SimHei-25968"/>
      <path d="M 28.515625 37.890625 
L 19.53125 37.890625 
L 19.53125 46.484375 
L 28.515625 46.484375 
z
M 28.515625 1.953125 
L 19.53125 1.953125 
L 19.53125 10.546875 
L 28.515625 10.546875 
z
" id="SimHei-58"/>
      <path d="M 31.78125 66.40625 
Q 24.171875 66.40625 20.328125 58.90625 
Q 16.5 51.421875 16.5 36.375 
Q 16.5 21.390625 20.328125 13.890625 
Q 24.171875 6.390625 31.78125 6.390625 
Q 39.453125 6.390625 43.28125 13.890625 
Q 47.125 21.390625 47.125 36.375 
Q 47.125 51.421875 43.28125 58.90625 
Q 39.453125 66.40625 31.78125 66.40625 
z
M 31.78125 74.21875 
Q 44.046875 74.21875 50.515625 64.515625 
Q 56.984375 54.828125 56.984375 36.375 
Q 56.984375 17.96875 50.515625 8.265625 
Q 44.046875 -1.421875 31.78125 -1.421875 
Q 19.53125 -1.421875 13.0625 8.265625 
Q 6.59375 17.96875 6.59375 36.375 
Q 6.59375 54.828125 13.0625 64.515625 
Q 19.53125 74.21875 31.78125 74.21875 
z
" id="DejaVuSans-48"/>
      <path d="M 10.6875 12.40625 
L 21 12.40625 
L 21 0 
L 10.6875 0 
z
" id="DejaVuSans-46"/>
      <path d="M 10.984375 1.515625 
L 10.984375 10.5 
Q 14.703125 8.734375 18.5 7.8125 
Q 22.3125 6.890625 25.984375 6.890625 
Q 35.75 6.890625 40.890625 13.453125 
Q 46.046875 20.015625 46.78125 33.40625 
Q 43.953125 29.203125 39.59375 26.953125 
Q 35.25 24.703125 29.984375 24.703125 
Q 19.046875 24.703125 12.671875 31.3125 
Q 6.296875 37.9375 6.296875 49.421875 
Q 6.296875 60.640625 12.9375 67.421875 
Q 19.578125 74.21875 30.609375 74.21875 
Q 43.265625 74.21875 49.921875 64.515625 
Q 56.59375 54.828125 56.59375 36.375 
Q 56.59375 19.140625 48.40625 8.859375 
Q 40.234375 -1.421875 26.421875 -1.421875 
Q 22.703125 -1.421875 18.890625 -0.6875 
Q 15.09375 0.046875 10.984375 1.515625 
z
M 30.609375 32.421875 
Q 37.25 32.421875 41.125 36.953125 
Q 45.015625 41.5 45.015625 49.421875 
Q 45.015625 57.28125 41.125 61.84375 
Q 37.25 66.40625 30.609375 66.40625 
Q 23.96875 66.40625 20.09375 61.84375 
Q 16.21875 57.28125 16.21875 49.421875 
Q 16.21875 41.5 20.09375 36.953125 
Q 23.96875 32.421875 30.609375 32.421875 
z
" id="DejaVuSans-57"/>
      <path d="M 33.015625 40.375 
Q 26.375 40.375 22.484375 35.828125 
Q 18.609375 31.296875 18.609375 23.390625 
Q 18.609375 15.53125 22.484375 10.953125 
Q 26.375 6.390625 33.015625 6.390625 
Q 39.65625 6.390625 43.53125 10.953125 
Q 47.40625 15.53125 47.40625 23.390625 
Q 47.40625 31.296875 43.53125 35.828125 
Q 39.65625 40.375 33.015625 40.375 
z
M 52.59375 71.296875 
L 52.59375 62.3125 
Q 48.875 64.0625 45.09375 64.984375 
Q 41.3125 65.921875 37.59375 65.921875 
Q 27.828125 65.921875 22.671875 59.328125 
Q 17.53125 52.734375 16.796875 39.40625 
Q 19.671875 43.65625 24.015625 45.921875 
Q 28.375 48.1875 33.59375 48.1875 
Q 44.578125 48.1875 50.953125 41.515625 
Q 57.328125 34.859375 57.328125 23.390625 
Q 57.328125 12.15625 50.6875 5.359375 
Q 44.046875 -1.421875 33.015625 -1.421875 
Q 20.359375 -1.421875 13.671875 8.265625 
Q 6.984375 17.96875 6.984375 36.375 
Q 6.984375 53.65625 15.1875 63.9375 
Q 23.390625 74.21875 37.203125 74.21875 
Q 40.921875 74.21875 44.703125 73.484375 
Q 48.484375 72.75 52.59375 71.296875 
z
" id="DejaVuSans-54"/>
     </defs>
     <use transform="translate(0 0.96875)" xlink:href="#SimHei-30382"/>
     <use transform="translate(100 0.96875)" xlink:href="#SimHei-23572"/>
     <use transform="translate(200 0.96875)" xlink:href="#SimHei-26862"/>
     <use transform="translate(300 0.96875)" xlink:href="#SimHei-30456"/>
     <use transform="translate(400 0.96875)" xlink:href="#SimHei-20851"/>
     <use transform="translate(500 0.96875)" xlink:href="#SimHei-31995"/>
     <use transform="translate(600 0.96875)" xlink:href="#SimHei-25968"/>
     <use transform="translate(700 0.96875)" xlink:href="#SimHei-58"/>
     <use transform="translate(750 0.96875)" xlink:href="#DejaVuSans-48"/>
     <use transform="translate(813.623047 0.96875)" xlink:href="#DejaVuSans-46"/>
     <use transform="translate(845.410156 0.96875)" xlink:href="#DejaVuSans-57"/>
     <use transform="translate(909.033203 0.96875)" xlink:href="#DejaVuSans-57"/>
     <use transform="translate(972.65625 0.96875)" xlink:href="#DejaVuSans-54"/>
     <use transform="translate(1036.279297 0.96875)" xlink:href="#DejaVuSans-54"/>
    </g>
    <!-- 双尾检验:$1.165\times 10^{-17}$ -->
    <g transform="translate(74.718 82.823725)scale(0.1 -0.1)">
     <defs>
      <path d="M 88.671875 74.609375 
Q 85.9375 53.125 82.03125 39.453125 
Q 78.125 25.78125 72.265625 16.796875 
Q 76.953125 10.546875 83.390625 5.65625 
Q 89.84375 0.78125 96.875 -1.953125 
Q 92.1875 -3.90625 89.0625 -8.59375 
Q 84.765625 -5.859375 78.703125 -0.96875 
Q 72.65625 3.90625 67.1875 10.9375 
Q 63.28125 5.859375 56.828125 0.390625 
Q 50.390625 -5.078125 41.40625 -10.546875 
Q 38.671875 -6.640625 34.765625 -5.078125 
Q 44.921875 0 52.140625 6.4375 
Q 59.375 12.890625 62.5 17.578125 
Q 57.03125 31.25 55.078125 40.421875 
Q 53.125 49.609375 51.5625 67.578125 
L 47.65625 67.578125 
L 47.65625 75 
Q 55.078125 74.609375 62.890625 74.609375 
z
M 44.921875 73.828125 
Q 43.75 62.5 42.1875 53.3125 
Q 40.625 44.140625 36.71875 32.8125 
Q 48.046875 19.140625 51.5625 13.28125 
Q 48.4375 11.328125 44.921875 8.203125 
Q 39.453125 16.796875 33.203125 24.609375 
Q 29.296875 16.40625 24.796875 9.5625 
Q 20.3125 2.734375 12.5 -5.078125 
Q 10.15625 -1.953125 5.46875 -0.390625 
Q 13.28125 6.25 18.546875 13.46875 
Q 23.828125 20.703125 27.34375 30.078125 
Q 21.875 37.5 8.59375 51.171875 
Q 11.71875 53.90625 14.0625 56.640625 
Q 24.609375 45.703125 30.46875 38.28125 
Q 32.421875 42.96875 33.984375 50.390625 
Q 35.546875 57.8125 35.9375 66.796875 
L 21.875 66.796875 
Q 13.28125 66.796875 7.421875 66.40625 
L 7.421875 74.21875 
Q 13.671875 73.828125 21.484375 73.828125 
z
M 58.984375 67.578125 
Q 60.15625 51.953125 61.71875 44.140625 
Q 63.28125 36.328125 67.96875 25 
Q 72.265625 33.203125 75.390625 44.140625 
Q 78.515625 55.078125 79.6875 67.578125 
L 58.984375 67.578125 
z
" id="SimHei-21452"/>
      <path d="M 85.546875 78.125 
Q 85.15625 72.265625 85.15625 66.40625 
Q 85.15625 60.9375 85.546875 55.078125 
L 21.484375 55.078125 
Q 21.875 24.609375 18.546875 10.734375 
Q 15.234375 -3.125 12.109375 -9.765625 
Q 8.59375 -5.859375 3.90625 -4.6875 
Q 9.765625 3.90625 11.71875 18.15625 
Q 13.671875 32.421875 13.859375 49.609375 
Q 14.0625 66.796875 13.28125 78.125 
L 85.546875 78.125 
z
M 82.03125 43.75 
Q 77.34375 43.75 71.671875 42.96875 
Q 66.015625 42.1875 57.8125 41.015625 
L 57.8125 32.421875 
Q 77.734375 34.375 83.984375 35.15625 
L 83.984375 28.125 
Q 66.796875 26.953125 57.8125 25.78125 
L 57.8125 17.96875 
Q 77.734375 19.53125 88.671875 20.703125 
L 88.671875 13.671875 
Q 69.53125 12.5 57.8125 11.328125 
L 57.8125 5.859375 
Q 57.8125 -0.390625 62.109375 -0.390625 
L 80.078125 -0.390625 
Q 85.9375 -0.390625 86.328125 7.8125 
Q 89.453125 6.25 94.53125 5.078125 
Q 92.578125 -6.640625 82.8125 -6.640625 
L 58.984375 -6.640625 
Q 50.390625 -6.640625 50.390625 1.171875 
L 50.390625 10.546875 
Q 32.03125 8.984375 23.828125 7.8125 
L 23.046875 14.84375 
Q 33.203125 15.625 50.390625 16.796875 
L 50.390625 25.390625 
Q 44.140625 25 28.125 23.4375 
L 26.953125 30.46875 
Q 32.03125 30.46875 50.390625 32.03125 
L 50.390625 40.234375 
Q 35.546875 39.0625 27.34375 37.890625 
Q 26.5625 41.40625 25.390625 44.921875 
Q 42.1875 45.703125 56.25 47.65625 
Q 70.3125 49.609375 76.953125 51.5625 
Q 78.515625 48.046875 82.03125 43.75 
z
M 77.734375 61.71875 
L 77.734375 71.875 
L 21.484375 71.875 
L 21.484375 61.71875 
z
" id="SimHei-23614"/>
      <path d="M 19.53125 71.484375 
Q 19.53125 75.78125 19.140625 80.46875 
L 27.34375 80.46875 
Q 26.5625 75.78125 26.5625 71.484375 
L 26.5625 60.9375 
L 30.46875 60.9375 
Q 32.8125 60.9375 38.671875 61.328125 
L 38.671875 53.90625 
Q 32.03125 54.296875 29.296875 54.296875 
L 26.5625 54.296875 
L 26.5625 36.328125 
Q 29.6875 37.5 32.03125 39.453125 
Q 33.203125 37.5 35.15625 34.171875 
Q 37.109375 30.859375 39.0625 27.34375 
Q 36.328125 26.171875 32.421875 23.4375 
Q 31.25 25.390625 29.875 28.703125 
Q 28.515625 32.03125 26.5625 33.984375 
L 26.5625 4.6875 
Q 26.5625 -2.734375 26.953125 -9.765625 
L 19.140625 -9.765625 
Q 19.53125 -3.515625 19.53125 4.6875 
L 19.53125 35.9375 
Q 17.96875 32.03125 14.84375 25.578125 
Q 11.71875 19.140625 8.984375 14.84375 
Q 6.25 18.75 2.734375 20.703125 
Q 6.25 24.609375 8.59375 29.09375 
Q 10.9375 33.59375 13.078125 38.078125 
Q 15.234375 42.578125 16.59375 46.671875 
Q 17.96875 50.78125 18.75 54.296875 
L 14.84375 54.296875 
Q 12.890625 54.296875 6.640625 53.90625 
L 6.640625 61.328125 
Q 12.5 60.9375 14.84375 60.9375 
L 19.53125 60.9375 
z
M 80.46875 47.265625 
Q 73.046875 53.515625 69.71875 58 
Q 66.40625 62.5 62.109375 69.53125 
Q 58.984375 62.890625 56.25 58.390625 
Q 53.515625 53.90625 50.390625 50 
L 75.78125 50 
L 75.78125 42.96875 
Q 73.046875 43.359375 70.3125 43.359375 
L 58.59375 43.359375 
Q 53.90625 43.359375 49.21875 42.96875 
L 49.21875 48.046875 
L 44.921875 43.75 
Q 42.1875 40.625 39.84375 38.28125 
Q 37.5 41.796875 32.8125 44.140625 
Q 38.671875 48.046875 42.96875 52.921875 
Q 47.265625 57.8125 50.1875 62.296875 
Q 53.125 66.796875 55.265625 71.671875 
Q 57.421875 76.5625 58.203125 80.859375 
Q 63.28125 79.6875 67.578125 78.515625 
Q 66.015625 76.5625 65.625 75.390625 
Q 73.046875 62.109375 81.25 56.828125 
Q 89.453125 51.5625 96.09375 49.21875 
Q 92.1875 45.703125 91.40625 41.015625 
Q 87.5 42.96875 83.984375 45.109375 
Q 80.46875 47.265625 73.046875 53.515625 
z
M 88.671875 34.765625 
Q 84.375 25.78125 81.640625 18.546875 
Q 78.90625 11.328125 75 2.734375 
L 81.640625 2.734375 
Q 87.5 2.734375 93.359375 3.125 
L 93.359375 -3.90625 
Q 88.671875 -3.515625 81.640625 -3.515625 
L 48.828125 -3.515625 
Q 37.890625 -3.515625 34.375 -3.90625 
L 34.375 3.125 
Q 38.28125 2.734375 49.21875 2.734375 
L 67.578125 2.734375 
Q 70.3125 8.203125 72.84375 15.421875 
Q 75.390625 22.65625 76.75 27.140625 
Q 78.125 31.640625 79.296875 37.890625 
Q 84.375 35.9375 88.671875 34.765625 
z
M 46.875 34.375 
Q 49.21875 28.90625 51.75 22.84375 
Q 54.296875 16.796875 56.25 11.328125 
Q 53.125 10.15625 48.4375 7.8125 
Q 46.484375 14.84375 44.921875 18.75 
Q 43.359375 22.65625 39.453125 30.46875 
Q 44.140625 32.8125 46.875 34.375 
z
M 62.5 37.890625 
Q 64.453125 32.421875 66.796875 25.78125 
Q 69.140625 19.140625 70.3125 16.015625 
Q 66.015625 15.234375 62.5 13.28125 
Q 60.9375 19.53125 59.171875 24.609375 
Q 57.421875 29.6875 54.6875 34.765625 
Q 59.375 36.71875 62.5 37.890625 
z
" id="SimHei-26816"/>
      <path d="M 35.9375 73.828125 
Q 35.15625 70.3125 34.765625 63.671875 
L 32.03125 33.203125 
L 39.453125 33.203125 
Q 39.0625 30.078125 38.671875 22.65625 
L 37.109375 1.171875 
Q 37.109375 -7.03125 32.421875 -8.203125 
Q 27.734375 -9.375 19.53125 -10.546875 
Q 18.359375 -5.078125 16.40625 -1.5625 
Q 24.609375 -1.5625 27.140625 -1.359375 
Q 29.6875 -1.171875 30.46875 2.34375 
L 31.640625 26.5625 
L 8.59375 26.5625 
Q 8.984375 33.984375 9.171875 42.765625 
Q 9.375 51.5625 9.375 59.375 
L 17.1875 59.375 
Q 16.40625 55.078125 16.015625 48.234375 
Q 15.625 41.40625 15.625 33.203125 
L 25.390625 33.203125 
L 28.125 67.578125 
L 17.578125 67.578125 
Q 11.328125 67.578125 5.46875 67.1875 
L 5.46875 74.21875 
Q 11.328125 73.828125 17.578125 73.828125 
z
M 67.578125 76.171875 
Q 73.828125 64.453125 80.46875 58.984375 
Q 87.109375 53.515625 96.09375 50.390625 
Q 92.578125 47.265625 90.625 42.578125 
Q 85.15625 45.703125 80.078125 50 
L 80.078125 43.359375 
Q 75 43.75 65.625 43.75 
Q 56.25 43.75 50.390625 43.359375 
L 50.390625 49.609375 
Q 48.046875 46.484375 43.75 41.40625 
Q 40.234375 44.921875 36.328125 46.875 
Q 42.578125 51.171875 45.890625 55.46875 
Q 49.21875 59.765625 51.75 64.453125 
Q 54.296875 69.140625 56.046875 73.046875 
Q 57.8125 76.953125 58.984375 81.640625 
Q 64.0625 80.46875 69.53125 79.296875 
z
M 87.5 33.59375 
Q 85.546875 31.25 84.375 27.140625 
Q 83.203125 23.046875 80.65625 14.25 
Q 78.125 5.46875 76.5625 0.390625 
L 82.03125 0.390625 
Q 84.765625 0.390625 90.625 0.78125 
L 90.625 -6.25 
Q 85.546875 -5.859375 82.03125 -5.859375 
L 51.953125 -5.859375 
Q 44.921875 -5.859375 41.796875 -6.25 
L 41.796875 0.78125 
Q 46.484375 0.390625 52.34375 0.390625 
L 69.921875 0.390625 
Q 73.046875 8.984375 75 17.96875 
L 78.90625 35.9375 
Q 82.03125 34.765625 87.5 33.59375 
z
M 79.6875 50.390625 
Q 75 53.90625 71.09375 58.984375 
Q 67.1875 64.0625 63.28125 71.875 
Q 60.15625 65.625 57.609375 61.125 
Q 55.078125 56.640625 50.78125 50.390625 
z
M 50.78125 33.984375 
Q 52.34375 28.515625 54.09375 21.484375 
Q 55.859375 14.453125 57.421875 8.59375 
Q 53.90625 8.203125 50.78125 6.640625 
Q 49.609375 14.0625 48.234375 19.140625 
Q 46.875 24.21875 44.53125 32.03125 
Q 47.65625 33.203125 50.78125 33.984375 
z
M 27.734375 17.578125 
Q 27.34375 14.84375 26.953125 10.9375 
Q 21.09375 9.765625 17.375 8.984375 
Q 13.671875 8.203125 5.859375 5.859375 
Q 4.6875 10.15625 3.125 14.453125 
Q 8.59375 14.84375 14.453125 15.625 
Q 20.3125 16.40625 27.734375 17.578125 
z
M 67.1875 25.78125 
Q 67.96875 20.703125 69.140625 12.890625 
L 62.890625 11.328125 
Q 61.328125 19.921875 60.546875 24.40625 
Q 59.765625 28.90625 58.59375 34.765625 
Q 62.109375 35.546875 65.625 35.9375 
z
" id="SimHei-39564"/>
      <path d="M 12.40625 8.296875 
L 28.515625 8.296875 
L 28.515625 63.921875 
L 10.984375 60.40625 
L 10.984375 69.390625 
L 28.421875 72.90625 
L 38.28125 72.90625 
L 38.28125 8.296875 
L 54.390625 8.296875 
L 54.390625 0 
L 12.40625 0 
z
" id="DejaVuSans-49"/>
      <path d="M 10.796875 72.90625 
L 49.515625 72.90625 
L 49.515625 64.59375 
L 19.828125 64.59375 
L 19.828125 46.734375 
Q 21.96875 47.46875 24.109375 47.828125 
Q 26.265625 48.1875 28.421875 48.1875 
Q 40.625 48.1875 47.75 41.5 
Q 54.890625 34.8125 54.890625 23.390625 
Q 54.890625 11.625 47.5625 5.09375 
Q 40.234375 -1.421875 26.90625 -1.421875 
Q 22.3125 -1.421875 17.546875 -0.640625 
Q 12.796875 0.140625 7.71875 1.703125 
L 7.71875 11.625 
Q 12.109375 9.234375 16.796875 8.0625 
Q 21.484375 6.890625 26.703125 6.890625 
Q 35.15625 6.890625 40.078125 11.328125 
Q 45.015625 15.765625 45.015625 23.390625 
Q 45.015625 31 40.078125 35.4375 
Q 35.15625 39.890625 26.703125 39.890625 
Q 22.75 39.890625 18.8125 39.015625 
Q 14.890625 38.140625 10.796875 36.28125 
z
" id="DejaVuSans-53"/>
      <path d="M 70.125 53.71875 
L 47.796875 31.296875 
L 70.125 8.984375 
L 64.3125 3.078125 
L 41.890625 25.484375 
L 19.484375 3.078125 
L 13.71875 8.984375 
L 35.984375 31.296875 
L 13.71875 53.71875 
L 19.484375 59.625 
L 41.890625 37.203125 
L 64.3125 59.625 
z
" id="DejaVuSans-215"/>
      <path d="M 10.59375 35.5 
L 73.1875 35.5 
L 73.1875 27.203125 
L 10.59375 27.203125 
z
" id="DejaVuSans-8722"/>
      <path d="M 8.203125 72.90625 
L 55.078125 72.90625 
L 55.078125 68.703125 
L 28.609375 0 
L 18.3125 0 
L 43.21875 64.59375 
L 8.203125 64.59375 
z
" id="DejaVuSans-55"/>
     </defs>
     <use transform="translate(0 0.684375)" xlink:href="#SimHei-21452"/>
     <use transform="translate(100 0.684375)" xlink:href="#SimHei-23614"/>
     <use transform="translate(200 0.684375)" xlink:href="#SimHei-26816"/>
     <use transform="translate(300 0.684375)" xlink:href="#SimHei-39564"/>
     <use transform="translate(400 0.684375)" xlink:href="#SimHei-58"/>
     <use transform="translate(450 0.684375)" xlink:href="#DejaVuSans-49"/>
     <use transform="translate(513.623047 0.684375)" xlink:href="#DejaVuSans-46"/>
     <use transform="translate(545.410156 0.684375)" xlink:href="#DejaVuSans-49"/>
     <use transform="translate(609.033203 0.684375)" xlink:href="#DejaVuSans-54"/>
     <use transform="translate(672.65625 0.684375)" xlink:href="#DejaVuSans-53"/>
     <use transform="translate(755.761719 0.684375)" xlink:href="#DejaVuSans-215"/>
     <use transform="translate(859.033203 0.684375)" xlink:href="#DejaVuSans-49"/>
     <use transform="translate(922.65625 0.684375)" xlink:href="#DejaVuSans-48"/>
     <use transform="translate(987.236328 38.965625)scale(0.7)" xlink:href="#DejaVuSans-8722"/>
     <use transform="translate(1045.888672 38.965625)scale(0.7)" xlink:href="#DejaVuSans-49"/>
     <use transform="translate(1090.424805 38.965625)scale(0.7)" xlink:href="#DejaVuSans-55"/>
    </g>
   </g>
   <g id="text_16">
    <!-- $\frac{1}{C_x^3}-V_i$ -->
    <g transform="translate(239.52 34.8)scale(0.12 -0.12)">
     <defs>
      <path d="M 69.484375 67.28125 
L 67.484375 56.890625 
Q 62.796875 61.625 57.546875 63.921875 
Q 52.296875 66.21875 46.1875 66.21875 
Q 37.84375 66.21875 31.515625 62.203125 
Q 25.203125 58.203125 20.609375 50 
Q 17.671875 44.734375 16.125 38.84375 
Q 14.59375 32.953125 14.59375 27 
Q 14.59375 17.046875 19.75 11.8125 
Q 24.90625 6.59375 34.71875 6.59375 
Q 41.5 6.59375 47.75 8.765625 
Q 54 10.9375 59.90625 15.28125 
L 57.625 3.609375 
Q 51.8125 1.125 45.875 -0.140625 
Q 39.9375 -1.421875 33.984375 -1.421875 
Q 19.96875 -1.421875 12.078125 6.1875 
Q 4.203125 13.8125 4.203125 27.390625 
Q 4.203125 36.078125 7.203125 44.46875 
Q 10.203125 52.875 15.828125 59.8125 
Q 21.78125 67.1875 29.421875 70.703125 
Q 37.0625 74.21875 47.21875 74.21875 
Q 53.46875 74.21875 59.0625 72.484375 
Q 64.65625 70.75 69.484375 67.28125 
z
" id="DejaVuSans-Oblique-67"/>
      <path d="M 40.578125 39.3125 
Q 47.65625 37.796875 51.625 33 
Q 55.609375 28.21875 55.609375 21.1875 
Q 55.609375 10.40625 48.1875 4.484375 
Q 40.765625 -1.421875 27.09375 -1.421875 
Q 22.515625 -1.421875 17.65625 -0.515625 
Q 12.796875 0.390625 7.625 2.203125 
L 7.625 11.71875 
Q 11.71875 9.328125 16.59375 8.109375 
Q 21.484375 6.890625 26.8125 6.890625 
Q 36.078125 6.890625 40.9375 10.546875 
Q 45.796875 14.203125 45.796875 21.1875 
Q 45.796875 27.640625 41.28125 31.265625 
Q 36.765625 34.90625 28.71875 34.90625 
L 20.21875 34.90625 
L 20.21875 43.015625 
L 29.109375 43.015625 
Q 36.375 43.015625 40.234375 45.921875 
Q 44.09375 48.828125 44.09375 54.296875 
Q 44.09375 59.90625 40.109375 62.90625 
Q 36.140625 65.921875 28.71875 65.921875 
Q 24.65625 65.921875 20.015625 65.03125 
Q 15.375 64.15625 9.8125 62.3125 
L 9.8125 71.09375 
Q 15.4375 72.65625 20.34375 73.4375 
Q 25.25 74.21875 29.59375 74.21875 
Q 40.828125 74.21875 47.359375 69.109375 
Q 53.90625 64.015625 53.90625 55.328125 
Q 53.90625 49.265625 50.4375 45.09375 
Q 46.96875 40.921875 40.578125 39.3125 
z
" id="DejaVuSans-51"/>
      <path d="M 60.015625 54.6875 
L 34.90625 27.875 
L 50.296875 0 
L 39.984375 0 
L 28.421875 21.6875 
L 8.296875 0 
L -2.59375 0 
L 24.3125 28.8125 
L 10.015625 54.6875 
L 20.3125 54.6875 
L 30.8125 34.90625 
L 49.125 54.6875 
z
" id="DejaVuSans-Oblique-120"/>
      <path d="M 20.609375 0 
L 7.8125 72.90625 
L 17.484375 72.90625 
L 28.078125 10.203125 
L 63.484375 72.90625 
L 74.21875 72.90625 
L 32.078125 0 
z
" id="DejaVuSans-Oblique-86"/>
      <path d="M 18.3125 75.984375 
L 27.296875 75.984375 
L 25.09375 64.59375 
L 16.109375 64.59375 
z
M 14.203125 54.6875 
L 23.1875 54.6875 
L 12.5 0 
L 3.515625 0 
z
" id="DejaVuSans-Oblique-105"/>
     </defs>
     <use transform="translate(21 43.965625)scale(0.7)" xlink:href="#DejaVuSans-49"/>
     <use transform="translate(0 -50.448437)scale(0.7)" xlink:href="#DejaVuSans-Oblique-67"/>
     <use transform="translate(53.917318 -23.651562)scale(0.49)" xlink:href="#DejaVuSans-51"/>
     <use transform="translate(48.876953 -69.589062)scale(0.49)" xlink:href="#DejaVuSans-Oblique-120"/>
     <use transform="translate(118.989095 0.16875)" xlink:href="#DejaVuSans-8722"/>
     <use transform="translate(222.260579 0.16875)" xlink:href="#DejaVuSans-Oblique-86"/>
     <use transform="translate(290.668783 -16.2375)scale(0.7)" xlink:href="#DejaVuSans-Oblique-105"/>
     <path d="M 0 18.965625 
L 0 25.215625 
L 87.006673 25.215625 
L 87.006673 18.965625 
L 0 18.965625 
z
"/>
    </g>
   </g>
   <g id="legend_1">
    <g id="patch_8">
     <path d="M 233.9 310 
L 446.6 310 
Q 448.6 310 448.6 308 
L 448.6 287.5 
Q 448.6 285.5 446.6 285.5 
L 233.9 285.5 
Q 231.9 285.5 231.9 287.5 
L 231.9 308 
Q 231.9 310 233.9 310 
z
" style="fill:#ffffff;opacity:0.8;stroke:#cccccc;stroke-linejoin:miter;"/>
    </g>
    <g id="line2d_16">
     <path d="M 235.9 295.5 
L 255.9 295.5 
" style="fill:none;stroke:#ff7f0e;stroke-linecap:square;stroke-width:1.5;"/>
    </g>
    <g id="line2d_17"/>
    <g id="text_17">
     <!-- $\frac{1}{C_x^3}=3.574\times 10^{29}\times V_i-1.071\times 10^{29}$ -->
     <g transform="translate(263.9 299)scale(0.1 -0.1)">
      <defs>
       <path d="M 10.59375 45.40625 
L 73.1875 45.40625 
L 73.1875 37.203125 
L 10.59375 37.203125 
z
M 10.59375 25.484375 
L 73.1875 25.484375 
L 73.1875 17.1875 
L 10.59375 17.1875 
z
" id="DejaVuSans-61"/>
       <path d="M 37.796875 64.3125 
L 12.890625 25.390625 
L 37.796875 25.390625 
z
M 35.203125 72.90625 
L 47.609375 72.90625 
L 47.609375 25.390625 
L 58.015625 25.390625 
L 58.015625 17.1875 
L 47.609375 17.1875 
L 47.609375 0 
L 37.796875 0 
L 37.796875 17.1875 
L 4.890625 17.1875 
L 4.890625 26.703125 
z
" id="DejaVuSans-52"/>
       <path d="M 19.1875 8.296875 
L 53.609375 8.296875 
L 53.609375 0 
L 7.328125 0 
L 7.328125 8.296875 
Q 12.9375 14.109375 22.625 23.890625 
Q 32.328125 33.6875 34.8125 36.53125 
Q 39.546875 41.84375 41.421875 45.53125 
Q 43.3125 49.21875 43.3125 52.78125 
Q 43.3125 58.59375 39.234375 62.25 
Q 35.15625 65.921875 28.609375 65.921875 
Q 23.96875 65.921875 18.8125 64.3125 
Q 13.671875 62.703125 7.8125 59.421875 
L 7.8125 69.390625 
Q 13.765625 71.78125 18.9375 73 
Q 24.125 74.21875 28.421875 74.21875 
Q 39.75 74.21875 46.484375 68.546875 
Q 53.21875 62.890625 53.21875 53.421875 
Q 53.21875 48.921875 51.53125 44.890625 
Q 49.859375 40.875 45.40625 35.40625 
Q 44.1875 33.984375 37.640625 27.21875 
Q 31.109375 20.453125 19.1875 8.296875 
z
" id="DejaVuSans-50"/>
      </defs>
      <use transform="translate(21 43.965625)scale(0.7)" xlink:href="#DejaVuSans-49"/>
      <use transform="translate(0 -50.448437)scale(0.7)" xlink:href="#DejaVuSans-Oblique-67"/>
      <use transform="translate(53.917318 -23.651562)scale(0.49)" xlink:href="#DejaVuSans-51"/>
      <use transform="translate(48.876953 -69.589062)scale(0.49)" xlink:href="#DejaVuSans-Oblique-120"/>
      <use transform="translate(118.989095 0.16875)" xlink:href="#DejaVuSans-61"/>
      <use transform="translate(222.260579 0.16875)" xlink:href="#DejaVuSans-51"/>
      <use transform="translate(285.883626 0.16875)" xlink:href="#DejaVuSans-46"/>
      <use transform="translate(317.670736 0.16875)" xlink:href="#DejaVuSans-53"/>
      <use transform="translate(374.043783 0.16875)" xlink:href="#DejaVuSans-55"/>
      <use transform="translate(437.666829 0.16875)" xlink:href="#DejaVuSans-52"/>
      <use transform="translate(520.772298 0.16875)" xlink:href="#DejaVuSans-215"/>
      <use transform="translate(624.043783 0.16875)" xlink:href="#DejaVuSans-49"/>
      <use transform="translate(687.666829 0.16875)" xlink:href="#DejaVuSans-48"/>
      <use transform="translate(752.246908 38.45)scale(0.7)" xlink:href="#DejaVuSans-50"/>
      <use transform="translate(795.55804 38.45)scale(0.7)" xlink:href="#DejaVuSans-57"/>
      <use transform="translate(862.31097 0.16875)" xlink:href="#DejaVuSans-215"/>
      <use transform="translate(965.582454 0.16875)" xlink:href="#DejaVuSans-Oblique-86"/>
      <use transform="translate(1033.990658 -16.2375)scale(0.7)" xlink:href="#DejaVuSans-Oblique-105"/>
      <use transform="translate(1075.655697 0.16875)" xlink:href="#DejaVuSans-8722"/>
      <use transform="translate(1178.927181 0.16875)" xlink:href="#DejaVuSans-49"/>
      <use transform="translate(1242.550228 0.16875)" xlink:href="#DejaVuSans-46"/>
      <use transform="translate(1274.337337 0.16875)" xlink:href="#DejaVuSans-48"/>
      <use transform="translate(1337.960384 0.16875)" xlink:href="#DejaVuSans-55"/>
      <use transform="translate(1401.583431 0.16875)" xlink:href="#DejaVuSans-49"/>
      <use transform="translate(1484.6889 0.16875)" xlink:href="#DejaVuSans-215"/>
      <use transform="translate(1587.960384 0.16875)" xlink:href="#DejaVuSans-49"/>
      <use transform="translate(1651.583431 0.16875)" xlink:href="#DejaVuSans-48"/>
      <use transform="translate(1716.163509 38.45)scale(0.7)" xlink:href="#DejaVuSans-50"/>
      <use transform="translate(1759.474642 38.45)scale(0.7)" xlink:href="#DejaVuSans-57"/>
      <path d="M 0 18.965625 
L 0 25.215625 
L 87.006673 25.215625 
L 87.006673 18.965625 
L 0 18.965625 
z
"/>
     </g>
    </g>
   </g>
  </g>
 </g>
 <defs>
  <clipPath id="p0bbc10abf3">
   <rect height="271.8" width="390.6" x="63" y="43.2"/>
  </clipPath>
 </defs>
</svg>
