<?xml version="1.0" encoding="utf-8" standalone="no"?>
<!DOCTYPE svg PUBLIC "-//W3C//DTD SVG 1.1//EN"
  "http://www.w3.org/Graphics/SVG/1.1/DTD/svg11.dtd">
<!-- Created with matplotlib (https://matplotlib.org/) -->
<svg height="314.925pt" version="1.1" viewBox="0 0 613.1 314.925" width="613.1pt" xmlns="http://www.w3.org/2000/svg" xmlns:xlink="http://www.w3.org/1999/xlink">
 <metadata>
  <rdf:RDF xmlns:cc="http://creativecommons.org/ns#" xmlns:dc="http://purl.org/dc/elements/1.1/" xmlns:rdf="http://www.w3.org/1999/02/22-rdf-syntax-ns#">
   <cc:Work>
    <dc:type rdf:resource="http://purl.org/dc/dcmitype/StillImage"/>
    <dc:date>2020-10-31T12:50:54.842400</dc:date>
    <dc:format>image/svg+xml</dc:format>
    <dc:creator>
     <cc:Agent>
      <dc:title>Matplotlib v3.3.1, https://matplotlib.org/</dc:title>
     </cc:Agent>
    </dc:creator>
   </cc:Work>
  </rdf:RDF>
 </metadata>
 <defs>
  <style type="text/css">*{stroke-linecap:butt;stroke-linejoin:round;}</style>
 </defs>
 <g id="figure_1">
  <g id="patch_1">
   <path d="M 0 314.925 
L 613.1 314.925 
L 613.1 0 
L 0 0 
z
" style="fill:none;"/>
  </g>
  <g id="axes_1">
   <g id="patch_2">
    <path d="M 47.9 279 
L 605.9 279 
L 605.9 7.2 
L 47.9 7.2 
z
" style="fill:#ffffff;"/>
   </g>
   <g id="matplotlib.axis_1">
    <g id="xtick_1">
     <g id="line2d_1">
      <defs>
       <path d="M 0 0 
L 0 3.5 
" id="mbc1d050cd1" style="stroke:#000000;stroke-width:0.8;"/>
      </defs>
      <g>
       <use style="stroke:#000000;stroke-width:0.8;" x="73.263636" xlink:href="#mbc1d050cd1" y="279"/>
      </g>
     </g>
     <g id="text_1">
      <!-- 200 -->
      <g transform="translate(65.763636 292.875)scale(0.1 -0.1)">
       <defs>
        <path d="M 4.6875 3.90625 
Q 5.078125 9.765625 10.15625 14.453125 
Q 15.234375 19.140625 23.046875 29.09375 
Q 30.859375 39.0625 33.203125 44.53125 
Q 35.546875 50 34.953125 53.90625 
Q 34.375 57.8125 31.25 60.34375 
Q 28.125 62.890625 24.015625 62.5 
Q 19.921875 62.109375 16.203125 59.375 
Q 12.5 56.640625 10.546875 51.171875 
L 3.125 52.34375 
Q 6.25 61.328125 11.125 65.421875 
Q 16.015625 69.53125 22.65625 69.921875 
Q 26.5625 70.3125 29.6875 69.71875 
Q 32.8125 69.140625 36.125 66.984375 
Q 39.453125 64.84375 41.59375 60.546875 
Q 43.75 56.25 43.15625 50.1875 
Q 42.578125 44.140625 37.109375 35.734375 
Q 31.640625 27.34375 16.015625 9.375 
L 44.140625 9.375 
L 44.140625 2.34375 
L 4.6875 2.34375 
z
" id="SimHei-50"/>
        <path d="M 3.125 29.296875 
Q 3.90625 50 6.4375 56.046875 
Q 8.984375 62.109375 13.671875 66.015625 
Q 18.359375 69.921875 25.1875 69.921875 
Q 32.03125 69.921875 37.109375 64.25 
Q 42.1875 58.59375 43.75 50 
Q 45.3125 41.40625 44.71875 30.265625 
Q 44.140625 19.140625 40.8125 12.109375 
Q 37.5 5.078125 30.859375 2.34375 
Q 24.21875 -0.390625 17.578125 2.921875 
Q 10.9375 6.25 8.203125 11.71875 
Q 5.46875 17.1875 4.296875 23.234375 
Q 3.125 29.296875 3.90625 50 
z
M 12.890625 52.734375 
Q 10.546875 31.25 12.5 22.84375 
Q 14.453125 14.453125 18.9375 10.9375 
Q 23.4375 7.421875 28.125 9.5625 
Q 32.8125 11.71875 34.953125 18.15625 
Q 37.109375 24.609375 37.109375 32.21875 
Q 37.109375 39.84375 36.515625 46.09375 
Q 35.9375 52.34375 33 57.421875 
Q 30.078125 62.5 25.1875 62.6875 
Q 20.3125 62.890625 16.59375 57.8125 
Q 12.890625 52.734375 10.546875 31.25 
z
" id="SimHei-48"/>
       </defs>
       <use xlink:href="#SimHei-50"/>
       <use x="50" xlink:href="#SimHei-48"/>
       <use x="100" xlink:href="#SimHei-48"/>
      </g>
     </g>
    </g>
    <g id="xtick_2">
     <g id="line2d_2">
      <g>
       <use style="stroke:#000000;stroke-width:0.8;" x="157.809091" xlink:href="#mbc1d050cd1" y="279"/>
      </g>
     </g>
     <g id="text_2">
      <!-- 300 -->
      <g transform="translate(150.309091 292.875)scale(0.1 -0.1)">
       <defs>
        <path d="M 3.90625 19.140625 
L 10.9375 20.3125 
Q 12.5 15.234375 16.015625 11.90625 
Q 19.53125 8.59375 24.796875 8.78125 
Q 30.078125 8.984375 33.203125 13.078125 
Q 36.328125 17.1875 35.9375 22.453125 
Q 35.546875 27.734375 31.828125 30.65625 
Q 28.125 33.59375 19.921875 34.765625 
L 19.921875 39.84375 
Q 28.125 40.625 31.828125 44.140625 
Q 35.546875 47.65625 35.15625 53.3125 
Q 34.765625 58.984375 30.078125 61.515625 
Q 25.390625 64.0625 20.109375 62.109375 
Q 14.84375 60.15625 11.71875 51.171875 
L 4.6875 52.34375 
Q 7.03125 59.375 11.125 64.0625 
Q 15.234375 68.75 22.265625 69.53125 
Q 29.296875 70.3125 34.5625 67.765625 
Q 39.84375 65.234375 41.984375 59.953125 
Q 44.140625 54.6875 42.578125 48.4375 
Q 41.015625 42.1875 33.59375 37.5 
Q 39.0625 35.15625 41.984375 30.46875 
Q 44.921875 25.78125 43.9375 18.15625 
Q 42.96875 10.546875 37.109375 5.859375 
Q 31.25 1.171875 23.828125 1.359375 
Q 16.40625 1.5625 10.9375 6.046875 
Q 5.46875 10.546875 3.90625 19.140625 
z
" id="SimHei-51"/>
       </defs>
       <use xlink:href="#SimHei-51"/>
       <use x="50" xlink:href="#SimHei-48"/>
       <use x="100" xlink:href="#SimHei-48"/>
      </g>
     </g>
    </g>
    <g id="xtick_3">
     <g id="line2d_3">
      <g>
       <use style="stroke:#000000;stroke-width:0.8;" x="242.354545" xlink:href="#mbc1d050cd1" y="279"/>
      </g>
     </g>
     <g id="text_3">
      <!-- 400 -->
      <g transform="translate(234.854545 292.875)scale(0.1 -0.1)">
       <defs>
        <path d="M 31.25 17.1875 
L 1.171875 17.1875 
L 1.171875 23.828125 
L 32.8125 69.53125 
L 38.671875 69.53125 
L 38.671875 23.828125 
L 48.046875 23.828125 
L 48.046875 17.1875 
L 38.671875 17.1875 
L 38.671875 2.34375 
L 31.25 2.34375 
z
M 31.25 23.828125 
L 31.25 54.6875 
L 9.375 23.828125 
z
" id="SimHei-52"/>
       </defs>
       <use xlink:href="#SimHei-52"/>
       <use x="50" xlink:href="#SimHei-48"/>
       <use x="100" xlink:href="#SimHei-48"/>
      </g>
     </g>
    </g>
    <g id="xtick_4">
     <g id="line2d_4">
      <g>
       <use style="stroke:#000000;stroke-width:0.8;" x="326.9" xlink:href="#mbc1d050cd1" y="279"/>
      </g>
     </g>
     <g id="text_4">
      <!-- 500 -->
      <g transform="translate(319.4 292.875)scale(0.1 -0.1)">
       <defs>
        <path d="M 8.59375 20.703125 
Q 11.328125 10.15625 17.96875 8.984375 
Q 24.609375 7.8125 28.703125 10.34375 
Q 32.8125 12.890625 34.5625 16.984375 
Q 36.328125 21.09375 36.125 26.171875 
Q 35.9375 31.25 33.390625 34.765625 
Q 30.859375 38.28125 26.953125 39.453125 
Q 23.046875 40.625 18.15625 39.453125 
Q 13.28125 38.28125 10.15625 33.984375 
L 3.515625 34.765625 
Q 4.296875 37.109375 10.9375 68.359375 
L 41.796875 68.359375 
L 41.796875 61.328125 
L 16.796875 61.328125 
Q 14.84375 50.78125 12.890625 44.53125 
Q 18.75 47.265625 23.828125 47.0625 
Q 28.90625 46.875 33.59375 44.71875 
Q 38.28125 42.578125 40.421875 38.859375 
Q 42.578125 35.15625 43.546875 31.4375 
Q 44.53125 27.734375 44.328125 23.4375 
Q 44.140625 19.140625 42.578125 14.640625 
Q 41.015625 10.15625 37.890625 7.21875 
Q 34.765625 4.296875 30.265625 2.53125 
Q 25.78125 0.78125 19.921875 1.171875 
Q 14.0625 1.5625 8.78125 5.46875 
Q 3.515625 9.375 1.5625 18.75 
z
" id="SimHei-53"/>
       </defs>
       <use xlink:href="#SimHei-53"/>
       <use x="50" xlink:href="#SimHei-48"/>
       <use x="100" xlink:href="#SimHei-48"/>
      </g>
     </g>
    </g>
    <g id="xtick_5">
     <g id="line2d_5">
      <g>
       <use style="stroke:#000000;stroke-width:0.8;" x="411.445455" xlink:href="#mbc1d050cd1" y="279"/>
      </g>
     </g>
     <g id="text_5">
      <!-- 600 -->
      <g transform="translate(403.945455 292.875)scale(0.1 -0.1)">
       <defs>
        <path d="M 3.515625 19.53125 
Q 4.296875 30.859375 6.046875 34.765625 
Q 7.8125 38.671875 11.328125 44.53125 
L 27.34375 69.53125 
L 36.328125 69.53125 
L 19.921875 43.75 
Q 30.46875 46.484375 36.71875 42.96875 
Q 42.96875 39.453125 45.109375 34.953125 
Q 47.265625 30.46875 47.453125 25.1875 
Q 47.65625 19.921875 45.890625 14.84375 
Q 44.140625 9.765625 39.640625 5.65625 
Q 35.15625 1.5625 27.140625 1.171875 
Q 19.140625 0.78125 13.46875 4.09375 
Q 7.8125 7.421875 5.65625 13.46875 
Q 3.515625 19.53125 4.296875 30.859375 
z
M 12.5 16.015625 
Q 19.53125 8.59375 25.390625 8.203125 
Q 31.25 7.8125 35.15625 12.109375 
Q 39.0625 16.40625 39.0625 24.609375 
Q 39.0625 32.8125 34.171875 35.9375 
Q 29.296875 39.0625 23.234375 38.28125 
Q 17.1875 37.5 14.453125 32.421875 
Q 11.71875 27.34375 12.109375 21.671875 
Q 12.5 16.015625 19.53125 8.59375 
z
" id="SimHei-54"/>
       </defs>
       <use xlink:href="#SimHei-54"/>
       <use x="50" xlink:href="#SimHei-48"/>
       <use x="100" xlink:href="#SimHei-48"/>
      </g>
     </g>
    </g>
    <g id="xtick_6">
     <g id="line2d_6">
      <g>
       <use style="stroke:#000000;stroke-width:0.8;" x="495.990909" xlink:href="#mbc1d050cd1" y="279"/>
      </g>
     </g>
     <g id="text_6">
      <!-- 700 -->
      <g transform="translate(488.490909 292.875)scale(0.1 -0.1)">
       <defs>
        <path d="M 13.28125 2.34375 
Q 20.3125 32.03125 37.890625 61.328125 
L 4.296875 61.328125 
L 4.296875 68.359375 
L 46.09375 68.359375 
L 46.09375 61.71875 
Q 27.734375 32.03125 21.875 2.34375 
L 13.28125 2.34375 
z
" id="SimHei-55"/>
       </defs>
       <use xlink:href="#SimHei-55"/>
       <use x="50" xlink:href="#SimHei-48"/>
       <use x="100" xlink:href="#SimHei-48"/>
      </g>
     </g>
    </g>
    <g id="xtick_7">
     <g id="line2d_7">
      <g>
       <use style="stroke:#000000;stroke-width:0.8;" x="580.536364" xlink:href="#mbc1d050cd1" y="279"/>
      </g>
     </g>
     <g id="text_7">
      <!-- 800 -->
      <g transform="translate(573.036364 292.875)scale(0.1 -0.1)">
       <defs>
        <path d="M 2.734375 16.796875 
Q 2.734375 26.171875 5.078125 30.65625 
Q 7.421875 35.15625 12.890625 37.890625 
Q 8.203125 40.625 6.640625 43.9375 
Q 5.078125 47.265625 4.875 51.5625 
Q 4.6875 55.859375 6.046875 58.984375 
Q 7.421875 62.109375 10.15625 64.84375 
Q 12.890625 67.578125 16.203125 68.546875 
Q 19.53125 69.53125 23.4375 69.53125 
Q 27.34375 69.53125 30.46875 68.75 
Q 33.59375 67.96875 37.109375 65.421875 
Q 40.625 62.890625 42.1875 58.203125 
Q 43.75 53.515625 41.984375 47.265625 
Q 40.234375 41.015625 32.8125 37.5 
Q 39.453125 35.546875 42.1875 31.4375 
Q 44.921875 27.34375 44.921875 21.484375 
Q 44.921875 15.625 43.15625 12.109375 
Q 41.40625 8.59375 39.25 6.25 
Q 37.109375 3.90625 33.390625 2.53125 
Q 29.6875 1.171875 24.015625 1.171875 
Q 18.359375 1.171875 14.25 2.53125 
Q 10.15625 3.90625 7.421875 6.640625 
Q 4.6875 9.375 3.703125 13.078125 
Q 2.734375 16.796875 2.734375 26.171875 
z
M 10.9375 26.5625 
Q 10.546875 17.1875 12.296875 13.671875 
Q 14.0625 10.15625 18.75 9.171875 
Q 23.4375 8.203125 28.515625 9.375 
Q 33.59375 10.546875 35.546875 14.84375 
Q 37.5 19.140625 36.90625 23.4375 
Q 36.328125 27.734375 32.03125 30.65625 
Q 27.734375 33.59375 22.65625 33.203125 
Q 17.578125 32.8125 14.25 29.6875 
Q 10.9375 26.5625 10.546875 17.1875 
z
M 12.109375 56.25 
Q 12.109375 48.4375 14.84375 44.921875 
Q 17.578125 41.40625 23.4375 41.40625 
Q 29.296875 41.40625 32.21875 44.921875 
Q 35.15625 48.4375 34.953125 53.3125 
Q 34.765625 58.203125 31.4375 60.546875 
Q 28.125 62.890625 22.453125 62.5 
Q 16.796875 62.109375 14.453125 59.171875 
Q 12.109375 56.25 12.109375 48.4375 
z
" id="SimHei-56"/>
       </defs>
       <use xlink:href="#SimHei-56"/>
       <use x="50" xlink:href="#SimHei-48"/>
       <use x="100" xlink:href="#SimHei-48"/>
      </g>
     </g>
    </g>
    <g id="text_8">
     <!-- 光波长$\lambda(nm)$ -->
     <g transform="translate(297 306.325)scale(0.1 -0.1)">
      <defs>
       <path d="M 94.53125 35.9375 
Q 90.234375 36.328125 80.46875 36.328125 
L 63.28125 36.328125 
L 63.28125 6.25 
Q 63.28125 0.78125 69.140625 0.78125 
L 77.734375 0.78125 
Q 82.8125 0.78125 83.984375 3.3125 
Q 85.15625 5.859375 85.9375 13.28125 
Q 89.84375 9.765625 95.3125 8.203125 
Q 93.75 2.734375 91.203125 -1.5625 
Q 88.671875 -5.859375 83.203125 -5.859375 
L 64.0625 -5.859375 
Q 55.46875 -5.859375 55.46875 2.734375 
L 55.46875 36.328125 
L 43.359375 36.328125 
Q 44.140625 1.953125 8.984375 -8.984375 
Q 6.25 -4.296875 3.515625 -0.78125 
Q 19.140625 2.34375 27.140625 10.734375 
Q 35.15625 19.140625 35.546875 36.328125 
L 22.65625 36.328125 
Q 9.765625 36.328125 5.859375 35.9375 
L 5.859375 43.359375 
Q 9.765625 42.96875 22.265625 42.96875 
L 46.09375 42.96875 
L 46.09375 67.1875 
Q 46.09375 74.21875 45.703125 80.46875 
L 55.078125 80.46875 
Q 54.296875 76.5625 54.296875 67.1875 
L 54.296875 42.96875 
L 80.46875 42.96875 
Q 89.453125 42.96875 94.53125 43.359375 
z
M 64.0625 51.953125 
Q 73.4375 63.28125 76.171875 71.484375 
Q 81.25 68.359375 85.546875 66.796875 
Q 82.8125 64.0625 79.296875 58.78125 
Q 75.78125 53.515625 71.484375 47.65625 
Q 67.1875 50 64.0625 51.953125 
z
M 27.734375 46.875 
Q 25 52.734375 16.015625 64.84375 
Q 19.921875 67.1875 24.21875 69.53125 
Q 28.125 64.0625 30.65625 60.15625 
Q 33.203125 56.25 35.9375 51.5625 
Q 31.640625 49.609375 27.734375 46.875 
z
" id="SimHei-20809"/>
       <path d="M 79.296875 51.171875 
Q 80.859375 56.25 81.640625 60.15625 
L 67.578125 60.15625 
L 67.578125 42.96875 
L 86.71875 42.96875 
Q 84.375 32.8125 80.078125 23.625 
Q 75.78125 14.453125 70.703125 8.59375 
Q 74.609375 5.46875 81.25 2.734375 
Q 87.890625 0 96.484375 -1.5625 
Q 92.1875 -4.6875 90.234375 -9.375 
Q 82.03125 -6.640625 75 -2.734375 
Q 67.96875 1.171875 65.625 3.515625 
Q 61.71875 0.390625 55.265625 -3.3125 
Q 48.828125 -7.03125 39.0625 -10.546875 
Q 37.109375 -7.8125 32.03125 -5.859375 
Q 39.453125 -3.90625 47.84375 0.390625 
Q 56.25 4.6875 60.15625 8.59375 
Q 51.953125 20.3125 48.046875 36.328125 
L 44.140625 36.328125 
Q 43.75 21.875 38.859375 11.328125 
Q 33.984375 0.78125 29.296875 -4.6875 
Q 26.5625 -2.34375 21.484375 -0.78125 
Q 27.34375 5.078125 30.46875 11.125 
Q 33.59375 17.1875 35.34375 23.046875 
Q 37.109375 28.90625 37.296875 44.140625 
Q 37.5 59.375 36.71875 66.796875 
L 60.546875 66.796875 
Q 60.546875 75.78125 60.15625 81.25 
L 67.96875 81.25 
Q 67.578125 76.5625 67.578125 66.796875 
L 91.40625 66.796875 
Q 91.015625 64.453125 89.84375 59.953125 
Q 88.671875 55.46875 87.5 50 
Q 82.8125 50.78125 79.296875 51.171875 
z
M 55.078125 36.328125 
Q 59.375 21.875 65.625 14.453125 
Q 72.65625 23.046875 76.953125 36.328125 
z
M 30.46875 26.5625 
Q 26.5625 21.484375 19.71875 11.125 
Q 12.890625 0.78125 10.546875 -3.125 
Q 7.421875 0.78125 3.515625 4.296875 
Q 8.203125 8.203125 14.640625 17.1875 
Q 21.09375 26.171875 24.21875 32.8125 
L 30.46875 26.5625 
z
M 60.546875 42.96875 
L 60.546875 60.15625 
L 44.53125 60.15625 
L 44.53125 42.96875 
z
M 14.453125 76.953125 
Q 25 70.703125 31.25 66.40625 
Q 28.125 62.890625 26.171875 59.375 
Q 19.53125 64.84375 9.765625 70.3125 
Q 12.109375 73.4375 14.453125 76.953125 
z
M 9.375 55.078125 
Q 17.578125 50.78125 26.953125 44.53125 
Q 23.828125 41.796875 21.875 37.890625 
Q 14.453125 44.140625 5.46875 48.4375 
Q 7.03125 51.171875 9.375 55.078125 
z
" id="SimHei-27874"/>
       <path d="M 27.34375 43.75 
L 27.34375 69.53125 
Q 27.34375 73.046875 26.953125 79.6875 
L 35.546875 79.6875 
Q 35.15625 72.265625 35.15625 69.921875 
L 35.15625 43.75 
L 82.421875 43.75 
Q 87.5 43.75 93.359375 44.140625 
L 93.359375 36.328125 
Q 85.9375 36.71875 79.6875 36.71875 
L 57.03125 36.71875 
Q 59.765625 28.90625 65.421875 21.484375 
Q 71.09375 14.0625 78.90625 9.171875 
Q 86.71875 4.296875 92.96875 2.34375 
Q 87.890625 -0.78125 85.15625 -5.46875 
Q 76.953125 -1.171875 69.921875 4.6875 
Q 62.890625 10.546875 57.421875 18.9375 
Q 51.953125 27.34375 49.21875 36.71875 
L 35.15625 36.71875 
L 35.15625 5.859375 
Q 46.484375 12.890625 50.390625 16.40625 
Q 53.125 12.109375 55.859375 8.59375 
Q 48.4375 5.078125 41.015625 -0.1875 
Q 33.59375 -5.46875 30.078125 -8.984375 
Q 26.953125 -4.6875 24.21875 -1.5625 
Q 27.34375 1.5625 27.34375 6.640625 
L 27.34375 36.71875 
L 18.359375 36.71875 
Q 12.890625 36.71875 5.859375 36.328125 
L 5.859375 44.140625 
Q 12.890625 43.75 17.578125 43.75 
z
M 76.5625 73.4375 
Q 72.265625 69.921875 63.859375 61.515625 
Q 55.46875 53.125 47.265625 45.3125 
Q 43.75 50 41.40625 51.5625 
Q 48.046875 56.25 56.25 64.84375 
Q 64.453125 73.4375 68.75 79.6875 
Q 71.875 76.953125 76.5625 73.4375 
z
" id="SimHei-38271"/>
       <path d="M 36.71875 67.4375 
L 48.828125 0 
L 39.3125 0 
L 31.84375 40.4375 
L 5.125 0 
L -4.390625 0 
L 29.734375 52.4375 
L 28.03125 62.109375 
Q 26.953125 68.265625 21.734375 68.265625 
L 17.046875 68.265625 
L 18.5 75.984375 
L 24.21875 75.875 
Q 35.203125 75.734375 36.71875 67.4375 
z
" id="DejaVuSans-Oblique-955"/>
       <path d="M 31 75.875 
Q 24.46875 64.65625 21.28125 53.65625 
Q 18.109375 42.671875 18.109375 31.390625 
Q 18.109375 20.125 21.3125 9.0625 
Q 24.515625 -2 31 -13.1875 
L 23.1875 -13.1875 
Q 15.875 -1.703125 12.234375 9.375 
Q 8.59375 20.453125 8.59375 31.390625 
Q 8.59375 42.28125 12.203125 53.3125 
Q 15.828125 64.359375 23.1875 75.875 
z
" id="DejaVuSans-40"/>
       <path d="M 55.71875 33.015625 
L 49.3125 0 
L 40.28125 0 
L 46.6875 32.671875 
Q 47.125 34.96875 47.359375 36.71875 
Q 47.609375 38.484375 47.609375 39.5 
Q 47.609375 43.609375 45.015625 45.890625 
Q 42.4375 48.1875 37.796875 48.1875 
Q 30.5625 48.1875 25.34375 43.375 
Q 20.125 38.578125 18.5 30.328125 
L 12.5 0 
L 3.515625 0 
L 14.109375 54.6875 
L 23.09375 54.6875 
L 21.296875 46.09375 
Q 25.046875 50.828125 30.3125 53.40625 
Q 35.59375 56 41.40625 56 
Q 48.640625 56 52.609375 52.09375 
Q 56.59375 48.1875 56.59375 41.109375 
Q 56.59375 39.359375 56.375 37.359375 
Q 56.15625 35.359375 55.71875 33.015625 
z
" id="DejaVuSans-Oblique-110"/>
       <path d="M 89.796875 33.015625 
L 83.40625 0 
L 74.421875 0 
L 80.71875 32.71875 
Q 81.109375 34.8125 81.296875 36.328125 
Q 81.5 37.84375 81.5 38.921875 
Q 81.5 43.3125 79.046875 45.75 
Q 76.609375 48.1875 72.21875 48.1875 
Q 65.671875 48.1875 60.546875 43.28125 
Q 55.421875 38.375 53.90625 30.515625 
L 47.90625 0 
L 38.921875 0 
L 45.3125 32.71875 
Q 45.703125 34.515625 45.890625 36.046875 
Q 46.09375 37.59375 46.09375 38.8125 
Q 46.09375 43.265625 43.65625 45.71875 
Q 41.21875 48.1875 36.921875 48.1875 
Q 30.28125 48.1875 25.140625 43.28125 
Q 20.015625 38.375 18.5 30.515625 
L 12.5 0 
L 3.515625 0 
L 14.203125 54.6875 
L 23.1875 54.6875 
L 21.484375 46.1875 
Q 25.140625 50.984375 30.046875 53.484375 
Q 34.96875 56 40.578125 56 
Q 46.53125 56 50.359375 52.875 
Q 54.203125 49.75 54.984375 44.1875 
Q 59.078125 49.953125 64.46875 52.96875 
Q 69.875 56 75.875 56 
Q 82.90625 56 86.734375 51.953125 
Q 90.578125 47.90625 90.578125 40.484375 
Q 90.578125 38.875 90.375 36.9375 
Q 90.1875 35.015625 89.796875 33.015625 
z
" id="DejaVuSans-Oblique-109"/>
       <path d="M 8.015625 75.875 
L 15.828125 75.875 
Q 23.140625 64.359375 26.78125 53.3125 
Q 30.421875 42.28125 30.421875 31.390625 
Q 30.421875 20.453125 26.78125 9.375 
Q 23.140625 -1.703125 15.828125 -13.1875 
L 8.015625 -13.1875 
Q 14.5 -2 17.703125 9.0625 
Q 20.90625 20.125 20.90625 31.390625 
Q 20.90625 42.671875 17.703125 53.65625 
Q 14.5 64.65625 8.015625 75.875 
z
" id="DejaVuSans-41"/>
      </defs>
      <use transform="translate(0 0.75)" xlink:href="#SimHei-20809"/>
      <use transform="translate(100 0.75)" xlink:href="#SimHei-27874"/>
      <use transform="translate(200 0.75)" xlink:href="#SimHei-38271"/>
      <use transform="translate(300 0.75)" xlink:href="#DejaVuSans-Oblique-955"/>
      <use transform="translate(359.179688 0.75)" xlink:href="#DejaVuSans-40"/>
      <use transform="translate(398.193359 0.75)" xlink:href="#DejaVuSans-Oblique-110"/>
      <use transform="translate(461.572266 0.75)" xlink:href="#DejaVuSans-Oblique-109"/>
      <use transform="translate(558.984375 0.75)" xlink:href="#DejaVuSans-41"/>
     </g>
    </g>
   </g>
   <g id="matplotlib.axis_2">
    <g id="ytick_1">
     <g id="line2d_8">
      <defs>
       <path d="M 0 0 
L -3.5 0 
" id="md735e6cd30" style="stroke:#000000;stroke-width:0.8;"/>
      </defs>
      <g>
       <use style="stroke:#000000;stroke-width:0.8;" x="47.9" xlink:href="#md735e6cd30" y="266.581797"/>
      </g>
     </g>
     <g id="text_9">
      <!-- 0.0 -->
      <g transform="translate(25.9 270.019297)scale(0.1 -0.1)">
       <defs>
        <path d="M 16.796875 1.953125 
L 7.8125 1.953125 
L 7.8125 10.546875 
L 16.796875 10.546875 
z
" id="SimHei-46"/>
       </defs>
       <use xlink:href="#SimHei-48"/>
       <use x="50" xlink:href="#SimHei-46"/>
       <use x="100" xlink:href="#SimHei-48"/>
      </g>
     </g>
    </g>
    <g id="ytick_2">
     <g id="line2d_9">
      <g>
       <use style="stroke:#000000;stroke-width:0.8;" x="47.9" xlink:href="#md735e6cd30" y="211.593794"/>
      </g>
     </g>
     <g id="text_10">
      <!-- 0.5 -->
      <g transform="translate(25.9 215.031294)scale(0.1 -0.1)">
       <use xlink:href="#SimHei-48"/>
       <use x="50" xlink:href="#SimHei-46"/>
       <use x="100" xlink:href="#SimHei-53"/>
      </g>
     </g>
    </g>
    <g id="ytick_3">
     <g id="line2d_10">
      <g>
       <use style="stroke:#000000;stroke-width:0.8;" x="47.9" xlink:href="#md735e6cd30" y="156.605791"/>
      </g>
     </g>
     <g id="text_11">
      <!-- 1.0 -->
      <g transform="translate(25.9 160.043291)scale(0.1 -0.1)">
       <defs>
        <path d="M 21.875 56.25 
Q 16.796875 51.171875 8.984375 46.484375 
L 8.984375 53.90625 
Q 18.75 60.546875 25 69.53125 
L 29.6875 69.53125 
L 29.6875 2.34375 
L 21.875 2.34375 
z
" id="SimHei-49"/>
       </defs>
       <use xlink:href="#SimHei-49"/>
       <use x="50" xlink:href="#SimHei-46"/>
       <use x="100" xlink:href="#SimHei-48"/>
      </g>
     </g>
    </g>
    <g id="ytick_4">
     <g id="line2d_11">
      <g>
       <use style="stroke:#000000;stroke-width:0.8;" x="47.9" xlink:href="#md735e6cd30" y="101.617787"/>
      </g>
     </g>
     <g id="text_12">
      <!-- 1.5 -->
      <g transform="translate(25.9 105.055287)scale(0.1 -0.1)">
       <use xlink:href="#SimHei-49"/>
       <use x="50" xlink:href="#SimHei-46"/>
       <use x="100" xlink:href="#SimHei-53"/>
      </g>
     </g>
    </g>
    <g id="ytick_5">
     <g id="line2d_12">
      <g>
       <use style="stroke:#000000;stroke-width:0.8;" x="47.9" xlink:href="#md735e6cd30" y="46.629784"/>
      </g>
     </g>
     <g id="text_13">
      <!-- 2.0 -->
      <g transform="translate(25.9 50.067284)scale(0.1 -0.1)">
       <use xlink:href="#SimHei-50"/>
       <use x="50" xlink:href="#SimHei-46"/>
       <use x="100" xlink:href="#SimHei-48"/>
      </g>
     </g>
    </g>
    <g id="text_14">
     <!-- 吸光度 $A=lg\ {\frac{I_0}{I}}$ -->
     <g transform="translate(18 179.7)rotate(-90)scale(0.1 -0.1)">
      <defs>
       <path d="M 84.375 76.5625 
Q 83.203125 72.65625 77.34375 52.34375 
L 89.84375 52.34375 
Q 86.71875 35.546875 83.78125 27.34375 
Q 80.859375 19.140625 76.5625 10.15625 
Q 85.15625 0.78125 96.484375 -2.34375 
Q 93.75 -4.296875 90.234375 -9.765625 
Q 81.25 -5.859375 71.875 4.6875 
Q 60.9375 -5.859375 51.5625 -10.15625 
Q 50.390625 -7.421875 45.3125 -4.6875 
Q 58.59375 1.171875 66.796875 10.15625 
Q 56.640625 25.390625 53.515625 39.453125 
Q 51.953125 21.875 45.890625 10.546875 
Q 39.84375 -0.78125 30.078125 -10.546875 
Q 28.125 -7.8125 23.4375 -5.859375 
Q 36.328125 3.515625 42.375 19.71875 
Q 48.4375 35.9375 47.65625 70.3125 
Q 44.921875 70.3125 40.625 69.921875 
L 40.625 76.953125 
Q 46.484375 76.5625 53.90625 76.5625 
z
M 35.9375 73.828125 
Q 35.546875 66.015625 35.546875 58.203125 
L 35.546875 24.609375 
Q 35.546875 17.1875 35.9375 12.109375 
L 28.515625 12.109375 
L 28.515625 16.796875 
L 16.015625 16.796875 
L 16.015625 3.125 
L 8.59375 3.125 
Q 8.984375 10.546875 8.984375 18.75 
L 8.984375 58.203125 
Q 8.984375 66.015625 8.59375 73.828125 
L 35.9375 73.828125 
z
M 54.6875 57.421875 
Q 61.328125 30.859375 71.484375 16.40625 
Q 78.125 28.90625 81.25 45.703125 
L 68.359375 45.703125 
Q 73.046875 62.109375 74.21875 69.921875 
L 54.6875 69.921875 
L 54.6875 57.421875 
z
M 28.515625 23.4375 
L 28.515625 67.578125 
L 16.015625 67.578125 
L 16.015625 23.4375 
z
" id="SimHei-21560"/>
       <path d="M 27.34375 26.171875 
Q 38.28125 25.78125 44.921875 25.78125 
L 81.25 25.78125 
Q 77.734375 19.53125 72.65625 13.28125 
Q 67.578125 7.03125 62.890625 3.125 
Q 67.96875 0.78125 77.34375 -0.78125 
Q 86.71875 -2.34375 95.3125 -2.34375 
Q 92.96875 -4.6875 91.015625 -10.15625 
Q 79.6875 -8.59375 71.09375 -6.4375 
Q 62.5 -4.296875 56.640625 -1.5625 
Q 48.4375 -5.078125 40.421875 -7.21875 
Q 32.421875 -9.375 23.828125 -10.546875 
Q 22.65625 -7.421875 19.140625 -3.90625 
Q 26.171875 -3.90625 35.15625 -1.953125 
Q 44.140625 0 50.78125 3.125 
Q 44.140625 8.59375 37.5 19.921875 
L 27.34375 19.53125 
z
M 46.484375 79.296875 
Q 50.78125 80.46875 54.296875 82.03125 
Q 56.640625 77.734375 58.984375 70.703125 
L 73.4375 70.703125 
Q 77.734375 70.703125 89.0625 71.09375 
L 89.0625 64.0625 
Q 78.125 64.453125 72.65625 64.453125 
L 21.484375 64.453125 
Q 21.484375 46.875 21.09375 36.125 
Q 20.703125 25.390625 18.9375 14.84375 
Q 17.1875 4.296875 11.328125 -8.203125 
Q 7.8125 -5.859375 3.90625 -4.6875 
Q 10.15625 6.25 11.90625 16.796875 
Q 13.671875 27.34375 13.859375 43.75 
Q 14.0625 60.15625 13.671875 70.703125 
L 50 70.703125 
Q 48.4375 75.78125 46.484375 79.296875 
z
M 38.671875 51.5625 
Q 38.671875 57.8125 38.28125 61.328125 
L 46.484375 61.328125 
Q 46.09375 58.203125 46.09375 51.5625 
L 67.1875 51.5625 
Q 67.1875 57.8125 66.796875 61.71875 
L 75 61.71875 
Q 74.609375 57.03125 74.609375 51.5625 
Q 83.203125 51.5625 89.453125 51.953125 
L 89.453125 45.3125 
Q 83.59375 45.703125 74.609375 45.703125 
Q 74.609375 35.15625 75 30.46875 
L 38.28125 30.46875 
Q 38.671875 36.71875 38.671875 45.703125 
Q 33.984375 45.703125 25 45.3125 
L 25 51.953125 
Q 33.984375 51.5625 38.671875 51.5625 
z
M 67.1875 36.71875 
L 67.1875 45.703125 
L 46.09375 45.703125 
L 46.09375 36.71875 
z
M 44.921875 19.921875 
Q 50 12.109375 57.03125 6.640625 
Q 62.890625 10.9375 69.140625 19.921875 
L 45.3125 19.921875 
z
" id="SimHei-24230"/>
       <path id="SimHei-32"/>
       <path d="M 36.8125 72.90625 
L 48 72.90625 
L 61.53125 0 
L 51.21875 0 
L 48.1875 18.703125 
L 15.375 18.703125 
L 5.078125 0 
L -5.328125 0 
z
M 40.375 63.1875 
L 19.921875 26.90625 
L 46.6875 26.90625 
z
" id="DejaVuSans-Oblique-65"/>
       <path d="M 10.59375 45.40625 
L 73.1875 45.40625 
L 73.1875 37.203125 
L 10.59375 37.203125 
z
M 10.59375 25.484375 
L 73.1875 25.484375 
L 73.1875 17.1875 
L 10.59375 17.1875 
z
" id="DejaVuSans-61"/>
       <path d="M 18.3125 75.984375 
L 27.296875 75.984375 
L 12.5 0 
L 3.515625 0 
z
" id="DejaVuSans-Oblique-108"/>
       <path d="M 59.625 54.6875 
L 50.296875 6.78125 
Q 47.609375 -7.125 40.015625 -13.953125 
Q 32.421875 -20.796875 19.578125 -20.796875 
Q 14.84375 -20.796875 10.78125 -20.09375 
Q 6.734375 -19.390625 3.21875 -17.921875 
L 4.890625 -9.1875 
Q 8.203125 -11.328125 11.90625 -12.34375 
Q 15.625 -13.375 19.828125 -13.375 
Q 28.375 -13.375 33.859375 -8.703125 
Q 39.359375 -4.046875 41.109375 4.6875 
L 41.890625 8.796875 
Q 38.140625 4.5 33.15625 2.25 
Q 28.171875 0 22.40625 0 
Q 14.109375 0 9.34375 5.484375 
Q 4.59375 10.984375 4.59375 20.609375 
Q 4.59375 28.171875 7.46875 35.421875 
Q 10.359375 42.671875 15.578125 48.296875 
Q 19.046875 52 23.65625 54 
Q 28.265625 56 33.296875 56 
Q 38.8125 56 42.90625 53.4375 
Q 47.015625 50.875 49.03125 46.1875 
L 50.59375 54.6875 
z
M 46.09375 34.625 
Q 46.09375 41.265625 42.96875 44.875 
Q 39.84375 48.484375 34.078125 48.484375 
Q 30.515625 48.484375 27.296875 47.0625 
Q 24.078125 45.65625 21.78125 43.109375 
Q 18.0625 38.921875 15.984375 33.234375 
Q 13.921875 27.546875 13.921875 21.484375 
Q 13.921875 14.75 17.0625 11.125 
Q 20.21875 7.515625 26.125 7.515625 
Q 34.671875 7.515625 40.375 15.25 
Q 46.09375 23 46.09375 34.625 
z
" id="DejaVuSans-Oblique-103"/>
       <path d="M 16.890625 72.90625 
L 26.8125 72.90625 
L 12.59375 0 
L 2.6875 0 
z
" id="DejaVuSans-Oblique-73"/>
       <path d="M 31.78125 66.40625 
Q 24.171875 66.40625 20.328125 58.90625 
Q 16.5 51.421875 16.5 36.375 
Q 16.5 21.390625 20.328125 13.890625 
Q 24.171875 6.390625 31.78125 6.390625 
Q 39.453125 6.390625 43.28125 13.890625 
Q 47.125 21.390625 47.125 36.375 
Q 47.125 51.421875 43.28125 58.90625 
Q 39.453125 66.40625 31.78125 66.40625 
z
M 31.78125 74.21875 
Q 44.046875 74.21875 50.515625 64.515625 
Q 56.984375 54.828125 56.984375 36.375 
Q 56.984375 17.96875 50.515625 8.265625 
Q 44.046875 -1.421875 31.78125 -1.421875 
Q 19.53125 -1.421875 13.0625 8.265625 
Q 6.59375 17.96875 6.59375 36.375 
Q 6.59375 54.828125 13.0625 64.515625 
Q 19.53125 74.21875 31.78125 74.21875 
z
" id="DejaVuSans-48"/>
      </defs>
      <use transform="translate(0 0.987656)" xlink:href="#SimHei-21560"/>
      <use transform="translate(100 0.987656)" xlink:href="#SimHei-20809"/>
      <use transform="translate(200 0.987656)" xlink:href="#SimHei-24230"/>
      <use transform="translate(300 0.987656)" xlink:href="#SimHei-32"/>
      <use transform="translate(350 0.987656)" xlink:href="#DejaVuSans-Oblique-65"/>
      <use transform="translate(437.890625 0.987656)" xlink:href="#DejaVuSans-61"/>
      <use transform="translate(541.162109 0.987656)" xlink:href="#DejaVuSans-Oblique-108"/>
      <use transform="translate(568.945312 0.987656)" xlink:href="#DejaVuSans-Oblique-103"/>
      <use transform="translate(664.892253 56.965625)scale(0.7)" xlink:href="#DejaVuSans-Oblique-73"/>
      <use transform="translate(685.536785 45.48125)scale(0.49)" xlink:href="#DejaVuSans-48"/>
      <use transform="translate(681.892253 -37.499844)scale(0.7)" xlink:href="#DejaVuSans-Oblique-73"/>
      <path d="M 664.892253 19.784531 
L 664.892253 26.034531 
L 718.62614 26.034531 
L 718.62614 19.784531 
L 664.892253 19.784531 
z
"/>
     </g>
    </g>
   </g>
   <g id="line2d_13">
    <defs>
     <path d="M 0 1.5 
C 0.397805 1.5 0.77937 1.341951 1.06066 1.06066 
C 1.341951 0.77937 1.5 0.397805 1.5 0 
C 1.5 -0.397805 1.341951 -0.77937 1.06066 -1.06066 
C 0.77937 -1.341951 0.397805 -1.5 0 -1.5 
C -0.397805 -1.5 -0.77937 -1.341951 -1.06066 -1.06066 
C -1.341951 -0.77937 -1.5 -0.397805 -1.5 0 
C -1.5 0.397805 -1.341951 0.77937 -1.06066 1.06066 
C -0.77937 1.341951 -0.397805 1.5 0 1.5 
z
" id="m235325ff1d" style="stroke:#ff0000;"/>
    </defs>
    <g clip-path="url(#p2d914a0cd9)">
     <use style="fill:#ff0000;stroke:#ff0000;" x="372.131818" xlink:href="#m235325ff1d" y="19.554545"/>
     <use style="fill:#ff0000;stroke:#ff0000;" x="242.354545" xlink:href="#m235325ff1d" y="258.706213"/>
     <use style="fill:#ff0000;stroke:#ff0000;" x="203.040909" xlink:href="#m235325ff1d" y="246.345257"/>
     <use style="fill:#ff0000;stroke:#ff0000;" x="161.613636" xlink:href="#m235325ff1d" y="233.562715"/>
     <use style="fill:#ff0000;stroke:#ff0000;" x="143.859091" xlink:href="#m235325ff1d" y="230.605966"/>
     <use style="fill:#ff0000;stroke:#ff0000;" x="123.145455" xlink:href="#m235325ff1d" y="199.017146"/>
     <use style="fill:#ff0000;stroke:#ff0000;" x="103.7" xlink:href="#m235325ff1d" y="209.866316"/>
     <use style="fill:#ff0000;stroke:#ff0000;" x="94.4" xlink:href="#m235325ff1d" y="208.391954"/>
    </g>
   </g>
   <g id="line2d_14">
    <path clip-path="url(#p2d914a0cd9)" d="M 580.536364 266.57552 
L 579.268182 266.609461 
L 576.309091 266.571813 
L 568.277273 266.603734 
L 561.936364 266.589539 
L 531.5 266.594365 
L 485 266.602158 
L 475.7 266.59127 
L 473.586364 266.619775 
L 459.636364 266.608905 
L 453.718182 266.61201 
L 451.604545 266.61678 
L 446.954545 266.586415 
L 425.818182 266.438878 
L 420.745455 266.254115 
L 416.518182 265.906608 
L 413.136364 265.420197 
L 411.022727 264.929103 
L 409.331818 264.366228 
L 407.218182 263.39443 
L 405.95 262.61439 
L 404.681818 261.599425 
L 403.413636 260.325777 
L 402.145455 258.728156 
L 400.877273 256.740349 
L 399.609091 254.209708 
L 398.340909 251.038091 
L 397.072727 247.141483 
L 395.804545 242.396622 
L 394.536364 236.568706 
L 393.268182 229.42599 
L 392 220.820595 
L 390.731818 210.766828 
L 389.463636 199.219782 
L 387.772727 181.530033 
L 386.081818 161.184865 
L 383.968182 132.517613 
L 379.318182 67.582586 
L 378.05 52.509851 
L 376.781818 39.787118 
L 375.936364 32.861642 
L 375.090909 27.345145 
L 374.245455 23.309081 
L 373.4 20.740415 
L 372.977273 19.998766 
L 372.554545 19.598305 
L 372.131818 19.554545 
L 371.709091 19.85203 
L 371.286364 20.480392 
L 370.863636 21.437288 
L 370.018182 24.267055 
L 369.172727 28.224678 
L 368.327273 33.186409 
L 367.059091 42.242873 
L 365.368182 56.641537 
L 362.831818 80.801976 
L 359.872727 108.370685 
L 358.181818 122.362368 
L 356.490909 134.504516 
L 355.222727 142.204101 
L 353.954545 148.700798 
L 352.686364 154.043432 
L 351.418182 158.361713 
L 350.15 161.776838 
L 348.881818 164.465179 
L 347.613636 166.604368 
L 345.922727 168.988089 
L 343.386364 172.408389 
L 341.695455 175.13452 
L 340.427273 177.574468 
L 339.159091 180.423078 
L 337.468182 184.887338 
L 335.777273 190.028768 
L 333.663636 197.262145 
L 326.9 221.356337 
L 325.209091 226.534002 
L 323.518182 231.018512 
L 322.25 233.893676 
L 320.559091 237.210512 
L 318.445455 240.686184 
L 316.754545 243.020369 
L 314.640909 245.479335 
L 312.527273 247.580154 
L 309.145455 250.629665 
L 304.072727 254.798441 
L 301.113636 256.961782 
L 297.731818 259.110988 
L 296.040909 260.008804 
L 292.236364 261.590688 
L 289.7 262.382466 
L 286.740909 262.974389 
L 283.359091 263.423936 
L 280.822727 263.527253 
L 277.440909 263.423473 
L 274.904545 263.089932 
L 269.831818 261.956696 
L 262.222727 260.15834 
L 259.686364 259.844816 
L 256.304545 259.597592 
L 241.086364 258.729428 
L 237.704545 259.007255 
L 235.168182 259.368625 
L 228.404545 260.598492 
L 224.6 260.867753 
L 222.486364 260.798521 
L 220.372727 260.48624 
L 218.681818 259.948706 
L 216.990909 259.1334 
L 215.722727 258.298899 
L 214.454545 257.264742 
L 212.763636 255.572913 
L 210.65 253.00379 
L 207.268182 248.822996 
L 206 247.611118 
L 205.154545 247.001916 
L 204.309091 246.573745 
L 203.463636 246.364279 
L 202.618182 246.403595 
L 201.772727 246.661807 
L 200.927273 247.174349 
L 199.659091 248.30729 
L 195.431818 252.586819 
L 193.740909 253.766979 
L 192.05 254.738669 
L 186.554545 257.70172 
L 184.863636 258.530184 
L 183.595455 258.935957 
L 182.327273 259.061479 
L 181.481818 258.98166 
L 180.213636 258.580141 
L 178.945455 257.824209 
L 177.677273 256.713452 
L 176.409091 255.233761 
L 175.140909 253.370406 
L 173.45 250.342234 
L 171.759091 246.845328 
L 167.954545 238.720192 
L 166.686364 236.62976 
L 165.840909 235.546531 
L 164.995455 234.731693 
L 164.15 234.163851 
L 163.304545 233.812458 
L 162.036364 233.579549 
L 160.768182 233.597404 
L 154.004545 234.198687 
L 152.313636 233.952569 
L 150.622727 233.376236 
L 148.931818 232.536356 
L 146.395455 231.209259 
L 145.127273 230.763885 
L 143.859091 230.605966 
L 142.590909 230.778805 
L 141.322727 231.217919 
L 137.940909 232.750933 
L 137.095455 232.896581 
L 136.25 232.803251 
L 135.404545 232.39795 
L 134.559091 231.575765 
L 133.713636 230.235011 
L 132.868182 228.300598 
L 132.022727 225.75297 
L 130.754545 220.86719 
L 126.95 204.738569 
L 126.104545 202.327404 
L 125.259091 200.624243 
L 124.413636 199.580804 
L 123.568182 199.088336 
L 122.722727 199.0258 
L 121.877273 199.271837 
L 121.031818 199.748778 
L 120.186364 200.479396 
L 119.340909 201.508902 
L 118.495455 202.902981 
L 117.65 204.649116 
L 116.381818 207.874489 
L 113.845455 214.679427 
L 113 216.525423 
L 112.154545 217.932002 
L 111.309091 218.781265 
L 110.886364 218.960393 
L 110.463636 218.966165 
L 110.040909 218.775711 
L 109.618182 218.426217 
L 108.772727 217.232261 
L 107.504545 214.682958 
L 106.236364 212.119556 
L 105.390909 210.877739 
L 104.545455 210.133244 
L 103.7 209.866316 
L 102.854545 209.942716 
L 100.318182 210.363438 
L 99.05 210.149476 
L 97.359091 209.384313 
L 95.668182 208.597091 
L 94.822727 208.402337 
L 93.977273 208.456954 
L 93.131818 208.712831 
L 91.863636 209.440868 
L 90.172727 210.538179 
L 88.904545 211.081869 
L 87.636364 211.223472 
L 86.368182 210.862326 
L 85.522727 210.24766 
L 84.677273 209.294826 
L 84.254545 208.689979 
L 82.140909 203.758945 
L 80.872727 199.851139 
L 77.913636 189.475185 
L 74.109091 176.591109 
L 73.263636 174.130773 
L 73.263636 174.130773 
" style="fill:none;stroke:#ff0000;stroke-linecap:square;stroke-width:0.8;"/>
   </g>
   <g id="line2d_15">
    <defs>
     <path d="M 0 1.5 
C 0.397805 1.5 0.77937 1.341951 1.06066 1.06066 
C 1.341951 0.77937 1.5 0.397805 1.5 0 
C 1.5 -0.397805 1.341951 -0.77937 1.06066 -1.06066 
C 0.77937 -1.341951 0.397805 -1.5 0 -1.5 
C -0.397805 -1.5 -0.77937 -1.341951 -1.06066 -1.06066 
C -1.341951 -0.77937 -1.5 -0.397805 -1.5 0 
C -1.5 0.397805 -1.341951 0.77937 -1.06066 1.06066 
C -0.77937 1.341951 -0.397805 1.5 0 1.5 
z
" id="m22215f6e09" style="stroke:#bfbf00;"/>
    </defs>
    <g clip-path="url(#p2d914a0cd9)">
     <use style="fill:#bfbf00;stroke:#bfbf00;" x="372.131818" xlink:href="#m22215f6e09" y="150.293236"/>
     <use style="fill:#bfbf00;stroke:#bfbf00;" x="242.354545" xlink:href="#m22215f6e09" y="261.435103"/>
     <use style="fill:#bfbf00;stroke:#bfbf00;" x="203.040909" xlink:href="#m22215f6e09" y="255.734389"/>
     <use style="fill:#bfbf00;stroke:#bfbf00;" x="161.613636" xlink:href="#m22215f6e09" y="250.21311"/>
     <use style="fill:#bfbf00;stroke:#bfbf00;" x="143.859091" xlink:href="#m22215f6e09" y="248.874145"/>
     <use style="fill:#bfbf00;stroke:#bfbf00;" x="123.145455" xlink:href="#m22215f6e09" y="234.685126"/>
     <use style="fill:#bfbf00;stroke:#bfbf00;" x="103.7" xlink:href="#m22215f6e09" y="239.808346"/>
     <use style="fill:#bfbf00;stroke:#bfbf00;" x="94.4" xlink:href="#m22215f6e09" y="239.120309"/>
    </g>
   </g>
   <g id="line2d_16">
    <path clip-path="url(#p2d914a0cd9)" d="M 580.536364 264.713782 
L 569.122727 264.709881 
L 558.131818 264.709021 
L 547.986364 264.578159 
L 545.45 264.374836 
L 542.490909 264.398331 
L 534.459091 264.401333 
L 416.095455 264.338221 
L 411.868182 264.031565 
L 408.909091 263.623257 
L 406.795455 263.160498 
L 405.104545 262.624049 
L 403.413636 261.888899 
L 401.722727 260.866411 
L 400.454545 259.86355 
L 399.186364 258.611141 
L 397.918182 257.028336 
L 396.65 255.096893 
L 395.381818 252.731659 
L 394.113636 249.811769 
L 392.845455 246.296474 
L 391.577273 242.152702 
L 390.309091 237.323106 
L 389.040909 231.727785 
L 387.35 223.067729 
L 385.659091 213.207576 
L 383.122727 196.883468 
L 379.740909 174.862391 
L 378.05 165.380166 
L 376.781818 159.462885 
L 375.936364 156.255056 
L 375.090909 153.716399 
L 374.245455 151.868565 
L 373.4 150.730124 
L 372.977273 150.427187 
L 372.554545 150.288106 
L 372.131818 150.293236 
L 371.709091 150.465508 
L 370.863636 151.261273 
L 370.018182 152.602836 
L 369.172727 154.459118 
L 368.327273 156.792248 
L 367.059091 161.065406 
L 365.368182 167.819646 
L 362.409091 181.050014 
L 359.45 193.871217 
L 357.759091 200.327595 
L 356.068182 205.897768 
L 354.8 209.449179 
L 353.531818 212.477202 
L 352.263636 214.99835 
L 350.995455 217.060013 
L 349.727273 218.709515 
L 348.459091 219.977477 
L 346.768182 221.279883 
L 341.272727 225.085408 
L 339.581818 226.518207 
L 337.890909 228.267864 
L 336.2 230.379352 
L 334.086364 233.396395 
L 331.127273 238.124876 
L 328.168182 242.789341 
L 325.631818 246.370255 
L 323.940909 248.439785 
L 322.25 250.209209 
L 320.559091 251.729541 
L 318.445455 253.303795 
L 316.331818 254.639032 
L 313.795455 255.91428 
L 309.568182 257.680734 
L 301.536364 260.568779 
L 296.886364 261.887235 
L 293.504545 262.577899 
L 288.854545 263.206753 
L 285.05 263.504434 
L 279.977273 263.682613 
L 276.172727 263.572026 
L 271.1 263.141153 
L 258.418182 261.831491 
L 238.972727 261.440481 
L 235.590909 261.647097 
L 227.136364 262.283387 
L 223.754545 262.353325 
L 221.640909 262.318876 
L 219.104545 262.01708 
L 216.568182 261.476461 
L 214.877273 260.930878 
L 213.186364 260.173785 
L 209.804545 258.314657 
L 206.422727 256.528088 
L 204.731818 255.95041 
L 203.463636 255.737624 
L 202.195455 255.828924 
L 200.927273 256.210026 
L 199.236364 257.049972 
L 196.7 258.39182 
L 194.586364 259.183972 
L 192.05 259.858342 
L 187.4 261.005116 
L 184.863636 261.577836 
L 182.75 261.825291 
L 181.481818 261.816372 
L 180.213636 261.645633 
L 178.945455 261.302482 
L 177.677273 260.797453 
L 175.986364 259.863747 
L 174.718182 258.965983 
L 172.604545 257.128283 
L 167.109091 251.917901 
L 165.840909 251.126881 
L 164.572727 250.611231 
L 163.304545 250.332604 
L 161.613636 250.21311 
L 159.077273 250.306932 
L 154.427273 250.4912 
L 151.890909 250.317219 
L 149.777273 249.924765 
L 145.55 248.972073 
L 143.859091 248.874145 
L 142.168182 249.023661 
L 139.631818 249.549993 
L 137.518182 249.911896 
L 136.25 249.903681 
L 135.404545 249.715748 
L 134.559091 249.338977 
L 133.713636 248.723471 
L 132.868182 247.859774 
L 132.022727 246.727991 
L 130.754545 244.581756 
L 126.95 237.293678 
L 126.104545 236.188539 
L 125.259091 235.408996 
L 124.413636 234.939403 
L 123.568182 234.718387 
L 122.3 234.728042 
L 121.031818 235.0222 
L 119.763636 235.5702 
L 118.495455 236.443817 
L 117.227273 237.687835 
L 115.113636 240.304507 
L 113.422727 242.258896 
L 112.577273 243.021154 
L 111.731818 243.545736 
L 110.886364 243.783324 
L 110.040909 243.700604 
L 109.195455 243.310697 
L 108.35 242.667991 
L 105.813636 240.442744 
L 104.968182 240.011568 
L 104.122727 239.821004 
L 102.854545 239.871878 
L 100.318182 240.138514 
L 99.05 240.05431 
L 97.359091 239.674665 
L 95.245455 239.187986 
L 93.977273 239.130129 
L 92.709091 239.273 
L 88.904545 240.051107 
L 87.636364 240.064469 
L 86.368182 239.857449 
L 85.1 239.342114 
L 84.254545 238.786891 
L 81.295455 235.354585 
L 79.181818 232.15877 
L 75.377273 226.371692 
L 73.686364 223.79844 
L 73.263636 222.966151 
L 73.263636 222.966151 
" style="fill:none;stroke:#bfbf00;stroke-linecap:square;stroke-width:0.8;"/>
   </g>
   <g id="line2d_17">
    <defs>
     <path d="M 0 1.5 
C 0.397805 1.5 0.77937 1.341951 1.06066 1.06066 
C 1.341951 0.77937 1.5 0.397805 1.5 0 
C 1.5 -0.397805 1.341951 -0.77937 1.06066 -1.06066 
C 0.77937 -1.341951 0.397805 -1.5 0 -1.5 
C -0.397805 -1.5 -0.77937 -1.341951 -1.06066 -1.06066 
C -1.341951 -0.77937 -1.5 -0.397805 -1.5 0 
C -1.5 0.397805 -1.341951 0.77937 -1.06066 1.06066 
C -0.77937 1.341951 -0.397805 1.5 0 1.5 
z
" id="mef28d5b108" style="stroke:#00bfbf;"/>
    </defs>
    <g clip-path="url(#p2d914a0cd9)">
     <use style="fill:#00bfbf;stroke:#00bfbf;" x="372.131818" xlink:href="#mef28d5b108" y="32.721141"/>
     <use style="fill:#00bfbf;stroke:#00bfbf;" x="242.354545" xlink:href="#mef28d5b108" y="259.017134"/>
     <use style="fill:#00bfbf;stroke:#00bfbf;" x="203.040909" xlink:href="#mef28d5b108" y="247.238507"/>
     <use style="fill:#00bfbf;stroke:#00bfbf;" x="161.613636" xlink:href="#mef28d5b108" y="235.065002"/>
     <use style="fill:#00bfbf;stroke:#00bfbf;" x="143.859091" xlink:href="#mef28d5b108" y="232.181382"/>
     <use style="fill:#00bfbf;stroke:#00bfbf;" x="123.145455" xlink:href="#mef28d5b108" y="202.180677"/>
     <use style="fill:#00bfbf;stroke:#00bfbf;" x="103.7" xlink:href="#mef28d5b108" y="212.237994"/>
     <use style="fill:#00bfbf;stroke:#00bfbf;" x="94.4" xlink:href="#mef28d5b108" y="210.473754"/>
    </g>
   </g>
   <g id="line2d_18">
    <path clip-path="url(#p2d914a0cd9)" d="M 580.536364 266.471225 
L 579.268182 266.481255 
L 576.309091 266.429616 
L 569.122727 266.430316 
L 564.472727 266.459418 
L 555.172727 266.448594 
L 542.490909 266.436584 
L 526.427273 266.468279 
L 520.509091 266.480495 
L 515.436364 266.470275 
L 503.177273 266.474853 
L 497.259091 266.492565 
L 487.536364 266.474613 
L 480.35 266.504312 
L 475.7 266.462627 
L 473.586364 266.476409 
L 442.304545 266.475929 
L 436.386364 266.478058 
L 424.55 266.282958 
L 419.477273 266.067543 
L 415.672727 265.729704 
L 412.290909 265.207042 
L 410.177273 264.667061 
L 408.063636 263.852811 
L 406.372727 262.95981 
L 404.681818 261.751365 
L 403.413636 260.569787 
L 402.568182 259.613926 
L 401.3 257.835103 
L 400.031818 255.610591 
L 398.763636 252.821231 
L 397.495455 249.395041 
L 396.227273 245.2075 
L 394.959091 240.060487 
L 393.690909 233.694818 
L 392.422727 226.003883 
L 391.154545 216.941235 
L 389.886364 206.473331 
L 388.195455 190.351746 
L 386.504545 171.689388 
L 384.390909 145.179212 
L 378.895455 73.200544 
L 377.627273 59.64327 
L 376.359091 48.445436 
L 375.513636 42.550672 
L 374.668182 38.014646 
L 373.822727 34.868739 
L 373.4 33.822099 
L 372.977273 33.122468 
L 372.554545 32.748821 
L 372.131818 32.721141 
L 371.709091 33.01867 
L 371.286364 33.632594 
L 370.863636 34.560385 
L 370.018182 37.279737 
L 369.172727 41.057326 
L 368.327273 45.790046 
L 367.059091 54.389873 
L 365.368182 68.01797 
L 362.409091 94.691178 
L 359.872727 116.934266 
L 358.181818 130.234073 
L 356.490909 141.780121 
L 355.222727 149.063089 
L 353.954545 155.204517 
L 352.686364 160.286506 
L 351.418182 164.405335 
L 350.15 167.649402 
L 348.881818 170.18298 
L 347.613636 172.208646 
L 345.922727 174.451535 
L 343.386364 177.679171 
L 341.695455 180.243942 
L 340.427273 182.532566 
L 339.159091 185.209446 
L 337.468182 189.401182 
L 335.777273 194.212214 
L 333.663636 201.037874 
L 326.477273 225.024626 
L 324.786364 229.7149 
L 323.095455 233.719199 
L 320.981818 237.936742 
L 319.290909 240.741395 
L 317.177273 243.585074 
L 315.486364 245.572125 
L 312.95 248.11327 
L 309.145455 251.318457 
L 303.65 255.598035 
L 300.690909 257.580404 
L 297.309091 259.579772 
L 294.35 260.949201 
L 291.390909 261.931312 
L 288.854545 262.628886 
L 286.740909 263.042213 
L 282.936364 263.462221 
L 279.977273 263.532878 
L 276.172727 263.315603 
L 273.213636 262.818174 
L 269.831818 262.077031 
L 264.336364 260.755624 
L 259.263636 260.03186 
L 243.622727 259.050037 
L 239.818182 259.065311 
L 236.859091 259.370069 
L 232.209091 260.121272 
L 228.404545 260.733413 
L 225.022727 261.003455 
L 222.909091 260.989065 
L 221.218182 260.772314 
L 219.104545 260.24958 
L 217.413636 259.574777 
L 216.145455 258.872159 
L 214.877273 257.963305 
L 213.186364 256.408641 
L 211.495455 254.555793 
L 206.845455 249.189466 
L 205.577273 248.140657 
L 204.309091 247.464887 
L 203.463636 247.261788 
L 202.618182 247.291341 
L 201.772727 247.539894 
L 200.927273 248.038747 
L 199.659091 249.111522 
L 195.431818 253.150303 
L 193.740909 254.273101 
L 191.627273 255.386282 
L 188.245455 257.092747 
L 185.286364 258.591098 
L 184.018182 259.020798 
L 182.75 259.232483 
L 181.481818 259.181062 
L 180.213636 258.811151 
L 178.945455 258.095463 
L 177.677273 257.044372 
L 176.409091 255.6418 
L 175.140909 253.886868 
L 173.45 251.030818 
L 171.759091 247.714873 
L 167.954545 240.010804 
L 166.686364 238.019186 
L 165.840909 236.983748 
L 164.995455 236.195376 
L 164.15 235.646309 
L 163.304545 235.2996 
L 162.036364 235.07571 
L 160.345455 235.132929 
L 155.272727 235.625849 
L 153.159091 235.516013 
L 151.890909 235.273853 
L 150.622727 234.853533 
L 148.931818 234.054506 
L 145.972727 232.594503 
L 144.704545 232.248396 
L 143.859091 232.181382 
L 142.590909 232.340193 
L 141.322727 232.747708 
L 137.518182 234.272824 
L 136.672727 234.310096 
L 135.827273 234.091961 
L 134.981818 233.52998 
L 134.136364 232.530336 
L 133.290909 230.99619 
L 132.445455 228.87632 
L 131.6 226.172703 
L 130.331818 221.218312 
L 127.372727 208.991053 
L 126.527273 206.396392 
L 125.681818 204.470998 
L 124.836364 203.179523 
L 123.990909 202.457002 
L 123.145455 202.180677 
L 122.3 202.242331 
L 121.454545 202.579378 
L 120.609091 203.131782 
L 119.763636 203.961087 
L 118.918182 205.122806 
L 118.072727 206.622423 
L 116.804545 209.472625 
L 113.422727 217.855131 
L 112.577273 219.415169 
L 111.731818 220.520338 
L 111.309091 220.845395 
L 110.886364 221.020609 
L 110.463636 221.028643 
L 110.040909 220.840172 
L 109.618182 220.495832 
L 108.772727 219.347044 
L 107.504545 216.895313 
L 106.236364 214.433374 
L 105.390909 213.237297 
L 104.545455 212.514819 
L 103.7 212.237994 
L 102.854545 212.28311 
L 100.318182 212.620165 
L 99.05 212.368558 
L 97.359091 211.57571 
L 95.668182 210.750575 
L 94.4 210.473754 
L 93.554545 210.558947 
L 92.286364 211.043092 
L 89.75 212.313819 
L 88.904545 212.578332 
L 87.636364 212.599841 
L 86.368182 212.132035 
L 85.522727 211.457759 
L 84.677273 210.456947 
L 84.254545 209.842995 
L 81.718182 203.651091 
L 80.027273 198.161433 
L 73.263636 175.147107 
L 73.263636 175.147107 
" style="fill:none;stroke:#00bfbf;stroke-linecap:square;stroke-width:0.8;"/>
   </g>
   <g id="line2d_19">
    <defs>
     <path d="M 0 1.5 
C 0.397805 1.5 0.77937 1.341951 1.06066 1.06066 
C 1.341951 0.77937 1.5 0.397805 1.5 0 
C 1.5 -0.397805 1.341951 -0.77937 1.06066 -1.06066 
C 0.77937 -1.341951 0.397805 -1.5 0 -1.5 
C -0.397805 -1.5 -0.77937 -1.341951 -1.06066 -1.06066 
C -1.341951 -0.77937 -1.5 -0.397805 -1.5 0 
C -1.5 0.397805 -1.341951 0.77937 -1.06066 1.06066 
C -0.77937 1.341951 -0.397805 1.5 0 1.5 
z
" id="ma311cca8b2" style="stroke:#008000;"/>
    </defs>
    <g clip-path="url(#p2d914a0cd9)">
     <use style="fill:#008000;stroke:#008000;" x="372.131818" xlink:href="#ma311cca8b2" y="232.766754"/>
     <use style="fill:#008000;stroke:#008000;" x="242.354545" xlink:href="#ma311cca8b2" y="265.481632"/>
     <use style="fill:#008000;stroke:#008000;" x="203.040909" xlink:href="#ma311cca8b2" y="263.769016"/>
     <use style="fill:#008000;stroke:#008000;" x="161.613636" xlink:href="#ma311cca8b2" y="262.084291"/>
     <use style="fill:#008000;stroke:#008000;" x="143.859091" xlink:href="#ma311cca8b2" y="261.636797"/>
     <use style="fill:#008000;stroke:#008000;" x="123.145455" xlink:href="#ma311cca8b2" y="257.467944"/>
     <use style="fill:#008000;stroke:#008000;" x="103.7" xlink:href="#ma311cca8b2" y="258.852876"/>
     <use style="fill:#008000;stroke:#008000;" x="94.4" xlink:href="#ma311cca8b2" y="258.607676"/>
    </g>
   </g>
   <g id="line2d_20">
    <path clip-path="url(#p2d914a0cd9)" d="M 580.536364 266.376733 
L 578.845455 266.424049 
L 573.772727 266.427226 
L 559.4 266.462118 
L 544.181818 266.473848 
L 512.054545 266.52324 
L 496.836364 266.475211 
L 481.195455 266.510809 
L 476.545455 266.534776 
L 474.854545 266.500627 
L 471.895455 266.520686 
L 453.295455 266.528376 
L 450.759091 266.5373 
L 410.6 266.347506 
L 407.218182 266.137216 
L 402.990909 265.6795 
L 400.454545 265.14586 
L 398.340909 264.460442 
L 396.227273 263.51432 
L 394.536364 262.484804 
L 392.845455 261.132144 
L 391.154545 259.407953 
L 389.463636 257.347951 
L 387.772727 254.928128 
L 386.081818 252.110529 
L 383.545455 247.326297 
L 379.740909 240.036138 
L 378.05 237.219287 
L 376.781818 235.470448 
L 375.513636 234.126788 
L 374.668182 233.480966 
L 373.822727 233.042107 
L 372.977273 232.811069 
L 372.131818 232.766754 
L 371.286364 232.911293 
L 370.440909 233.234325 
L 369.172727 234.008656 
L 367.904545 235.111974 
L 366.213636 236.981054 
L 363.677273 240.261655 
L 359.872727 245.272831 
L 357.759091 247.720422 
L 355.645455 249.775062 
L 353.954545 251.117056 
L 352.263636 252.200782 
L 350.572727 253.012675 
L 348.881818 253.589653 
L 346.345455 254.189861 
L 339.581818 255.480021 
L 336.622727 256.356601 
L 334.509091 257.182841 
L 323.940909 261.738446 
L 321.827273 262.379287 
L 318.445455 263.134564 
L 314.218182 263.861728 
L 309.145455 264.430863 
L 295.195455 265.728299 
L 292.236364 265.869046 
L 275.327273 266.077811 
L 264.759091 265.744887 
L 247.004545 265.469622 
L 236.436364 265.49357 
L 221.640909 265.711529 
L 216.568182 265.517815 
L 211.918182 264.893216 
L 204.309091 263.792256 
L 201.772727 263.833122 
L 198.813636 264.191035 
L 195.431818 264.63349 
L 192.05 264.882937 
L 181.481818 265.466576 
L 178.1 265.230779 
L 175.140909 264.754941 
L 171.759091 263.862914 
L 167.109091 262.561382 
L 164.572727 262.187424 
L 161.613636 262.084291 
L 155.695455 262.134107 
L 153.159091 262.144869 
L 149.777273 261.961339 
L 143.859091 261.636797 
L 141.322727 261.705972 
L 135.827273 261.940641 
L 134.136364 261.703998 
L 132.445455 261.184519 
L 131.177273 260.61103 
L 129.063636 259.379117 
L 127.372727 258.42477 
L 126.104545 257.900659 
L 124.836364 257.596175 
L 123.145455 257.467944 
L 120.609091 257.589218 
L 118.495455 257.942039 
L 116.804545 258.448754 
L 112.577273 259.889587 
L 111.309091 260.071645 
L 110.040909 260.054024 
L 108.772727 259.850111 
L 104.545455 258.901894 
L 102.431818 258.87456 
L 99.472727 258.895226 
L 96.513636 258.699301 
L 94.822727 258.599221 
L 91.863636 258.738333 
L 89.75 258.87065 
L 87.636364 258.957627 
L 84.254545 258.591232 
L 80.872727 257.385643 
L 77.068182 255.540055 
L 74.531818 254.408486 
L 73.263636 254.067495 
L 73.263636 254.067495 
" style="fill:none;stroke:#008000;stroke-linecap:square;stroke-width:0.8;"/>
   </g>
   <g id="line2d_21">
    <defs>
     <path d="M 0 1.5 
C 0.397805 1.5 0.77937 1.341951 1.06066 1.06066 
C 1.341951 0.77937 1.5 0.397805 1.5 0 
C 1.5 -0.397805 1.341951 -0.77937 1.06066 -1.06066 
C 0.77937 -1.341951 0.397805 -1.5 0 -1.5 
C -0.397805 -1.5 -0.77937 -1.341951 -1.06066 -1.06066 
C -1.341951 -0.77937 -1.5 -0.397805 -1.5 0 
C -1.5 0.397805 -1.341951 0.77937 -1.06066 1.06066 
C -0.77937 1.341951 -0.397805 1.5 0 1.5 
z
" id="m026a19ec6a" style="stroke:#0000ff;"/>
    </defs>
    <g clip-path="url(#p2d914a0cd9)">
     <use style="fill:#0000ff;stroke:#0000ff;" x="372.131818" xlink:href="#m026a19ec6a" y="251.166598"/>
     <use style="fill:#0000ff;stroke:#0000ff;" x="242.354545" xlink:href="#m026a19ec6a" y="266.03685"/>
     <use style="fill:#0000ff;stroke:#0000ff;" x="203.040909" xlink:href="#m026a19ec6a" y="265.25334"/>
     <use style="fill:#0000ff;stroke:#0000ff;" x="161.613636" xlink:href="#m026a19ec6a" y="264.477975"/>
     <use style="fill:#0000ff;stroke:#0000ff;" x="143.859091" xlink:href="#m026a19ec6a" y="264.265703"/>
     <use style="fill:#0000ff;stroke:#0000ff;" x="123.145455" xlink:href="#m026a19ec6a" y="262.29061"/>
     <use style="fill:#0000ff;stroke:#0000ff;" x="103.7" xlink:href="#m026a19ec6a" y="262.844233"/>
     <use style="fill:#0000ff;stroke:#0000ff;" x="94.4" xlink:href="#m026a19ec6a" y="262.636083"/>
    </g>
   </g>
   <g id="line2d_22">
    <path clip-path="url(#p2d914a0cd9)" d="M 580.536364 266.472622 
L 578.845455 266.492678 
L 570.390909 266.509012 
L 565.318182 266.531027 
L 559.822727 266.559827 
L 505.290909 266.556018 
L 500.640909 266.557563 
L 409.331818 266.430309 
L 402.145455 266.086425 
L 398.340909 265.599281 
L 395.804545 265.06089 
L 393.268182 264.244705 
L 391.154545 263.300361 
L 389.463636 262.345013 
L 386.927273 260.619056 
L 384.390909 258.557669 
L 378.472727 253.484331 
L 376.781818 252.388669 
L 375.513636 251.765778 
L 374.245455 251.361346 
L 372.977273 251.184227 
L 371.709091 251.191843 
L 370.440909 251.385772 
L 368.75 251.908315 
L 367.059091 252.656534 
L 364.522727 254.081562 
L 358.181818 257.78623 
L 356.068182 258.765782 
L 353.954545 259.539187 
L 351.418182 260.227757 
L 349.304545 260.598151 
L 345.077273 261.051087 
L 336.622727 261.929955 
L 332.395455 262.692125 
L 323.940909 264.352403 
L 319.713636 264.884809 
L 312.527273 265.420293 
L 301.959091 265.908252 
L 294.772727 266.173024 
L 280.4 266.362394 
L 266.872727 266.19268 
L 262.222727 266.144566 
L 249.118182 266.042571 
L 235.168182 266.03327 
L 224.6 266.142661 
L 216.145455 265.999858 
L 208.959091 265.532202 
L 205.577273 265.309523 
L 201.772727 265.268349 
L 198.390909 265.471007 
L 195.009091 265.689136 
L 179.368182 265.945621 
L 175.986364 265.740342 
L 170.913636 265.193458 
L 166.263636 264.603277 
L 162.881818 264.48081 
L 137.518182 264.375451 
L 134.981818 264.321077 
L 132.868182 264.067488 
L 130.754545 263.63027 
L 125.681818 262.465493 
L 123.568182 262.304603 
L 121.031818 262.318071 
L 118.072727 262.54371 
L 110.463636 263.45153 
L 108.35 263.282414 
L 104.545455 262.855528 
L 90.595455 262.711579 
L 86.790909 262.752279 
L 84.254545 262.596558 
L 80.027273 261.805319 
L 73.263636 260.212059 
L 73.263636 260.212059 
" style="fill:none;stroke:#0000ff;stroke-linecap:square;stroke-width:0.8;"/>
   </g>
   <g id="patch_3">
    <path d="M 47.9 279 
L 47.9 7.2 
" style="fill:none;stroke:#000000;stroke-linecap:square;stroke-linejoin:miter;stroke-width:0.8;"/>
   </g>
   <g id="patch_4">
    <path d="M 605.9 279 
L 605.9 7.2 
" style="fill:none;stroke:#000000;stroke-linecap:square;stroke-linejoin:miter;stroke-width:0.8;"/>
   </g>
   <g id="patch_5">
    <path d="M 47.9 279 
L 605.9 279 
" style="fill:none;stroke:#000000;stroke-linecap:square;stroke-linejoin:miter;stroke-width:0.8;"/>
   </g>
   <g id="patch_6">
    <path d="M 47.9 7.2 
L 605.9 7.2 
" style="fill:none;stroke:#000000;stroke-linecap:square;stroke-linejoin:miter;stroke-width:0.8;"/>
   </g>
   <g id="text_15">
    <!-- (553.5,2.256) -->
    <g transform="translate(372.131818 18.475926)scale(0.1 -0.1)">
     <defs>
      <path d="M 46.484375 -3.125 
L 42.1875 -7.421875 
Q 32.421875 1.953125 27.53125 12.109375 
Q 22.65625 22.265625 22.65625 35.15625 
Q 22.65625 48.046875 27.53125 58.203125 
Q 32.421875 68.359375 42.1875 78.125 
L 46.484375 73.828125 
Q 37.5 65.234375 33 56.046875 
Q 28.515625 46.875 28.515625 35.15625 
Q 28.515625 23.4375 33 14.25 
Q 37.5 5.078125 46.484375 -3.125 
z
" id="SimHei-40"/>
      <path d="M 17.1875 1.953125 
L 12.109375 -8.59375 
L 8.203125 -8.59375 
L 12.109375 1.953125 
L 8.203125 1.953125 
L 8.203125 10.546875 
L 17.1875 10.546875 
z
" id="SimHei-44"/>
      <path d="M 26.171875 35.15625 
Q 26.171875 22.265625 21.28125 12.109375 
Q 16.40625 1.953125 6.640625 -7.421875 
L 2.34375 -3.125 
Q 11.328125 5.078125 15.8125 14.25 
Q 20.3125 23.4375 20.3125 35.15625 
Q 20.3125 46.875 15.8125 56.046875 
Q 11.328125 65.234375 2.34375 73.828125 
L 6.640625 78.125 
Q 16.40625 68.359375 21.28125 58.203125 
Q 26.171875 48.046875 26.171875 35.15625 
z
" id="SimHei-41"/>
     </defs>
     <use xlink:href="#SimHei-40"/>
     <use x="50" xlink:href="#SimHei-53"/>
     <use x="100" xlink:href="#SimHei-53"/>
     <use x="150" xlink:href="#SimHei-51"/>
     <use x="200" xlink:href="#SimHei-46"/>
     <use x="250" xlink:href="#SimHei-53"/>
     <use x="300" xlink:href="#SimHei-44"/>
     <use x="350" xlink:href="#SimHei-50"/>
     <use x="400" xlink:href="#SimHei-46"/>
     <use x="450" xlink:href="#SimHei-50"/>
     <use x="500" xlink:href="#SimHei-53"/>
     <use x="550" xlink:href="#SimHei-54"/>
     <use x="600" xlink:href="#SimHei-41"/>
    </g>
   </g>
   <g id="text_16">
    <!-- (554.0,1.062) -->
    <g transform="translate(372.554545 149.787278)scale(0.1 -0.1)">
     <use xlink:href="#SimHei-40"/>
     <use x="50" xlink:href="#SimHei-53"/>
     <use x="100" xlink:href="#SimHei-53"/>
     <use x="150" xlink:href="#SimHei-52"/>
     <use x="200" xlink:href="#SimHei-46"/>
     <use x="250" xlink:href="#SimHei-48"/>
     <use x="300" xlink:href="#SimHei-44"/>
     <use x="350" xlink:href="#SimHei-49"/>
     <use x="400" xlink:href="#SimHei-46"/>
     <use x="450" xlink:href="#SimHei-48"/>
     <use x="500" xlink:href="#SimHei-54"/>
     <use x="550" xlink:href="#SimHei-50"/>
     <use x="600" xlink:href="#SimHei-41"/>
    </g>
   </g>
   <g id="text_17">
    <!-- (553.5,2.136) -->
    <g transform="translate(372.131818 31.673047)scale(0.1 -0.1)">
     <use xlink:href="#SimHei-40"/>
     <use x="50" xlink:href="#SimHei-53"/>
     <use x="100" xlink:href="#SimHei-53"/>
     <use x="150" xlink:href="#SimHei-51"/>
     <use x="200" xlink:href="#SimHei-46"/>
     <use x="250" xlink:href="#SimHei-53"/>
     <use x="300" xlink:href="#SimHei-44"/>
     <use x="350" xlink:href="#SimHei-50"/>
     <use x="400" xlink:href="#SimHei-46"/>
     <use x="450" xlink:href="#SimHei-49"/>
     <use x="500" xlink:href="#SimHei-51"/>
     <use x="550" xlink:href="#SimHei-54"/>
     <use x="600" xlink:href="#SimHei-41"/>
    </g>
   </g>
   <g id="text_18">
    <!-- (554.0,0.309) -->
    <g transform="translate(372.554545 232.599211)scale(0.1 -0.1)">
     <defs>
      <path d="M 12.5 1.171875 
Q 21.09375 15.625 26.5625 27.34375 
Q 16.796875 25.78125 10.34375 29.875 
Q 3.90625 33.984375 2.53125 41.015625 
Q 1.171875 48.046875 2.734375 53.703125 
Q 4.296875 59.375 7.609375 63.078125 
Q 10.9375 66.796875 15.625 68.359375 
Q 20.3125 69.921875 24.015625 69.921875 
Q 27.734375 69.921875 31.640625 68.359375 
Q 35.546875 66.796875 38.671875 63.671875 
Q 41.796875 60.546875 42.96875 57.21875 
Q 44.140625 53.90625 44.140625 48.625 
Q 44.140625 43.359375 40.234375 35.15625 
Q 36.328125 26.953125 21.09375 1.171875 
z
M 9.765625 50 
Q 10.9375 39.84375 14.640625 36.515625 
Q 18.359375 33.203125 22.65625 33.59375 
Q 26.953125 33.984375 29.484375 35.9375 
Q 32.03125 37.890625 34.375 42.578125 
Q 35.9375 48.4375 35.15625 52.53125 
Q 34.375 56.640625 31.046875 59.375 
Q 27.734375 62.109375 23.828125 62.109375 
Q 21.484375 62.5 17.765625 60.9375 
Q 14.0625 59.375 11.90625 54.6875 
Q 9.765625 50 10.9375 39.84375 
z
" id="SimHei-57"/>
     </defs>
     <use xlink:href="#SimHei-40"/>
     <use x="50" xlink:href="#SimHei-53"/>
     <use x="100" xlink:href="#SimHei-53"/>
     <use x="150" xlink:href="#SimHei-52"/>
     <use x="200" xlink:href="#SimHei-46"/>
     <use x="250" xlink:href="#SimHei-48"/>
     <use x="300" xlink:href="#SimHei-44"/>
     <use x="350" xlink:href="#SimHei-48"/>
     <use x="400" xlink:href="#SimHei-46"/>
     <use x="450" xlink:href="#SimHei-51"/>
     <use x="500" xlink:href="#SimHei-48"/>
     <use x="550" xlink:href="#SimHei-57"/>
     <use x="600" xlink:href="#SimHei-41"/>
    </g>
   </g>
   <g id="text_19">
    <!-- (554.5,0.141) -->
    <g transform="translate(372.977273 251.07518)scale(0.1 -0.1)">
     <use xlink:href="#SimHei-40"/>
     <use x="50" xlink:href="#SimHei-53"/>
     <use x="100" xlink:href="#SimHei-53"/>
     <use x="150" xlink:href="#SimHei-52"/>
     <use x="200" xlink:href="#SimHei-46"/>
     <use x="250" xlink:href="#SimHei-53"/>
     <use x="300" xlink:href="#SimHei-44"/>
     <use x="350" xlink:href="#SimHei-48"/>
     <use x="400" xlink:href="#SimHei-46"/>
     <use x="450" xlink:href="#SimHei-49"/>
     <use x="500" xlink:href="#SimHei-52"/>
     <use x="550" xlink:href="#SimHei-49"/>
     <use x="600" xlink:href="#SimHei-41"/>
    </g>
   </g>
   <g id="legend_1">
    <g id="patch_7">
     <path d="M 536.9 83.16875 
L 598.9 83.16875 
Q 600.9 83.16875 600.9 81.16875 
L 600.9 14.2 
Q 600.9 12.2 598.9 12.2 
L 536.9 12.2 
Q 534.9 12.2 534.9 14.2 
L 534.9 81.16875 
Q 534.9 83.16875 536.9 83.16875 
z
" style="fill:#ffffff;opacity:0.8;stroke:#cccccc;stroke-linejoin:miter;"/>
    </g>
    <g id="line2d_23">
     <path d="M 538.9 20.04375 
L 558.9 20.04375 
" style="fill:none;stroke:#ff0000;stroke-linecap:square;stroke-width:0.8;"/>
    </g>
    <g id="line2d_24"/>
    <g id="text_20">
     <!-- 10mg/L -->
     <g transform="translate(566.9 23.54375)scale(0.1 -0.1)">
      <defs>
       <path d="M 47.65625 1.953125 
L 39.84375 1.953125 
L 39.84375 33.59375 
Q 39.84375 35.9375 39.0625 37.5 
Q 38.28125 39.0625 35.9375 39.0625 
Q 33.203125 39.0625 30.859375 36.125 
Q 28.515625 33.203125 28.515625 28.515625 
L 28.515625 1.953125 
L 20.703125 1.953125 
L 20.703125 33.59375 
Q 20.703125 35.9375 19.921875 37.5 
Q 19.140625 39.0625 16.796875 39.0625 
Q 14.0625 39.0625 11.71875 36.125 
Q 9.375 33.203125 9.375 28.515625 
L 9.375 1.953125 
L 1.5625 1.953125 
L 1.5625 45.703125 
L 9.375 45.703125 
L 9.375 39.84375 
Q 11.328125 42.96875 14.0625 44.71875 
Q 16.796875 46.484375 19.921875 46.484375 
Q 23.046875 46.484375 25.1875 44.71875 
Q 27.34375 42.96875 28.125 39.84375 
Q 30.078125 42.96875 32.609375 44.71875 
Q 35.15625 46.484375 38.28125 46.484375 
Q 42.96875 46.484375 45.3125 43.9375 
Q 47.65625 41.40625 47.65625 36.71875 
z
" id="SimHei-109"/>
       <path d="M 46.484375 39.0625 
Q 43.75 39.84375 41.203125 40.03125 
Q 38.671875 40.234375 35.9375 39.453125 
Q 37.109375 38.28125 37.890625 36.515625 
Q 38.671875 34.765625 38.671875 31.25 
Q 38.671875 24.609375 34.171875 20.3125 
Q 29.6875 16.015625 23.046875 16.015625 
Q 21.484375 16.015625 18.9375 16.59375 
Q 16.40625 17.1875 14.84375 17.96875 
Q 13.671875 17.1875 13.28125 16.40625 
Q 12.890625 15.625 12.890625 14.453125 
Q 12.890625 12.5 15.625 11.515625 
Q 18.359375 10.546875 25.390625 10.546875 
Q 36.71875 10.546875 40.8125 7.421875 
Q 44.921875 4.296875 44.921875 -0.390625 
Q 44.921875 -6.640625 38.859375 -9.5625 
Q 32.8125 -12.5 24.609375 -12.5 
Q 14.0625 -12.5 8.984375 -9.765625 
Q 3.90625 -7.03125 3.90625 -2.34375 
Q 3.90625 0 5.859375 2.34375 
Q 7.8125 4.6875 10.9375 6.25 
Q 8.59375 7.421875 7.21875 9.171875 
Q 5.859375 10.9375 5.859375 13.671875 
Q 5.859375 16.015625 7.609375 17.765625 
Q 9.375 19.53125 11.71875 20.703125 
Q 9.765625 22.65625 8.59375 25.390625 
Q 7.421875 28.125 7.421875 31.25 
Q 7.421875 37.890625 11.90625 42.1875 
Q 16.40625 46.484375 23.046875 46.484375 
Q 26.5625 46.484375 29.09375 45.5 
Q 31.640625 44.53125 33.59375 42.578125 
Q 36.71875 44.921875 39.84375 45.890625 
Q 42.96875 46.875 46.484375 46.484375 
z
M 30.859375 31.25 
Q 30.859375 35.15625 28.90625 37.5 
Q 26.953125 39.84375 23.046875 39.84375 
Q 19.140625 39.84375 17.1875 37.5 
Q 15.234375 35.15625 15.234375 31.25 
Q 15.234375 27.34375 17.1875 25 
Q 19.140625 22.65625 23.046875 22.65625 
Q 26.953125 22.65625 28.90625 25 
Q 30.859375 27.34375 30.859375 31.25 
z
M 37.5 -1.171875 
Q 37.5 0.390625 35.734375 1.953125 
Q 33.984375 3.515625 26.953125 3.515625 
Q 25.390625 3.515625 22.65625 3.703125 
Q 19.921875 3.90625 16.40625 4.296875 
Q 13.28125 3.125 12.109375 1.5625 
Q 10.9375 0 10.9375 -1.5625 
Q 10.9375 -3.90625 14.0625 -5.46875 
Q 17.1875 -7.03125 25 -7.03125 
Q 31.640625 -7.03125 34.5625 -5.265625 
Q 37.5 -3.515625 37.5 -1.171875 
z
" id="SimHei-103"/>
       <path d="M 46.875 71.09375 
L 5.46875 -2.734375 
L 1.5625 -0.390625 
L 42.96875 73.4375 
z
" id="SimHei-47"/>
       <path d="M 45.3125 1.953125 
L 4.6875 1.953125 
L 4.6875 68.75 
L 13.671875 68.75 
L 13.671875 9.375 
L 45.3125 9.375 
z
" id="SimHei-76"/>
      </defs>
      <use xlink:href="#SimHei-49"/>
      <use x="50" xlink:href="#SimHei-48"/>
      <use x="100" xlink:href="#SimHei-109"/>
      <use x="150" xlink:href="#SimHei-103"/>
      <use x="200" xlink:href="#SimHei-47"/>
      <use x="250" xlink:href="#SimHei-76"/>
     </g>
    </g>
    <g id="line2d_25">
     <path d="M 538.9 33.6375 
L 558.9 33.6375 
" style="fill:none;stroke:#bfbf00;stroke-linecap:square;stroke-width:0.8;"/>
    </g>
    <g id="line2d_26"/>
    <g id="text_21">
     <!-- A组 -->
     <g transform="translate(566.9 37.1375)scale(0.1 -0.1)">
      <defs>
       <path d="M 48.046875 1.953125 
L 38.671875 1.953125 
L 33.203125 22.65625 
L 16.015625 22.65625 
L 10.546875 1.953125 
L 1.171875 1.953125 
L 20.703125 69.53125 
L 28.515625 69.53125 
z
M 31.25 30.078125 
L 25 53.90625 
L 24.21875 53.90625 
L 17.96875 30.078125 
z
" id="SimHei-65"/>
       <path d="M 95.703125 -6.640625 
Q 89.84375 -6.25 81.640625 -6.25 
L 51.171875 -6.25 
Q 43.359375 -6.25 37.5 -6.640625 
L 37.5 0.78125 
Q 42.578125 0.390625 46.09375 0.390625 
L 46.09375 58.984375 
Q 46.09375 68.359375 45.3125 72.265625 
L 86.328125 72.265625 
Q 85.9375 68.75 85.9375 58.984375 
L 85.9375 0.390625 
Q 91.015625 0.390625 95.703125 0.78125 
z
M 26.953125 75.390625 
Q 23.4375 71.09375 20.109375 64.640625 
Q 16.796875 58.203125 11.328125 47.65625 
Q 14.84375 47.65625 24.21875 48.046875 
Q 28.125 55.46875 29.6875 62.109375 
Q 32.421875 59.765625 38.28125 57.421875 
Q 34.765625 52.34375 30.265625 44.921875 
Q 25.78125 37.5 17.96875 25.390625 
Q 30.46875 26.953125 37.890625 27.734375 
L 37.890625 21.09375 
Q 32.8125 20.703125 24.609375 19.53125 
Q 16.40625 18.359375 8.984375 16.40625 
Q 8.59375 20.3125 6.25 24.609375 
Q 10.546875 26.171875 14.25 30.859375 
Q 17.96875 35.546875 21.484375 42.578125 
Q 19.140625 42.578125 14.84375 41.984375 
Q 10.546875 41.40625 6.640625 39.453125 
Q 5.078125 44.140625 3.515625 47.65625 
Q 7.03125 51.5625 11.125 60.34375 
Q 15.234375 69.140625 17.96875 79.296875 
Q 22.265625 76.953125 26.953125 75.390625 
z
M 78.515625 0.390625 
L 78.515625 19.921875 
L 53.515625 19.921875 
L 53.515625 0.390625 
z
M 78.515625 48.828125 
L 78.515625 66.015625 
L 53.515625 66.015625 
L 53.515625 48.828125 
z
M 78.515625 26.5625 
L 78.515625 42.578125 
L 53.515625 42.578125 
L 53.515625 26.5625 
z
M 37.109375 2.734375 
Q 29.296875 1.5625 21.484375 -0.1875 
Q 13.671875 -1.953125 7.03125 -4.6875 
Q 5.859375 -1.171875 3.90625 3.90625 
Q 14.453125 5.078125 18.15625 5.859375 
Q 21.875 6.640625 37.109375 9.375 
z
" id="SimHei-32452"/>
      </defs>
      <use xlink:href="#SimHei-65"/>
      <use x="50" xlink:href="#SimHei-32452"/>
     </g>
    </g>
    <g id="line2d_27">
     <path d="M 538.9 47.23125 
L 558.9 47.23125 
" style="fill:none;stroke:#00bfbf;stroke-linecap:square;stroke-width:0.8;"/>
    </g>
    <g id="line2d_28"/>
    <g id="text_22">
     <!-- B组 -->
     <g transform="translate(566.9 50.73125)scale(0.1 -0.1)">
      <defs>
       <path d="M 46.09375 21.875 
Q 46.09375 10.546875 39.84375 6.25 
Q 33.59375 1.953125 23.828125 1.953125 
L 4.296875 1.953125 
L 4.296875 68.75 
L 24.609375 68.75 
Q 34.375 68.75 39.25 63.671875 
Q 44.140625 58.59375 44.140625 51.5625 
Q 44.140625 44.53125 40.8125 41.203125 
Q 37.5 37.890625 33.984375 36.71875 
Q 38.671875 35.546875 42.375 31.828125 
Q 46.09375 28.125 46.09375 21.875 
z
M 35.15625 51.5625 
Q 35.15625 56.640625 32.21875 58.984375 
Q 29.296875 61.328125 25 61.328125 
L 13.28125 61.328125 
L 13.28125 40.625 
L 24.609375 40.625 
Q 28.90625 40.625 32.03125 43.15625 
Q 35.15625 45.703125 35.15625 51.5625 
z
M 36.71875 21.875 
Q 36.71875 28.125 32.609375 30.65625 
Q 28.515625 33.203125 23.4375 33.203125 
L 13.28125 33.203125 
L 13.28125 9.375 
L 22.265625 9.375 
Q 29.296875 9.375 33 12.109375 
Q 36.71875 14.84375 36.71875 21.875 
z
" id="SimHei-66"/>
      </defs>
      <use xlink:href="#SimHei-66"/>
      <use x="50" xlink:href="#SimHei-32452"/>
     </g>
    </g>
    <g id="line2d_29">
     <path d="M 538.9 60.825 
L 558.9 60.825 
" style="fill:none;stroke:#008000;stroke-linecap:square;stroke-width:0.8;"/>
    </g>
    <g id="line2d_30"/>
    <g id="text_23">
     <!-- C组 -->
     <g transform="translate(566.9 64.325)scale(0.1 -0.1)">
      <defs>
       <path d="M 46.484375 28.515625 
Q 46.09375 13.671875 40.234375 7.421875 
Q 34.375 1.171875 26.171875 1.171875 
Q 16.796875 1.171875 10.15625 8.78125 
Q 3.515625 16.40625 3.515625 33.203125 
Q 3.515625 51.5625 9.953125 60.546875 
Q 16.40625 69.53125 26.5625 69.53125 
Q 35.15625 69.53125 40.8125 63.078125 
Q 46.484375 56.640625 46.09375 44.921875 
L 37.5 44.921875 
Q 37.5 53.515625 34.765625 57.8125 
Q 32.03125 62.109375 26.5625 62.109375 
Q 20.3125 62.109375 16.59375 55.65625 
Q 12.890625 49.21875 12.890625 33.984375 
Q 12.890625 19.921875 16.59375 14.25 
Q 20.3125 8.59375 26.171875 8.59375 
Q 30.46875 8.59375 33.984375 12.6875 
Q 37.5 16.796875 37.5 28.515625 
z
" id="SimHei-67"/>
      </defs>
      <use xlink:href="#SimHei-67"/>
      <use x="50" xlink:href="#SimHei-32452"/>
     </g>
    </g>
    <g id="line2d_31">
     <path d="M 538.9 74.41875 
L 558.9 74.41875 
" style="fill:none;stroke:#0000ff;stroke-linecap:square;stroke-width:0.8;"/>
    </g>
    <g id="line2d_32"/>
    <g id="text_24">
     <!-- D组 -->
     <g transform="translate(566.9 77.91875)scale(0.1 -0.1)">
      <defs>
       <path d="M 45.703125 35.15625 
Q 45.703125 17.1875 38.078125 9.5625 
Q 30.46875 1.953125 17.578125 1.953125 
L 4.296875 1.953125 
L 4.296875 68.75 
L 17.578125 68.75 
Q 32.03125 68.75 38.859375 60.9375 
Q 45.703125 53.125 45.703125 35.15625 
z
M 36.328125 35.15625 
Q 36.328125 49.609375 31.640625 55.46875 
Q 26.953125 61.328125 17.578125 61.328125 
L 13.28125 61.328125 
L 13.28125 9.375 
L 17.578125 9.375 
Q 26.953125 9.375 31.640625 15.03125 
Q 36.328125 20.703125 36.328125 35.15625 
z
" id="SimHei-68"/>
      </defs>
      <use xlink:href="#SimHei-68"/>
      <use x="50" xlink:href="#SimHei-32452"/>
     </g>
    </g>
   </g>
  </g>
 </g>
 <defs>
  <clipPath id="p2d914a0cd9">
   <rect height="271.8" width="558" x="47.9" y="7.2"/>
  </clipPath>
 </defs>
</svg>
