<?xml version="1.0" encoding="utf-8" standalone="no"?>
<!DOCTYPE svg PUBLIC "-//W3C//DTD SVG 1.1//EN"
  "http://www.w3.org/Graphics/SVG/1.1/DTD/svg11.dtd">
<!-- Created with matplotlib (https://matplotlib.org/) -->
<svg height="272.945pt" version="1.1" viewBox="0 0 387.1 272.945" width="387.1pt" xmlns="http://www.w3.org/2000/svg" xmlns:xlink="http://www.w3.org/1999/xlink">
 <metadata>
  <rdf:RDF xmlns:cc="http://creativecommons.org/ns#" xmlns:dc="http://purl.org/dc/elements/1.1/" xmlns:rdf="http://www.w3.org/1999/02/22-rdf-syntax-ns#">
   <cc:Work>
    <dc:type rdf:resource="http://purl.org/dc/dcmitype/StillImage"/>
    <dc:date>2020-10-18T20:49:49.725440</dc:date>
    <dc:format>image/svg+xml</dc:format>
    <dc:creator>
     <cc:Agent>
      <dc:title>Matplotlib v3.3.1, https://matplotlib.org/</dc:title>
     </cc:Agent>
    </dc:creator>
   </cc:Work>
  </rdf:RDF>
 </metadata>
 <defs>
  <style type="text/css">*{stroke-linecap:butt;stroke-linejoin:round;}</style>
 </defs>
 <g id="figure_1">
  <g id="patch_1">
   <path d="M 0 272.945 
L 387.1 272.945 
L 387.1 0 
L 0 0 
z
" style="fill:none;"/>
  </g>
  <g id="axes_1">
   <g id="patch_2">
    <path d="M 40.1 240.42 
L 374.9 240.42 
L 374.9 22.98 
L 40.1 22.98 
z
" style="fill:#ffffff;"/>
   </g>
   <g id="matplotlib.axis_1">
    <g id="xtick_1">
     <g id="line2d_1">
      <path clip-path="url(#pd122658b08)" d="M 40.1 240.42 
L 40.1 22.98 
" style="fill:none;stroke:#b0b0b0;stroke-linecap:square;stroke-opacity:0.4;stroke-width:0.8;"/>
     </g>
     <g id="line2d_2">
      <defs>
       <path d="M 0 0 
L 0 -3.5 
" id="m6931bc46fd" style="stroke:#000000;stroke-width:0.8;"/>
      </defs>
      <g>
       <use style="stroke:#000000;stroke-width:0.8;" x="40.1" xlink:href="#m6931bc46fd" y="240.42"/>
      </g>
     </g>
     <g id="text_1">
      <!-- 10 -->
      <g transform="translate(35.1 250.795)scale(0.1 -0.1)">
       <defs>
        <path d="M 21.875 56.25 
Q 16.796875 51.171875 8.984375 46.484375 
L 8.984375 53.90625 
Q 18.75 60.546875 25 69.53125 
L 29.6875 69.53125 
L 29.6875 2.34375 
L 21.875 2.34375 
z
" id="SimHei-49"/>
        <path d="M 3.125 29.296875 
Q 3.90625 50 6.4375 56.046875 
Q 8.984375 62.109375 13.671875 66.015625 
Q 18.359375 69.921875 25.1875 69.921875 
Q 32.03125 69.921875 37.109375 64.25 
Q 42.1875 58.59375 43.75 50 
Q 45.3125 41.40625 44.71875 30.265625 
Q 44.140625 19.140625 40.8125 12.109375 
Q 37.5 5.078125 30.859375 2.34375 
Q 24.21875 -0.390625 17.578125 2.921875 
Q 10.9375 6.25 8.203125 11.71875 
Q 5.46875 17.1875 4.296875 23.234375 
Q 3.125 29.296875 3.90625 50 
z
M 12.890625 52.734375 
Q 10.546875 31.25 12.5 22.84375 
Q 14.453125 14.453125 18.9375 10.9375 
Q 23.4375 7.421875 28.125 9.5625 
Q 32.8125 11.71875 34.953125 18.15625 
Q 37.109375 24.609375 37.109375 32.21875 
Q 37.109375 39.84375 36.515625 46.09375 
Q 35.9375 52.34375 33 57.421875 
Q 30.078125 62.5 25.1875 62.6875 
Q 20.3125 62.890625 16.59375 57.8125 
Q 12.890625 52.734375 10.546875 31.25 
z
" id="SimHei-48"/>
       </defs>
       <use xlink:href="#SimHei-49"/>
       <use x="50" xlink:href="#SimHei-48"/>
      </g>
     </g>
    </g>
    <g id="xtick_2">
     <g id="line2d_3">
      <path clip-path="url(#pd122658b08)" d="M 77.3 240.42 
L 77.3 22.98 
" style="fill:none;stroke:#b0b0b0;stroke-linecap:square;stroke-opacity:0.4;stroke-width:0.8;"/>
     </g>
     <g id="line2d_4">
      <g>
       <use style="stroke:#000000;stroke-width:0.8;" x="77.3" xlink:href="#m6931bc46fd" y="240.42"/>
      </g>
     </g>
     <g id="text_2">
      <!-- 15 -->
      <g transform="translate(72.3 250.795)scale(0.1 -0.1)">
       <defs>
        <path d="M 8.59375 20.703125 
Q 11.328125 10.15625 17.96875 8.984375 
Q 24.609375 7.8125 28.703125 10.34375 
Q 32.8125 12.890625 34.5625 16.984375 
Q 36.328125 21.09375 36.125 26.171875 
Q 35.9375 31.25 33.390625 34.765625 
Q 30.859375 38.28125 26.953125 39.453125 
Q 23.046875 40.625 18.15625 39.453125 
Q 13.28125 38.28125 10.15625 33.984375 
L 3.515625 34.765625 
Q 4.296875 37.109375 10.9375 68.359375 
L 41.796875 68.359375 
L 41.796875 61.328125 
L 16.796875 61.328125 
Q 14.84375 50.78125 12.890625 44.53125 
Q 18.75 47.265625 23.828125 47.0625 
Q 28.90625 46.875 33.59375 44.71875 
Q 38.28125 42.578125 40.421875 38.859375 
Q 42.578125 35.15625 43.546875 31.4375 
Q 44.53125 27.734375 44.328125 23.4375 
Q 44.140625 19.140625 42.578125 14.640625 
Q 41.015625 10.15625 37.890625 7.21875 
Q 34.765625 4.296875 30.265625 2.53125 
Q 25.78125 0.78125 19.921875 1.171875 
Q 14.0625 1.5625 8.78125 5.46875 
Q 3.515625 9.375 1.5625 18.75 
z
" id="SimHei-53"/>
       </defs>
       <use xlink:href="#SimHei-49"/>
       <use x="50" xlink:href="#SimHei-53"/>
      </g>
     </g>
    </g>
    <g id="xtick_3">
     <g id="line2d_5">
      <path clip-path="url(#pd122658b08)" d="M 114.5 240.42 
L 114.5 22.98 
" style="fill:none;stroke:#b0b0b0;stroke-linecap:square;stroke-opacity:0.4;stroke-width:0.8;"/>
     </g>
     <g id="line2d_6">
      <g>
       <use style="stroke:#000000;stroke-width:0.8;" x="114.5" xlink:href="#m6931bc46fd" y="240.42"/>
      </g>
     </g>
     <g id="text_3">
      <!-- 20 -->
      <g transform="translate(109.5 250.795)scale(0.1 -0.1)">
       <defs>
        <path d="M 4.6875 3.90625 
Q 5.078125 9.765625 10.15625 14.453125 
Q 15.234375 19.140625 23.046875 29.09375 
Q 30.859375 39.0625 33.203125 44.53125 
Q 35.546875 50 34.953125 53.90625 
Q 34.375 57.8125 31.25 60.34375 
Q 28.125 62.890625 24.015625 62.5 
Q 19.921875 62.109375 16.203125 59.375 
Q 12.5 56.640625 10.546875 51.171875 
L 3.125 52.34375 
Q 6.25 61.328125 11.125 65.421875 
Q 16.015625 69.53125 22.65625 69.921875 
Q 26.5625 70.3125 29.6875 69.71875 
Q 32.8125 69.140625 36.125 66.984375 
Q 39.453125 64.84375 41.59375 60.546875 
Q 43.75 56.25 43.15625 50.1875 
Q 42.578125 44.140625 37.109375 35.734375 
Q 31.640625 27.34375 16.015625 9.375 
L 44.140625 9.375 
L 44.140625 2.34375 
L 4.6875 2.34375 
z
" id="SimHei-50"/>
       </defs>
       <use xlink:href="#SimHei-50"/>
       <use x="50" xlink:href="#SimHei-48"/>
      </g>
     </g>
    </g>
    <g id="xtick_4">
     <g id="line2d_7">
      <path clip-path="url(#pd122658b08)" d="M 151.7 240.42 
L 151.7 22.98 
" style="fill:none;stroke:#b0b0b0;stroke-linecap:square;stroke-opacity:0.4;stroke-width:0.8;"/>
     </g>
     <g id="line2d_8">
      <g>
       <use style="stroke:#000000;stroke-width:0.8;" x="151.7" xlink:href="#m6931bc46fd" y="240.42"/>
      </g>
     </g>
     <g id="text_4">
      <!-- 25 -->
      <g transform="translate(146.7 250.795)scale(0.1 -0.1)">
       <use xlink:href="#SimHei-50"/>
       <use x="50" xlink:href="#SimHei-53"/>
      </g>
     </g>
    </g>
    <g id="xtick_5">
     <g id="line2d_9">
      <path clip-path="url(#pd122658b08)" d="M 188.9 240.42 
L 188.9 22.98 
" style="fill:none;stroke:#b0b0b0;stroke-linecap:square;stroke-opacity:0.4;stroke-width:0.8;"/>
     </g>
     <g id="line2d_10">
      <g>
       <use style="stroke:#000000;stroke-width:0.8;" x="188.9" xlink:href="#m6931bc46fd" y="240.42"/>
      </g>
     </g>
     <g id="text_5">
      <!-- 30 -->
      <g transform="translate(183.9 250.795)scale(0.1 -0.1)">
       <defs>
        <path d="M 3.90625 19.140625 
L 10.9375 20.3125 
Q 12.5 15.234375 16.015625 11.90625 
Q 19.53125 8.59375 24.796875 8.78125 
Q 30.078125 8.984375 33.203125 13.078125 
Q 36.328125 17.1875 35.9375 22.453125 
Q 35.546875 27.734375 31.828125 30.65625 
Q 28.125 33.59375 19.921875 34.765625 
L 19.921875 39.84375 
Q 28.125 40.625 31.828125 44.140625 
Q 35.546875 47.65625 35.15625 53.3125 
Q 34.765625 58.984375 30.078125 61.515625 
Q 25.390625 64.0625 20.109375 62.109375 
Q 14.84375 60.15625 11.71875 51.171875 
L 4.6875 52.34375 
Q 7.03125 59.375 11.125 64.0625 
Q 15.234375 68.75 22.265625 69.53125 
Q 29.296875 70.3125 34.5625 67.765625 
Q 39.84375 65.234375 41.984375 59.953125 
Q 44.140625 54.6875 42.578125 48.4375 
Q 41.015625 42.1875 33.59375 37.5 
Q 39.0625 35.15625 41.984375 30.46875 
Q 44.921875 25.78125 43.9375 18.15625 
Q 42.96875 10.546875 37.109375 5.859375 
Q 31.25 1.171875 23.828125 1.359375 
Q 16.40625 1.5625 10.9375 6.046875 
Q 5.46875 10.546875 3.90625 19.140625 
z
" id="SimHei-51"/>
       </defs>
       <use xlink:href="#SimHei-51"/>
       <use x="50" xlink:href="#SimHei-48"/>
      </g>
     </g>
    </g>
    <g id="xtick_6">
     <g id="line2d_11">
      <path clip-path="url(#pd122658b08)" d="M 226.1 240.42 
L 226.1 22.98 
" style="fill:none;stroke:#b0b0b0;stroke-linecap:square;stroke-opacity:0.4;stroke-width:0.8;"/>
     </g>
     <g id="line2d_12">
      <g>
       <use style="stroke:#000000;stroke-width:0.8;" x="226.1" xlink:href="#m6931bc46fd" y="240.42"/>
      </g>
     </g>
     <g id="text_6">
      <!-- 35 -->
      <g transform="translate(221.1 250.795)scale(0.1 -0.1)">
       <use xlink:href="#SimHei-51"/>
       <use x="50" xlink:href="#SimHei-53"/>
      </g>
     </g>
    </g>
    <g id="xtick_7">
     <g id="line2d_13">
      <path clip-path="url(#pd122658b08)" d="M 263.3 240.42 
L 263.3 22.98 
" style="fill:none;stroke:#b0b0b0;stroke-linecap:square;stroke-opacity:0.4;stroke-width:0.8;"/>
     </g>
     <g id="line2d_14">
      <g>
       <use style="stroke:#000000;stroke-width:0.8;" x="263.3" xlink:href="#m6931bc46fd" y="240.42"/>
      </g>
     </g>
     <g id="text_7">
      <!-- 40 -->
      <g transform="translate(258.3 250.795)scale(0.1 -0.1)">
       <defs>
        <path d="M 31.25 17.1875 
L 1.171875 17.1875 
L 1.171875 23.828125 
L 32.8125 69.53125 
L 38.671875 69.53125 
L 38.671875 23.828125 
L 48.046875 23.828125 
L 48.046875 17.1875 
L 38.671875 17.1875 
L 38.671875 2.34375 
L 31.25 2.34375 
z
M 31.25 23.828125 
L 31.25 54.6875 
L 9.375 23.828125 
z
" id="SimHei-52"/>
       </defs>
       <use xlink:href="#SimHei-52"/>
       <use x="50" xlink:href="#SimHei-48"/>
      </g>
     </g>
    </g>
    <g id="xtick_8">
     <g id="line2d_15">
      <path clip-path="url(#pd122658b08)" d="M 300.5 240.42 
L 300.5 22.98 
" style="fill:none;stroke:#b0b0b0;stroke-linecap:square;stroke-opacity:0.4;stroke-width:0.8;"/>
     </g>
     <g id="line2d_16">
      <g>
       <use style="stroke:#000000;stroke-width:0.8;" x="300.5" xlink:href="#m6931bc46fd" y="240.42"/>
      </g>
     </g>
     <g id="text_8">
      <!-- 45 -->
      <g transform="translate(295.5 250.795)scale(0.1 -0.1)">
       <use xlink:href="#SimHei-52"/>
       <use x="50" xlink:href="#SimHei-53"/>
      </g>
     </g>
    </g>
    <g id="xtick_9">
     <g id="line2d_17">
      <path clip-path="url(#pd122658b08)" d="M 337.7 240.42 
L 337.7 22.98 
" style="fill:none;stroke:#b0b0b0;stroke-linecap:square;stroke-opacity:0.4;stroke-width:0.8;"/>
     </g>
     <g id="line2d_18">
      <g>
       <use style="stroke:#000000;stroke-width:0.8;" x="337.7" xlink:href="#m6931bc46fd" y="240.42"/>
      </g>
     </g>
     <g id="text_9">
      <!-- 50 -->
      <g transform="translate(332.7 250.795)scale(0.1 -0.1)">
       <use xlink:href="#SimHei-53"/>
       <use x="50" xlink:href="#SimHei-48"/>
      </g>
     </g>
    </g>
    <g id="xtick_10">
     <g id="line2d_19">
      <path clip-path="url(#pd122658b08)" d="M 374.9 240.42 
L 374.9 22.98 
" style="fill:none;stroke:#b0b0b0;stroke-linecap:square;stroke-opacity:0.4;stroke-width:0.8;"/>
     </g>
     <g id="line2d_20">
      <g>
       <use style="stroke:#000000;stroke-width:0.8;" x="374.9" xlink:href="#m6931bc46fd" y="240.42"/>
      </g>
     </g>
     <g id="text_10">
      <!-- 55 -->
      <g transform="translate(369.9 250.795)scale(0.1 -0.1)">
       <use xlink:href="#SimHei-53"/>
       <use x="50" xlink:href="#SimHei-53"/>
      </g>
     </g>
    </g>
    <g id="text_11">
     <!-- 棱镜小车的位置$L(cm)$ -->
     <g transform="translate(158.15 264.345)scale(0.1 -0.1)">
      <defs>
       <path d="M 66.015625 39.84375 
Q 62.109375 35.546875 60.15625 32.8125 
L 83.203125 32.8125 
Q 81.25 25.78125 78.90625 20.3125 
Q 76.5625 14.84375 71.875 7.8125 
Q 77.34375 3.515625 82.8125 1.5625 
Q 88.28125 -0.390625 96.09375 -1.953125 
Q 92.578125 -5.46875 91.015625 -9.765625 
Q 83.59375 -7.8125 77.140625 -4.484375 
Q 70.703125 -1.171875 66.40625 2.34375 
Q 60.9375 -1.5625 54.09375 -4.484375 
Q 47.265625 -7.421875 37.890625 -10.15625 
Q 36.71875 -7.03125 33.59375 -2.734375 
Q 42.578125 -1.5625 50.1875 1.5625 
Q 57.8125 4.6875 60.9375 7.03125 
Q 56.640625 12.890625 52.734375 21.09375 
Q 50 18.359375 48.046875 16.203125 
Q 46.09375 14.0625 42.1875 10.15625 
Q 39.453125 14.453125 36.71875 16.40625 
Q 42.96875 20.703125 49.21875 29.484375 
Q 55.46875 38.28125 57.421875 43.75 
L 66.015625 39.84375 
z
M 16.796875 74.609375 
Q 16.796875 76.953125 16.40625 81.25 
L 25 81.25 
Q 24.21875 76.171875 24.21875 73.046875 
L 24.21875 61.328125 
Q 27.34375 61.328125 33.59375 61.71875 
L 33.59375 54.6875 
Q 26.5625 55.078125 23.828125 55.078125 
L 23.828125 42.1875 
Q 25.78125 43.359375 30.078125 45.703125 
Q 31.25 42.96875 32.8125 39.640625 
Q 34.375 36.328125 36.328125 32.03125 
Q 32.421875 30.859375 28.90625 28.125 
Q 27.734375 31.25 26.359375 34.375 
Q 25 37.5 23.828125 40.234375 
L 23.828125 5.46875 
Q 23.828125 -1.171875 24.21875 -9.765625 
L 16.40625 -9.765625 
Q 16.796875 -2.734375 16.796875 5.46875 
L 16.796875 32.03125 
Q 15.625 29.6875 13.28125 24.21875 
Q 10.9375 18.359375 9.375 15.625 
Q 6.25 19.921875 3.125 22.265625 
Q 5.078125 24.609375 6.640625 27.921875 
Q 8.203125 31.25 10.15625 35.734375 
Q 12.109375 40.234375 13.671875 45.703125 
Q 15.234375 51.171875 15.625 55.078125 
Q 11.71875 55.078125 5.078125 54.6875 
L 5.078125 61.71875 
Q 10.9375 61.328125 16.796875 61.328125 
z
M 60.9375 70.703125 
Q 60.9375 75.390625 60.546875 81.25 
L 68.359375 81.25 
Q 67.96875 75.390625 67.96875 70.703125 
L 75 70.703125 
Q 82.8125 70.703125 88.671875 71.09375 
L 88.671875 64.0625 
Q 82.8125 64.453125 74.609375 64.453125 
L 67.96875 64.453125 
L 67.96875 56.25 
L 81.640625 56.25 
Q 87.890625 56.25 94.140625 56.640625 
L 94.140625 49.609375 
Q 88.28125 50 81.640625 50 
L 51.5625 50 
Q 43.75 50 36.71875 49.21875 
L 36.71875 56.640625 
Q 42.96875 56.25 51.5625 56.25 
L 60.9375 56.25 
L 60.9375 64.453125 
L 55.859375 64.453125 
Q 48.046875 64.453125 41.015625 64.0625 
L 41.015625 71.09375 
Q 48.046875 70.703125 55.859375 70.703125 
z
M 79.6875 49.21875 
Q 82.421875 46.875 86.515625 43.546875 
Q 90.625 40.234375 95.703125 35.9375 
Q 91.796875 33.203125 89.84375 30.078125 
Q 86.71875 33.203125 82.421875 37.109375 
Q 78.125 41.015625 74.21875 43.359375 
Q 77.34375 45.703125 79.6875 49.21875 
z
M 55.46875 44.921875 
Q 53.90625 42.96875 50 37.6875 
Q 46.09375 32.421875 42.578125 27.734375 
Q 40.234375 30.46875 36.328125 32.421875 
Q 39.453125 35.15625 42.578125 39.640625 
Q 45.703125 44.140625 48.046875 49.21875 
Q 51.5625 46.875 55.46875 44.921875 
z
M 66.40625 12.5 
Q 70.703125 17.578125 73.4375 26.5625 
L 58.203125 26.5625 
Q 60.546875 19.53125 66.40625 12.5 
z
" id="SimHei-26865"/>
       <path d="M 87.5 44.140625 
Q 87.109375 37.109375 87.109375 30.078125 
Q 87.109375 23.046875 87.5 15.625 
L 76.953125 15.625 
L 76.953125 2.734375 
Q 76.953125 -2.734375 81.828125 -2.921875 
Q 86.71875 -3.125 87.890625 0 
Q 89.0625 3.125 89.453125 7.03125 
Q 92.578125 5.078125 96.875 3.125 
Q 94.921875 -6.640625 90.625 -8 
Q 86.328125 -9.375 78.3125 -8.984375 
Q 70.3125 -8.59375 70.3125 0.390625 
L 70.3125 15.625 
L 60.9375 15.625 
Q 58.984375 3.125 53.125 -2.140625 
Q 47.265625 -7.421875 37.5 -10.546875 
Q 36.328125 -5.859375 33.203125 -3.125 
Q 45.3125 -1.5625 49.21875 3.515625 
Q 53.125 8.59375 53.90625 15.625 
L 44.921875 15.625 
Q 45.3125 23.4375 45.3125 29.6875 
Q 45.3125 36.328125 44.921875 44.140625 
L 87.5 44.140625 
z
M 37.890625 61.328125 
Q 33.203125 61.71875 29.296875 61.71875 
L 17.1875 61.71875 
Q 14.453125 55.859375 11.71875 51.171875 
Q 18.359375 50.78125 23.828125 50.78125 
Q 29.296875 50.78125 35.15625 51.171875 
L 35.15625 44.140625 
Q 29.296875 44.53125 24.609375 44.53125 
L 24.609375 32.421875 
Q 32.421875 32.421875 38.28125 32.8125 
L 38.28125 25.78125 
Q 30.078125 26.171875 24.609375 26.171875 
L 24.609375 7.03125 
Q 32.8125 15.234375 34.765625 17.96875 
Q 36.328125 14.453125 39.453125 11.328125 
Q 35.15625 8.203125 30.46875 3.515625 
Q 25.78125 -1.171875 20.3125 -7.03125 
Q 17.1875 -2.34375 15.234375 -0.390625 
Q 17.578125 2.34375 17.96875 5.859375 
L 17.96875 26.171875 
Q 13.28125 26.171875 7.03125 25.78125 
L 7.03125 32.8125 
Q 13.28125 32.421875 17.96875 32.421875 
L 17.96875 44.53125 
Q 15.234375 44.53125 10.546875 44.140625 
L 10.546875 50 
L 8.203125 46.875 
Q 5.859375 50.390625 2.734375 51.953125 
Q 7.8125 58.203125 11.71875 66.40625 
Q 15.625 74.609375 17.578125 81.640625 
Q 21.875 79.6875 25.78125 78.515625 
Q 23.046875 75 19.53125 67.96875 
L 29.6875 67.96875 
Q 33.59375 67.96875 37.890625 68.359375 
z
M 56.25 66.015625 
Q 58.203125 62.890625 60.546875 57.03125 
Q 58.984375 56.640625 55.859375 54.6875 
L 69.140625 54.6875 
Q 71.875 61.71875 72.265625 67.578125 
L 52.34375 67.578125 
Q 50 67.578125 41.015625 67.1875 
L 41.015625 73.828125 
Q 49.609375 73.4375 52.34375 73.4375 
L 62.109375 73.4375 
Q 60.546875 77.34375 58.984375 80.46875 
Q 62.890625 81.25 66.796875 82.421875 
Q 68.359375 78.515625 70.3125 73.4375 
L 76.953125 73.4375 
Q 84.375 73.4375 91.015625 73.828125 
L 91.015625 67.1875 
Q 83.59375 67.578125 77.34375 67.578125 
L 75 67.578125 
Q 78.125 66.015625 81.25 64.84375 
Q 78.125 58.59375 76.5625 54.6875 
L 83.59375 54.6875 
Q 89.0625 54.6875 94.53125 55.078125 
L 94.53125 48.4375 
Q 89.0625 48.828125 83.59375 48.828125 
L 51.171875 48.828125 
Q 44.921875 48.828125 39.84375 48.4375 
L 39.84375 55.078125 
Q 49.21875 54.6875 51.171875 54.6875 
L 53.125 54.6875 
Q 51.953125 58.984375 49.609375 63.28125 
Q 52.34375 63.671875 56.25 66.015625 
z
M 80.078125 32.421875 
L 80.078125 38.671875 
L 51.953125 38.671875 
L 51.953125 32.421875 
z
M 80.078125 21.09375 
L 80.078125 26.5625 
L 51.953125 26.5625 
L 51.953125 21.09375 
z
" id="SimHei-38236"/>
       <path d="M 54.6875 80.46875 
Q 54.296875 75 54.296875 65.625 
L 54.296875 2.734375 
Q 54.296875 -4.6875 50.390625 -6.640625 
Q 46.484375 -8.59375 37.109375 -9.375 
Q 36.328125 -4.6875 33.59375 -0.390625 
Q 42.1875 -0.390625 44.328125 0 
Q 46.484375 0.390625 46.484375 4.6875 
L 46.484375 65.625 
Q 46.484375 72.65625 46.09375 80.46875 
L 54.6875 80.46875 
z
M 32.421875 53.125 
Q 28.90625 43.359375 24.21875 30.65625 
Q 19.53125 17.96875 16.015625 11.71875 
Q 12.109375 14.84375 7.8125 15.625 
Q 14.453125 27.34375 18.359375 38.859375 
Q 22.265625 50.390625 23.4375 55.859375 
Q 28.125 53.515625 32.421875 53.125 
z
M 73.046875 56.25 
Q 88.671875 28.125 91.796875 17.96875 
Q 87.890625 17.1875 83.984375 14.453125 
Q 78.125 31.25 66.015625 51.953125 
Q 69.140625 53.515625 73.046875 56.25 
z
" id="SimHei-23567"/>
       <path d="M 17.578125 30.46875 
Q 15.625 35.9375 14.0625 39.453125 
Q 19.140625 41.40625 24.40625 47.84375 
Q 29.6875 54.296875 33.203125 60.15625 
Q 18.75 60.15625 9.765625 59.765625 
L 9.765625 67.578125 
Q 17.96875 67.1875 37.109375 67.1875 
Q 41.796875 76.5625 43.359375 82.421875 
Q 48.046875 80.078125 52.34375 78.515625 
Q 48.4375 73.046875 45.3125 67.1875 
L 71.875 67.1875 
Q 76.5625 67.1875 86.328125 67.578125 
L 86.328125 59.765625 
Q 78.515625 60.15625 71.875 60.15625 
L 41.796875 60.15625 
Q 37.5 53.515625 26.953125 39.84375 
L 48.828125 39.84375 
Q 48.828125 47.265625 48.4375 55.078125 
L 57.03125 55.078125 
Q 56.640625 48.4375 56.640625 39.84375 
L 69.921875 39.84375 
Q 77.734375 39.84375 85.15625 40.234375 
L 85.15625 32.421875 
Q 77.734375 32.8125 69.921875 32.8125 
L 56.640625 32.8125 
L 56.640625 17.96875 
L 78.515625 17.96875 
Q 85.9375 17.96875 94.921875 18.359375 
L 94.921875 10.15625 
Q 85.9375 10.546875 78.515625 10.546875 
L 56.640625 10.546875 
Q 56.640625 -1.953125 57.03125 -9.375 
L 48.4375 -9.375 
Q 48.828125 -1.5625 48.828125 10.546875 
L 21.875 10.546875 
Q 13.28125 10.546875 5.46875 10.15625 
L 5.46875 18.359375 
Q 13.28125 17.96875 21.875 17.96875 
L 48.828125 17.96875 
L 48.828125 32.8125 
Q 34.765625 32.8125 29.296875 32.421875 
Q 23.828125 32.03125 17.578125 30.46875 
z
" id="SimHei-36710"/>
       <path d="M 32.8125 77.734375 
Q 30.859375 74.21875 27.34375 61.71875 
L 44.921875 61.71875 
Q 44.53125 55.078125 44.53125 44.921875 
L 44.53125 10.546875 
Q 44.53125 4.6875 44.921875 -6.25 
L 37.109375 -6.25 
L 37.109375 1.5625 
L 17.1875 1.5625 
L 17.1875 -7.03125 
L 9.375 -7.03125 
Q 9.765625 5.46875 9.765625 8.59375 
L 9.765625 44.53125 
Q 9.765625 55.078125 9.375 61.71875 
L 20.703125 61.71875 
Q 22.65625 70.703125 23.828125 80.46875 
Q 29.296875 78.515625 32.8125 77.734375 
z
M 91.015625 48.046875 
Q 90.625 24.21875 89.0625 2.734375 
Q 88.28125 -4.296875 81.640625 -6.640625 
Q 75 -8.984375 66.796875 -9.765625 
Q 66.40625 -5.46875 63.28125 -0.78125 
Q 71.09375 -1.171875 75.578125 -0.390625 
Q 80.078125 0.390625 81.25 3.125 
Q 82.421875 5.859375 83 19.140625 
Q 83.59375 32.421875 83.984375 56.25 
L 61.328125 56.25 
Q 58.203125 48.828125 52.34375 38.671875 
Q 49.609375 41.40625 45.703125 42.96875 
Q 49.21875 47.65625 52.34375 54.296875 
Q 55.46875 60.9375 57.8125 68.75 
Q 60.15625 76.5625 60.546875 80.859375 
Q 66.015625 78.515625 69.921875 77.34375 
Q 67.96875 74.21875 66.59375 70.5 
Q 65.234375 66.796875 63.671875 63.28125 
L 91.40625 63.28125 
Q 91.015625 55.078125 91.015625 48.046875 
z
M 37.109375 8.203125 
L 37.109375 28.90625 
L 17.1875 28.90625 
L 17.1875 8.203125 
z
M 37.109375 35.546875 
L 37.109375 55.078125 
L 17.1875 55.078125 
L 17.1875 35.546875 
z
M 67.96875 32.03125 
Q 70.3125 27.34375 73.4375 19.921875 
Q 70.703125 18.75 66.015625 16.015625 
Q 63.28125 23.4375 60.9375 28.703125 
Q 58.59375 33.984375 56.25 37.5 
Q 58.984375 39.0625 63.28125 41.40625 
z
" id="SimHei-30340"/>
       <path d="M 33.203125 76.953125 
Q 30.46875 74.21875 25.390625 58.59375 
L 25.390625 8.984375 
Q 25.390625 -3.515625 25.78125 -10.15625 
L 17.1875 -10.15625 
Q 17.96875 -3.125 17.96875 8.59375 
L 17.96875 46.09375 
Q 12.109375 35.546875 8.59375 30.46875 
Q 5.859375 35.546875 3.125 37.890625 
Q 8.203125 43.359375 14.25 55.859375 
Q 20.3125 68.359375 23.4375 81.25 
Q 28.515625 78.125 33.203125 76.953125 
z
M 83.984375 47.265625 
Q 82.421875 44.921875 79.6875 35.15625 
Q 76.953125 25.390625 71.875 4.6875 
L 85.15625 4.6875 
Q 92.578125 4.6875 95.3125 5.078125 
L 95.3125 -2.734375 
Q 91.796875 -2.34375 85.15625 -2.34375 
L 45.3125 -2.34375 
Q 35.546875 -2.34375 32.03125 -2.734375 
L 32.03125 5.078125 
Q 35.546875 4.6875 44.53125 4.6875 
L 63.671875 4.6875 
Q 68.75 21.875 73.4375 49.609375 
Q 79.6875 48.046875 83.984375 47.265625 
z
M 82.03125 62.890625 
Q 89.0625 62.890625 92.578125 63.28125 
L 92.578125 55.859375 
Q 89.0625 56.25 81.640625 56.25 
L 46.875 56.25 
Q 41.40625 56.25 35.546875 55.859375 
L 35.546875 63.28125 
Q 41.796875 62.890625 46.875 62.890625 
z
M 47.65625 47.65625 
Q 54.6875 27.734375 58.59375 11.328125 
Q 53.90625 9.765625 50.78125 8.59375 
Q 48.828125 17.578125 46.28125 26.171875 
Q 43.75 34.765625 39.84375 44.921875 
Q 43.75 45.703125 47.65625 47.65625 
z
M 60.546875 81.25 
Q 65.234375 73.046875 68.75 67.1875 
Q 65.625 66.40625 60.546875 63.671875 
Q 57.8125 70.703125 53.125 77.34375 
Q 57.03125 78.90625 60.546875 81.25 
z
" id="SimHei-20301"/>
       <path d="M 56.25 57.03125 
Q 55.078125 54.296875 54.296875 51.953125 
L 74.21875 51.953125 
Q 79.6875 51.953125 88.671875 52.34375 
L 88.671875 45.703125 
Q 80.078125 46.09375 74.21875 46.09375 
L 53.125 46.09375 
L 52.34375 40.625 
L 78.125 40.625 
Q 77.734375 30.859375 77.734375 24.21875 
L 77.734375 -0.78125 
Q 87.109375 -0.78125 94.140625 -0.390625 
L 94.140625 -6.25 
Q 85.546875 -5.859375 78.125 -5.859375 
L 21.875 -5.859375 
Q 14.0625 -5.859375 6.25 -6.25 
L 6.25 -0.390625 
Q 14.453125 -0.78125 22.65625 -0.78125 
L 22.65625 24.21875 
Q 22.65625 30.859375 22.265625 40.625 
L 44.921875 40.625 
L 45.703125 46.09375 
L 25 46.09375 
Q 17.96875 46.09375 10.15625 45.703125 
L 10.15625 52.34375 
Q 17.96875 51.953125 25 51.953125 
L 46.484375 51.953125 
Q 46.875 55.078125 46.875 57.8125 
Q 50.78125 57.03125 56.25 57.03125 
z
M 87.109375 77.34375 
Q 86.71875 71.875 86.71875 67.1875 
Q 86.71875 62.5 87.109375 58.984375 
L 14.0625 58.984375 
Q 14.453125 63.671875 14.453125 67.578125 
Q 14.453125 71.875 14.0625 77.34375 
L 87.109375 77.34375 
z
M 71.484375 29.6875 
L 71.484375 35.15625 
L 28.90625 35.15625 
L 28.90625 29.6875 
z
M 71.484375 19.53125 
L 71.484375 24.609375 
L 28.90625 24.609375 
L 28.90625 19.53125 
z
M 71.484375 -0.78125 
L 71.484375 4.296875 
L 28.90625 4.296875 
L 28.90625 -0.78125 
z
M 71.484375 9.765625 
L 71.484375 13.671875 
L 28.90625 13.671875 
L 28.90625 9.765625 
z
M 57.8125 64.0625 
L 57.8125 72.265625 
L 42.1875 72.265625 
L 42.1875 64.0625 
z
M 79.296875 64.0625 
L 79.296875 72.265625 
L 64.0625 72.265625 
L 64.0625 64.0625 
z
M 36.71875 64.0625 
L 36.71875 72.265625 
L 21.875 72.265625 
L 21.875 64.0625 
z
" id="SimHei-32622"/>
       <path d="M 16.796875 72.90625 
L 26.703125 72.90625 
L 14.203125 8.203125 
L 49.703125 8.203125 
L 48.09375 0 
L 2.6875 0 
z
" id="DejaVuSans-Oblique-76"/>
       <path d="M 31 75.875 
Q 24.46875 64.65625 21.28125 53.65625 
Q 18.109375 42.671875 18.109375 31.390625 
Q 18.109375 20.125 21.3125 9.0625 
Q 24.515625 -2 31 -13.1875 
L 23.1875 -13.1875 
Q 15.875 -1.703125 12.234375 9.375 
Q 8.59375 20.453125 8.59375 31.390625 
Q 8.59375 42.28125 12.203125 53.3125 
Q 15.828125 64.359375 23.1875 75.875 
z
" id="DejaVuSans-40"/>
       <path d="M 53.609375 52.59375 
L 51.8125 43.703125 
Q 48.578125 46.046875 44.9375 47.21875 
Q 41.3125 48.390625 37.40625 48.390625 
Q 33.109375 48.390625 29.21875 46.875 
Q 25.34375 45.359375 22.703125 42.578125 
Q 18.5 38.328125 16.203125 32.609375 
Q 13.921875 26.90625 13.921875 20.796875 
Q 13.921875 13.421875 17.609375 9.8125 
Q 21.296875 6.203125 28.8125 6.203125 
Q 32.515625 6.203125 36.6875 7.328125 
Q 40.875 8.453125 45.40625 10.6875 
L 43.703125 1.8125 
Q 39.796875 0.203125 35.671875 -0.609375 
Q 31.546875 -1.421875 27.203125 -1.421875 
Q 16.3125 -1.421875 10.453125 4.015625 
Q 4.59375 9.46875 4.59375 19.578125 
Q 4.59375 28.078125 7.640625 35.234375 
Q 10.6875 42.390625 16.703125 48.09375 
Q 20.796875 52 26.3125 54 
Q 31.84375 56 38.375 56 
Q 42.1875 56 45.9375 55.140625 
Q 49.703125 54.296875 53.609375 52.59375 
z
" id="DejaVuSans-Oblique-99"/>
       <path d="M 89.796875 33.015625 
L 83.40625 0 
L 74.421875 0 
L 80.71875 32.71875 
Q 81.109375 34.8125 81.296875 36.328125 
Q 81.5 37.84375 81.5 38.921875 
Q 81.5 43.3125 79.046875 45.75 
Q 76.609375 48.1875 72.21875 48.1875 
Q 65.671875 48.1875 60.546875 43.28125 
Q 55.421875 38.375 53.90625 30.515625 
L 47.90625 0 
L 38.921875 0 
L 45.3125 32.71875 
Q 45.703125 34.515625 45.890625 36.046875 
Q 46.09375 37.59375 46.09375 38.8125 
Q 46.09375 43.265625 43.65625 45.71875 
Q 41.21875 48.1875 36.921875 48.1875 
Q 30.28125 48.1875 25.140625 43.28125 
Q 20.015625 38.375 18.5 30.515625 
L 12.5 0 
L 3.515625 0 
L 14.203125 54.6875 
L 23.1875 54.6875 
L 21.484375 46.1875 
Q 25.140625 50.984375 30.046875 53.484375 
Q 34.96875 56 40.578125 56 
Q 46.53125 56 50.359375 52.875 
Q 54.203125 49.75 54.984375 44.1875 
Q 59.078125 49.953125 64.46875 52.96875 
Q 69.875 56 75.875 56 
Q 82.90625 56 86.734375 51.953125 
Q 90.578125 47.90625 90.578125 40.484375 
Q 90.578125 38.875 90.375 36.9375 
Q 90.1875 35.015625 89.796875 33.015625 
z
" id="DejaVuSans-Oblique-109"/>
       <path d="M 8.015625 75.875 
L 15.828125 75.875 
Q 23.140625 64.359375 26.78125 53.3125 
Q 30.421875 42.28125 30.421875 31.390625 
Q 30.421875 20.453125 26.78125 9.375 
Q 23.140625 -1.703125 15.828125 -13.1875 
L 8.015625 -13.1875 
Q 14.5 -2 17.703125 9.0625 
Q 20.90625 20.125 20.90625 31.390625 
Q 20.90625 42.671875 17.703125 53.65625 
Q 14.5 64.65625 8.015625 75.875 
z
" id="DejaVuSans-41"/>
      </defs>
      <use transform="translate(0 0.578125)" xlink:href="#SimHei-26865"/>
      <use transform="translate(100 0.578125)" xlink:href="#SimHei-38236"/>
      <use transform="translate(200 0.578125)" xlink:href="#SimHei-23567"/>
      <use transform="translate(300 0.578125)" xlink:href="#SimHei-36710"/>
      <use transform="translate(400 0.578125)" xlink:href="#SimHei-30340"/>
      <use transform="translate(500 0.578125)" xlink:href="#SimHei-20301"/>
      <use transform="translate(600 0.578125)" xlink:href="#SimHei-32622"/>
      <use transform="translate(700 0.578125)" xlink:href="#DejaVuSans-Oblique-76"/>
      <use transform="translate(755.712891 0.578125)" xlink:href="#DejaVuSans-40"/>
      <use transform="translate(794.726562 0.578125)" xlink:href="#DejaVuSans-Oblique-99"/>
      <use transform="translate(849.707031 0.578125)" xlink:href="#DejaVuSans-Oblique-109"/>
      <use transform="translate(947.119141 0.578125)" xlink:href="#DejaVuSans-41"/>
     </g>
    </g>
   </g>
   <g id="matplotlib.axis_2">
    <g id="ytick_1">
     <g id="line2d_21">
      <path clip-path="url(#pd122658b08)" d="M 40.1 240.42 
L 374.9 240.42 
" style="fill:none;stroke:#b0b0b0;stroke-linecap:square;stroke-opacity:0.4;stroke-width:0.8;"/>
     </g>
     <g id="line2d_22">
      <defs>
       <path d="M 0 0 
L 3.5 0 
" id="mf1428a5f3c" style="stroke:#000000;stroke-width:0.8;"/>
      </defs>
      <g>
       <use style="stroke:#000000;stroke-width:0.8;" x="40.1" xlink:href="#mf1428a5f3c" y="240.42"/>
      </g>
     </g>
     <g id="text_12">
      <!-- 0.6 -->
      <g transform="translate(21.6 243.8575)scale(0.1 -0.1)">
       <defs>
        <path d="M 16.796875 1.953125 
L 7.8125 1.953125 
L 7.8125 10.546875 
L 16.796875 10.546875 
z
" id="SimHei-46"/>
        <path d="M 3.515625 19.53125 
Q 4.296875 30.859375 6.046875 34.765625 
Q 7.8125 38.671875 11.328125 44.53125 
L 27.34375 69.53125 
L 36.328125 69.53125 
L 19.921875 43.75 
Q 30.46875 46.484375 36.71875 42.96875 
Q 42.96875 39.453125 45.109375 34.953125 
Q 47.265625 30.46875 47.453125 25.1875 
Q 47.65625 19.921875 45.890625 14.84375 
Q 44.140625 9.765625 39.640625 5.65625 
Q 35.15625 1.5625 27.140625 1.171875 
Q 19.140625 0.78125 13.46875 4.09375 
Q 7.8125 7.421875 5.65625 13.46875 
Q 3.515625 19.53125 4.296875 30.859375 
z
M 12.5 16.015625 
Q 19.53125 8.59375 25.390625 8.203125 
Q 31.25 7.8125 35.15625 12.109375 
Q 39.0625 16.40625 39.0625 24.609375 
Q 39.0625 32.8125 34.171875 35.9375 
Q 29.296875 39.0625 23.234375 38.28125 
Q 17.1875 37.5 14.453125 32.421875 
Q 11.71875 27.34375 12.109375 21.671875 
Q 12.5 16.015625 19.53125 8.59375 
z
" id="SimHei-54"/>
       </defs>
       <use xlink:href="#SimHei-48"/>
       <use x="50" xlink:href="#SimHei-46"/>
       <use x="100" xlink:href="#SimHei-54"/>
      </g>
     </g>
    </g>
    <g id="ytick_2">
     <g id="line2d_23">
      <path clip-path="url(#pd122658b08)" d="M 40.1 196.932 
L 374.9 196.932 
" style="fill:none;stroke:#b0b0b0;stroke-linecap:square;stroke-opacity:0.4;stroke-width:0.8;"/>
     </g>
     <g id="line2d_24">
      <g>
       <use style="stroke:#000000;stroke-width:0.8;" x="40.1" xlink:href="#mf1428a5f3c" y="196.932"/>
      </g>
     </g>
     <g id="text_13">
      <!-- 0.8 -->
      <g transform="translate(21.6 200.3695)scale(0.1 -0.1)">
       <defs>
        <path d="M 2.734375 16.796875 
Q 2.734375 26.171875 5.078125 30.65625 
Q 7.421875 35.15625 12.890625 37.890625 
Q 8.203125 40.625 6.640625 43.9375 
Q 5.078125 47.265625 4.875 51.5625 
Q 4.6875 55.859375 6.046875 58.984375 
Q 7.421875 62.109375 10.15625 64.84375 
Q 12.890625 67.578125 16.203125 68.546875 
Q 19.53125 69.53125 23.4375 69.53125 
Q 27.34375 69.53125 30.46875 68.75 
Q 33.59375 67.96875 37.109375 65.421875 
Q 40.625 62.890625 42.1875 58.203125 
Q 43.75 53.515625 41.984375 47.265625 
Q 40.234375 41.015625 32.8125 37.5 
Q 39.453125 35.546875 42.1875 31.4375 
Q 44.921875 27.34375 44.921875 21.484375 
Q 44.921875 15.625 43.15625 12.109375 
Q 41.40625 8.59375 39.25 6.25 
Q 37.109375 3.90625 33.390625 2.53125 
Q 29.6875 1.171875 24.015625 1.171875 
Q 18.359375 1.171875 14.25 2.53125 
Q 10.15625 3.90625 7.421875 6.640625 
Q 4.6875 9.375 3.703125 13.078125 
Q 2.734375 16.796875 2.734375 26.171875 
z
M 10.9375 26.5625 
Q 10.546875 17.1875 12.296875 13.671875 
Q 14.0625 10.15625 18.75 9.171875 
Q 23.4375 8.203125 28.515625 9.375 
Q 33.59375 10.546875 35.546875 14.84375 
Q 37.5 19.140625 36.90625 23.4375 
Q 36.328125 27.734375 32.03125 30.65625 
Q 27.734375 33.59375 22.65625 33.203125 
Q 17.578125 32.8125 14.25 29.6875 
Q 10.9375 26.5625 10.546875 17.1875 
z
M 12.109375 56.25 
Q 12.109375 48.4375 14.84375 44.921875 
Q 17.578125 41.40625 23.4375 41.40625 
Q 29.296875 41.40625 32.21875 44.921875 
Q 35.15625 48.4375 34.953125 53.3125 
Q 34.765625 58.203125 31.4375 60.546875 
Q 28.125 62.890625 22.453125 62.5 
Q 16.796875 62.109375 14.453125 59.171875 
Q 12.109375 56.25 12.109375 48.4375 
z
" id="SimHei-56"/>
       </defs>
       <use xlink:href="#SimHei-48"/>
       <use x="50" xlink:href="#SimHei-46"/>
       <use x="100" xlink:href="#SimHei-56"/>
      </g>
     </g>
    </g>
    <g id="ytick_3">
     <g id="line2d_25">
      <path clip-path="url(#pd122658b08)" d="M 40.1 153.444 
L 374.9 153.444 
" style="fill:none;stroke:#b0b0b0;stroke-linecap:square;stroke-opacity:0.4;stroke-width:0.8;"/>
     </g>
     <g id="line2d_26">
      <g>
       <use style="stroke:#000000;stroke-width:0.8;" x="40.1" xlink:href="#mf1428a5f3c" y="153.444"/>
      </g>
     </g>
     <g id="text_14">
      <!-- 1.0 -->
      <g transform="translate(21.6 156.8815)scale(0.1 -0.1)">
       <use xlink:href="#SimHei-49"/>
       <use x="50" xlink:href="#SimHei-46"/>
       <use x="100" xlink:href="#SimHei-48"/>
      </g>
     </g>
    </g>
    <g id="ytick_4">
     <g id="line2d_27">
      <path clip-path="url(#pd122658b08)" d="M 40.1 109.956 
L 374.9 109.956 
" style="fill:none;stroke:#b0b0b0;stroke-linecap:square;stroke-opacity:0.4;stroke-width:0.8;"/>
     </g>
     <g id="line2d_28">
      <g>
       <use style="stroke:#000000;stroke-width:0.8;" x="40.1" xlink:href="#mf1428a5f3c" y="109.956"/>
      </g>
     </g>
     <g id="text_15">
      <!-- 1.2 -->
      <g transform="translate(21.6 113.3935)scale(0.1 -0.1)">
       <use xlink:href="#SimHei-49"/>
       <use x="50" xlink:href="#SimHei-46"/>
       <use x="100" xlink:href="#SimHei-50"/>
      </g>
     </g>
    </g>
    <g id="ytick_5">
     <g id="line2d_29">
      <path clip-path="url(#pd122658b08)" d="M 40.1 66.468 
L 374.9 66.468 
" style="fill:none;stroke:#b0b0b0;stroke-linecap:square;stroke-opacity:0.4;stroke-width:0.8;"/>
     </g>
     <g id="line2d_30">
      <g>
       <use style="stroke:#000000;stroke-width:0.8;" x="40.1" xlink:href="#mf1428a5f3c" y="66.468"/>
      </g>
     </g>
     <g id="text_16">
      <!-- 1.4 -->
      <g transform="translate(21.6 69.9055)scale(0.1 -0.1)">
       <use xlink:href="#SimHei-49"/>
       <use x="50" xlink:href="#SimHei-46"/>
       <use x="100" xlink:href="#SimHei-52"/>
      </g>
     </g>
    </g>
    <g id="ytick_6">
     <g id="line2d_31">
      <path clip-path="url(#pd122658b08)" d="M 40.1 22.98 
L 374.9 22.98 
" style="fill:none;stroke:#b0b0b0;stroke-linecap:square;stroke-opacity:0.4;stroke-width:0.8;"/>
     </g>
     <g id="line2d_32">
      <g>
       <use style="stroke:#000000;stroke-width:0.8;" x="40.1" xlink:href="#mf1428a5f3c" y="22.98"/>
      </g>
     </g>
     <g id="text_17">
      <!-- 1.6 -->
      <g transform="translate(21.6 26.4175)scale(0.1 -0.1)">
       <use xlink:href="#SimHei-49"/>
       <use x="50" xlink:href="#SimHei-46"/>
       <use x="100" xlink:href="#SimHei-54"/>
      </g>
     </g>
    </g>
    <g id="text_18">
     <!-- 信号时间差$t(\mu s)$ -->
     <g transform="translate(15.5 168.35)rotate(-90)scale(0.1 -0.1)">
      <defs>
       <path d="M 88.28125 24.609375 
Q 87.890625 19.921875 87.890625 8.984375 
Q 87.890625 -1.5625 88.28125 -7.03125 
L 80.859375 -7.03125 
L 80.859375 -0.390625 
L 47.265625 -0.390625 
L 47.265625 -8.59375 
L 39.453125 -8.59375 
Q 39.84375 -2.734375 39.84375 7.8125 
Q 39.84375 18.75 39.453125 24.609375 
L 88.28125 24.609375 
z
M 33.203125 77.734375 
Q 30.859375 75.390625 25.78125 62.109375 
L 25.78125 8.59375 
Q 25.78125 -3.125 26.171875 -9.765625 
L 17.578125 -9.765625 
Q 18.75 -2.734375 18.75 8.984375 
L 18.75 48.4375 
Q 14.0625 39.0625 9.765625 32.8125 
Q 7.421875 36.71875 3.90625 39.0625 
Q 8.203125 43.75 14.453125 55.65625 
Q 20.703125 67.578125 23.828125 80.859375 
Q 28.125 79.296875 33.203125 77.734375 
z
M 80.859375 5.859375 
L 80.859375 19.140625 
L 47.265625 19.140625 
L 47.265625 5.859375 
z
M 94.921875 60.9375 
Q 87.109375 61.328125 64.0625 61.328125 
Q 41.015625 61.328125 32.8125 60.9375 
L 32.8125 67.578125 
L 94.921875 67.578125 
z
M 89.0625 46.875 
Q 82.421875 47.265625 64.84375 47.265625 
Q 47.265625 47.265625 38.671875 46.875 
L 38.671875 53.515625 
Q 46.09375 53.125 64.0625 53.125 
Q 82.421875 53.125 89.0625 53.515625 
z
M 89.0625 33.203125 
Q 83.59375 33.59375 65.234375 33.59375 
Q 47.265625 33.59375 38.671875 33.203125 
L 38.671875 39.84375 
Q 46.875 39.453125 65.234375 39.453125 
Q 83.984375 39.453125 89.0625 39.84375 
z
M 62.890625 81.25 
Q 64.0625 78.90625 65.234375 76.171875 
Q 66.40625 73.4375 67.578125 70.3125 
Q 64.0625 69.140625 60.546875 68.359375 
Q 57.8125 76.5625 55.859375 78.515625 
Q 59.765625 80.078125 62.890625 81.25 
z
" id="SimHei-20449"/>
       <path d="M 78.515625 76.953125 
Q 78.125 71.09375 78.125 63.671875 
Q 78.125 56.25 78.515625 49.609375 
L 21.875 49.609375 
Q 22.265625 55.078125 22.265625 62.5 
Q 22.265625 70.3125 21.875 76.953125 
L 78.515625 76.953125 
z
M 80.859375 41.015625 
Q 88.28125 41.015625 94.140625 41.40625 
L 94.140625 34.375 
Q 88.28125 34.765625 80.859375 34.765625 
L 38.28125 34.765625 
Q 36.71875 29.296875 34.765625 22.65625 
L 80.859375 22.65625 
Q 79.6875 16.40625 79.09375 12.109375 
Q 78.515625 7.8125 77.34375 1.75 
Q 76.171875 -4.296875 72.65625 -6.4375 
Q 69.140625 -8.59375 50.390625 -9.765625 
Q 48.828125 -5.46875 46.484375 -0.78125 
Q 60.546875 -1.171875 64.25 -0.78125 
Q 67.96875 -0.390625 69.140625 3.3125 
Q 70.3125 7.03125 71.484375 16.015625 
L 25 16.015625 
Q 28.515625 25.390625 30.46875 34.765625 
L 21.09375 34.765625 
Q 12.890625 34.765625 5.859375 34.375 
L 5.859375 41.40625 
Q 12.890625 41.015625 21.09375 41.015625 
z
M 70.703125 55.859375 
L 70.703125 70.703125 
L 29.6875 70.703125 
L 29.6875 55.859375 
z
" id="SimHei-21495"/>
       <path d="M 39.453125 71.484375 
Q 39.0625 57.421875 39.0625 37.5 
Q 39.0625 17.578125 39.453125 6.25 
L 31.25 6.25 
L 31.25 13.671875 
L 15.625 13.671875 
L 15.625 0.78125 
L 7.421875 0.78125 
Q 7.8125 18.75 7.8125 36.71875 
Q 7.8125 55.078125 7.421875 71.484375 
L 39.453125 71.484375 
z
M 76.171875 59.765625 
Q 76.171875 71.484375 75.78125 81.640625 
L 84.375 81.640625 
Q 83.984375 71.484375 83.984375 59.765625 
Q 89.84375 59.765625 96.484375 60.15625 
L 96.484375 52.734375 
Q 89.84375 53.125 83.984375 53.125 
L 83.984375 0.78125 
Q 83.984375 -5.078125 79.296875 -6.640625 
Q 74.609375 -8.203125 67.1875 -8.984375 
Q 67.1875 -4.296875 62.890625 0 
Q 70.3125 -0.78125 73.234375 -0.390625 
Q 76.171875 0 76.171875 4.6875 
L 76.171875 53.125 
Q 56.640625 53.125 43.359375 52.734375 
L 43.359375 60.15625 
Q 55.859375 59.765625 76.171875 59.765625 
z
M 31.25 20.3125 
L 31.25 39.84375 
L 15.625 39.84375 
L 15.625 20.3125 
z
M 31.25 46.484375 
L 31.25 64.84375 
L 15.625 64.84375 
L 15.625 46.484375 
z
M 55.46875 42.578125 
Q 60.546875 34.375 65.234375 25 
Q 61.328125 23.828125 57.03125 21.484375 
Q 53.90625 30.859375 48.046875 39.0625 
Q 51.5625 40.625 55.46875 42.578125 
z
" id="SimHei-26102"/>
       <path d="M 69.53125 55.46875 
Q 69.140625 48.046875 69.140625 42.578125 
L 69.140625 21.875 
Q 69.140625 16.796875 69.53125 9.765625 
L 30.078125 9.765625 
Q 30.46875 16.796875 30.46875 22.265625 
L 30.46875 42.578125 
Q 30.46875 48.046875 30.078125 55.46875 
L 69.53125 55.46875 
z
M 90.625 76.171875 
Q 90.234375 68.75 90.234375 61.328125 
L 90.234375 3.90625 
Q 90.625 -5.078125 85.34375 -7.03125 
Q 80.078125 -8.984375 73.828125 -9.765625 
Q 73.4375 -5.078125 70.703125 -0.390625 
Q 78.125 -0.78125 80.265625 0.390625 
Q 82.421875 1.5625 82.421875 5.46875 
L 82.421875 69.53125 
L 58.984375 69.53125 
Q 49.609375 69.53125 41.40625 69.140625 
L 41.40625 76.5625 
Q 49.609375 76.171875 58.984375 76.171875 
z
M 8.59375 -8.203125 
Q 9.375 -0.390625 9.375 8.203125 
L 9.375 49.21875 
Q 9.375 57.421875 8.59375 62.890625 
L 17.578125 62.890625 
Q 17.1875 57.03125 17.1875 51.5625 
L 17.1875 7.8125 
Q 17.1875 0 17.578125 -8.203125 
z
M 61.71875 16.015625 
L 61.71875 30.46875 
L 37.890625 30.46875 
L 37.890625 16.015625 
z
M 61.71875 36.71875 
L 61.71875 49.21875 
L 37.890625 49.21875 
L 37.890625 36.71875 
z
M 23.828125 82.8125 
Q 27.34375 78.125 34.765625 67.96875 
Q 30.46875 66.015625 26.5625 63.671875 
Q 22.65625 71.484375 16.796875 78.515625 
Q 21.09375 81.640625 23.828125 82.8125 
z
" id="SimHei-38388"/>
       <path d="M 73.828125 77.734375 
Q 70.3125 73.828125 66.40625 66.796875 
L 75.78125 66.796875 
Q 85.15625 66.796875 91.015625 67.1875 
L 91.015625 60.15625 
Q 84.765625 60.546875 75.78125 60.546875 
L 51.171875 60.546875 
Q 50.390625 56.25 49.21875 51.171875 
L 70.703125 51.171875 
Q 79.296875 51.171875 86.328125 51.5625 
L 86.328125 44.53125 
Q 79.296875 44.921875 70.3125 44.921875 
L 47.65625 44.921875 
Q 46.484375 41.40625 44.53125 36.328125 
L 80.078125 36.328125 
Q 88.671875 36.328125 94.140625 36.71875 
L 94.140625 29.6875 
Q 89.0625 30.078125 80.46875 30.078125 
L 41.40625 30.078125 
Q 37.890625 24.21875 35.15625 20.3125 
Q 41.40625 19.921875 48.4375 19.921875 
L 70.703125 19.921875 
Q 77.734375 19.921875 83.59375 20.3125 
L 83.59375 13.28125 
Q 77.734375 13.671875 71.484375 13.671875 
L 61.328125 13.671875 
L 61.328125 -0.78125 
L 78.125 -0.78125 
Q 81.25 -0.78125 92.1875 -0.390625 
L 92.1875 -7.8125 
Q 82.421875 -7.421875 78.515625 -7.421875 
L 32.8125 -7.421875 
Q 26.5625 -7.421875 21.875 -7.8125 
L 21.875 -0.390625 
Q 27.734375 -0.78125 33.203125 -0.78125 
L 53.515625 -0.78125 
L 53.515625 13.671875 
L 48.4375 13.671875 
Q 41.015625 13.671875 33.984375 13.28125 
L 33.984375 18.75 
Q 30.078125 13.671875 23.234375 7.421875 
Q 16.40625 1.171875 9.765625 -3.90625 
Q 6.640625 -0.390625 3.125 2.34375 
Q 11.71875 7.421875 19.71875 14.453125 
Q 27.734375 21.484375 32.8125 30.078125 
L 20.703125 30.078125 
Q 11.71875 30.078125 5.859375 29.6875 
L 5.859375 36.71875 
Q 11.71875 36.328125 21.09375 36.328125 
L 36.328125 36.328125 
Q 38.28125 40.234375 39.84375 44.921875 
L 26.953125 44.921875 
Q 21.484375 44.921875 15.625 44.53125 
L 15.625 51.5625 
Q 23.4375 51.171875 26.5625 51.171875 
L 41.40625 51.171875 
Q 42.578125 55.859375 43.359375 60.546875 
L 23.4375 60.546875 
Q 17.1875 60.546875 10.15625 60.15625 
L 10.15625 67.1875 
Q 16.015625 66.796875 22.265625 66.796875 
L 35.546875 66.796875 
Q 32.421875 73.046875 28.90625 77.34375 
Q 31.640625 78.90625 35.15625 81.640625 
Q 38.28125 77.734375 42.578125 71.09375 
Q 39.453125 69.53125 36.328125 66.796875 
L 58.59375 66.796875 
Q 62.5 73.4375 64.84375 82.03125 
Q 68.75 79.6875 73.828125 77.734375 
z
" id="SimHei-24046"/>
       <path d="M 42.28125 54.6875 
L 40.921875 47.703125 
L 23 47.703125 
L 17.1875 18.015625 
Q 16.890625 16.359375 16.75 15.234375 
Q 16.609375 14.109375 16.609375 13.484375 
Q 16.609375 10.359375 18.484375 8.9375 
Q 20.359375 7.515625 24.515625 7.515625 
L 33.59375 7.515625 
L 32.078125 0 
L 23.484375 0 
Q 15.484375 0 11.546875 3.125 
Q 7.625 6.25 7.625 12.59375 
Q 7.625 13.71875 7.765625 15.0625 
Q 7.90625 16.40625 8.203125 18.015625 
L 14.015625 47.703125 
L 6.390625 47.703125 
L 7.8125 54.6875 
L 15.28125 54.6875 
L 18.3125 70.21875 
L 27.296875 70.21875 
L 24.3125 54.6875 
z
" id="DejaVuSans-Oblique-116"/>
       <path d="M -1.3125 -20.796875 
L 13.375 54.6875 
L 22.40625 54.6875 
L 15.765625 20.65625 
Q 15.578125 19.625 15.421875 18.359375 
Q 15.28125 17.09375 15.28125 15.828125 
Q 15.28125 11.28125 18.140625 8.828125 
Q 21 6.390625 26.3125 6.390625 
Q 33.546875 6.390625 37.984375 10.484375 
Q 42.4375 14.59375 44 22.796875 
L 50.203125 54.6875 
L 59.1875 54.6875 
L 51.03125 12.640625 
Q 50.828125 11.71875 50.75 11.03125 
Q 50.6875 10.359375 50.6875 9.8125 
Q 50.6875 8.296875 51.296875 7.59375 
Q 51.90625 6.890625 53.21875 6.890625 
Q 53.71875 6.890625 54.5625 7.125 
Q 55.421875 7.375 56.984375 8.015625 
L 55.609375 0.78125 
Q 53.46875 -0.296875 51.515625 -0.859375 
Q 49.5625 -1.421875 47.703125 -1.421875 
Q 44.484375 -1.421875 42.65625 0.625 
Q 40.828125 2.6875 40.828125 6.296875 
Q 38.09375 2.390625 34.296875 0.484375 
Q 30.515625 -1.421875 25.390625 -1.421875 
Q 20.84375 -1.421875 17.453125 0.671875 
Q 14.0625 2.78125 12.984375 6.203125 
L 7.71875 -20.796875 
z
" id="DejaVuSans-Oblique-956"/>
       <path d="M 50 53.078125 
L 48.296875 44.578125 
Q 44.734375 46.53125 40.765625 47.5 
Q 36.8125 48.484375 32.625 48.484375 
Q 25.53125 48.484375 21.453125 46.0625 
Q 17.390625 43.65625 17.390625 39.5 
Q 17.390625 34.671875 26.859375 32.078125 
Q 27.59375 31.890625 27.9375 31.78125 
L 30.8125 30.90625 
Q 39.796875 28.421875 42.796875 25.6875 
Q 45.796875 22.953125 45.796875 18.21875 
Q 45.796875 9.515625 38.890625 4.046875 
Q 31.984375 -1.421875 20.796875 -1.421875 
Q 16.453125 -1.421875 11.671875 -0.578125 
Q 6.890625 0.25 1.125 2 
L 2.875 11.28125 
Q 7.8125 8.734375 12.59375 7.421875 
Q 17.390625 6.109375 21.78125 6.109375 
Q 28.375 6.109375 32.5 8.9375 
Q 36.625 11.765625 36.625 16.109375 
Q 36.625 20.796875 25.78125 23.6875 
L 24.859375 23.921875 
L 21.78125 24.703125 
Q 14.9375 26.515625 11.765625 29.46875 
Q 8.59375 32.421875 8.59375 37.015625 
Q 8.59375 45.75 15.15625 50.875 
Q 21.734375 56 33.015625 56 
Q 37.453125 56 41.671875 55.265625 
Q 45.90625 54.546875 50 53.078125 
z
" id="DejaVuSans-Oblique-115"/>
      </defs>
      <use transform="translate(0 0.1875)" xlink:href="#SimHei-20449"/>
      <use transform="translate(100 0.1875)" xlink:href="#SimHei-21495"/>
      <use transform="translate(200 0.1875)" xlink:href="#SimHei-26102"/>
      <use transform="translate(300 0.1875)" xlink:href="#SimHei-38388"/>
      <use transform="translate(400 0.1875)" xlink:href="#SimHei-24046"/>
      <use transform="translate(500 0.1875)" xlink:href="#DejaVuSans-Oblique-116"/>
      <use transform="translate(539.208984 0.1875)" xlink:href="#DejaVuSans-40"/>
      <use transform="translate(578.222656 0.1875)" xlink:href="#DejaVuSans-Oblique-956"/>
      <use transform="translate(641.845703 0.1875)" xlink:href="#DejaVuSans-Oblique-115"/>
      <use transform="translate(693.945312 0.1875)" xlink:href="#DejaVuSans-41"/>
     </g>
    </g>
   </g>
   <g id="line2d_33">
    <path clip-path="url(#pd122658b08)" d="M 40.1 25.930971 
L 374.9 233.392029 
L 374.9 233.392029 
" style="fill:none;stroke:#1f77b4;stroke-linecap:square;stroke-width:1.5;"/>
   </g>
   <g id="line2d_34">
    <defs>
     <path d="M 0 1.5 
C 0.397805 1.5 0.77937 1.341951 1.06066 1.06066 
C 1.341951 0.77937 1.5 0.397805 1.5 0 
C 1.5 -0.397805 1.341951 -0.77937 1.06066 -1.06066 
C 0.77937 -1.341951 0.397805 -1.5 0 -1.5 
C -0.397805 -1.5 -0.77937 -1.341951 -1.06066 -1.06066 
C -1.341951 -0.77937 -1.5 -0.397805 -1.5 0 
C -1.5 0.397805 -1.341951 0.77937 -1.06066 1.06066 
C -0.77937 1.341951 -0.397805 1.5 0 1.5 
z
" id="mda9caf388d" style="stroke:#ff7f0e;"/>
    </defs>
    <g clip-path="url(#pd122658b08)">
     <use style="fill:#ff7f0e;stroke:#ff7f0e;" x="337.7" xlink:href="#mda9caf388d" y="207.804"/>
     <use style="fill:#ff7f0e;stroke:#ff7f0e;" x="300.5" xlink:href="#mda9caf388d" y="186.06"/>
     <use style="fill:#ff7f0e;stroke:#ff7f0e;" x="263.3" xlink:href="#mda9caf388d" y="164.316"/>
     <use style="fill:#ff7f0e;stroke:#ff7f0e;" x="226.1" xlink:href="#mda9caf388d" y="144.7464"/>
     <use style="fill:#ff7f0e;stroke:#ff7f0e;" x="188.9" xlink:href="#mda9caf388d" y="120.828"/>
     <use style="fill:#ff7f0e;stroke:#ff7f0e;" x="151.7" xlink:href="#mda9caf388d" y="96.9096"/>
     <use style="fill:#ff7f0e;stroke:#ff7f0e;" x="114.5" xlink:href="#mda9caf388d" y="70.8168"/>
     <use style="fill:#ff7f0e;stroke:#ff7f0e;" x="77.3" xlink:href="#mda9caf388d" y="45.8112"/>
    </g>
   </g>
   <g id="patch_3">
    <path d="M 40.1 240.42 
L 40.1 22.98 
" style="fill:none;stroke:#000000;stroke-linecap:square;stroke-linejoin:miter;stroke-width:0.8;"/>
   </g>
   <g id="patch_4">
    <path d="M 374.9 240.42 
L 374.9 22.98 
" style="fill:none;stroke:#000000;stroke-linecap:square;stroke-linejoin:miter;stroke-width:0.8;"/>
   </g>
   <g id="patch_5">
    <path d="M 40.1 240.42 
L 374.9 240.42 
" style="fill:none;stroke:#000000;stroke-linecap:square;stroke-linejoin:miter;stroke-width:0.8;"/>
   </g>
   <g id="patch_6">
    <path d="M 40.1 22.98 
L 374.9 22.98 
" style="fill:none;stroke:#000000;stroke-linecap:square;stroke-linejoin:miter;stroke-width:0.8;"/>
   </g>
   <g id="text_19">
    <!-- $t=-0.0212*L+1.8$ -->
    <g transform="translate(263.3 109.956)scale(0.1 -0.1)">
     <defs>
      <path d="M 10.59375 45.40625 
L 73.1875 45.40625 
L 73.1875 37.203125 
L 10.59375 37.203125 
z
M 10.59375 25.484375 
L 73.1875 25.484375 
L 73.1875 17.1875 
L 10.59375 17.1875 
z
" id="DejaVuSans-61"/>
      <path d="M 10.59375 35.5 
L 73.1875 35.5 
L 73.1875 27.203125 
L 10.59375 27.203125 
z
" id="DejaVuSans-8722"/>
      <path d="M 31.78125 66.40625 
Q 24.171875 66.40625 20.328125 58.90625 
Q 16.5 51.421875 16.5 36.375 
Q 16.5 21.390625 20.328125 13.890625 
Q 24.171875 6.390625 31.78125 6.390625 
Q 39.453125 6.390625 43.28125 13.890625 
Q 47.125 21.390625 47.125 36.375 
Q 47.125 51.421875 43.28125 58.90625 
Q 39.453125 66.40625 31.78125 66.40625 
z
M 31.78125 74.21875 
Q 44.046875 74.21875 50.515625 64.515625 
Q 56.984375 54.828125 56.984375 36.375 
Q 56.984375 17.96875 50.515625 8.265625 
Q 44.046875 -1.421875 31.78125 -1.421875 
Q 19.53125 -1.421875 13.0625 8.265625 
Q 6.59375 17.96875 6.59375 36.375 
Q 6.59375 54.828125 13.0625 64.515625 
Q 19.53125 74.21875 31.78125 74.21875 
z
" id="DejaVuSans-48"/>
      <path d="M 10.6875 12.40625 
L 21 12.40625 
L 21 0 
L 10.6875 0 
z
" id="DejaVuSans-46"/>
      <path d="M 19.1875 8.296875 
L 53.609375 8.296875 
L 53.609375 0 
L 7.328125 0 
L 7.328125 8.296875 
Q 12.9375 14.109375 22.625 23.890625 
Q 32.328125 33.6875 34.8125 36.53125 
Q 39.546875 41.84375 41.421875 45.53125 
Q 43.3125 49.21875 43.3125 52.78125 
Q 43.3125 58.59375 39.234375 62.25 
Q 35.15625 65.921875 28.609375 65.921875 
Q 23.96875 65.921875 18.8125 64.3125 
Q 13.671875 62.703125 7.8125 59.421875 
L 7.8125 69.390625 
Q 13.765625 71.78125 18.9375 73 
Q 24.125 74.21875 28.421875 74.21875 
Q 39.75 74.21875 46.484375 68.546875 
Q 53.21875 62.890625 53.21875 53.421875 
Q 53.21875 48.921875 51.53125 44.890625 
Q 49.859375 40.875 45.40625 35.40625 
Q 44.1875 33.984375 37.640625 27.21875 
Q 31.109375 20.453125 19.1875 8.296875 
z
" id="DejaVuSans-50"/>
      <path d="M 12.40625 8.296875 
L 28.515625 8.296875 
L 28.515625 63.921875 
L 10.984375 60.40625 
L 10.984375 69.390625 
L 28.421875 72.90625 
L 38.28125 72.90625 
L 38.28125 8.296875 
L 54.390625 8.296875 
L 54.390625 0 
L 12.40625 0 
z
" id="DejaVuSans-49"/>
      <path d="M 47.015625 60.890625 
L 29.5 51.421875 
L 47.015625 41.890625 
L 44.1875 37.109375 
L 27.78125 47.015625 
L 27.78125 28.609375 
L 22.21875 28.609375 
L 22.21875 47.015625 
L 5.8125 37.109375 
L 2.984375 41.890625 
L 20.515625 51.421875 
L 2.984375 60.890625 
L 5.8125 65.71875 
L 22.21875 55.8125 
L 22.21875 74.21875 
L 27.78125 74.21875 
L 27.78125 55.8125 
L 44.1875 65.71875 
z
" id="DejaVuSans-42"/>
      <path d="M 46 62.703125 
L 46 35.5 
L 73.1875 35.5 
L 73.1875 27.203125 
L 46 27.203125 
L 46 0 
L 37.796875 0 
L 37.796875 27.203125 
L 10.59375 27.203125 
L 10.59375 35.5 
L 37.796875 35.5 
L 37.796875 62.703125 
z
" id="DejaVuSans-43"/>
      <path d="M 31.78125 34.625 
Q 24.75 34.625 20.71875 30.859375 
Q 16.703125 27.09375 16.703125 20.515625 
Q 16.703125 13.921875 20.71875 10.15625 
Q 24.75 6.390625 31.78125 6.390625 
Q 38.8125 6.390625 42.859375 10.171875 
Q 46.921875 13.96875 46.921875 20.515625 
Q 46.921875 27.09375 42.890625 30.859375 
Q 38.875 34.625 31.78125 34.625 
z
M 21.921875 38.8125 
Q 15.578125 40.375 12.03125 44.71875 
Q 8.5 49.078125 8.5 55.328125 
Q 8.5 64.0625 14.71875 69.140625 
Q 20.953125 74.21875 31.78125 74.21875 
Q 42.671875 74.21875 48.875 69.140625 
Q 55.078125 64.0625 55.078125 55.328125 
Q 55.078125 49.078125 51.53125 44.71875 
Q 48 40.375 41.703125 38.8125 
Q 48.828125 37.15625 52.796875 32.3125 
Q 56.78125 27.484375 56.78125 20.515625 
Q 56.78125 9.90625 50.3125 4.234375 
Q 43.84375 -1.421875 31.78125 -1.421875 
Q 19.734375 -1.421875 13.25 4.234375 
Q 6.78125 9.90625 6.78125 20.515625 
Q 6.78125 27.484375 10.78125 32.3125 
Q 14.796875 37.15625 21.921875 38.8125 
z
M 18.3125 54.390625 
Q 18.3125 48.734375 21.84375 45.5625 
Q 25.390625 42.390625 31.78125 42.390625 
Q 38.140625 42.390625 41.71875 45.5625 
Q 45.3125 48.734375 45.3125 54.390625 
Q 45.3125 60.0625 41.71875 63.234375 
Q 38.140625 66.40625 31.78125 66.40625 
Q 25.390625 66.40625 21.84375 63.234375 
Q 18.3125 60.0625 18.3125 54.390625 
z
" id="DejaVuSans-56"/>
     </defs>
     <use transform="translate(0 0.78125)" xlink:href="#DejaVuSans-Oblique-116"/>
     <use transform="translate(58.691406 0.78125)" xlink:href="#DejaVuSans-61"/>
     <use transform="translate(181.445312 0.78125)" xlink:href="#DejaVuSans-8722"/>
     <use transform="translate(284.716797 0.78125)" xlink:href="#DejaVuSans-48"/>
     <use transform="translate(348.339844 0.78125)" xlink:href="#DejaVuSans-46"/>
     <use transform="translate(380.126953 0.78125)" xlink:href="#DejaVuSans-48"/>
     <use transform="translate(443.75 0.78125)" xlink:href="#DejaVuSans-50"/>
     <use transform="translate(507.373047 0.78125)" xlink:href="#DejaVuSans-49"/>
     <use transform="translate(570.996094 0.78125)" xlink:href="#DejaVuSans-50"/>
     <use transform="translate(654.101562 0.78125)" xlink:href="#DejaVuSans-42"/>
     <use transform="translate(723.583984 0.78125)" xlink:href="#DejaVuSans-Oblique-76"/>
     <use transform="translate(798.779297 0.78125)" xlink:href="#DejaVuSans-43"/>
     <use transform="translate(902.050781 0.78125)" xlink:href="#DejaVuSans-49"/>
     <use transform="translate(965.673828 0.78125)" xlink:href="#DejaVuSans-46"/>
     <use transform="translate(994.835938 0.78125)" xlink:href="#DejaVuSans-56"/>
    </g>
   </g>
   <g id="text_20">
    <!-- 棱镜小车的位置$L$与两光路信号时间差$t$的关系 -->
    <g transform="translate(87.8 16.98)scale(0.12 -0.12)">
     <defs>
      <path d="M 83.59375 1.5625 
Q 82.421875 -4.6875 76.953125 -6.640625 
Q 71.484375 -8.59375 60.9375 -9.375 
Q 60.546875 -5.859375 57.03125 -0.390625 
Q 68.359375 -0.78125 71.484375 0 
Q 74.609375 0.78125 75.578125 3.515625 
Q 76.5625 6.25 79.6875 36.71875 
L 17.578125 36.71875 
Q 22.65625 67.96875 23.046875 81.25 
Q 28.125 80.46875 32.421875 80.078125 
Q 30.859375 75.390625 29.6875 66.796875 
L 76.5625 66.796875 
Q 84.375 66.796875 90.625 67.1875 
L 90.625 59.765625 
Q 84.375 60.15625 77.34375 60.15625 
L 28.90625 60.15625 
L 26.5625 42.96875 
L 88.671875 42.96875 
Q 87.890625 38.28125 87.109375 32.03125 
z
M 57.421875 21.09375 
Q 64.453125 21.09375 70.3125 21.484375 
L 70.3125 13.671875 
Q 64.453125 14.0625 60.15625 14.0625 
L 22.65625 14.0625 
Q 15.625 14.0625 7.8125 13.671875 
L 7.8125 21.484375 
Q 15.625 21.09375 22.65625 21.09375 
z
" id="SimHei-19982"/>
      <path d="M 26.5625 12.890625 
Q 24.609375 15.234375 20.703125 18.359375 
Q 31.640625 28.90625 35.15625 48.046875 
L 18.359375 48.046875 
L 18.359375 -7.8125 
L 10.546875 -7.8125 
Q 10.9375 2.734375 10.9375 10.546875 
L 10.9375 41.40625 
Q 10.9375 46.484375 10.546875 54.6875 
L 35.9375 54.6875 
Q 36.328125 61.328125 36.71875 69.921875 
L 17.578125 69.921875 
Q 12.890625 69.921875 8.203125 69.53125 
L 8.203125 76.5625 
Q 12.890625 76.171875 17.1875 76.171875 
L 82.03125 76.171875 
Q 85.9375 76.171875 93.359375 76.5625 
L 93.359375 69.53125 
Q 87.890625 69.921875 82.421875 69.921875 
L 67.1875 69.921875 
Q 67.1875 64.0625 66.40625 54.6875 
L 89.84375 54.6875 
Q 89.453125 47.65625 89.453125 42.578125 
L 89.453125 3.90625 
Q 89.453125 -2.734375 85.34375 -4.6875 
Q 81.25 -6.640625 69.921875 -7.8125 
Q 68.75 -2.34375 66.015625 1.171875 
Q 77.734375 0.78125 79.875 1.953125 
Q 82.03125 3.125 82.03125 7.8125 
L 82.03125 48.046875 
L 65.625 48.046875 
Q 64.84375 41.40625 63.28125 35.546875 
Q 74.21875 26.953125 80.078125 21.875 
Q 76.5625 18.75 74.21875 15.625 
Q 70.3125 20.703125 61.71875 28.125 
Q 56.640625 15.625 50.78125 7.421875 
Q 46.875 10.15625 43.359375 11.328125 
Q 48.046875 16.40625 52.34375 25.578125 
Q 56.640625 34.765625 58.203125 48.046875 
L 42.578125 48.046875 
Q 41.40625 42.1875 40.234375 37.890625 
Q 48.046875 31.25 51.171875 27.34375 
Q 48.4375 25 45.3125 21.875 
Q 41.015625 28.125 37.890625 31.25 
Q 33.59375 21.09375 26.5625 12.890625 
z
M 58.984375 54.6875 
Q 59.375 64.0625 59.375 69.921875 
L 44.140625 69.921875 
Q 44.140625 64.0625 43.359375 54.6875 
z
" id="SimHei-20004"/>
      <path d="M 94.53125 35.9375 
Q 90.234375 36.328125 80.46875 36.328125 
L 63.28125 36.328125 
L 63.28125 6.25 
Q 63.28125 0.78125 69.140625 0.78125 
L 77.734375 0.78125 
Q 82.8125 0.78125 83.984375 3.3125 
Q 85.15625 5.859375 85.9375 13.28125 
Q 89.84375 9.765625 95.3125 8.203125 
Q 93.75 2.734375 91.203125 -1.5625 
Q 88.671875 -5.859375 83.203125 -5.859375 
L 64.0625 -5.859375 
Q 55.46875 -5.859375 55.46875 2.734375 
L 55.46875 36.328125 
L 43.359375 36.328125 
Q 44.140625 1.953125 8.984375 -8.984375 
Q 6.25 -4.296875 3.515625 -0.78125 
Q 19.140625 2.34375 27.140625 10.734375 
Q 35.15625 19.140625 35.546875 36.328125 
L 22.65625 36.328125 
Q 9.765625 36.328125 5.859375 35.9375 
L 5.859375 43.359375 
Q 9.765625 42.96875 22.265625 42.96875 
L 46.09375 42.96875 
L 46.09375 67.1875 
Q 46.09375 74.21875 45.703125 80.46875 
L 55.078125 80.46875 
Q 54.296875 76.5625 54.296875 67.1875 
L 54.296875 42.96875 
L 80.46875 42.96875 
Q 89.453125 42.96875 94.53125 43.359375 
z
M 64.0625 51.953125 
Q 73.4375 63.28125 76.171875 71.484375 
Q 81.25 68.359375 85.546875 66.796875 
Q 82.8125 64.0625 79.296875 58.78125 
Q 75.78125 53.515625 71.484375 47.65625 
Q 67.1875 50 64.0625 51.953125 
z
M 27.734375 46.875 
Q 25 52.734375 16.015625 64.84375 
Q 19.921875 67.1875 24.21875 69.53125 
Q 28.125 64.0625 30.65625 60.15625 
Q 33.203125 56.25 35.9375 51.5625 
Q 31.640625 49.609375 27.734375 46.875 
z
" id="SimHei-20809"/>
      <path d="M 45.3125 6.640625 
Q 19.140625 -1.171875 7.421875 -5.46875 
Q 6.640625 -2.34375 4.296875 1.953125 
Q 8.203125 2.34375 10.9375 3.515625 
L 10.9375 28.125 
Q 10.9375 31.25 10.546875 36.328125 
L 17.96875 36.328125 
Q 17.578125 32.8125 17.578125 26.171875 
L 17.578125 5.078125 
Q 20.3125 5.859375 24.21875 7.03125 
L 24.21875 46.484375 
L 11.328125 46.484375 
Q 11.71875 50.390625 11.71875 60.15625 
Q 11.71875 70.3125 11.328125 74.21875 
L 41.40625 74.21875 
Q 41.015625 69.921875 41.015625 60.15625 
Q 41.015625 50.78125 41.40625 46.484375 
L 30.859375 46.484375 
L 30.859375 32.421875 
Q 35.546875 32.421875 40.625 32.8125 
L 40.625 25.78125 
Q 35.546875 26.171875 30.859375 26.171875 
L 30.859375 8.59375 
Q 34.375 9.375 45.3125 13.671875 
Q 44.921875 10.546875 45.3125 6.640625 
z
M 66.015625 78.515625 
Q 63.671875 75.78125 61.328125 71.09375 
L 89.84375 71.09375 
Q 87.109375 64.453125 82.609375 57.03125 
Q 78.125 49.609375 74.21875 44.53125 
Q 83.203125 37.5 96.875 34.375 
Q 93.75 30.46875 92.1875 27.34375 
Q 87.5 29.296875 81.25 32.609375 
Q 75 35.9375 69.921875 39.84375 
Q 64.84375 35.9375 58.78125 32.8125 
Q 52.734375 29.6875 45.703125 26.5625 
Q 44.140625 30.078125 41.40625 33.203125 
Q 46.484375 34.375 53.125 37.109375 
Q 59.765625 39.84375 64.84375 44.140625 
Q 60.9375 48.046875 53.515625 57.03125 
Q 50.78125 52.34375 48.4375 49.21875 
Q 46.09375 51.5625 42.578125 53.515625 
Q 46.875 57.421875 51.171875 65.421875 
Q 55.46875 73.4375 57.8125 81.640625 
Q 62.109375 78.90625 66.015625 78.515625 
z
M 86.328125 28.125 
Q 85.9375 23.046875 85.9375 10.15625 
Q 85.9375 -2.34375 86.328125 -8.203125 
L 78.90625 -8.203125 
L 78.90625 -0.78125 
L 56.640625 -0.78125 
L 56.640625 -8.59375 
L 49.609375 -8.59375 
Q 50 -1.953125 50 10.15625 
Q 50 22.65625 49.609375 28.125 
L 86.328125 28.125 
z
M 78.90625 5.078125 
L 78.90625 21.875 
L 56.640625 21.875 
L 56.640625 5.078125 
z
M 34.375 52.34375 
L 34.375 68.359375 
L 18.359375 68.359375 
L 18.359375 52.34375 
z
M 57.03125 62.5 
Q 61.71875 55.46875 69.140625 48.828125 
Q 71.484375 51.171875 74.609375 56.4375 
Q 77.734375 61.71875 79.296875 65.234375 
L 58.59375 65.234375 
L 57.03125 62.5 
z
" id="SimHei-36335"/>
      <path d="M 73.046875 75.78125 
Q 70.703125 73.046875 68.15625 68.359375 
Q 65.625 63.671875 63.671875 59.765625 
L 72.265625 59.765625 
Q 80.46875 59.765625 86.71875 60.15625 
L 86.71875 52.734375 
Q 81.640625 53.125 73.4375 53.125 
L 53.125 53.125 
L 53.125 33.59375 
L 77.734375 33.59375 
Q 85.546875 33.59375 91.796875 33.984375 
L 91.796875 26.5625 
Q 85.546875 26.953125 78.515625 26.953125 
L 54.6875 26.953125 
Q 66.40625 7.03125 93.75 1.171875 
Q 90.234375 -2.734375 87.5 -8.203125 
Q 62.890625 0 50.390625 20.3125 
Q 43.75 3.125 13.671875 -9.375 
Q 12.109375 -5.46875 7.8125 -2.34375 
Q 37.890625 5.859375 44.921875 26.953125 
L 24.21875 26.953125 
Q 15.234375 26.953125 9.375 26.5625 
L 9.375 33.59375 
Q 13.671875 33.203125 22.65625 33.203125 
L 45.703125 33.203125 
L 45.703125 53.125 
L 27.34375 53.125 
Q 19.921875 53.125 14.0625 52.734375 
L 14.0625 60.15625 
Q 19.921875 59.765625 27.734375 59.765625 
L 55.859375 59.765625 
Q 61.328125 72.265625 63.671875 80.46875 
Q 67.578125 78.125 73.046875 75.78125 
z
M 33.203125 80.078125 
Q 38.28125 73.828125 43.75 65.234375 
Q 39.0625 62.890625 36.328125 60.546875 
Q 31.640625 69.53125 26.953125 75.390625 
Q 30.46875 77.734375 33.203125 80.078125 
z
" id="SimHei-20851"/>
      <path d="M 82.8125 81.25 
Q 85.15625 77.34375 89.453125 73.046875 
Q 77.734375 72.65625 69.328125 71.671875 
Q 60.9375 70.703125 48.828125 69.53125 
Q 50.78125 67.578125 54.296875 66.015625 
Q 49.21875 62.890625 44.328125 58.78125 
Q 39.453125 54.6875 34.765625 51.171875 
L 54.296875 51.171875 
Q 64.0625 57.8125 70.703125 63.28125 
Q 74.609375 60.15625 80.078125 57.8125 
Q 74.609375 55.46875 69.53125 52.734375 
Q 64.453125 50 52.921875 42.765625 
Q 41.40625 35.546875 33.203125 30.859375 
Q 56.25 32.03125 76.171875 32.8125 
Q 74.21875 34.765625 66.015625 41.015625 
Q 69.921875 42.578125 72.65625 44.921875 
Q 77.34375 41.40625 83.390625 36.125 
Q 89.453125 30.859375 94.921875 25.78125 
Q 90.234375 23.046875 87.5 20.703125 
Q 84.375 24.609375 81.640625 26.953125 
Q 71.09375 26.5625 56.640625 25.78125 
L 56.640625 2.34375 
Q 56.640625 -5.078125 52.921875 -6.4375 
Q 49.21875 -7.8125 39.453125 -9.375 
Q 38.671875 -4.6875 35.9375 -0.390625 
Q 44.921875 -0.390625 47.0625 0.1875 
Q 49.21875 0.78125 49.21875 4.6875 
L 49.21875 25.78125 
Q 25.390625 25.390625 16.796875 23.828125 
Q 15.625 27.734375 14.0625 32.03125 
Q 22.65625 32.8125 29.296875 35.9375 
Q 35.9375 39.0625 45.3125 45.3125 
Q 36.328125 45.3125 31.828125 44.921875 
Q 27.34375 44.53125 21.875 43.75 
Q 20.703125 48.046875 19.53125 51.953125 
Q 26.171875 51.953125 32.8125 57.21875 
Q 39.453125 62.5 42.96875 68.75 
Q 21.09375 67.96875 14.453125 67.1875 
Q 13.28125 71.09375 11.71875 74.21875 
Q 33.59375 74.21875 50.78125 75.78125 
Q 67.96875 77.34375 82.8125 81.25 
z
M 72.265625 19.53125 
Q 76.953125 16.015625 83.203125 11.515625 
Q 89.453125 7.03125 93.75 2.734375 
Q 90.625 0 87.5 -3.515625 
Q 82.421875 1.953125 76.953125 6.25 
Q 71.484375 10.546875 66.796875 13.671875 
Q 70.3125 16.40625 72.265625 19.53125 
z
M 34.375 13.671875 
Q 29.6875 11.328125 24.015625 5.859375 
Q 18.359375 0.390625 12.5 -4.6875 
Q 8.984375 -1.171875 5.859375 0.390625 
Q 16.796875 7.03125 26.171875 19.140625 
Q 29.6875 16.40625 34.375 13.671875 
z
" id="SimHei-31995"/>
     </defs>
     <use transform="translate(0 0.1875)" xlink:href="#SimHei-26865"/>
     <use transform="translate(100 0.1875)" xlink:href="#SimHei-38236"/>
     <use transform="translate(200 0.1875)" xlink:href="#SimHei-23567"/>
     <use transform="translate(300 0.1875)" xlink:href="#SimHei-36710"/>
     <use transform="translate(400 0.1875)" xlink:href="#SimHei-30340"/>
     <use transform="translate(500 0.1875)" xlink:href="#SimHei-20301"/>
     <use transform="translate(600 0.1875)" xlink:href="#SimHei-32622"/>
     <use transform="translate(700 0.1875)" xlink:href="#DejaVuSans-Oblique-76"/>
     <use transform="translate(755.712891 0.1875)" xlink:href="#SimHei-19982"/>
     <use transform="translate(855.712891 0.1875)" xlink:href="#SimHei-20004"/>
     <use transform="translate(955.712891 0.1875)" xlink:href="#SimHei-20809"/>
     <use transform="translate(1055.712891 0.1875)" xlink:href="#SimHei-36335"/>
     <use transform="translate(1155.712891 0.1875)" xlink:href="#SimHei-20449"/>
     <use transform="translate(1255.712891 0.1875)" xlink:href="#SimHei-21495"/>
     <use transform="translate(1355.712891 0.1875)" xlink:href="#SimHei-26102"/>
     <use transform="translate(1455.712891 0.1875)" xlink:href="#SimHei-38388"/>
     <use transform="translate(1555.712891 0.1875)" xlink:href="#SimHei-24046"/>
     <use transform="translate(1655.712891 0.1875)" xlink:href="#DejaVuSans-Oblique-116"/>
     <use transform="translate(1694.921875 0.1875)" xlink:href="#SimHei-30340"/>
     <use transform="translate(1794.921875 0.1875)" xlink:href="#SimHei-20851"/>
     <use transform="translate(1894.921875 0.1875)" xlink:href="#SimHei-31995"/>
    </g>
   </g>
   <g id="legend_1">
    <g id="patch_7">
     <path d="M 295.9 59.4175 
L 367.9 59.4175 
Q 369.9 59.4175 369.9 57.4175 
L 369.9 29.98 
Q 369.9 27.98 367.9 27.98 
L 295.9 27.98 
Q 293.9 27.98 293.9 29.98 
L 293.9 57.4175 
Q 293.9 59.4175 295.9 59.4175 
z
" style="fill:#ffffff;opacity:0.8;stroke:#cccccc;stroke-linejoin:miter;"/>
    </g>
    <g id="line2d_35">
     <path d="M 297.9 36.409687 
L 317.9 36.409687 
" style="fill:none;stroke:#1f77b4;stroke-linecap:square;stroke-width:1.5;"/>
    </g>
    <g id="line2d_36"/>
    <g id="text_21">
     <!-- 拟合结果 -->
     <g transform="translate(325.9 39.909687)scale(0.1 -0.1)">
      <defs>
       <path d="M 26.171875 1.953125 
Q 26.171875 -2.734375 23.4375 -4.296875 
Q 20.703125 -5.859375 12.5 -7.8125 
Q 11.71875 -3.515625 8.984375 0 
Q 19.140625 0.390625 19.140625 4.296875 
L 19.140625 29.296875 
Q 10.9375 25.390625 7.421875 23.4375 
Q 5.859375 28.125 3.90625 30.859375 
Q 8.203125 32.03125 19.140625 36.328125 
L 19.140625 55.46875 
Q 11.328125 55.46875 5.46875 55.078125 
L 5.46875 62.5 
Q 10.9375 61.71875 19.140625 61.71875 
Q 19.140625 72.265625 18.75 81.640625 
L 26.953125 81.640625 
Q 26.171875 71.09375 26.171875 61.71875 
Q 31.640625 61.71875 36.328125 62.109375 
L 36.328125 55.078125 
Q 30.859375 55.46875 26.171875 55.46875 
L 26.171875 38.671875 
Q 33.59375 41.796875 35.9375 43.75 
Q 35.9375 39.84375 36.328125 36.328125 
Q 33.203125 35.15625 26.171875 32.03125 
z
M 77.34375 78.90625 
Q 82.421875 78.515625 85.9375 78.125 
Q 84.765625 72.65625 85.15625 52.140625 
Q 85.546875 31.640625 82.03125 19.921875 
Q 91.40625 8.59375 96.875 -0.78125 
Q 93.359375 -3.515625 90.234375 -6.25 
Q 86.328125 1.5625 78.90625 12.5 
Q 75 7.03125 69.328125 1.75 
Q 63.671875 -3.515625 51.953125 -10.15625 
Q 49.609375 -7.03125 45.703125 -3.90625 
Q 53.515625 -0.390625 60.9375 5.078125 
Q 68.359375 10.546875 72.0625 16.40625 
Q 75.78125 22.265625 76.953125 33.59375 
Q 78.125 44.921875 77.34375 78.90625 
z
M 39.0625 10.9375 
Q 41.796875 13.671875 41.796875 18.75 
L 41.796875 54.296875 
Q 41.796875 61.328125 41.40625 68.75 
L 49.609375 68.75 
Q 48.828125 62.109375 48.828125 54.6875 
L 48.828125 18.359375 
Q 58.984375 28.90625 63.28125 34.375 
Q 64.84375 30.078125 67.1875 26.953125 
Q 62.890625 23.4375 45.3125 4.6875 
L 39.0625 10.9375 
z
M 59.375 79.6875 
Q 68.359375 62.890625 71.484375 55.46875 
Q 66.40625 53.125 64.0625 51.5625 
Q 60.15625 60.546875 52.734375 76.171875 
Q 55.859375 77.34375 59.375 79.6875 
z
" id="SimHei-25311"/>
       <path d="M 78.90625 28.125 
Q 78.515625 24.21875 78.515625 10.15625 
Q 78.515625 -3.90625 78.90625 -8.203125 
L 70.703125 -8.203125 
L 70.703125 -0.78125 
L 27.34375 -0.78125 
L 27.34375 -9.375 
L 19.53125 -9.375 
Q 19.921875 -4.6875 19.921875 8.59375 
Q 19.921875 22.265625 19.53125 28.125 
L 78.90625 28.125 
z
M 52.734375 75 
Q 64.0625 61.328125 71.09375 56.25 
Q 78.125 51.171875 83.984375 48.4375 
Q 89.84375 45.703125 95.3125 44.140625 
Q 91.40625 39.84375 90.234375 35.9375 
Q 82.421875 39.453125 76.171875 43.359375 
Q 69.921875 47.265625 63.46875 53.3125 
Q 57.03125 59.375 48.828125 69.921875 
Q 41.40625 59.375 34.171875 52.53125 
Q 26.953125 45.703125 21.875 41.796875 
Q 16.796875 37.890625 10.546875 33.984375 
Q 9.765625 35.546875 4.296875 40.234375 
Q 12.5 44.140625 19.921875 49.609375 
Q 27.34375 55.078125 34.765625 63.46875 
Q 42.1875 71.875 46.875 81.640625 
Q 51.171875 78.90625 54.6875 77.34375 
z
M 70.703125 5.46875 
L 70.703125 21.875 
L 27.34375 21.875 
L 27.34375 5.46875 
z
M 61.328125 44.140625 
Q 67.578125 44.140625 72.265625 44.53125 
L 72.265625 37.109375 
Q 67.1875 37.5 61.71875 37.5 
L 39.84375 37.5 
Q 31.640625 37.5 26.5625 37.109375 
L 26.5625 44.53125 
Q 33.984375 44.140625 39.84375 44.140625 
z
" id="SimHei-21512"/>
       <path d="M 89.453125 30.078125 
Q 89.0625 25 89.0625 18.75 
L 89.0625 5.46875 
Q 89.0625 -1.953125 89.453125 -7.421875 
L 81.640625 -7.421875 
L 81.640625 0 
L 55.078125 0 
L 55.078125 -8.203125 
L 47.265625 -8.203125 
Q 47.65625 1.953125 47.65625 5.078125 
L 47.65625 19.53125 
Q 47.65625 24.21875 47.265625 30.078125 
L 89.453125 30.078125 
z
M 29.6875 75.78125 
Q 26.5625 71.875 23.046875 65.625 
Q 19.53125 59.375 14.453125 50 
Q 23.046875 50.390625 26.953125 50.390625 
Q 30.46875 56.640625 32.8125 62.5 
Q 36.71875 59.765625 41.40625 57.421875 
Q 39.453125 55.859375 34.5625 48.828125 
Q 29.6875 41.796875 19.140625 25.78125 
Q 32.03125 27.734375 39.453125 28.90625 
Q 38.28125 24.609375 38.28125 21.484375 
Q 34.765625 21.09375 25.78125 19.921875 
Q 16.796875 18.75 8.203125 16.40625 
Q 6.640625 20.3125 5.46875 24.21875 
Q 10.15625 25.390625 14.84375 31.4375 
Q 19.53125 37.5 23.046875 44.140625 
Q 20.3125 44.140625 15.03125 43.546875 
Q 9.765625 42.96875 5.859375 41.796875 
Q 4.6875 45.703125 3.515625 49.21875 
Q 7.8125 52.734375 12.6875 61.328125 
Q 17.578125 69.921875 20.3125 80.078125 
Q 25 77.734375 29.6875 75.78125 
z
M 63.671875 65.234375 
Q 63.671875 71.875 63.28125 80.859375 
L 71.484375 80.859375 
Q 71.09375 73.828125 71.09375 65.234375 
L 82.421875 65.234375 
Q 89.84375 65.234375 96.09375 65.625 
L 96.09375 58.59375 
Q 89.84375 58.984375 82.8125 58.984375 
L 71.09375 58.984375 
L 71.09375 46.09375 
L 80.078125 46.09375 
Q 85.546875 46.09375 91.015625 46.484375 
L 91.015625 39.453125 
Q 86.328125 39.84375 79.6875 39.84375 
L 57.03125 39.84375 
Q 50.390625 39.84375 45.3125 39.453125 
L 45.3125 46.484375 
Q 50.390625 46.09375 56.25 46.09375 
L 63.671875 46.09375 
L 63.671875 58.984375 
L 55.078125 58.984375 
Q 48.046875 58.984375 41.796875 58.59375 
L 41.796875 65.625 
Q 46.875 65.234375 54.296875 65.234375 
z
M 81.640625 6.25 
L 81.640625 23.828125 
L 55.078125 23.828125 
L 55.078125 6.25 
z
M 40.234375 10.15625 
Q 39.0625 6.640625 39.453125 2.734375 
Q 32.03125 1.5625 22.65625 0 
Q 13.28125 -1.5625 6.640625 -3.515625 
Q 5.078125 1.5625 3.515625 5.46875 
Q 11.71875 5.859375 18.359375 6.828125 
Q 25 7.8125 40.234375 10.15625 
z
" id="SimHei-32467"/>
       <path d="M 46.484375 -8.203125 
Q 46.875 -1.171875 46.875 8.984375 
L 46.875 25 
L 45.3125 25 
Q 42.578125 19.921875 39.0625 15.625 
Q 35.546875 11.328125 31.046875 8 
Q 26.5625 4.6875 21.28125 1.5625 
Q 16.015625 -1.5625 10.546875 -3.90625 
Q 8.984375 0.390625 6.25 4.296875 
Q 10.9375 5.46875 15.234375 7.609375 
Q 19.53125 9.765625 23.828125 12.296875 
Q 28.125 14.84375 31.25 17.96875 
Q 34.375 21.09375 37.109375 25 
L 21.484375 25 
Q 15.625 25 7.03125 24.21875 
L 7.03125 32.03125 
Q 14.84375 31.25 21.484375 31.25 
L 46.875 31.25 
L 46.875 38.28125 
L 17.96875 38.28125 
Q 18.359375 47.65625 18.359375 58.984375 
Q 18.359375 70.3125 17.96875 78.125 
L 83.203125 78.125 
Q 82.8125 70.3125 82.8125 58.984375 
Q 82.8125 47.65625 83.203125 38.28125 
L 54.296875 38.28125 
L 54.296875 31.25 
L 78.90625 31.25 
Q 86.71875 31.25 92.578125 31.640625 
L 92.578125 24.21875 
Q 85.9375 25 79.6875 25 
L 64.453125 25 
Q 69.53125 16.796875 76.953125 12.5 
Q 84.375 8.203125 94.53125 5.859375 
Q 91.796875 2.34375 90.234375 -2.734375 
Q 76.953125 2.34375 69.140625 8.59375 
Q 61.328125 14.84375 57.421875 25 
L 54.296875 25 
L 54.296875 8.59375 
Q 54.296875 0 54.6875 -8.203125 
z
M 75.390625 60.546875 
L 75.390625 72.265625 
L 54.296875 72.265625 
L 54.296875 60.546875 
z
M 46.875 60.546875 
L 46.875 72.265625 
L 26.171875 72.265625 
L 26.171875 60.546875 
z
M 75.390625 44.140625 
L 75.390625 54.6875 
L 54.296875 54.6875 
L 54.296875 44.140625 
z
M 46.875 44.140625 
L 46.875 54.6875 
L 26.171875 54.6875 
L 26.171875 44.140625 
z
" id="SimHei-26524"/>
      </defs>
      <use xlink:href="#SimHei-25311"/>
      <use x="100" xlink:href="#SimHei-21512"/>
      <use x="200" xlink:href="#SimHei-32467"/>
      <use x="300" xlink:href="#SimHei-26524"/>
     </g>
    </g>
    <g id="line2d_37"/>
    <g id="line2d_38">
     <g>
      <use style="fill:#ff7f0e;stroke:#ff7f0e;" x="307.9" xlink:href="#mda9caf388d" y="50.6675"/>
     </g>
    </g>
    <g id="text_22">
     <!-- 实验值 -->
     <g transform="translate(325.9 54.1675)scale(0.1 -0.1)">
      <defs>
       <path d="M 64.453125 54.6875 
Q 63.28125 50 62.5 41.796875 
Q 61.71875 33.59375 60.15625 24.21875 
L 78.515625 24.21875 
Q 85.546875 24.21875 93.359375 24.609375 
L 93.359375 17.1875 
Q 85.15625 17.578125 78.125 17.578125 
L 58.203125 17.578125 
Q 54.6875 9.765625 47.65625 3.90625 
Q 40.625 -1.953125 31.25 -5.265625 
Q 21.875 -8.59375 14.453125 -10.546875 
Q 12.890625 -5.859375 7.8125 -3.125 
Q 19.140625 -1.953125 32.03125 3.3125 
Q 44.921875 8.59375 50 17.578125 
L 22.265625 17.578125 
Q 15.234375 17.578125 6.640625 17.1875 
L 6.640625 24.609375 
Q 15.625 24.21875 22.265625 24.21875 
L 52.734375 24.21875 
Q 53.90625 30.859375 54.484375 38.46875 
Q 55.078125 46.09375 54.6875 57.03125 
Q 59.375 55.46875 64.453125 54.6875 
z
M 50.78125 82.03125 
Q 53.90625 75.78125 56.25 68.359375 
L 90.234375 68.359375 
Q 89.84375 64.0625 89.84375 59.765625 
Q 89.84375 55.859375 90.234375 51.171875 
L 81.25 51.171875 
L 81.25 62.109375 
L 19.140625 62.109375 
L 19.140625 50.390625 
L 10.546875 50.390625 
Q 10.9375 55.078125 10.9375 59.375 
Q 10.9375 64.0625 10.546875 68.359375 
L 46.484375 68.359375 
Q 45.3125 73.046875 42.1875 79.296875 
Q 45.3125 80.46875 50.78125 82.03125 
z
M 62.5 12.890625 
Q 71.09375 8.203125 78.90625 4.09375 
Q 86.71875 0 92.578125 -3.515625 
Q 89.84375 -6.640625 86.71875 -10.15625 
Q 79.6875 -5.078125 71.484375 -0.578125 
Q 63.28125 3.90625 57.421875 6.25 
Q 60.546875 10.15625 62.5 12.890625 
z
M 18.359375 42.96875 
Q 25 39.84375 36.71875 32.03125 
Q 35.15625 29.6875 32.03125 25.78125 
Q 21.09375 33.984375 14.453125 36.71875 
Q 16.796875 39.0625 18.359375 42.96875 
z
M 49.21875 44.140625 
Q 46.484375 41.015625 44.53125 37.890625 
Q 32.03125 46.875 26.171875 48.828125 
Q 28.125 51.5625 30.46875 55.078125 
z
" id="SimHei-23454"/>
       <path d="M 35.9375 73.828125 
Q 35.15625 70.3125 34.765625 63.671875 
L 32.03125 33.203125 
L 39.453125 33.203125 
Q 39.0625 30.078125 38.671875 22.65625 
L 37.109375 1.171875 
Q 37.109375 -7.03125 32.421875 -8.203125 
Q 27.734375 -9.375 19.53125 -10.546875 
Q 18.359375 -5.078125 16.40625 -1.5625 
Q 24.609375 -1.5625 27.140625 -1.359375 
Q 29.6875 -1.171875 30.46875 2.34375 
L 31.640625 26.5625 
L 8.59375 26.5625 
Q 8.984375 33.984375 9.171875 42.765625 
Q 9.375 51.5625 9.375 59.375 
L 17.1875 59.375 
Q 16.40625 55.078125 16.015625 48.234375 
Q 15.625 41.40625 15.625 33.203125 
L 25.390625 33.203125 
L 28.125 67.578125 
L 17.578125 67.578125 
Q 11.328125 67.578125 5.46875 67.1875 
L 5.46875 74.21875 
Q 11.328125 73.828125 17.578125 73.828125 
z
M 67.578125 76.171875 
Q 73.828125 64.453125 80.46875 58.984375 
Q 87.109375 53.515625 96.09375 50.390625 
Q 92.578125 47.265625 90.625 42.578125 
Q 85.15625 45.703125 80.078125 50 
L 80.078125 43.359375 
Q 75 43.75 65.625 43.75 
Q 56.25 43.75 50.390625 43.359375 
L 50.390625 49.609375 
Q 48.046875 46.484375 43.75 41.40625 
Q 40.234375 44.921875 36.328125 46.875 
Q 42.578125 51.171875 45.890625 55.46875 
Q 49.21875 59.765625 51.75 64.453125 
Q 54.296875 69.140625 56.046875 73.046875 
Q 57.8125 76.953125 58.984375 81.640625 
Q 64.0625 80.46875 69.53125 79.296875 
z
M 87.5 33.59375 
Q 85.546875 31.25 84.375 27.140625 
Q 83.203125 23.046875 80.65625 14.25 
Q 78.125 5.46875 76.5625 0.390625 
L 82.03125 0.390625 
Q 84.765625 0.390625 90.625 0.78125 
L 90.625 -6.25 
Q 85.546875 -5.859375 82.03125 -5.859375 
L 51.953125 -5.859375 
Q 44.921875 -5.859375 41.796875 -6.25 
L 41.796875 0.78125 
Q 46.484375 0.390625 52.34375 0.390625 
L 69.921875 0.390625 
Q 73.046875 8.984375 75 17.96875 
L 78.90625 35.9375 
Q 82.03125 34.765625 87.5 33.59375 
z
M 79.6875 50.390625 
Q 75 53.90625 71.09375 58.984375 
Q 67.1875 64.0625 63.28125 71.875 
Q 60.15625 65.625 57.609375 61.125 
Q 55.078125 56.640625 50.78125 50.390625 
z
M 50.78125 33.984375 
Q 52.34375 28.515625 54.09375 21.484375 
Q 55.859375 14.453125 57.421875 8.59375 
Q 53.90625 8.203125 50.78125 6.640625 
Q 49.609375 14.0625 48.234375 19.140625 
Q 46.875 24.21875 44.53125 32.03125 
Q 47.65625 33.203125 50.78125 33.984375 
z
M 27.734375 17.578125 
Q 27.34375 14.84375 26.953125 10.9375 
Q 21.09375 9.765625 17.375 8.984375 
Q 13.671875 8.203125 5.859375 5.859375 
Q 4.6875 10.15625 3.125 14.453125 
Q 8.59375 14.84375 14.453125 15.625 
Q 20.3125 16.40625 27.734375 17.578125 
z
M 67.1875 25.78125 
Q 67.96875 20.703125 69.140625 12.890625 
L 62.890625 11.328125 
Q 61.328125 19.921875 60.546875 24.40625 
Q 59.765625 28.90625 58.59375 34.765625 
Q 62.109375 35.546875 65.625 35.9375 
z
" id="SimHei-39564"/>
       <path d="M 57.421875 69.53125 
L 57.421875 79.6875 
Q 62.109375 79.296875 67.96875 78.90625 
Q 66.015625 76.171875 65.625 69.53125 
L 80.078125 69.53125 
Q 86.71875 69.53125 91.796875 69.921875 
L 91.796875 62.890625 
Q 86.328125 63.28125 80.078125 63.28125 
L 65.234375 63.28125 
L 64.453125 54.6875 
L 84.375 54.6875 
Q 83.984375 50 83.984375 42.1875 
L 83.984375 2.34375 
Q 91.796875 2.34375 95.3125 2.734375 
L 95.3125 -4.296875 
Q 90.234375 -3.90625 81.25 -3.90625 
L 44.53125 -3.90625 
Q 35.546875 -3.90625 29.6875 -4.296875 
L 29.6875 2.734375 
Q 33.203125 2.34375 40.625 2.34375 
L 40.625 42.1875 
Q 40.625 49.609375 40.234375 54.6875 
L 56.25 54.6875 
L 57.03125 63.28125 
L 50 63.28125 
Q 40.234375 63.28125 34.765625 62.890625 
L 34.765625 69.921875 
Q 39.84375 69.53125 50 69.53125 
z
M 34.765625 76.5625 
Q 31.640625 73.046875 25.78125 58.59375 
L 25.78125 7.03125 
Q 25.78125 -1.171875 26.171875 -8.59375 
L 17.96875 -8.59375 
Q 18.359375 -1.953125 18.359375 5.859375 
L 18.359375 46.09375 
Q 13.671875 38.28125 9.765625 33.59375 
Q 6.640625 37.890625 3.90625 40.234375 
Q 7.8125 44.140625 14.640625 55.265625 
Q 21.484375 66.40625 25.390625 80.46875 
Q 30.859375 77.734375 34.765625 76.5625 
z
M 76.953125 41.40625 
L 76.953125 49.21875 
L 48.046875 49.21875 
L 48.046875 41.40625 
z
M 76.953125 2.34375 
L 76.953125 9.765625 
L 48.046875 9.765625 
L 48.046875 2.34375 
z
M 76.953125 15.625 
L 76.953125 22.65625 
L 48.046875 22.65625 
L 48.046875 15.625 
z
M 76.953125 28.515625 
L 76.953125 35.546875 
L 48.046875 35.546875 
L 48.046875 28.515625 
z
" id="SimHei-20540"/>
      </defs>
      <use xlink:href="#SimHei-23454"/>
      <use x="100" xlink:href="#SimHei-39564"/>
      <use x="200" xlink:href="#SimHei-20540"/>
     </g>
    </g>
   </g>
  </g>
 </g>
 <defs>
  <clipPath id="pd122658b08">
   <rect height="217.44" width="334.8" x="40.1" y="22.98"/>
  </clipPath>
 </defs>
</svg>
